<svg width="150" height="150" viewBox="0 0 50 50" fill="none" xmlns="http://www.w3.org/2000/svg">
<g clip-path="url(#clip0_1_9)">
<path d="M47 0H3C1.34315 0 0 1.34315 0 3V47C0 48.6569 1.34315 50 3 50H47C48.6569 50 50 48.6569 50 47V3C50 1.34315 48.6569 0 47 0Z" fill="#CACCCE"/>
<g clip-path="url(#clip1_1_9)">
<path d="M18.0616 30.0387H18.0508L18.033 30.0382L18.0475 30.0551L18.0616 30.0387ZM30.9353 14.9642V35.0358H34.7655C35.1222 35.0358 35.447 34.8845 35.6823 34.6414C35.9186 34.3997 36.0648 34.0652 36.0648 33.6965V16.304C36.0648 15.9362 35.9186 15.6008 35.6828 15.3581C35.4475 15.115 35.1227 14.9642 34.7655 14.9642H30.9353ZM30.0006 35.0358V14.9642H15.2345C14.8773 14.9642 14.552 15.115 14.3167 15.3577C14.0814 15.6003 13.9352 15.9357 13.9352 16.304V33.6965C13.9352 34.0638 14.0814 34.3987 14.3172 34.6419C14.5525 34.885 14.8778 35.0358 15.2345 35.0358H30.0006ZM27.9006 32.1039H28.2175C28.5475 31.0503 28.6323 31.0092 28.5302 30.2146C28.2817 28.2779 26.6073 27.289 26.7175 26.0822C26.8441 24.697 27.4394 24.2707 27.7389 23.0967C27.895 22.4843 28.3103 20.7279 27.9723 20.1822C27.7595 19.8381 27.288 19.7632 26.9294 19.5945C25.7472 19.0406 25.383 18.465 25.488 17.4118H23.9078C24.0128 18.465 23.6491 19.0406 22.4669 19.5945C22.1073 19.7632 21.6363 19.8381 21.423 20.1822C21.0855 20.7279 21.5008 22.4843 21.6573 23.0967C21.9569 24.2707 22.5513 24.697 22.6783 26.0822C22.7884 27.289 21.1145 28.2779 20.8656 30.2146C20.7634 31.0092 20.8478 31.0503 21.1783 32.1039H21.5139V32.3978C21.5139 32.5027 21.5973 32.5882 21.6991 32.5882H27.7159C27.8172 32.5882 27.9006 32.5027 27.9006 32.3978V32.1039ZM15.2345 14H34.7655C35.38 14 35.9392 14.26 36.3438 14.6767C36.7483 15.0942 37 15.6709 37 16.304V33.6965C37 34.3277 36.7478 34.9043 36.3428 35.3219C35.9383 35.7405 35.3795 36 34.7655 36H15.2345C14.6205 36 14.0613 35.7405 13.6562 35.3233C13.2522 34.9062 13 34.3296 13 33.6965V16.304C13 15.6704 13.2517 15.0938 13.6562 14.6767C14.0608 14.2595 14.62 14 15.2345 14ZM31.2227 16.1329H34.1725V16.8903H31.2227V16.1329ZM31.2227 18.0193H32.9294V18.7767H31.2227V18.0193ZM31.2227 33.1092H32.9294V33.8666H31.2227V33.1092ZM31.2227 31.2233H34.1725V31.9812H31.2227V31.2233ZM31.2227 29.3369H32.9294V30.0942H31.2227V29.3369ZM31.2227 27.4505H34.1725V28.2083H31.2227V27.4505ZM31.2227 25.565H32.9294V26.3224H31.2227V25.565ZM31.2227 23.6781H34.1725V24.4355H31.2227V23.6781ZM31.2227 21.7917H32.9294V22.5491H31.2227V21.7917ZM31.2227 19.9053H34.1725V20.6626H31.2227V19.9053ZM19.2597 17.6651C19.4669 17.6651 19.6347 17.8381 19.6347 18.0517C19.6347 18.2649 19.4669 18.4384 19.2597 18.4384H16.8419C16.6352 18.4384 16.4673 18.2649 16.4673 18.0517C16.4673 17.8381 16.6352 17.6651 16.8419 17.6651H19.2597ZM19.2597 31.5626C19.4669 31.5626 19.6347 31.7356 19.6347 31.9493C19.6347 32.1624 19.4669 32.3354 19.2597 32.3354H16.8419C16.6352 32.3354 16.4673 32.1624 16.4673 31.9493C16.4673 31.7356 16.6352 31.5626 16.8419 31.5626H19.2597ZM19.2963 20.2939C19.4313 20.4548 19.4139 20.6984 19.2578 20.8376C19.1022 20.9768 18.8659 20.9589 18.7309 20.7985L18.4258 20.435V29.6046L18.7309 29.2412C18.8659 29.0802 19.1022 29.0628 19.2578 29.202C19.4139 29.3412 19.4313 29.5843 19.2963 29.7458L18.3334 30.8917C18.1984 31.0527 17.9622 31.0701 17.8061 30.9309L17.7719 30.8961L16.8086 29.7806C16.6712 29.6216 16.6848 29.3775 16.8391 29.2359C16.9933 29.0938 17.23 29.1083 17.3678 29.2673L17.6763 29.6245V20.4142L17.3678 20.7714C17.23 20.9309 16.9933 20.9449 16.8391 20.8033C16.6848 20.6617 16.6712 20.4176 16.8086 20.2586L17.7709 19.1426L17.8061 19.1083C17.9622 18.9691 18.1984 18.9865 18.3334 19.1474L19.2963 20.2939ZM18.0948 20.0406L18.0475 19.9841L17.9978 20.042C18.0152 20.0396 18.0325 20.0377 18.0508 20.0377L18.0948 20.0406Z" fill="white"/>
</g>
</g>
<defs>
<clipPath id="clip0_1_9">
<rect width="50" height="50" fill="white"/>
</clipPath>
<clipPath id="clip1_1_9">
<rect width="24" height="22" fill="white" transform="translate(13 14)"/>
</clipPath>
</defs>
</svg>
