<svg width="150" height="150" viewBox="0 0 50 50" fill="none" xmlns="http://www.w3.org/2000/svg">
<g clip-path="url(#clip0_1_14)">
<path d="M47 0H3C1.34315 0 0 1.34315 0 3V47C0 48.6569 1.34315 50 3 50H47C48.6569 50 50 48.6569 50 47V3C50 1.34315 48.6569 0 47 0Z" fill="#CACCCE"/>
<g clip-path="url(#clip1_1_14)">
<path d="M25.0333 26.9L24.5667 22.9333C24.45 21.7667 23.75 20.95 22.8167 20.4833C23.5167 19.9 23.8667 19.0833 23.8667 18.15C23.9833 16.4 22.5833 15 20.8333 15C20.1958 14.9971 19.5725 15.1884 19.0463 15.5485C18.5202 15.9087 18.1163 16.4205 17.8882 17.0159C17.6602 17.6113 17.6189 18.262 17.7699 18.8814C17.9209 19.5009 18.2569 20.0596 18.7333 20.4833C17.9167 20.95 17.2167 21.8833 17.1 22.9333L16.6333 26.9C16.6333 27.25 16.75 27.7167 16.9833 27.95C17.2167 28.3 17.6833 28.4167 18.0333 28.4167H18.2667L18.5 34.7167C18.5 35.4167 19.0833 36 19.9 36H21.8833C22.5833 36 23.1667 35.4167 23.1667 34.7167L23.5167 28.4167H23.75C24.1 28.4167 24.45 28.1833 24.8 27.95C25.0333 27.7167 25.15 27.25 25.0333 26.9ZM20.8333 16.05C22 16.05 22.9333 16.9833 22.9333 18.15C22.9333 19.3167 22 20.25 20.8333 20.25C19.6667 20.25 18.7333 19.3167 18.7333 18.15C18.7333 16.9833 19.6667 16.05 20.8333 16.05ZM23.9833 27.25C23.9833 27.25 23.8667 27.3667 23.75 27.3667H22.9333C22.7 27.3667 22.4667 27.6 22.4667 27.8333L22.1167 34.6C22.1167 34.8333 22 34.95 21.7667 34.95H19.9C19.6667 34.95 19.55 34.8333 19.55 34.6L19.2 27.8333C19.2 27.6 18.9667 27.3667 18.7333 27.3667H18.0333C17.9167 27.3667 17.8 27.25 17.8 27.25C17.8 27.25 17.6833 27.1333 17.6833 26.9L18.15 22.9333C18.2667 22 19.0833 21.3 20.1333 21.3H21.5333C22.5833 21.3 23.4 22.1167 23.5167 23.05L23.9833 27.0167C24.1 27.1333 23.9833 27.25 23.9833 27.25Z" fill="white" stroke="white" stroke-width="0.25" stroke-miterlimit="10"/>
<path d="M32.9667 15H27.3667C26.9 15 26.4333 15.4667 26.4333 15.9333V34.95C26.4333 35.4167 26.9 35.8833 27.3667 35.8833H32.9667C33.4333 35.8833 33.9 35.4167 33.9 34.95V15.9333C33.9 15.4667 33.4333 15 32.9667 15ZM32.9667 35.0667H27.3667V34.3667H29.2333V33.4333H27.3667V32.5H29.2333V31.5667H27.3667V30.6333H30.1667V29.7H27.3667V28.7667H29.2333V27.8333H27.3667V26.9H29.2333V25.9667H27.3667V25.0333H30.1667V24.1H27.3667V23.1667H29.2333V22.2333H27.3667V21.3H29.2333V20.3667H27.3667V19.4333H30.1667V18.5H27.3667V17.5667H29.2333V16.6333H27.3667V15.9333H32.9667V35.0667Z" fill="white" stroke="white" stroke-width="0.1"/>
</g>
</g>
<defs>
<clipPath id="clip0_1_14">
<rect width="50" height="50" fill="white"/>
</clipPath>
<clipPath id="clip1_1_14">
<rect width="21" height="21" fill="white" transform="translate(15 15)"/>
</clipPath>
</defs>
</svg>
