<svg width="150" height="150" viewBox="0 0 50 50" fill="none" xmlns="http://www.w3.org/2000/svg">
<g clip-path="url(#clip0_1_22)">
<path d="M47 0H3C1.34315 0 0 1.34315 0 3V47C0 48.6569 1.34315 50 3 50H47C48.6569 50 50 48.6569 50 47V3C50 1.34315 48.6569 0 47 0Z" fill="#CACCCE"/>
<g clip-path="url(#clip1_1_22)">
<path d="M25.1964 14H32.5077C32.6351 14 32.7574 14.0488 32.8487 14.1361L32.8633 14.1504C32.9512 14.2397 33.0002 14.3592 33 14.4834V35.5166C32.9989 35.6415 32.9493 35.7612 32.8614 35.8514L32.8377 35.8729C32.7474 35.9537 32.6299 35.999 32.5077 36H25.1964C25.0692 35.9993 24.9471 35.9506 24.8555 35.8639L24.8318 35.8407C24.7494 35.752 24.7033 35.6366 24.7023 35.5166V14.4834C24.7033 14.3585 24.7528 14.2387 24.8409 14.1486L24.8537 14.1361C24.9455 14.0485 25.0685 13.9997 25.1964 14ZM32.0792 16.8306H28.6005V15.9246H32.0792V14.9059H25.6249V35.0941H32.0792V34.0754H30.1612V33.1694H32.0792V32.1579H28.6005V31.2627H32.0792V30.2422H30.1612V29.347H32.0792V28.3229H28.6005V27.4277H32.0792V26.4108H30.1612V25.5156H32.0792V24.4951H28.6005V23.5892H32.0792V22.5794H30.1612V21.6735H32.0792V20.6637H28.6005V19.7578H32.0792V18.7463H30.1612V17.8421H32.0792V16.8306ZM22.3758 14.0412C22.5256 14.0494 22.6666 14.1136 22.7697 14.2207C22.8728 14.3277 22.9302 14.4694 22.9302 14.6168C22.9302 14.7641 22.8728 14.9059 22.7697 15.0129C22.6666 15.12 22.5256 15.1842 22.3758 15.1924H18.5871C18.5074 15.1968 18.4276 15.1851 18.3526 15.1581C18.2776 15.1312 18.209 15.0895 18.151 15.0356C18.093 14.9817 18.0467 14.9168 18.0152 14.8448C17.9836 14.7728 17.9673 14.6952 17.9673 14.6168C17.9673 14.5384 17.9836 14.4608 18.0152 14.3888C18.0467 14.3167 18.093 14.2518 18.151 14.1979C18.209 14.1441 18.2776 14.1024 18.3526 14.0754C18.4276 14.0485 18.5074 14.0368 18.5871 14.0412H22.3758ZM22.3758 34.7485C22.5315 34.7485 22.6809 34.8093 22.791 34.9174C22.9011 35.0255 22.9629 35.1721 22.9629 35.325C22.9629 35.4779 22.9011 35.6246 22.791 35.7327C22.6809 35.8408 22.5315 35.9015 22.3758 35.9015H18.5871C18.4314 35.9015 18.2821 35.8408 18.172 35.7327C18.0619 35.6246 18 35.4779 18 35.325C18 35.1721 18.0619 35.0255 18.172 34.9174C18.2821 34.8093 18.4314 34.7485 18.5871 34.7485H22.3758ZM22.4324 17.9585C22.5274 18.0744 22.5729 18.2221 22.5593 18.3703C22.5457 18.5185 22.4741 18.6558 22.3595 18.7532C22.2449 18.8506 22.0963 18.9006 21.945 18.8926C21.7937 18.8847 21.6514 18.8194 21.5481 18.7104L21.0704 18.1733V31.832L21.5481 31.2949C21.6514 31.186 21.7937 31.1207 21.945 31.1127C22.0963 31.1048 22.2449 31.1547 22.3595 31.2522C22.4741 31.3496 22.5457 31.4869 22.5593 31.6351C22.5729 31.7833 22.5274 31.9309 22.4324 32.0469L20.9172 33.7495C20.867 33.8067 20.8057 33.8536 20.737 33.8875C20.6683 33.9214 20.5934 33.9417 20.5167 33.9471C20.44 33.9526 20.363 33.9432 20.29 33.9194C20.217 33.8957 20.1494 33.858 20.0913 33.8086L20.0384 33.7549L18.5306 32.0952C18.4745 32.0396 18.4305 31.9734 18.4013 31.9006C18.3721 31.8278 18.3583 31.7499 18.3607 31.6716C18.3632 31.5934 18.3819 31.5165 18.4156 31.4456C18.4493 31.3746 18.4973 31.3112 18.5568 31.2591C18.6163 31.207 18.686 31.1674 18.7616 31.1426C18.8372 31.1178 18.9171 31.1084 18.9966 31.1149C19.076 31.1214 19.1532 31.1438 19.2236 31.1806C19.2939 31.2174 19.3559 31.2679 19.4057 31.3289L19.8871 31.866V18.1375L19.4039 18.6746C19.2981 18.7795 19.1553 18.8405 19.005 18.845C18.8547 18.8496 18.7084 18.7974 18.5962 18.6991C18.484 18.6009 18.4144 18.4641 18.4019 18.3169C18.3893 18.1698 18.4347 18.0236 18.5287 17.9084L20.0348 16.2469L20.0895 16.195C20.1476 16.1456 20.2151 16.1079 20.2881 16.0841C20.3611 16.0604 20.4382 16.0509 20.5149 16.0564C20.5916 16.0619 20.6665 16.0822 20.7352 16.1161C20.8039 16.15 20.8651 16.1969 20.9154 16.2541L22.4214 17.9621L22.4324 17.9585Z" fill="white"/>
</g>
</g>
<defs>
<clipPath id="clip0_1_22">
<rect width="50" height="50" fill="white"/>
</clipPath>
<clipPath id="clip1_1_22">
<rect width="15" height="22" fill="white" transform="translate(18 14)"/>
</clipPath>
</defs>
</svg>
