<svg width="150" height="150" viewBox="0 0 50 50" fill="none" xmlns="http://www.w3.org/2000/svg">
<g clip-path="url(#clip0_1_29)">
<path d="M47 0H3C1.34315 0 0 1.34315 0 3V47C0 48.6569 1.34315 50 3 50H47C48.6569 50 50 48.6569 50 47V3C50 1.34315 48.6569 0 47 0Z" fill="#CACCCE"/>
<g clip-path="url(#clip1_1_29)">
<path d="M35.178 25.6658C29.8553 26.1061 24.6847 26.3272 20.8157 25.824C18.0747 25.4682 15.9692 24.7439 14.8825 23.4697V25.6011C14.8825 25.7934 14.8825 26.1079 14.8717 26.4171C14.8395 28.1693 14.8126 29.6519 16.4061 30.8632V30.0275C16.4023 29.9711 16.4102 29.9144 16.4292 29.8612C16.4482 29.8079 16.4778 29.7591 16.5163 29.7178C16.5548 29.6765 16.6014 29.6436 16.6531 29.6211C16.7048 29.5985 16.7606 29.5869 16.8169 29.5869C16.8733 29.5869 16.9291 29.5985 16.9808 29.6211C17.0325 29.6436 17.079 29.6765 17.1176 29.7178C17.1561 29.7591 17.1857 29.8079 17.2047 29.8612C17.2237 29.9144 17.2316 29.9711 17.2278 30.0275V31.3772C17.6293 31.572 18.0491 31.7261 18.4811 31.8372C18.5867 31.8642 18.6924 31.8912 18.8016 31.9145V28.5017C18.7979 28.4453 18.8057 28.3887 18.8247 28.3354C18.8437 28.2821 18.8733 28.2333 18.9118 28.192C18.9504 28.1507 18.9969 28.1178 19.0486 28.0953C19.1003 28.0728 19.1561 28.0612 19.2125 28.0612C19.2688 28.0612 19.3246 28.0728 19.3763 28.0953C19.428 28.1178 19.4746 28.1507 19.5131 28.192C19.5516 28.2333 19.5813 28.2821 19.6002 28.3354C19.6192 28.3887 19.6271 28.4453 19.6233 28.5017V32.0601C20.1121 32.1251 20.6039 32.1647 21.0968 32.1787V30.0275C21.0931 29.9711 21.101 29.9144 21.1199 29.8612C21.1389 29.8079 21.1686 29.7591 21.2071 29.7178C21.2456 29.6765 21.2922 29.6436 21.3439 29.6211C21.3956 29.5985 21.4513 29.5869 21.5077 29.5869C21.5641 29.5869 21.6198 29.5985 21.6715 29.6211C21.7232 29.6436 21.7698 29.6765 21.8083 29.7178C21.8468 29.7591 21.8765 29.8079 21.8955 29.8612C21.9144 29.9144 21.9223 29.9711 21.9186 30.0275V32.1841H23.3921V28.5017C23.3883 28.4453 23.3962 28.3887 23.4152 28.3354C23.4342 28.2821 23.4638 28.2333 23.5023 28.192C23.5409 28.1507 23.5874 28.1178 23.6391 28.0953C23.6908 28.0728 23.7466 28.0612 23.803 28.0612C23.8593 28.0612 23.9151 28.0728 23.9668 28.0953C24.0185 28.1178 24.065 28.1507 24.1036 28.192C24.1421 28.2333 24.1717 28.2821 24.1907 28.3354C24.2097 28.3887 24.2176 28.4453 24.2138 28.5017V32.1751H25.6891V29.8065C25.6854 29.75 25.6933 29.6934 25.7122 29.6401C25.7312 29.5868 25.7609 29.538 25.7994 29.4967C25.8379 29.4554 25.8844 29.4225 25.9362 29.4C25.9879 29.3775 26.0436 29.3659 26.1 29.3659C26.1564 29.3659 26.2121 29.3775 26.2638 29.4C26.3155 29.4225 26.3621 29.4554 26.4006 29.4967C26.4391 29.538 26.4688 29.5868 26.4878 29.6401C26.5067 29.6934 26.5146 29.75 26.5109 29.8065V32.1751H27.9843V28.5017C27.9806 28.4453 27.9885 28.3887 28.0075 28.3354C28.0264 28.2821 28.0561 28.2333 28.0946 28.192C28.1331 28.1507 28.1797 28.1178 28.2314 28.0953C28.2831 28.0728 28.3389 28.0612 28.3952 28.0612C28.4516 28.0612 28.5074 28.0728 28.5591 28.0953C28.6108 28.1178 28.6573 28.1507 28.6959 28.192C28.7344 28.2333 28.764 28.2821 28.783 28.3354C28.802 28.3887 28.8098 28.4453 28.8061 28.5017V32.1751H30.2921V29.9143C30.299 29.8096 30.3453 29.7115 30.4216 29.6398C30.4979 29.5681 30.5985 29.5282 30.703 29.5282C30.8075 29.5282 30.9081 29.5681 30.9844 29.6398C31.0607 29.7115 31.107 29.8096 31.1139 29.9143V32.1751H32.5892C32.5892 32.1751 32.5892 32.1589 32.5892 32.1517V28.5017C32.5855 28.4453 32.5933 28.3887 32.6123 28.3354C32.6313 28.2821 32.6609 28.2333 32.6994 28.192C32.738 28.1507 32.7845 28.1178 32.8362 28.0953C32.8879 28.0728 32.9437 28.0612 33.0001 28.0612C33.0564 28.0612 33.1122 28.0728 33.1639 28.0953C33.2156 28.1178 33.2622 28.1507 33.3007 28.192C33.3392 28.2333 33.3689 28.2821 33.3878 28.3354C33.4068 28.3887 33.4147 28.4453 33.4109 28.5017V32.1751H35.1834V25.6658H35.178ZM16.646 31.9936C16.6287 31.9857 16.612 31.9767 16.5958 31.9666C16.3633 31.8383 16.1402 31.6936 15.928 31.5335C13.9873 30.0599 14.0177 28.3903 14.0535 26.4045C14.0535 26.1852 14.0535 25.9606 14.0535 25.6011V21.8523C14.0162 21.6751 13.9982 21.4943 13.9998 21.3132C13.9998 20.0767 14.938 18.9769 16.4544 18.1969C17.8939 17.4583 19.8704 17 22.0439 17C24.2174 17 26.296 17.4637 27.8035 18.2131C29.311 18.9625 30.2921 20.0102 30.3602 21.1909C30.3602 21.1909 30.3602 21.1766 30.3602 21.1676C30.43 21.8307 30.3602 23.8166 30.3602 25.1698C32.0431 25.0836 33.7833 24.9578 35.5361 24.8104H35.5862C35.6948 24.8109 35.7988 24.8544 35.8756 24.9315C35.9524 25.0085 35.9958 25.1129 35.9962 25.2219V32.5903C35.9962 32.6996 35.9531 32.8044 35.8763 32.8819C35.7994 32.9594 35.6951 33.0031 35.5862 33.0036H21.3797C20.3373 33.003 19.2987 32.8775 18.2859 32.6298C17.7162 32.4859 17.1656 32.2741 16.646 31.999V31.9936ZM22.1567 19.277C24.3463 19.277 26.3086 20.2169 26.3086 21.4336C26.3086 22.6502 24.3392 23.5416 22.1567 23.5416C19.9743 23.5416 18.1911 22.643 18.1911 21.4336C18.1911 20.2241 19.9671 19.277 22.1567 19.277ZM27.3649 18.9355C25.9845 18.258 24.0814 17.8267 22.0439 17.8267C20.0065 17.8267 18.2125 18.2418 16.9038 18.914C15.6756 19.5466 14.9147 20.3948 14.9147 21.3132C14.9147 22.2315 15.6756 23.0815 16.9038 23.7123C18.2125 24.3845 20.028 24.7906 22.0439 24.7906C24.0599 24.7906 25.9827 24.3665 27.3649 23.6818C28.6396 23.0582 29.4489 22.2117 29.4489 21.3132C29.4489 20.4146 28.6396 19.5681 27.3649 18.9355Z" fill="white"/>
</g>
</g>
<defs>
<clipPath id="clip0_1_29">
<rect width="50" height="50" fill="white"/>
</clipPath>
<clipPath id="clip1_1_29">
<rect width="22" height="16" fill="white" transform="translate(14 17)"/>
</clipPath>
</defs>
</svg>
