<svg width="150" height="150" viewBox="0 0 50 50" fill="none" xmlns="http://www.w3.org/2000/svg">
<g clip-path="url(#clip0_1_36)">
<path d="M47 0H3C1.34315 0 0 1.34315 0 3V47C0 48.6569 1.34315 50 3 50H47C48.6569 50 50 48.6569 50 47V3C50 1.34315 48.6569 0 47 0Z" fill="#CACCCE"/>
<path d="M33.7083 36H27.2917C27.0382 36 26.8333 35.7947 26.8333 35.5417V14.4583C26.8333 14.2053 27.0382 14 27.2917 14H33.7083C33.9618 14 34.1667 14.2053 34.1667 14.4583V35.5417C34.1667 35.7947 33.9618 36 33.7083 36ZM27.75 35.0833H33.25V14.9167H27.75V35.0833Z" fill="white"/>
<path d="M29.5833 17.6667H27.2917V18.5833H29.5833V17.6667Z" fill="white"/>
<path d="M29.5833 20.4167H27.2917V21.3333H29.5833V20.4167Z" fill="white"/>
<path d="M29.5833 23.1667H27.2917V24.0833H29.5833V23.1667Z" fill="white"/>
<path d="M29.5833 25.9167H27.2917V26.8333H29.5833V25.9167Z" fill="white"/>
<path d="M29.5833 28.6667H27.2917V29.5833H29.5833V28.6667Z" fill="white"/>
<path d="M29.5833 31.4167H27.2917V32.3333H29.5833V31.4167Z" fill="white"/>
<path d="M20.875 35.0833H19.0417C17.778 35.0833 16.75 34.0553 16.75 32.7917V19.5C16.75 19.4097 16.777 19.3208 16.827 19.2456L19.577 15.1206C19.747 14.8653 20.1696 14.8653 20.3397 15.1206L23.0897 19.2456C23.1396 19.3208 23.1667 19.4097 23.1667 19.5V32.7917C23.1667 34.0553 22.1386 35.0833 20.875 35.0833ZM17.6667 19.6389V32.7917C17.6667 33.5498 18.2836 34.1667 19.0417 34.1667H20.875C21.6331 34.1667 22.25 33.5498 22.25 32.7917V19.6389L19.9583 16.2014L17.6667 19.6389Z" fill="white"/>
<path d="M22.7083 32.3333H17.2083C16.9549 32.3333 16.75 32.128 16.75 31.875C16.75 31.622 16.9549 31.4167 17.2083 31.4167H22.7083C22.9618 31.4167 23.1667 31.622 23.1667 31.875C23.1667 32.128 22.9618 32.3333 22.7083 32.3333Z" fill="white"/>
<path d="M22.7083 30.5H17.2083C16.9549 30.5 16.75 30.2947 16.75 30.0417C16.75 29.7887 16.9549 29.5833 17.2083 29.5833H22.7083C22.9618 29.5833 23.1667 29.7887 23.1667 30.0417C23.1667 30.2947 22.9618 30.5 22.7083 30.5Z" fill="white"/>
<path d="M19.0417 30.5C18.7882 30.5 18.5833 30.2947 18.5833 30.0417V21.3333C18.5833 21.0803 18.7882 20.875 19.0417 20.875C19.2951 20.875 19.5 21.0803 19.5 21.3333V30.0417C19.5 30.2947 19.2951 30.5 19.0417 30.5Z" fill="white"/>
<path d="M20.875 30.5C20.6215 30.5 20.4167 30.2947 20.4167 30.0417V21.3333C20.4167 21.0803 20.6215 20.875 20.875 20.875C21.1285 20.875 21.3333 21.0803 21.3333 21.3333V30.0417C21.3333 30.2947 21.1285 30.5 20.875 30.5Z" fill="white"/>
<path d="M21.3333 17.2083H18.5833V18.125H21.3333V17.2083Z" fill="white"/>
<path d="M18.5833 21.7917C17.5722 21.7917 16.75 20.9694 16.75 19.9583C16.75 19.7053 16.9549 19.5 17.2083 19.5C17.4618 19.5 17.6667 19.7053 17.6667 19.9583C17.6667 20.4639 18.0778 20.875 18.5833 20.875C19.0889 20.875 19.5 20.4639 19.5 19.9583C19.5 19.7053 19.7049 19.5 19.9583 19.5C20.2118 19.5 20.4167 19.7053 20.4167 19.9583C20.4167 20.9694 19.5944 21.7917 18.5833 21.7917Z" fill="white"/>
<path d="M21.3333 21.7917C20.3222 21.7917 19.5 20.9694 19.5 19.9583C19.5 19.7053 19.7049 19.5 19.9583 19.5C20.2118 19.5 20.4167 19.7053 20.4167 19.9583C20.4167 20.4639 20.8278 20.875 21.3333 20.875C21.8389 20.875 22.25 20.4639 22.25 19.9583C22.25 19.7053 22.4549 19.5 22.7083 19.5C22.9618 19.5 23.1667 19.7053 23.1667 19.9583C23.1667 20.9694 22.3444 21.7917 21.3333 21.7917Z" fill="white"/>
</g>
<defs>
<clipPath id="clip0_1_36">
<rect width="50" height="50" fill="white"/>
</clipPath>
</defs>
</svg>
