<svg width="150" height="150" viewBox="0 0 50 50" fill="none" xmlns="http://www.w3.org/2000/svg">
<g clip-path="url(#clip0_1_74)">
<path d="M47 0H3C1.34315 0 0 1.34315 0 3V47C0 48.6569 1.34315 50 3 50H47C48.6569 50 50 48.6569 50 47V3C50 1.34315 48.6569 0 47 0Z" fill="#CACCCE"/>
<g clip-path="url(#clip1_1_74)">
<path d="M30.4481 14.1522L35.8424 19.5501C35.8658 19.5743 35.8868 19.6007 35.9051 19.6289C35.9627 19.7133 35.9933 19.8132 35.9928 19.9154C35.9919 20.0499 35.9378 20.1786 35.8424 20.2734L20.2663 35.8496C20.2369 35.8777 20.2045 35.9023 20.1696 35.923C20.0898 35.9736 19.9973 36.0003 19.9028 36C19.7685 35.9981 19.6402 35.9442 19.5448 35.8496L14.1504 30.4499C14.0543 30.353 14.0004 30.222 14.0004 30.0855C14.0004 29.9491 14.0543 29.8181 14.1504 29.7212L29.7266 14.145C29.8218 14.0501 29.9502 13.9962 30.0846 13.9946C30.1514 13.9951 30.2175 14.0087 30.2789 14.0348C30.3404 14.061 30.3961 14.099 30.4427 14.1468L30.4481 14.1522ZM20.6727 34.0933L19.2565 32.6771L19.9368 31.9967L21.353 33.4129L22.1139 32.652L19.5501 30.0846L20.2305 29.4043L22.7979 31.9717L23.5588 31.2126L22.1426 29.7946L22.8229 29.1143L24.2391 30.5304L25 29.7713L22.4272 27.2021L23.1076 26.5218L25.6768 29.091L26.4377 28.3229L25.0215 26.9067L25.7018 26.2264L27.118 27.6426L27.8789 26.8906L25.3097 24.3197L25.9901 23.6393L28.5592 26.2085L29.3184 25.4476L27.9022 24.026L28.5825 23.3457L29.9987 24.7619L30.7596 24.001L28.1922 21.439L28.8726 20.7586L31.4399 23.326L34.8524 19.9082L30.0846 15.1476L15.1476 30.0846L19.9082 34.8524L20.6655 34.0933H20.6727ZM31.5456 19.1133C31.5456 18.9381 31.476 18.77 31.3521 18.6461C31.2282 18.5222 31.0601 18.4526 30.8849 18.4526C30.7542 18.4526 30.6264 18.4913 30.5177 18.5639C30.4091 18.6365 30.3243 18.7397 30.2743 18.8604C30.2243 18.9812 30.2112 19.1141 30.2367 19.2422C30.2622 19.3704 30.3252 19.4882 30.4176 19.5806L30.432 19.5967C30.5577 19.7134 30.7238 19.7768 30.8953 19.7738C31.0669 19.7708 31.2306 19.7016 31.3522 19.5806L31.3665 19.5662C31.4819 19.4437 31.5459 19.2816 31.5456 19.1133ZM31.8517 18.1465C32.1048 18.399 32.2488 18.7407 32.2528 19.0982C32.2568 19.4556 32.1206 19.8005 31.8732 20.0586L31.8517 20.0819C31.5985 20.3359 31.2557 20.4803 30.897 20.484C30.5384 20.4877 30.1926 20.3503 29.9342 20.1016L29.9181 20.0872C29.6617 19.8306 29.5178 19.4826 29.5179 19.1198C29.5181 18.757 29.6624 18.4092 29.919 18.1528C30.1757 17.8963 30.5237 17.7524 30.8865 17.7526C31.2492 17.7527 31.5971 17.897 31.8535 18.1536L31.8517 18.1465Z" fill="white"/>
</g>
</g>
<defs>
<clipPath id="clip0_1_74">
<rect width="50" height="50" fill="white"/>
</clipPath>
<clipPath id="clip1_1_74">
<rect width="22" height="22" fill="white" transform="translate(14 14)"/>
</clipPath>
</defs>
</svg>
