<svg width="24" height="24" viewBox="0 0 24 24" fill="none" xmlns="http://www.w3.org/2000/svg">
  <path fill-rule="evenodd" clip-rule="evenodd" d="M5.11111 5C4.49746 5 4 5.49746 4 6.11111V13.8889C4 14.5025 4.49746 15 5.11111 15H12.8889C13.5025 15 14 14.5025 14 13.8889V6.11111C14 5.49746 13.5025 5 12.8889 5H5.11111ZM5.5 6.5V10.7904L6.84382 9.81058C7.0949 9.6275 7.43287 9.61821 7.69362 9.78722L8.90601 10.573L10.4772 9.04551C10.7683 8.7625 11.2317 8.7625 11.5228 9.04551L12.5 9.99557V6.5H5.5ZM5.5 13.5V12.6469L7.31071 11.3266L8.59206 12.1571C8.88569 12.3474 9.27191 12.3094 9.52279 12.0654L11 10.6293L12.4772 12.0654L12.5 12.042V13.5H5.5Z" fill="#1E1E1E"/>
  <path d="M20 13H16V14.5H20V13Z" fill="#1E1E1E"/>
  <path d="M20 17H4V18.5H20V17Z" fill="#1E1E1E"/>
</svg>
