<svg width="50" height="50" viewBox="0 0 50 50" fill="none" xmlns="http://www.w3.org/2000/svg">
<path d="M47 0H3C1.34315 0 0 1.34315 0 3V47C0 48.6569 1.34315 50 3 50H47C48.6569 50 50 48.6569 50 47V3C50 1.34315 48.6569 0 47 0Z" fill="#AAAEB1"/>
<path fill-rule="evenodd" clip-rule="evenodd" d="M25 16.75C22.1005 16.75 19.75 19.1005 19.75 22C19.75 24.8995 22.1005 27.25 25 27.25C27.8995 27.25 30.25 24.8995 30.25 22C30.25 19.1005 27.8995 16.75 25 16.75ZM18.25 22C18.25 18.2721 21.2721 15.25 25 15.25C28.7279 15.25 31.75 18.2721 31.75 22C31.75 25.7279 28.7279 28.75 25 28.75C21.2721 28.75 18.25 25.7279 18.25 22Z" fill="white"/>
<path fill-rule="evenodd" clip-rule="evenodd" d="M25.0001 28.75C23.2885 28.75 21.607 29.2004 20.1245 30.056C18.6421 30.9116 17.4109 32.1422 16.5546 33.6243C16.3474 33.983 15.8887 34.1057 15.53 33.8985C15.1714 33.6913 15.0486 33.2326 15.2558 32.8739C16.2437 31.1639 17.6643 29.744 19.3747 28.7568C21.0851 27.7697 23.0252 27.25 25.0001 27.25C26.975 27.25 28.9151 27.7697 30.6255 28.757C32.3359 29.7442 33.7564 31.1641 34.7443 32.8741C34.9515 33.2328 34.8287 33.6915 34.4701 33.8987C34.1114 34.1059 33.6527 33.9831 33.4455 33.6245C32.5892 32.1424 31.3581 30.9117 29.8757 30.0561C28.3932 29.2005 26.7117 28.75 25.0001 28.75Z" fill="white"/>
</svg>