<svg width="50" height="50" viewBox="0 0 50 50" fill="none" xmlns="http://www.w3.org/2000/svg">
<path d="M47 0H3C1.34315 0 0 1.34315 0 3V47C0 48.6569 1.34315 50 3 50H47C48.6569 50 50 48.6569 50 47V3C50 1.34315 48.6569 0 47 0Z" fill="#AAAEB1"/>
<path d="M31 25.75H19C18.0054 25.75 17.0516 26.1451 16.3483 26.8483C15.6451 27.5516 15.25 28.5054 15.25 29.5V34.75H16.75V29.5C16.75 28.9033 16.9871 28.331 17.409 27.909C17.831 27.4871 18.4033 27.25 19 27.25H31C31.5967 27.25 32.169 27.4871 32.591 27.909C33.0129 28.331 33.25 28.9033 33.25 29.5V34.75H34.75V29.5C34.75 28.5054 34.3549 27.5516 33.6517 26.8483C32.9484 26.1451 31.9946 25.75 31 25.75V25.75Z" fill="white"/>
<path d="M25 24.25C25.89 24.25 26.76 23.9861 27.5001 23.4916C28.2401 22.9971 28.8169 22.2943 29.1575 21.4721C29.4981 20.6498 29.5872 19.745 29.4135 18.8721C29.2399 17.9992 28.8113 17.1974 28.182 16.568C27.5526 15.9387 26.7508 15.5101 25.8779 15.3365C25.005 15.1628 24.1002 15.2519 23.2779 15.5925C22.4557 15.9331 21.7529 16.5099 21.2584 17.2499C20.7639 17.99 20.5 18.86 20.5 19.75C20.5 20.9435 20.9741 22.0881 21.818 22.932C22.6619 23.7759 23.8065 24.25 25 24.25ZM25 16.75C25.5933 16.75 26.1734 16.9259 26.6667 17.2556C27.1601 17.5852 27.5446 18.0538 27.7716 18.602C27.9987 19.1501 28.0581 19.7533 27.9424 20.3353C27.8266 20.9172 27.5409 21.4518 27.1213 21.8713C26.7018 22.2909 26.1672 22.5766 25.5853 22.6924C25.0033 22.8081 24.4001 22.7487 23.8519 22.5216C23.3038 22.2946 22.8352 21.9101 22.5056 21.4167C22.1759 20.9234 22 20.3433 22 19.75C22 18.9544 22.3161 18.1913 22.8787 17.6287C23.4413 17.0661 24.2044 16.75 25 16.75V16.75Z" fill="white"/>
</svg>