<svg width="50" height="50" viewBox="0 0 50 50" fill="none" xmlns="http://www.w3.org/2000/svg">
<path d="M47 0H3C1.34315 0 0 1.34315 0 3V47C0 48.6569 1.34315 50 3 50H47C48.6569 50 50 48.6569 50 47V3C50 1.34315 48.6569 0 47 0Z" fill="#AAAEB1"/>
<path d="M36.0769 25C36.0769 18.8923 31.1082 13.9231 25 13.9231C18.8918 13.9231 13.9231 18.8923 13.9231 25C13.9231 28.1233 15.2276 30.9434 17.3142 32.959C17.363 33.0226 17.4209 33.0742 17.4886 33.1176C19.4651 34.9479 22.1 36.0769 25 36.0769C27.9001 36.0769 30.5349 34.9479 32.5115 33.1176C32.5792 33.0742 32.637 33.0226 32.6859 32.959C34.7724 30.9434 36.0769 28.1233 36.0769 25ZM25 15.3077C30.3447 15.3077 34.6923 19.6558 34.6923 25C34.6923 27.2661 33.9047 29.3484 32.5967 31.0008C31.9962 29.0643 30.282 27.5484 27.9553 26.8508C29.2233 25.9332 30.0526 24.4466 30.0526 22.7667C30.0526 19.9844 27.7864 17.7208 25 17.7208C22.2137 17.7208 19.9474 19.9844 19.9474 22.7667C19.9474 24.4466 20.7768 25.9332 22.0447 26.8508C19.7181 27.5484 18.0038 29.0643 17.4033 31.0008C16.0953 29.3484 15.3077 27.2661 15.3077 25C15.3077 19.6558 19.6554 15.3077 25 15.3077ZM21.3321 22.7667C21.3321 20.7479 22.9772 19.1055 25 19.1055C27.0229 19.1055 28.668 20.7479 28.668 22.7667C28.668 24.7854 27.0229 26.4279 25 26.4279C22.9772 26.4279 21.3321 24.7854 21.3321 22.7667ZM18.5669 32.2295C18.775 29.6911 21.4668 27.8125 25 27.8125C28.5332 27.8125 31.225 29.6911 31.4332 32.2295C29.7198 33.7559 27.4699 34.6923 25 34.6923C22.5301 34.6923 20.2802 33.7559 18.5669 32.2295Z" fill="white"/>
</svg>