<svg width="122" height="96" fill="none" xmlns="http://www.w3.org/2000/svg"><path d="M117 1H5a3 3 0 0 0-3 3v86a3 3 0 0 0 3 3h112a3 3 0 0 0 3-3V4a3 3 0 0 0-3-3Z" fill="#fff"/><mask id="a" style="mask-type:alpha" maskUnits="userSpaceOnUse" x="2" y="1" width="118" height="92"><path d="M117 1H5a3 3 0 0 0-3 3v86a3 3 0 0 0 3 3h112a3 3 0 0 0 3-3V4a3 3 0 0 0-3-3Z" fill="#fff"/></mask><g mask="url(#a)" fill="#CACCCE"><path d="M95 12H27a1 1 0 0 0-1 1v27a1 1 0 0 0 1 1h68a1 1 0 0 0 1-1V13a1 1 0 0 0-1-1ZM65.14 46H27.5a1.5 1.5 0 0 0 0 3h37.64a1.5 1.5 0 0 0 0-3Z"/><path opacity=".5" d="M95.5 53h-69a.5.5 0 0 0 0 1h69a.5.5 0 0 0 0-1ZM81.95 58H26.5a.5.5 0 0 0 0 1h55.45a.5.5 0 0 0 0-1Z"/><path d="M95 67H27a1 1 0 0 0-1 1v27a1 1 0 0 0 1 1h68a1 1 0 0 0 1-1V68a1 1 0 0 0-1-1Z"/></g></svg>