
<svg width="122" height="96" viewBox="0 0 122 96" fill="none" xmlns="http://www.w3.org/2000/svg">
<path d="M117 1H5C3.34315 1 2 2.34315 2 4V90C2 91.6569 3.34315 93 5 93H117C118.657 93 120 91.6569 120 90V4C120 2.34315 118.657 1 117 1Z" fill="white"/>
<mask id="mask0_17_3" style="mask-type:alpha" maskUnits="userSpaceOnUse" x="2" y="1" width="118" height="92">
<path d="M117 1H5C3.34315 1 2 2.34315 2 4V90C2 91.6569 3.34315 93 5 93H117C118.657 93 120 91.6569 120 90V4C120 2.34315 118.657 1 117 1Z" fill="white"/>
</mask>
<g mask="url(#mask0_17_3)">
<path d="M95 19H27C26.4477 19 26 19.4477 26 20V47C26 47.5523 26.4477 48 27 48H95C95.5523 48 96 47.5523 96 47V20C96 19.4477 95.5523 19 95 19Z" fill="#CACCCE"/>
<path d="M79.8227 12H42.1777C41.3493 12 40.6777 12.6716 40.6777 13.5C40.6777 14.3284 41.3493 15 42.1777 15H79.8227C80.6512 15 81.3227 14.3284 81.3227 13.5C81.3227 12.6716 80.6512 12 79.8227 12Z" fill="#CACCCE"/>
<path opacity="0.5" d="M95.5 52H26.5C26.2239 52 26 52.2239 26 52.5C26 52.7761 26.2239 53 26.5 53H95.5C95.7761 53 96 52.7761 96 52.5C96 52.2239 95.7761 52 95.5 52Z" fill="#CACCCE"/>
<path opacity="0.5" d="M81.952 57H26.5C26.2239 57 26 57.2239 26 57.5C26 57.7761 26.2239 58 26.5 58H81.952C82.2281 58 82.452 57.7761 82.452 57.5C82.452 57.2239 82.2281 57 81.952 57Z" fill="#CACCCE"/>
<path d="M95 73H27C26.4477 73 26 73.4477 26 74V101C26 101.552 26.4477 102 27 102H95C95.5523 102 96 101.552 96 101V74C96 73.4477 95.5523 73 95 73Z" fill="#CACCCE"/>
<path d="M79.8227 66H42.1777C41.3493 66 40.6777 66.6716 40.6777 67.5C40.6777 68.3284 41.3493 69 42.1777 69H79.8227C80.6512 69 81.3227 68.3284 81.3227 67.5C81.3227 66.6716 80.6512 66 79.8227 66Z" fill="#CACCCE"/>
</g>
</svg>
