<svg width="122" height="96" fill="none" xmlns="http://www.w3.org/2000/svg"><path d="M117 1H5a3 3 0 0 0-3 3v86a3 3 0 0 0 3 3h112a3 3 0 0 0 3-3V4a3 3 0 0 0-3-3Z" fill="#fff"/><mask id="a" style="mask-type:alpha" maskUnits="userSpaceOnUse" x="2" y="1" width="118" height="92"><path d="M117 1H5a3 3 0 0 0-3 3v86a3 3 0 0 0 3 3h112a3 3 0 0 0 3-3V4a3 3 0 0 0-3-3Z" fill="#fff"/></mask><g mask="url(#a)" fill="#CACCCE"><path d="M57 11.9H14a1 1 0 0 0-1 1v19.05a1 1 0 0 0 1 1h43a1 1 0 0 0 1-1V12.9a1 1 0 0 0-1-1ZM37.74 36.58H14.1a1.09 1.09 0 1 0 0 2.18h23.65a1.09 1.09 0 1 0 0-2.18Z"/><path opacity=".5" d="M57.64 41.66H13.36a.36.36 0 0 0 0 .73h44.28a.36.36 0 1 0 0-.73ZM49.3 45.3H13.36a.36.36 0 1 0 0 .72H49.3a.36.36 0 1 0 0-.73Z"/><path d="M108 11.9H65a1 1 0 0 0-1 1v19.05a1 1 0 0 0 1 1h43a1 1 0 0 0 1-1V12.9a1 1 0 0 0-1-1ZM88.74 36.58H65.1a1.09 1.09 0 1 0 0 2.18h23.65a1.09 1.09 0 1 0 0-2.18Z"/><path opacity=".5" d="M108.64 41.66H64.36a.36.36 0 0 0 0 .73h44.28a.36.36 0 0 0 0-.73ZM100.3 45.3H64.36a.36.36 0 1 0 0 .72h35.94a.36.36 0 0 0 0-.73Z"/><path d="M57 58H14a1 1 0 0 0-1 1v19.05a1 1 0 0 0 1 1h43a1 1 0 0 0 1-1V59a1 1 0 0 0-1-1ZM37.74 82.68H14.1a1.09 1.09 0 1 0 0 2.17h23.65a1.09 1.09 0 1 0 0-2.17Z"/><path opacity=".5" d="M57.64 87.76H13.36a.36.36 0 1 0 0 .72h44.28a.36.36 0 1 0 0-.72ZM49.3 91.39H13.36a.36.36 0 1 0 0 .72H49.3a.36.36 0 1 0 0-.72Z"/><path d="M108 58H65a1 1 0 0 0-1 1v19.05a1 1 0 0 0 1 1h43a1 1 0 0 0 1-1V59a1 1 0 0 0-1-1ZM88.74 82.68H65.1a1.09 1.09 0 1 0 0 2.17h23.65a1.09 1.09 0 1 0 0-2.17Z"/><path opacity=".5" d="M108.64 87.76H64.36a.36.36 0 1 0 0 .72h44.28a.36.36 0 0 0 0-.72ZM100.3 91.39H64.36a.36.36 0 1 0 0 .72h35.94a.36.36 0 0 0 0-.72Z"/></g></svg>