<svg width="122" height="96" fill="none" xmlns="http://www.w3.org/2000/svg"><path d="M117 1H5a3 3 0 0 0-3 3v86a3 3 0 0 0 3 3h112a3 3 0 0 0 3-3V4a3 3 0 0 0-3-3Z" fill="#fff"/><mask id="a" style="mask-type:alpha" maskUnits="userSpaceOnUse" x="2" y="1" width="118" height="92"><path d="M117 1H5a3 3 0 0 0-3 3v86a3 3 0 0 0 3 3h112a3 3 0 0 0 3-3V4a3 3 0 0 0-3-3Z" fill="#fff"/></mask><g mask="url(#a)" fill="#CACCCE"><path d="M57 12H14a1 1 0 0 0-1 1v20a1 1 0 0 0 1 1h43a1 1 0 0 0 1-1V13a1 1 0 0 0-1-1ZM84.5 14h-19a1.5 1.5 0 0 0 0 3h19a1.5 1.5 0 0 0 0-3Z"/><path opacity=".5" d="M108.5 21h-44a.5.5 0 0 0 0 1h44a.5.5 0 0 0 0-1ZM108.5 26h-44a.5.5 0 0 0 0 1h44a.5.5 0 0 0 0-1ZM93.5 31h-29a.5.5 0 0 0 0 1h29a.5.5 0 0 0 0-1Z"/><path d="M57 45H14a1 1 0 0 0-1 1v20a1 1 0 0 0 1 1h43a1 1 0 0 0 1-1V46a1 1 0 0 0-1-1ZM84.5 47h-19a1.5 1.5 0 0 0 0 3h19a1.5 1.5 0 0 0 0-3Z"/><path opacity=".5" d="M108.5 54h-44a.5.5 0 0 0 0 1h44a.5.5 0 0 0 0-1ZM108.5 59h-44a.5.5 0 0 0 0 1h44a.5.5 0 0 0 0-1ZM93.5 64h-29a.5.5 0 0 0 0 1h29a.5.5 0 0 0 0-1Z"/><path d="M57 78H14a1 1 0 0 0-1 1v20a1 1 0 0 0 1 1h43a1 1 0 0 0 1-1V79a1 1 0 0 0-1-1ZM84.5 80h-19a1.5 1.5 0 0 0 0 3h19a1.5 1.5 0 0 0 0-3Z"/><path opacity=".5" d="M108.5 87h-44a.5.5 0 0 0 0 1h44a.5.5 0 0 0 0-1ZM108.5 92h-44a.5.5 0 0 0 0 1h44a.5.5 0 0 0 0-1Z"/></g></svg>