<svg width="122" height="96" fill="none" xmlns="http://www.w3.org/2000/svg"><path d="M117 1H5a3 3 0 0 0-3 3v86a3 3 0 0 0 3 3h112a3 3 0 0 0 3-3V4a3 3 0 0 0-3-3Z" fill="#fff"/><mask id="a" style="mask-type:alpha" maskUnits="userSpaceOnUse" x="2" y="1" width="118" height="92"><path d="M117 1H5a3 3 0 0 0-3 3v86a3 3 0 0 0 3 3h112a3 3 0 0 0 3-3V4a3 3 0 0 0-3-3Z" fill="#fff"/></mask><g mask="url(#a)" fill="#CACCCE"><path d="M57 12H14a1 1 0 0 0-1 1v46a1 1 0 0 0 1 1h43a1 1 0 0 0 1-1V13a1 1 0 0 0-1-1ZM37.5 65h-23a1.5 1.5 0 0 0 0 3h23a1.5 1.5 0 0 0 0-3Z"/><path opacity=".5" d="M57.5 72h-44a.5.5 0 0 0 0 1h44a.5.5 0 0 0 0-1ZM57.5 77h-44a.5.5 0 0 0 0 1h44a.5.5 0 0 0 0-1ZM48.5 82h-35a.5.5 0 0 0 0 1h35a.5.5 0 0 0 0-1Z"/><path d="M108 12H65a1 1 0 0 0-1 1v20a1 1 0 0 0 1 1h43a1 1 0 0 0 1-1V13a1 1 0 0 0-1-1ZM84.5 39h-19a1.5 1.5 0 0 0 0 3h19a1.5 1.5 0 0 0 0-3Z"/><path opacity=".5" d="M108.5 46h-44a.5.5 0 0 0 0 1h44a.5.5 0 0 0 0-1ZM108.5 51h-44a.5.5 0 0 0 0 1h44a.5.5 0 0 0 0-1ZM108.5 56h-44a.5.5 0 0 0 0 1h44a.5.5 0 0 0 0-1ZM78.5 61h-14a.5.5 0 0 0 0 1h14a.5.5 0 0 0 0-1Z"/><path d="M108 70H65a1 1 0 0 0-1 1v27a1 1 0 0 0 1 1h43a1 1 0 0 0 1-1V71a1 1 0 0 0-1-1Z"/></g></svg>