<svg width="122" height="96" fill="none" xmlns="http://www.w3.org/2000/svg"><path d="M117 1H5a3 3 0 0 0-3 3v86a3 3 0 0 0 3 3h112a3 3 0 0 0 3-3V4a3 3 0 0 0-3-3Z" fill="#fff"/><mask id="a" style="mask-type:alpha" maskUnits="userSpaceOnUse" x="2" y="1" width="118" height="92"><path d="M117 1H5a3 3 0 0 0-3 3v86a3 3 0 0 0 3 3h112a3 3 0 0 0 3-3V4a3 3 0 0 0-3-3Z" fill="#fff"/></mask><g mask="url(#a)" fill="#CACCCE"><path d="M85 12H37a1 1 0 0 0-1 1v22a1 1 0 0 0 1 1h48a1 1 0 0 0 1-1V13a1 1 0 0 0-1-1ZM85 81H62a1 1 0 0 0-1 1v22a1 1 0 0 0 1 1h23a1 1 0 0 0 1-1V82a1 1 0 0 0-1-1Z"/><path opacity=".5" d="M85.5 45h-49a.5.5 0 0 0 0 1h49a.5.5 0 0 0 0-1ZM85.5 40h-49a.5.5 0 0 0 0 1h49a.5.5 0 0 0 0-1ZM85.5 50h-49a.5.5 0 0 0 0 1h49a.5.5 0 0 0 0-1ZM85.5 55h-49a.5.5 0 0 0 0 1h49a.5.5 0 0 0 0-1ZM85.5 60h-49a.5.5 0 0 0 0 1h49a.5.5 0 0 0 0-1ZM85.5 65h-49a.5.5 0 0 0 0 1h49a.5.5 0 0 0 0-1ZM85.5 70h-49a.5.5 0 0 0 0 1h49a.5.5 0 0 0 0-1ZM85.5 75h-49a.5.5 0 0 0 0 1h49a.5.5 0 0 0 0-1ZM55.66 80H36.5a.5.5 0 0 0 0 1h19.16a.5.5 0 0 0 0-1ZM55.66 85H36.5a.5.5 0 0 0 0 1h19.16a.5.5 0 0 0 0-1ZM55.66 90H36.5a.5.5 0 0 0 0 1h19.16a.5.5 0 0 0 0-1Z"/></g></svg>