<svg width="122" height="96" fill="none" xmlns="http://www.w3.org/2000/svg"><path d="M117 1H5a3 3 0 0 0-3 3v86a3 3 0 0 0 3 3h112a3 3 0 0 0 3-3V4a3 3 0 0 0-3-3Z" fill="#fff"/><mask id="a" style="mask-type:alpha" maskUnits="userSpaceOnUse" x="2" y="1" width="118" height="92"><path d="M117 1H5a3 3 0 0 0-3 3v86a3 3 0 0 0 3 3h112a3 3 0 0 0 3-3V4a3 3 0 0 0-3-3Z" fill="#fff"/></mask><g mask="url(#a)" fill="#CACCCE"><path d="M94 12H28a1 1 0 0 0-1 1v22a1 1 0 0 0 1 1h66a1 1 0 0 0 1-1V13a1 1 0 0 0-1-1ZM94 81H62a1 1 0 0 0-1 1v22a1 1 0 0 0 1 1h32a1 1 0 0 0 1-1V82a1 1 0 0 0-1-1Z"/><path opacity=".5" d="M94.5 45h-67a.5.5 0 0 0 0 1h67a.5.5 0 0 0 0-1ZM94.5 40h-67a.5.5 0 0 0 0 1h67a.5.5 0 0 0 0-1ZM94.5 50h-67a.5.5 0 0 0 0 1h67a.5.5 0 0 0 0-1ZM94.5 55h-67a.5.5 0 0 0 0 1h67a.5.5 0 0 0 0-1ZM94.5 60h-67a.5.5 0 0 0 0 1h67a.5.5 0 0 0 0-1ZM94.5 65h-67a.5.5 0 0 0 0 1h67a.5.5 0 0 0 0-1ZM94.5 70h-67a.5.5 0 0 0 0 1h67a.5.5 0 0 0 0-1ZM94.5 75h-67a.5.5 0 0 0 0 1h67a.5.5 0 0 0 0-1ZM56.04 80H27.5a.5.5 0 0 0 0 1h28.54a.5.5 0 0 0 0-1ZM56.04 85H27.5a.5.5 0 0 0 0 1h28.54a.5.5 0 0 0 0-1ZM56.04 90H27.5a.5.5 0 0 0 0 1h28.54a.5.5 0 0 0 0-1Z"/></g></svg>