<svg width="122" height="96" viewBox="0 0 122 96" fill="none" xmlns="http://www.w3.org/2000/svg"> <g filter="url(#filter0_d)"> <rect x="2" y="1" width="118" height="92" rx="3" fill="white"/> </g> <mask id="mask0" mask-type="alpha" maskUnits="userSpaceOnUse" x="2" y="1" width="118" height="92"> <rect x="2" y="1" width="118" height="92" rx="3" fill="white"/> </mask> <g mask="url(#mask0)"> <rect x="13" y="12" width="96" height="24" rx="1" fill="#CACCCE"/> <rect x="61" y="81" width="48" height="24" rx="1" fill="#CACCCE"/> <rect opacity="0.5" x="13" y="45" width="96" height="1" rx="0.5" fill="#CACCCE"/> <rect opacity="0.5" x="13" y="40" width="96" height="1" rx="0.5" fill="#CACCCE"/> <rect opacity="0.5" x="13" y="50" width="96" height="1" rx="0.5" fill="#CACCCE"/> <rect opacity="0.5" x="13" y="55" width="96" height="1" rx="0.5" fill="#CACCCE"/> <rect opacity="0.5" x="13" y="60" width="96" height="1" rx="0.5" fill="#CACCCE"/> <rect opacity="0.5" x="13" y="65" width="96" height="1" rx="0.5" fill="#CACCCE"/> <rect opacity="0.5" x="13" y="70" width="96" height="1" rx="0.5" fill="#CACCCE"/> <rect opacity="0.5" x="13" y="75" width="96" height="1" rx="0.5" fill="#CACCCE"/> <rect opacity="0.5" x="13" y="80" width="41.7097" height="1" rx="0.5" fill="#CACCCE"/> <rect opacity="0.5" x="13" y="85" width="41.7097" height="1" rx="0.5" fill="#CACCCE"/> <rect opacity="0.5" x="13" y="90" width="41.7097" height="1" rx="0.5" fill="#CACCCE"/> </g> <defs> <filter id="filter0_d" x="0" y="0" width="122" height="96" filterUnits="userSpaceOnUse" color-interpolation-filters="sRGB"> <feFlood flood-opacity="0" result="BackgroundImageFix"/> <feColorMatrix in="SourceAlpha" type="matrix" values="0 0 0 0 0 0 0 0 0 0 0 0 0 0 0 0 0 0 127 0" result="hardAlpha"/> <feOffset dy="1"/> <feGaussianBlur stdDeviation="1"/> <feColorMatrix type="matrix" values="0 0 0 0 0 0 0 0 0 0 0 0 0 0 0 0 0 0 0.12 0"/> <feBlend mode="normal" in2="BackgroundImageFix" result="effect1_dropShadow"/> <feBlend mode="normal" in="SourceGraphic" in2="effect1_dropShadow" result="shape"/> </filter> </defs> </svg> 