<svg width="122" height="96" fill="none" xmlns="http://www.w3.org/2000/svg"><path d="M117 1H5a3 3 0 0 0-3 3v86a3 3 0 0 0 3 3h112a3 3 0 0 0 3-3V4a3 3 0 0 0-3-3Z" fill="#fff"/><mask id="a" style="mask-type:alpha" maskUnits="userSpaceOnUse" x="2" y="1" width="118" height="92"><path d="M117 1H5a3 3 0 0 0-3 3v86a3 3 0 0 0 3 3h112a3 3 0 0 0 3-3V4a3 3 0 0 0-3-3Z" fill="#fff"/></mask><g mask="url(#a)" fill="#CACCCE"><path d="M108 12H14a1 1 0 0 0-1 1v22a1 1 0 0 0 1 1h94a1 1 0 0 0 1-1V13a1 1 0 0 0-1-1ZM108 81H62a1 1 0 0 0-1 1v22a1 1 0 0 0 1 1h46a1 1 0 0 0 1-1V82a1 1 0 0 0-1-1Z"/><path opacity=".5" d="M108.5 45h-95a.5.5 0 0 0 0 1h95a.5.5 0 0 0 0-1ZM108.5 40h-95a.5.5 0 0 0 0 1h95a.5.5 0 0 0 0-1ZM108.5 50h-95a.5.5 0 0 0 0 1h95a.5.5 0 0 0 0-1ZM108.5 55h-95a.5.5 0 0 0 0 1h95a.5.5 0 0 0 0-1ZM108.5 60h-95a.5.5 0 0 0 0 1h95a.5.5 0 0 0 0-1ZM108.5 65h-95a.5.5 0 0 0 0 1h95a.5.5 0 0 0 0-1ZM108.5 70h-95a.5.5 0 0 0 0 1h95a.5.5 0 0 0 0-1ZM108.5 75h-95a.5.5 0 0 0 0 1h95a.5.5 0 0 0 0-1ZM54.21 80H13.5a.5.5 0 0 0 0 1h40.71a.5.5 0 0 0 0-1ZM54.21 85H13.5a.5.5 0 0 0 0 1h40.71a.5.5 0 0 0 0-1ZM54.21 90H13.5a.5.5 0 0 0 0 1h40.71a.5.5 0 0 0 0-1Z"/></g></svg>