<svg width="50" height="50" viewBox="0 0 50 50" fill="none" xmlns="http://www.w3.org/2000/svg">
    <path d="M47 0H3C1.34315 0 0 1.34315 0 3V47C0 48.6569 1.34315 50 3 50H47C48.6569 50 50 48.6569 50 47V3C50 1.34315 48.6569 0 47 0Z" fill="#AAAEB1"/>
    <path d="M20.5 34.75C21.3284 34.75 22 34.0784 22 33.25C22 32.4216 21.3284 31.75 20.5 31.75C19.6716 31.75 19 32.4216 19 33.25C19 34.0784 19.6716 34.75 20.5 34.75Z" fill="white"/>
    <path d="M30.25 34.75C31.0784 34.75 31.75 34.0784 31.75 33.25C31.75 32.4216 31.0784 31.75 30.25 31.75C29.4216 31.75 28.75 32.4216 28.75 33.25C28.75 34.0784 29.4216 34.75 30.25 34.75Z" fill="white"/>
    <path fill-rule="evenodd" clip-rule="evenodd" d="M13 16C13 15.5858 13.3358 15.25 13.75 15.25H15.3271C15.6531 15.25 15.9702 15.3562 16.2304 15.5525C16.4907 15.7488 16.6799 16.0245 16.7694 16.3379L17.53 19H33.7857C34.0211 19 34.2428 19.1105 34.3845 19.2984C34.5262 19.4862 34.5715 19.7298 34.5069 19.956L32.032 28.6181C31.8977 29.0883 31.6138 29.5018 31.2235 29.7963C30.8331 30.0907 30.3575 30.25 29.8685 30.25H20.8815C20.3925 30.25 19.9169 30.0907 19.5265 29.7963C19.1362 29.5018 18.8523 29.0883 18.718 28.6181L16.2479 19.9725C16.2445 19.9619 16.2415 19.9511 16.2386 19.9403L15.3271 16.75H13.75C13.3358 16.75 13 16.4142 13 16ZM17.9586 20.5L20.1603 28.206C20.2051 28.3628 20.2997 28.5006 20.4298 28.5988C20.5599 28.6969 20.7185 28.75 20.8815 28.75H29.8685C30.0315 28.75 30.1901 28.6969 30.3202 28.5988C30.4503 28.5006 30.5449 28.3628 30.5897 28.206L32.7914 20.5H17.9586Z" fill="white"/>
</svg>