<svg width="50" height="50" viewBox="0 0 50 50" fill="none" xmlns="http://www.w3.org/2000/svg">
<path d="M47 0H3C1.34315 0 0 1.34315 0 3V47C0 48.6569 1.34315 50 3 50H47C48.6569 50 50 48.6569 50 47V3C50 1.34315 48.6569 0 47 0Z" fill="#AAAEB1"/>
<path d="M33.9387 19.5868C33.9153 19.2217 33.6133 18.9378 33.2473 18.9378H29.5829V17.8552C29.5829 15.6872 27.5267 13.9231 25 13.9231C22.4732 13.9231 20.4171 15.6872 20.4171 17.8552V18.9378H16.7527C16.3867 18.9378 16.0847 19.2217 16.0613 19.5868L15.0778 35.3413C15.0661 35.5324 15.1337 35.719 15.2644 35.8588C15.3951 35.9976 15.5781 36.0769 15.7692 36.0769H34.2308C34.4219 36.0769 34.6049 35.9976 34.7356 35.8588C34.8663 35.719 34.9339 35.5324 34.9222 35.3413L33.9387 19.5868ZM21.8017 17.8552C21.8017 16.4507 23.2368 15.3077 25 15.3077C26.7632 15.3077 28.1983 16.4507 28.1983 17.8552V18.9378H21.8017V17.8552ZM20.4171 20.3224V21.826C20.4171 22.2082 20.7272 22.5183 21.1094 22.5183C21.4916 22.5183 21.8017 22.2082 21.8017 21.826V20.3224H28.1983V21.826C28.1983 22.2082 28.5084 22.5183 28.8906 22.5183C29.2728 22.5183 29.5829 22.2082 29.5829 21.826V20.3224H32.5964L33.1963 29.9228H16.8037L17.4035 20.3224H20.4171ZM16.5057 34.6923L16.746 30.8458H33.2539L33.4943 34.6923H16.5057Z" fill="white"/>
</svg>