<svg width="50" height="50" viewBox="0 0 50 50" fill="none" xmlns="http://www.w3.org/2000/svg">
<path d="M47 0H3C1.34315 0 0 1.34315 0 3V47C0 48.6569 1.34315 50 3 50H47C48.6569 50 50 48.6569 50 47V3C50 1.34315 48.6569 0 47 0Z" fill="#AAAEB1"/>
<path fill-rule="evenodd" clip-rule="evenodd" d="M15.25 18.25C15.25 17.4216 15.9216 16.75 16.75 16.75H33.25C34.0784 16.75 34.75 17.4216 34.75 18.25V31.75C34.75 32.5784 34.0784 33.25 33.25 33.25H16.75C15.9216 33.25 15.25 32.5784 15.25 31.75V18.25ZM33.25 18.25H16.75V31.75H33.25V18.25Z" fill="white"/>
<path fill-rule="evenodd" clip-rule="evenodd" d="M21.25 20.5C21.6642 20.5 22 20.8358 22 21.25C22 22.0456 22.3161 22.8087 22.8787 23.3713C23.4413 23.9339 24.2044 24.25 25 24.25C25.7956 24.25 26.5587 23.9339 27.1213 23.3713C27.6839 22.8087 28 22.0456 28 21.25C28 20.8358 28.3358 20.5 28.75 20.5C29.1642 20.5 29.5 20.8358 29.5 21.25C29.5 22.4435 29.0259 23.5881 28.182 24.432C27.3381 25.2759 26.1935 25.75 25 25.75C23.8065 25.75 22.6619 25.2759 21.818 24.432C20.9741 23.5881 20.5 22.4435 20.5 21.25C20.5 20.8358 20.8358 20.5 21.25 20.5Z" fill="white"/>
</svg>