<svg width="50" height="50" viewBox="0 0 50 50" fill="none" xmlns="http://www.w3.org/2000/svg">
<path d="M47 0H3C1.34315 0 0 1.34315 0 3V47C0 48.6569 1.34315 50 3 50H47C48.6569 50 50 48.6569 50 47V3C50 1.34315 48.6569 0 47 0Z" fill="#AAAEB1"/>
<path fill-rule="evenodd" clip-rule="evenodd" d="M17.6875 20.5789V32.4211H32.3125V20.5789H17.6875ZM16 20.4605C16 19.6944 16.6399 19 17.5234 19H32.4766C33.3601 19 34 19.6944 34 20.4605V32.5395C34 33.3056 33.3601 34 32.4766 34H17.5234C16.6399 34 16 33.3056 16 32.5395V20.4605Z" fill="white"/>
<path fill-rule="evenodd" clip-rule="evenodd" d="M28.75 21.125C28.3358 21.125 28 20.7892 28 20.375C28 19.5794 27.6839 18.8163 27.1213 18.2537C26.5587 17.6911 25.7956 17.375 25 17.375C24.2043 17.375 23.4413 17.6911 22.8787 18.2537C22.3161 18.8163 22 19.5793 22 20.375C22 20.7892 21.6642 21.125 21.25 21.125C20.8358 21.125 20.5 20.7892 20.5 20.375C20.5 19.1815 20.9741 18.0369 21.818 17.193C22.6619 16.3491 23.8065 15.875 25 15.875C26.1935 15.875 27.3381 16.3491 28.182 17.193C29.0259 18.0369 29.5 19.1815 29.5 20.375C29.5 20.7892 29.1642 21.125 28.75 21.125Z" fill="white"/>
</svg>