<svg width="78" height="76" fill="none" xmlns="http://www.w3.org/2000/svg"><g clip-path="url(#a)"><g filter="url(#b)"><path d="M73 1H5a3 3 0 0 0-3 3v66a3 3 0 0 0 3 3h68a3 3 0 0 0 3-3V4a3 3 0 0 0-3-3Z" fill="#fff"/></g><path d="M17.83 11h-3.66c-.1 0-.17.45-.17 1s.07 1 .17 1h3.66c.1 0 .17-.45.17-1s-.07-1-.17-1ZM23.5 38h-11c-.28 0-.5.45-.5 1s.22 1 .5 1h11c.28 0 .5-.45.5-1s-.22-1-.5-1Z" fill="#DADDDE"/><path d="M37.5 60h-11c-.28 0-.5.67-.5 1.5s.22 1.5.5 1.5h11c.28 0 .5-.67.5-1.5s-.22-1.5-.5-1.5ZM23.83 11h-3.66c-.1 0-.17.45-.17 1s.07 1 .17 1h3.66c.1 0 .17-.45.17-1s-.07-1-.17-1Z" fill="#AAAEB1"/><path d="M29.83 11h-3.66c-.1 0-.17.45-.17 1s.07 1 .17 1h3.66c.1 0 .17-.45.17-1s-.07-1-.17-1ZM35.83 11h-3.66c-.1 0-.17.45-.17 1s.07 1 .17 1h3.66c.1 0 .17-.45.17-1s-.07-1-.17-1ZM37.5 17h-25a.5.5 0 0 0 0 1h25a.5.5 0 0 0 0-1ZM37.5 21h-25a.5.5 0 0 0 0 1h25a.5.5 0 0 0 0-1ZM37.5 54h-25a.5.5 0 0 0 0 1h25a.5.5 0 0 0 0-1ZM37.5 44h-25a.5.5 0 0 0 0 1h25a.5.5 0 0 0 0-1ZM37.5 33h-25a.5.5 0 0 0 0 1h25a.5.5 0 0 0 0-1ZM65.58 34H44.42c-.23 0-.42.22-.42.5s.19.5.42.5h21.16c.23 0 .42-.22.42-.5s-.19-.5-.42-.5ZM23.5 49h-11a.5.5 0 0 0 0 1h11a.5.5 0 0 0 0-1ZM23.5 25h-11a.5.5 0 0 0 0 1h11a.5.5 0 0 0 0-1ZM37.5 49h-11a.5.5 0 0 0 0 1h11a.5.5 0 0 0 0-1ZM37.5 25h-11a.5.5 0 0 0 0 1h11a.5.5 0 0 0 0-1ZM23.5 29h-11a.5.5 0 0 0 0 1h11a.5.5 0 0 0 0-1ZM58.38 28H44.62c-.34 0-.62.22-.62.5s.28.5.63.5h13.74c.35 0 .63-.22.63-.5s-.28-.5-.63-.5ZM58.38 31H44.62c-.34 0-.62.22-.62.5s.28.5.63.5h13.74c.35 0 .63-.22.63-.5s-.28-.5-.63-.5ZM58.38 37H44.62c-.34 0-.62.22-.62.5s.28.5.63.5h13.74c.35 0 .63-.22.63-.5s-.28-.5-.63-.5ZM37.5 29h-11a.5.5 0 0 0 0 1h11a.5.5 0 0 0 0-1ZM65.83 31h-3.66c-.1 0-.17.22-.17.5s.07.5.17.5h3.66c.1 0 .17-.22.17-.5s-.07-.5-.17-.5ZM65.83 28h-3.66c-.1 0-.17.22-.17.5s.07.5.17.5h3.66c.1 0 .17-.22.17-.5s-.07-.5-.17-.5ZM65.83 37h-3.66c-.1 0-.17.22-.17.5s.07.5.17.5h3.66c.1 0 .17-.22.17-.5s-.07-.5-.17-.5Z" fill="#DADDDE"/><path opacity=".6" d="M65 11H45c-.55 0-1 .23-1 .52v11.96c0 .29.45.52 1 .52h20c.55 0 1-.23 1-.52V11.52c0-.29-.45-.52-1-.52Z" fill="#AAAEB1"/></g><defs><clipPath id="a"><path fill="#fff" d="M0 0h78v76H0z"/></clipPath><filter id="b" x="0" y="0" width="78" height="76" filterUnits="userSpaceOnUse" color-interpolation-filters="sRGB"><feFlood flood-opacity="0" result="BackgroundImageFix"/><feColorMatrix in="SourceAlpha" values="0 0 0 0 0 0 0 0 0 0 0 0 0 0 0 0 0 0 127 0" result="hardAlpha"/><feOffset dy="1"/><feGaussianBlur stdDeviation="1"/><feColorMatrix values="0 0 0 0 0 0 0 0 0 0 0 0 0 0 0 0 0 0 0.12 0"/><feBlend in2="BackgroundImageFix" result="effect1_dropShadow_618_1107"/><feBlend in="SourceGraphic" in2="effect1_dropShadow_618_1107" result="shape"/></filter></defs></svg>