<svg width="78" height="76" fill="none" xmlns="http://www.w3.org/2000/svg"><g filter="url(#a)"><path d="M73 1H5a3 3 0 0 0-3 3v66a3 3 0 0 0 3 3h68a3 3 0 0 0 3-3V4a3 3 0 0 0-3-3Z" fill="#fff"/></g><path d="M23.5 32h-11c-.28 0-.5.45-.5 1s.22 1 .5 1h11c.28 0 .5-.45.5-1s-.22-1-.5-1Zm0 14h-11c-.28 0-.5.45-.5 1s.22 1 .5 1h11c.28 0 .5-.45.5-1s-.22-1-.5-1Zm0-35h-11c-.28 0-.5.45-.5 1s.22 1 .5 1h11c.28 0 .5-.45.5-1s-.22-1-.5-1Z" fill="#DADDDE"/><path d="M66.04 41H44.96c-.54 0-.96.67-.96 1.5s.42 1.5.96 1.5h21.08c.54 0 .96-.67.96-1.5s-.42-1.5-.96-1.5Z" fill="#AAAEB1"/><path d="M37.5 16h-25a.5.5 0 0 0 0 1h25a.5.5 0 0 0 0-1Zm0 21h-25a.5.5 0 0 0 0 1h25a.5.5 0 0 0 0-1Zm0 22h-25a.5.5 0 0 0 0 1h25a.5.5 0 0 0 0-1Zm0-8h-25a.5.5 0 0 0 0 1h25a.5.5 0 0 0 0-1Zm-14-10h-11a.5.5 0 0 0 0 1h11a.5.5 0 0 0 0-1Zm14-13h-25a.5.5 0 0 0 0 1h25a.5.5 0 0 0 0-1Zm0 13h-11a.5.5 0 0 0 0 1h11a.5.5 0 0 0 0-1Zm28.08-7H44.42c-.23 0-.42.22-.42.5s.19.5.42.5h21.16c.23 0 .42-.22.42-.5s-.19-.5-.42-.5ZM23.5 55h-11a.5.5 0 0 0 0 1h11a.5.5 0 0 0 0-1Zm0-35h-11a.5.5 0 0 0 0 1h11a.5.5 0 0 0 0-1Zm14 35h-11a.5.5 0 0 0 0 1h11a.5.5 0 0 0 0-1Zm0-35h-11a.5.5 0 0 0 0 1h11a.5.5 0 0 0 0-1Zm-14 4h-11a.5.5 0 0 0 0 1h11a.5.5 0 0 0 0-1Zm34.88 4H44.62c-.34 0-.62.22-.62.5s.28.5.63.5h13.74c.35 0 .63-.22.63-.5s-.28-.5-.63-.5h.01Zm0 3H44.62c-.34 0-.62.22-.62.5s.28.5.63.5h13.74c.35 0 .63-.22.63-.5s-.28-.5-.63-.5h.01Zm0 6H44.62c-.34 0-.62.22-.62.5s.28.5.63.5h13.74c.35 0 .63-.22.63-.5s-.28-.5-.63-.5h.01ZM37.5 24h-11a.5.5 0 0 0 0 1h11a.5.5 0 0 0 0-1Zm28.33 7h-3.66c-.1 0-.17.22-.17.5s.07.5.17.5h3.66c.1 0 .17-.22.17-.5s-.07-.5-.17-.5Zm0-3h-3.66c-.1 0-.17.22-.17.5s.07.5.17.5h3.66c.1 0 .17-.22.17-.5s-.07-.5-.17-.5Zm0 9h-3.66c-.1 0-.17.22-.17.5s.07.5.17.5h3.66c.1 0 .17-.22.17-.5s-.07-.5-.17-.5Z" fill="#DADDDE"/><path opacity=".6" d="M65 11H45c-.55 0-1 .23-1 .52v11.96c0 .29.45.52 1 .52h20c.55 0 1-.23 1-.52V11.52c0-.29-.45-.52-1-.52Z" fill="#AAAEB1"/><defs><filter id="a" x="0" y="0" width="78" height="76" filterUnits="userSpaceOnUse" color-interpolation-filters="sRGB"><feFlood flood-opacity="0" result="BackgroundImageFix"/><feColorMatrix in="SourceAlpha" values="0 0 0 0 0 0 0 0 0 0 0 0 0 0 0 0 0 0 127 0" result="hardAlpha"/><feOffset dy="1"/><feGaussianBlur stdDeviation="1"/><feColorMatrix values="0 0 0 0 0 0 0 0 0 0 0 0 0 0 0 0 0 0 0.12 0"/><feBlend in2="BackgroundImageFix" result="effect1_dropShadow_113_3"/><feBlend in="SourceGraphic" in2="effect1_dropShadow_113_3" result="shape"/></filter></defs></svg>