<svg width="78" height="38" viewBox="0 0 78 38" fill="none" xmlns="http://www.w3.org/2000/svg">
<path d="M75 0H3C1.34315 0 0 1.34315 0 3V35C0 36.6569 1.34315 38 3 38H75C76.6569 38 78 36.6569 78 35V3C78 1.34315 76.6569 0 75 0Z" fill="#E2E4E7"/>
<path d="M43.2143 7H33.7857C33.3518 7 33 7.44772 33 8V30C33 30.5523 33.3518 31 33.7857 31H43.2143C43.6482 31 44 30.5523 44 30V8C44 7.44772 43.6482 7 43.2143 7Z" fill="#A2AAB2"/>
<path d="M57.2143 7H47.7857C47.3518 7 47 7.44772 47 8V30C47 30.5523 47.3518 31 47.7857 31H57.2143C57.6482 31 58 30.5523 58 30V8C58 7.44772 57.6482 7 57.2143 7Z" fill="#A2AAB2"/>
<path d="M15.2143 7H5.78571C5.35178 7 5 7.44772 5 8V30C5 30.5523 5.35178 31 5.78571 31H15.2143C15.6482 31 16 30.5523 16 30V8C16 7.44772 15.6482 7 15.2143 7Z" fill="#A2AAB2"/>
<path d="M29.2143 7H19.7857C19.3518 7 19 7.44772 19 8V30C19 30.5523 19.3518 31 19.7857 31H29.2143C29.6482 31 30 30.5523 30 30V8C30 7.44772 29.6482 7 29.2143 7Z" fill="#A2AAB2"/>
<path d="M72.2143 7H62.7857C62.3518 7 62 7.44772 62 8V30C62 30.5523 62.3518 31 62.7857 31H72.2143C72.6482 31 73 30.5523 73 30V8C73 7.44772 72.6482 7 72.2143 7Z" fill="#A2AAB2"/>
</svg>