<svg width="78" height="38" viewBox="0 0 78 38" fill="none" xmlns="http://www.w3.org/2000/svg">
<path d="M75 0H3C1.34315 0 0 1.34315 0 3V35C0 36.6569 1.34315 38 3 38H75C76.6569 38 78 36.6569 78 35V3C78 1.34315 76.6569 0 75 0Z" fill="#E2E4E7"/>
<path d="M37.2857 7H28.7143C28.3198 7 28 7.44772 28 8V30C28 30.5523 28.3198 31 28.7143 31H37.2857C37.6802 31 38 30.5523 38 30V8C38 7.44772 37.6802 7 37.2857 7Z" fill="#A2AAB2"/>
<path d="M49.3571 7H41.6429C41.2878 7 41 7.44772 41 8V30C41 30.5523 41.2878 31 41.6429 31H49.3571C49.7122 31 50 30.5523 50 30V8C50 7.44772 49.7122 7 49.3571 7Z" fill="#A2AAB2"/>
<path d="M12.3571 7H4.64286C4.28782 7 4 7.44772 4 8V30C4 30.5523 4.28782 31 4.64286 31H12.3571C12.7122 31 13 30.5523 13 30V8C13 7.44772 12.7122 7 12.3571 7Z" fill="#A2AAB2"/>
<path d="M24.3571 7H16.6429C16.2878 7 16 7.44772 16 8V30C16 30.5523 16.2878 31 16.6429 31H24.3571C24.7122 31 25 30.5523 25 30V8C25 7.44772 24.7122 7 24.3571 7Z" fill="#A2AAB2"/>
<path d="M61.3571 7H53.6429C53.2878 7 53 7.44772 53 8V30C53 30.5523 53.2878 31 53.6429 31H61.3571C61.7122 31 62 30.5523 62 30V8C62 7.44772 61.7122 7 61.3571 7Z" fill="#A2AAB2"/>
<path d="M73.3571 7H65.6429C65.2878 7 65 7.44772 65 8V30C65 30.5523 65.2878 31 65.6429 31H73.3571C73.7122 31 74 30.5523 74 30V8C74 7.44772 73.7122 7 73.3571 7Z" fill="#A2AAB2"/>
</svg>