<svg width="78" height="38" viewBox="0 0 78 38" fill="none" xmlns="http://www.w3.org/2000/svg">
<g clip-path="url(#clip0_1_10)">
<path d="M75 0H3C1.34315 0 0 1.34315 0 3V35C0 36.6569 1.34315 38 3 38H75C76.6569 38 78 36.6569 78 35V3C78 1.34315 76.6569 0 75 0Z" fill="#E2E4E7"/>
<path d="M16.4 7H5.6C5.26863 7 5 7.44772 5 8V30C5 30.5523 5.26863 31 5.6 31H16.4C16.7314 31 17 30.5523 17 30V8C17 7.44772 16.7314 7 16.4 7Z" fill="#A2AAB2"/>
<path d="M55.2 7H22.8C21.8059 7 21 7.44772 21 8V30C21 30.5523 21.8059 31 22.8 31H55.2C56.1941 31 57 30.5523 57 30V8C57 7.44772 56.1941 7 55.2 7Z" fill="#A2AAB2"/>
<path d="M72.4 7H61.6C61.2686 7 61 7.44772 61 8V30C61 30.5523 61.2686 31 61.6 31H72.4C72.7314 31 73 30.5523 73 30V8C73 7.44772 72.7314 7 72.4 7Z" fill="#A2AAB2"/>
</g>
<defs>
<clipPath id="clip0_1_10">
<rect width="78" height="38" fill="white"/>
</clipPath>
</defs>
</svg>