<svg width="119" height="54" viewBox="0 0 119 54" fill="none" xmlns="http://www.w3.org/2000/svg">
<rect width="119" height="54" rx="3" fill="white"/>
<rect x="0.5" y="0.5" width="118" height="23" rx="2.5" fill="#AAAEB1" stroke="white"/>
<path d="M51.3161 14H53.6438V13.3661H52.0849V10.3636H51.3161V14ZM58.353 12.1818C58.353 10.9922 57.6143 10.3139 56.6502 10.3139C55.6808 10.3139 54.9474 10.9922 54.9474 12.1818C54.9474 13.3661 55.6808 14.0497 56.6502 14.0497C57.6143 14.0497 58.353 13.3714 58.353 12.1818ZM57.5735 12.1818C57.5735 12.9524 57.2077 13.3697 56.6502 13.3697C56.0909 13.3697 55.7269 12.9524 55.7269 12.1818C55.7269 11.4112 56.0909 10.994 56.6502 10.994C57.2077 10.994 57.5735 11.4112 57.5735 12.1818ZM62.3337 11.5391H63.115C63.0155 10.82 62.3817 10.3139 61.5596 10.3139C60.599 10.3139 59.8586 11.0064 59.8586 12.1854C59.8586 13.3359 60.551 14.0497 61.5756 14.0497C62.4935 14.0497 63.1487 13.4691 63.1487 12.5121V12.054H61.627V12.6328H62.4083C62.3976 13.0838 62.0905 13.3697 61.5791 13.3697C61.002 13.3697 60.6381 12.9382 60.6381 12.1783C60.6381 11.4219 61.0162 10.994 61.572 10.994C61.968 10.994 62.2361 11.1982 62.3337 11.5391ZM68.0678 12.1818C68.0678 10.9922 67.3292 10.3139 66.3651 10.3139C65.3956 10.3139 64.6623 10.9922 64.6623 12.1818C64.6623 13.3661 65.3956 14.0497 66.3651 14.0497C67.3292 14.0497 68.0678 13.3714 68.0678 12.1818ZM67.2884 12.1818C67.2884 12.9524 66.9226 13.3697 66.3651 13.3697C65.8058 13.3697 65.4418 12.9524 65.4418 12.1818C65.4418 11.4112 65.8058 10.994 66.3651 10.994C66.9226 10.994 67.2884 11.4112 67.2884 12.1818Z" fill="#E8EBEC"/>
<rect x="102" y="8" width="9" height="1" fill="#E8EBEC"/>
<rect x="102" y="11" width="9" height="1" fill="#E8EBEC"/>
<rect x="102" y="14" width="9" height="1" fill="#E8EBEC"/>
<rect x="8" y="8" width="8" height="8" rx="1" fill="#E8EBEC"/>
</svg>