<svg width="119" height="54" viewBox="0 0 119 54" fill="none" xmlns="http://www.w3.org/2000/svg">
<rect width="119" height="54" rx="3" fill="white"/>
<rect x="0.5" y="0.5" width="118" height="23" rx="2.5" fill="#AAAEB1" stroke="white"/>
<path d="M8.31605 14H10.6438V13.3661H9.08487V10.3636H8.31605V14ZM15.353 12.1818C15.353 10.9922 14.6143 10.3139 13.6502 10.3139C12.6808 10.3139 11.9474 10.9922 11.9474 12.1818C11.9474 13.3661 12.6808 14.0497 13.6502 14.0497C14.6143 14.0497 15.353 13.3714 15.353 12.1818ZM14.5735 12.1818C14.5735 12.9524 14.2077 13.3697 13.6502 13.3697C13.0909 13.3697 12.7269 12.9524 12.7269 12.1818C12.7269 11.4112 13.0909 10.994 13.6502 10.994C14.2077 10.994 14.5735 11.4112 14.5735 12.1818ZM19.3337 11.5391H20.115C20.0155 10.82 19.3817 10.3139 18.5596 10.3139C17.599 10.3139 16.8586 11.0064 16.8586 12.1854C16.8586 13.3359 17.551 14.0497 18.5756 14.0497C19.4935 14.0497 20.1487 13.4691 20.1487 12.5121V12.054H18.627V12.6328H19.4083C19.3976 13.0838 19.0905 13.3697 18.5791 13.3697C18.002 13.3697 17.6381 12.9382 17.6381 12.1783C17.6381 11.4219 18.0162 10.994 18.572 10.994C18.968 10.994 19.2361 11.1982 19.3337 11.5391ZM25.0678 12.1818C25.0678 10.9922 24.3292 10.3139 23.3651 10.3139C22.3956 10.3139 21.6623 10.9922 21.6623 12.1818C21.6623 13.3661 22.3956 14.0497 23.3651 14.0497C24.3292 14.0497 25.0678 13.3714 25.0678 12.1818ZM24.2884 12.1818C24.2884 12.9524 23.9226 13.3697 23.3651 13.3697C22.8058 13.3697 22.4418 12.9524 22.4418 12.1818C22.4418 11.4112 22.8058 10.994 23.3651 10.994C23.9226 10.994 24.2884 11.4112 24.2884 12.1818Z" fill="#E8EBEC"/>
<rect x="102" y="8" width="9" height="1" fill="#E8EBEC"/>
<rect x="102" y="11" width="9" height="1" fill="#E8EBEC"/>
<rect x="102" y="14" width="9" height="1" fill="#E8EBEC"/>
</svg>