<svg version="1.1" id="Layer_1" xmlns="http://www.w3.org/2000/svg" x="0" y="0" width="100" height="80" viewBox="0 0 100 80" style="enable-background:new 0 0 100 80" xml:space="preserve"><style>.st2{fill:#daddde}</style><path d="M100 76c0 2.2-1.8 4-4 4H39c-2.2 0-4-1.8-4-4V4c0-2.2 1.8-4 4-4h57c2.2 0 4 1.8 4 4v72z" style="fill:#e4e4e4"/><path d="M33 4c0-2.2-1.8-4-4-4H4C1.8 0 0 1.8 0 4v72c0 2.2 1.8 4 4 4h25c2.2 0 4-1.8 4-4V4z" style="fill:#CACCCE"/><path class="st2" d="M13.5 24h6c.6 0 1 .4 1 1s-.4 1-1 1h-6c-.6 0-1-.4-1-1s.4-1 1-1zM13.5 30h6c.6 0 1 .4 1 1s-.4 1-1 1h-6c-.6 0-1-.4-1-1s.4-1 1-1zM13.5 18h6c.6 0 1 .4 1 1s-.4 1-1 1h-6c-.6 0-1-.4-1-1s.4-1 1-1zM13.5 12h6c.6 0 1 .4 1 1s-.4 1-1 1h-6c-.6 0-1-.4-1-1s.4-1 1-1zM13.5 7h6c.6 0 1 .4 1 1s-.4 1-1 1h-6c-.6 0-1-.4-1-1s.4-1 1-1z"/></svg>