<?xml version="1.0" encoding="utf-8"?>
<!-- Generator: Adobe Illustrator 22.0.1, SVG Export Plug-In . SVG Version: 6.00 Build 0)  -->
<svg version="1.1" id="Layer_1" xmlns="http://www.w3.org/2000/svg" xmlns:xlink="http://www.w3.org/1999/xlink" x="0px" y="0px"
	 viewBox="0 0 100 80" style="enable-background:new 0 0 100 80;" xml:space="preserve">
<style type="text/css">
	.st0{fill:#E4E4E4;}
	.st1{fill:#AAAEB1;}
	.st2{fill:#DADDDE;}
</style>
<g>
	<path class="st0" d="M100,76c0,2.2-1.8,4-4,4H39c-2.2,0-4-1.8-4-4V4c0-2.2,1.8-4,4-4h57c2.2,0,4,1.8,4,4V76z"/>
</g>
<g>
	<g>
		<path class="st1" d="M33,4c0-2.2-1.8-4-4-4H4C1.8,0,0,1.8,0,4v72c0,2.2,1.8,4,4,4h25c2.2,0,4-1.8,4-4V4z"/>
	</g>
	<g>
		<path class="st2" d="M13.5,24h6c0.6,0,1,0.4,1,1l0,0c0,0.6-0.4,1-1,1h-6c-0.6,0-1-0.4-1-1l0,0C12.5,24.4,12.9,24,13.5,24z"/>
		<path class="st2" d="M13.5,30h6c0.6,0,1,0.4,1,1l0,0c0,0.6-0.4,1-1,1h-6c-0.6,0-1-0.4-1-1l0,0C12.5,30.4,12.9,30,13.5,30z"/>
		<path class="st2" d="M13.5,18h6c0.6,0,1,0.4,1,1l0,0c0,0.6-0.4,1-1,1h-6c-0.6,0-1-0.4-1-1l0,0C12.5,18.4,12.9,18,13.5,18z"/>
		<path class="st2" d="M13.5,12h6c0.6,0,1,0.4,1,1l0,0c0,0.6-0.4,1-1,1h-6c-0.6,0-1-0.4-1-1l0,0C12.5,12.4,12.9,12,13.5,12z"/>
		<path class="st2" d="M13.5,7h6c0.6,0,1,0.4,1,1l0,0c0,0.6-0.4,1-1,1h-6c-0.6,0-1-0.4-1-1l0,0C12.5,7.4,12.9,7,13.5,7z"/>
	</g>
</g>
</svg>
