<svg version="1.1" id="Layer_1" xmlns="http://www.w3.org/2000/svg" x="0" y="0" width="100" height="80" viewBox="0 0 100 80" style="enable-background:new 0 0 100 80" xml:space="preserve"><style>.st1{fill:#aaaeb1}</style><path d="M100 76c0 2.2-1.8 4-4 4H4c-2.2 0-4-1.8-4-4V4c0-2.2 1.8-4 4-4h92c2.2 0 4 1.8 4 4v72z" style="fill:#e4e4e4"/><path class="st1" d="M21.1 36.9h4c2.3 0 3.5 1.1 3.5 3.1 0 1.2-.5 2.1-1.4 2.7-.6.4-1.4.5-2.5.5h-3.6v-6.3zm3.3 5c1.8 0 2.7-.5 2.7-2 0-1.3-.7-1.9-2-1.9h-2.6v3.9h1.9zM31.3 36.9h6.3V38h-4.9v1.4h2.9v1.1h-2.9V42h5v1.2h-6.4v-6.3zM40.3 36.9h6.3V38h-4.8v1.6h2.6v1.1h-2.6v2.4h-1.4v-6.2zM49.6 36.9H51l3.5 6.2h-1.6l-.7-1.4h-3.9l-.7 1.4h-1.4l3.4-6.2zm2 3.7-1.3-2.5-1.4 2.5h2.7zM57.7 41.9h4.1v-5h1.4v4.7c0 1.2-.4 1.5-1.5 1.5h-3.9c-1.2 0-1.5-.3-1.5-1.5v-4.7h1.4v5zM66.4 36.9h1.4v5h4.6v1.2h-6.1v-6.2zM76 43.1h-1.4V38h-2.8v-1.1h7.1V38H76v5.1z"/></svg>