<?xml version="1.0" encoding="utf-8"?>
<!-- Generator: Adobe Illustrator 22.0.1, SVG Export Plug-In . SVG Version: 6.00 Build 0)  -->
<svg version="1.1" id="Layer_1" xmlns="http://www.w3.org/2000/svg" xmlns:xlink="http://www.w3.org/1999/xlink" x="0px" y="0px"
	 viewBox="0 0 100 80" style="enable-background:new 0 0 100 80;" xml:space="preserve">
<style type="text/css">
	.st0{fill:#E4E4E4;}
	.st1{fill:#AAAEB1;}
</style>
<g>
	<path class="st0" d="M100,76c0,2.2-1.8,4-4,4H4c-2.2,0-4-1.8-4-4V4c0-2.2,1.8-4,4-4h92c2.2,0,4,1.8,4,4V76z"/>
</g>
<g>
	<path class="st1" d="M21.1,36.9h4c2.3,0,3.5,1.1,3.5,3.1c0,1.2-0.5,2.1-1.4,2.7c-0.6,0.4-1.4,0.5-2.5,0.5h-3.6V36.9z M24.4,41.9
		c1.8,0,2.7-0.5,2.7-2c0-1.3-0.7-1.9-2-1.9h-2.6v3.9H24.4z"/>
	<path class="st1" d="M31.3,36.9h6.3V38h-4.9v1.4h2.9v1.1h-2.9v1.5h5v1.2h-6.4V36.9z"/>
	<path class="st1" d="M40.3,36.9h6.3V38h-4.8v1.6h2.6v1.1h-2.6v2.4h-1.4V36.9z"/>
	<path class="st1" d="M49.6,36.9H51l3.5,6.2h-1.6l-0.7-1.4h-3.9l-0.7,1.4h-1.4L49.6,36.9z M51.6,40.6l-1.3-2.5l-1.4,2.5H51.6z"/>
	<path class="st1" d="M57.7,41.9h4.1v-5h1.4v4.7c0,1.2-0.4,1.5-1.5,1.5h-3.9c-1.2,0-1.5-0.3-1.5-1.5v-4.7h1.4V41.9z"/>
	<path class="st1" d="M66.4,36.9h1.4v5h4.6v1.2h-6.1V36.9z"/>
	<path class="st1" d="M76,43.1h-1.4V38h-2.8v-1.1h7.1V38H76V43.1z"/>
</g>
</svg>
