<?xml version="1.0" encoding="utf-8"?>
<!-- Generator: Adobe Illustrator 22.0.1, SVG Export Plug-In . SVG Version: 6.00 Build 0)  -->
<svg version="1.1" id="Layer_1" xmlns="http://www.w3.org/2000/svg" xmlns:xlink="http://www.w3.org/1999/xlink" x="0px" y="0px"
	 viewBox="0 0 100 80" style="enable-background:new 0 0 100 80;" xml:space="preserve">
<style type="text/css">
	.st0{fill:#E4E4E4;}
	.st1{fill:#AAAEB1;}
	.st2{fill:#DADDDE;}
</style>
<g>
	<path class="st0" d="M65,76c0,2.2-1.8,4-4,4H4c-2.2,0-4-1.8-4-4V4c0-2.2,1.8-4,4-4h57c2.2,0,4,1.8,4,4V76z"/>
</g>
<g>
	<g>
		<path class="st1" d="M100,4c0-2.2-1.8-4-4-4H71c-2.2,0-4,1.8-4,4v72c0,2.2,1.8,4,4,4h25c2.2,0,4-1.8,4-4V4z"/>
	</g>
	<g>
		<path class="st2" d="M80.5,24h6c0.6,0,1,0.4,1,1l0,0c0,0.6-0.4,1-1,1h-6c-0.6,0-1-0.4-1-1l0,0C79.5,24.4,79.9,24,80.5,24z"/>
		<path class="st2" d="M80.5,30h6c0.6,0,1,0.4,1,1l0,0c0,0.6-0.4,1-1,1h-6c-0.6,0-1-0.4-1-1l0,0C79.5,30.4,79.9,30,80.5,30z"/>
		<path class="st2" d="M80.5,18h6c0.6,0,1,0.4,1,1l0,0c0,0.6-0.4,1-1,1h-6c-0.6,0-1-0.4-1-1l0,0C79.5,18.4,79.9,18,80.5,18z"/>
		<path class="st2" d="M80.5,12h6c0.6,0,1,0.4,1,1l0,0c0,0.6-0.4,1-1,1h-6c-0.6,0-1-0.4-1-1l0,0C79.5,12.4,79.9,12,80.5,12z"/>
		<path class="st2" d="M80.5,7h6c0.6,0,1,0.4,1,1l0,0c0,0.6-0.4,1-1,1h-6c-0.6,0-1-0.4-1-1l0,0C79.5,7.4,79.9,7,80.5,7z"/>
	</g>
</g>
</svg>
