<svg width="119" height="54" viewBox="0 0 119 54" fill="none" xmlns="http://www.w3.org/2000/svg">
<rect width="119" height="54" rx="3" fill="white"/>
<path d="M9.31605 16V12.3636H10.0849V15.3661H11.6438V16H9.31605ZM16.353 14.1818C16.353 14.5784 16.2778 14.9157 16.1275 15.1939C15.9783 15.4721 15.7747 15.6845 15.5167 15.8313C15.2598 15.9769 14.971 16.0497 14.6502 16.0497C14.3271 16.0497 14.0371 15.9763 13.7802 15.8295C13.5233 15.6828 13.3203 15.4703 13.1712 15.1921C13.022 14.9139 12.9474 14.5772 12.9474 14.1818C12.9474 13.7853 13.022 13.4479 13.1712 13.1697C13.3203 12.8916 13.5233 12.6797 13.7802 12.5341C14.0371 12.3873 14.3271 12.3139 14.6502 12.3139C14.971 12.3139 15.2598 12.3873 15.5167 12.5341C15.7747 12.6797 15.9783 12.8916 16.1275 13.1697C16.2778 13.4479 16.353 13.7853 16.353 14.1818ZM15.5735 14.1818C15.5735 13.925 15.535 13.7083 15.4581 13.532C15.3823 13.3556 15.2752 13.2218 15.1367 13.1307C14.9982 13.0395 14.8361 12.994 14.6502 12.994C14.4644 12.994 14.3022 13.0395 14.1637 13.1307C14.0252 13.2218 13.9175 13.3556 13.8406 13.532C13.7648 13.7083 13.7269 13.925 13.7269 14.1818C13.7269 14.4387 13.7648 14.6553 13.8406 14.8317C13.9175 15.008 14.0252 15.1418 14.1637 15.233C14.3022 15.3241 14.4644 15.3697 14.6502 15.3697C14.8361 15.3697 14.9982 15.3241 15.1367 15.233C15.2752 15.1418 15.3823 15.008 15.4581 14.8317C15.535 14.6553 15.5735 14.4387 15.5735 14.1818ZM20.3337 13.5391C20.3089 13.4527 20.2739 13.3763 20.229 13.31C20.184 13.2425 20.1289 13.1857 20.0638 13.1396C19.9999 13.0922 19.9265 13.0561 19.8437 13.0312C19.762 13.0064 19.6714 12.994 19.572 12.994C19.3862 12.994 19.2228 13.0401 19.0819 13.1325C18.9423 13.2248 18.8334 13.3591 18.7552 13.5355C18.6771 13.7107 18.6381 13.925 18.6381 14.1783C18.6381 14.4316 18.6765 14.647 18.7535 14.8246C18.8304 15.0021 18.9393 15.1377 19.0802 15.2312C19.221 15.3235 19.3873 15.3697 19.5791 15.3697C19.7531 15.3697 19.9017 15.3389 20.0248 15.2773C20.1491 15.2146 20.2438 15.1264 20.3089 15.0128C20.3751 14.8991 20.4083 14.7648 20.4083 14.6097L20.5645 14.6328H19.627V14.054H21.1487V14.5121C21.1487 14.8317 21.0812 15.1063 20.9463 15.3359C20.8113 15.5644 20.6255 15.7408 20.3888 15.8651C20.152 15.9882 19.8809 16.0497 19.5756 16.0497C19.2346 16.0497 18.9352 15.9746 18.6771 15.8242C18.4191 15.6727 18.2178 15.4579 18.0734 15.1797C17.9302 14.9003 17.8586 14.5689 17.8586 14.1854C17.8586 13.8906 17.9012 13.6278 17.9864 13.397C18.0728 13.165 18.1936 12.9685 18.3486 12.8075C18.5037 12.6465 18.6842 12.524 18.8902 12.44C19.0961 12.3559 19.3193 12.3139 19.5596 12.3139C19.7655 12.3139 19.9573 12.3441 20.1349 12.4045C20.3124 12.4637 20.4698 12.5477 20.6072 12.6566C20.7456 12.7655 20.8587 12.8951 20.9463 13.0455C21.0339 13.1946 21.0901 13.3591 21.115 13.5391H20.3337ZM26.0678 14.1818C26.0678 14.5784 25.9927 14.9157 25.8423 15.1939C25.6932 15.4721 25.4896 15.6845 25.2315 15.8313C24.9747 15.9769 24.6858 16.0497 24.3651 16.0497C24.0419 16.0497 23.7519 15.9763 23.495 15.8295C23.2382 15.6828 23.0352 15.4703 22.886 15.1921C22.7369 14.9139 22.6623 14.5772 22.6623 14.1818C22.6623 13.7853 22.7369 13.4479 22.886 13.1697C23.0352 12.8916 23.2382 12.6797 23.495 12.5341C23.7519 12.3873 24.0419 12.3139 24.3651 12.3139C24.6858 12.3139 24.9747 12.3873 25.2315 12.5341C25.4896 12.6797 25.6932 12.8916 25.8423 13.1697C25.9927 13.4479 26.0678 13.7853 26.0678 14.1818ZM25.2884 14.1818C25.2884 13.925 25.2499 13.7083 25.1729 13.532C25.0972 13.3556 24.9901 13.2218 24.8516 13.1307C24.7131 13.0395 24.5509 12.994 24.3651 12.994C24.1792 12.994 24.017 13.0395 23.8786 13.1307C23.7401 13.2218 23.6323 13.3556 23.5554 13.532C23.4796 13.7083 23.4418 13.925 23.4418 14.1818C23.4418 14.4387 23.4796 14.6553 23.5554 14.8317C23.6323 15.008 23.7401 15.1418 23.8786 15.233C24.017 15.3241 24.1792 15.3697 24.3651 15.3697C24.5509 15.3697 24.7131 15.3241 24.8516 15.233C24.9901 15.1418 25.0972 15.008 25.1729 14.8317C25.2499 14.6553 25.2884 14.4387 25.2884 14.1818Z" fill="#AAAEB1"/>
<rect x="78" y="13" width="8" height="2" rx="1" fill="#AAAEB1"/>
<rect x="68" y="13" width="8" height="2" rx="1" fill="#AAAEB1"/>
<rect x="58" y="13" width="8" height="2" rx="1" fill="#AAAEB1"/>
<path d="M104.187 16.3437C104.429 16.3437 104.625 16.1479 104.625 15.9062C104.625 15.6646 104.429 15.4688 104.187 15.4688C103.946 15.4688 103.75 15.6646 103.75 15.9062C103.75 16.1479 103.946 16.3437 104.187 16.3437Z" fill="#AAAEB1"/>
<path d="M107.031 16.3437C107.273 16.3437 107.469 16.1479 107.469 15.9062C107.469 15.6646 107.273 15.4688 107.031 15.4688C106.79 15.4688 106.594 15.6646 106.594 15.9062C106.594 16.1479 106.79 16.3437 107.031 16.3437Z" fill="#AAAEB1"/>
<path fill-rule="evenodd" clip-rule="evenodd" d="M102 10.875C102 10.7542 102.098 10.6562 102.219 10.6562H102.679C102.774 10.6563 102.866 10.6872 102.942 10.7445C103.018 10.8017 103.073 10.8821 103.099 10.9736L103.321 11.75H108.063C108.131 11.75 108.196 11.7822 108.237 11.837C108.278 11.8918 108.292 11.9628 108.273 12.0288L107.551 14.5553C107.512 14.6924 107.429 14.813 107.315 14.8989C107.201 14.9848 107.063 15.0312 106.92 15.0312H104.299C104.156 15.0312 104.017 14.9848 103.904 14.8989C103.79 14.813 103.707 14.6924 103.668 14.5553L102.947 12.0337C102.946 12.0305 102.945 12.0274 102.945 12.0242L102.679 11.0937H102.219C102.098 11.0937 102 10.9958 102 10.875ZM103.446 12.1875L104.088 14.4351C104.101 14.4808 104.129 14.521 104.167 14.5496C104.205 14.5783 104.251 14.5937 104.299 14.5937H106.92C106.968 14.5937 107.014 14.5783 107.052 14.5496C107.09 14.521 107.117 14.4808 107.13 14.4351L107.772 12.1875H103.446Z" fill="#AAAEB1"/>
<rect x="10" y="31" width="21.9001" height="15.4112" rx="1.5429" fill="#E8EBEC"/>
<rect x="10.001" y="49.6555" width="13.0358" height="1.36249" rx="0.681244" fill="#E8EBEC"/>
<rect x="38" y="31" width="21.9001" height="15.4112" rx="1.5429" fill="#E8EBEC"/>
<path d="M38.001 50.3368C38.001 49.9605 38.306 49.6555 38.6822 49.6555H50.3555C50.7318 49.6555 51.0368 49.9605 51.0368 50.3368V50.3368C51.0368 50.713 50.7318 51.018 50.3555 51.018H38.6822C38.306 51.018 38.001 50.713 38.001 50.3368V50.3368Z" fill="#E8EBEC"/>
<rect x="66" y="31" width="21.9001" height="15.4112" rx="1.5429" fill="#E8EBEC"/>
<rect x="66.001" y="49.6555" width="13.0358" height="1.36249" rx="0.681244" fill="#E8EBEC"/>
<path d="M84 0H116C117.657 0 119 1.34315 119 3V51C119 52.6569 117.657 54 116 54H84V0Z" fill="#AAAEB1"/>
<rect x="87" y="4" width="8" height="11" fill="#D5D5D5"/>
<rect x="87" y="30" width="8" height="11" fill="#D5D5D5"/>
<rect x="87" y="17" width="8" height="11" fill="#D5D5D5"/>
<rect x="87" y="43" width="8" height="11" fill="#D5D5D5"/>
<path d="M97 5.5C97 5.22386 97.2239 5 97.5 5H108.5C108.776 5 109 5.22386 109 5.5V5.5C109 5.77614 108.776 6 108.5 6H97.5C97.2239 6 97 5.77614 97 5.5V5.5Z" fill="#D5D5D5"/>
<path d="M97 31.5C97 31.2239 97.2239 31 97.5 31H108.5C108.776 31 109 31.2239 109 31.5V31.5C109 31.7761 108.776 32 108.5 32H97.5C97.2239 32 97 31.7761 97 31.5V31.5Z" fill="#D5D5D5"/>
<path d="M97 18.5C97 18.2239 97.2239 18 97.5 18H108.5C108.776 18 109 18.2239 109 18.5V18.5C109 18.7761 108.776 19 108.5 19H97.5C97.2239 19 97 18.7761 97 18.5V18.5Z" fill="#D5D5D5"/>
<path d="M97 44.5C97 44.2239 97.2239 44 97.5 44H108.5C108.776 44 109 44.2239 109 44.5V44.5C109 44.7761 108.776 45 108.5 45H97.5C97.2239 45 97 44.7761 97 44.5V44.5Z" fill="#D5D5D5"/>
<path d="M97 8.5C97 8.22386 97.2239 8 97.5 8H106.5C106.776 8 107 8.22386 107 8.5V8.5C107 8.77614 106.776 9 106.5 9H97.5C97.2239 9 97 8.77614 97 8.5V8.5Z" fill="#D5D5D5"/>
<path d="M97 34.5C97 34.2239 97.2239 34 97.5 34H106.5C106.776 34 107 34.2239 107 34.5V34.5C107 34.7761 106.776 35 106.5 35H97.5C97.2239 35 97 34.7761 97 34.5V34.5Z" fill="#D5D5D5"/>
<path d="M97 21.5C97 21.2239 97.2239 21 97.5 21H106.5C106.776 21 107 21.2239 107 21.5V21.5C107 21.7761 106.776 22 106.5 22H97.5C97.2239 22 97 21.7761 97 21.5V21.5Z" fill="#D5D5D5"/>
<path d="M97 47.5C97 47.2239 97.2239 47 97.5 47H106.5C106.776 47 107 47.2239 107 47.5V47.5C107 47.7761 106.776 48 106.5 48H97.5C97.2239 48 97 47.7761 97 47.5V47.5Z" fill="#D5D5D5"/>
<path d="M97 11.5C97 11.2239 97.2239 11 97.5 11H100.5C100.776 11 101 11.2239 101 11.5V11.5C101 11.7761 100.776 12 100.5 12H97.5C97.2239 12 97 11.7761 97 11.5V11.5Z" fill="#D5D5D5"/>
<path d="M97 37.5C97 37.2239 97.2239 37 97.5 37H100.5C100.776 37 101 37.2239 101 37.5V37.5C101 37.7761 100.776 38 100.5 38H97.5C97.2239 38 97 37.7761 97 37.5V37.5Z" fill="#D5D5D5"/>
<path d="M97 24.5C97 24.2239 97.2239 24 97.5 24H100.5C100.776 24 101 24.2239 101 24.5V24.5C101 24.7761 100.776 25 100.5 25H97.5C97.2239 25 97 24.7761 97 24.5V24.5Z" fill="#D5D5D5"/>
<path d="M97 50.5C97 50.2239 97.2239 50 97.5 50H100.5C100.776 50 101 50.2239 101 50.5V50.5C101 50.7761 100.776 51 100.5 51H97.5C97.2239 51 97 50.7761 97 50.5V50.5Z" fill="#D5D5D5"/>
<path d="M113.902 2.72266L113.723 2.90234L114.82 4L113.723 5.09766L113.902 5.27734L115 4.17969L116.098 5.27734L116.277 5.09766L115.18 4L116.277 2.90234L116.098 2.72266L115 3.82031L113.902 2.72266Z" fill="white"/>
</svg>