<svg width="95" height="95" viewBox="0 0 95 95" fill="none" xmlns="http://www.w3.org/2000/svg">
<g clip-path="url(#clip0_2_2)">
<path d="M95 0H0V95H95V0Z" fill="#CACCCE"/>
<path d="M48 35.6042C48.0827 35.6042 56.2369 35.6042 61.6203 35.9923L61.8575 36.0139C62.5762 36.0786 63.3525 36.1541 64.1144 36.9411C64.4737 37.3005 64.8834 38.5727 65.0236 39.4819C65.2508 41.4757 65.3707 43.4803 65.383 45.487V48.4483C65.3703 50.4562 65.2503 52.4619 65.0236 54.457C64.8906 55.3447 64.4702 56.6348 64.118 56.9727C63.3597 57.7561 62.5655 57.8316 61.8647 57.8998L61.6203 57.925C56.3303 58.2844 48.363 58.3203 48.0036 58.3203C47.5903 58.3203 37.9411 58.2233 34.8613 57.9609C34.678 57.9322 34.5019 57.907 34.2934 57.8855C33.4741 57.7884 32.5433 57.677 31.8748 56.9834C31.5155 56.6241 31.1058 55.3555 30.9692 54.4498C30.742 52.456 30.6221 50.4514 30.6098 48.4447V45.5122C30.6226 43.5055 30.7426 41.5009 30.9692 39.507C31.1094 38.5906 31.5262 37.3184 31.8784 36.9663C32.6403 36.1792 33.4345 36.1073 34.1353 36.0391L34.3725 36.0175C39.7631 35.633 47.9102 35.6294 47.9892 35.6294H48M48 33.2934C48 33.2934 39.702 33.2934 34.1713 33.6888C33.3986 33.7786 31.7167 33.7858 30.2181 35.3383C29.0358 36.5242 28.6477 39.2159 28.6477 39.2159C28.3964 41.3057 28.2584 43.4075 28.2344 45.5122V48.4734C28.2515 50.5862 28.3834 52.6964 28.6297 54.7948C28.6297 54.7948 29.0142 57.4866 30.2002 58.6689C31.7059 60.2214 33.6789 60.1747 34.5594 60.34C37.7219 60.6383 48 60.7317 48 60.7317C48 60.7317 56.3052 60.7317 61.8395 60.3256C62.6122 60.2358 64.2977 60.225 65.7927 58.6725C66.975 57.4902 67.3631 54.7984 67.3631 54.7984C67.6117 52.7002 67.7461 50.5899 67.7656 48.477V45.5158C67.7485 43.403 67.6165 41.2928 67.3703 39.1944C67.3703 39.1944 66.9858 36.5027 65.7998 35.3167C64.2977 33.7642 62.6122 33.7534 61.8467 33.6672C56.3052 33.2683 48 33.2683 48 33.2683V33.2934Z" fill="#E8E8E8"/>
<path d="M44.453 41.1098V52.8902L54.5119 47L44.453 41.1098Z" fill="#E8E8E8"/>
</g>
<defs>
<clipPath id="clip0_2_2">
<rect width="95" height="95" fill="white"/>
</clipPath>
</defs>
</svg>