<svg width="122" height="64" viewBox="0 0 122 64" fill="none" xmlns="http://www.w3.org/2000/svg">
<g clip-path="url(#clip0_1_2)">
<g filter="url(#filter0_d_1_2)">
<path d="M117 1H5C3.34315 1 2 2.34315 2 4V58C2 59.6569 3.34315 61 5 61H117C118.657 61 120 59.6569 120 58V4C120 2.34315 118.657 1 117 1Z" fill="#CACCCE"/>
</g>
<mask id="mask0_1_2" style="mask-type:alpha" maskUnits="userSpaceOnUse" x="2" y="1" width="118" height="60">
<path d="M117 1H5C3.34315 1 2 2.34315 2 4V58C2 59.6569 3.34315 61 5 61H117C118.657 61 120 59.6569 120 58V4C120 2.34315 118.657 1 117 1Z" fill="white"/>
</mask>
<g mask="url(#mask0_1_2)">
<path opacity="0.5" d="M115.6 5.00001L112 8.59998L112.4 8.99997L116 5.40001L115.6 5.00001Z" fill="white"/>
<path opacity="0.5" d="M116 8.60009L112.4 5.00012L112 5.40012L115.6 9.00008L116 8.60009Z" fill="white"/>
</g>
</g>
<defs>
<filter id="filter0_d_1_2" x="0" y="0" width="122" height="64" filterUnits="userSpaceOnUse" color-interpolation-filters="sRGB">
<feFlood flood-opacity="0" result="BackgroundImageFix"/>
<feColorMatrix in="SourceAlpha" type="matrix" values="0 0 0 0 0 0 0 0 0 0 0 0 0 0 0 0 0 0 127 0" result="hardAlpha"/>
<feOffset dy="1"/>
<feGaussianBlur stdDeviation="1"/>
<feColorMatrix type="matrix" values="0 0 0 0 0 0 0 0 0 0 0 0 0 0 0 0 0 0 0.12 0"/>
<feBlend mode="normal" in2="BackgroundImageFix" result="effect1_dropShadow_1_2"/>
<feBlend mode="normal" in="SourceGraphic" in2="effect1_dropShadow_1_2" result="shape"/>
</filter>
<clipPath id="clip0_1_2">
<rect width="122" height="64" fill="white"/>
</clipPath>
</defs>
</svg>