<svg width="122" height="64" viewBox="0 0 122 64" fill="none" xmlns="http://www.w3.org/2000/svg">
<g filter="url(#filter0_d_695_2156)">
<rect x="2" y="1" width="118" height="60" rx="3" fill="white"/>
</g>
<mask id="mask0_695_2156" style="mask-type:alpha" maskUnits="userSpaceOnUse" x="2" y="1" width="118" height="60">
<rect x="2" y="1" width="118" height="60" rx="3" fill="white"/>
</mask>
<g mask="url(#mask0_695_2156)">
<rect x="2" y="61" width="60" height="47" transform="rotate(-90 2 61)" fill="#CACCCE"/>
<rect opacity="0.5" x="59" y="20" width="51" height="1" rx="0.5" fill="#CACCCE"/>
<rect opacity="0.5" x="112" y="8.59998" width="5.09112" height="0.56568" transform="rotate(-45 112 8.59998)" fill="#CACCCE"/>
<rect opacity="0.5" x="112.4" y="5.00012" width="5.09112" height="0.56568" transform="rotate(45 112.4 5.00012)" fill="#CACCCE"/>
<rect opacity="0.5" x="112" y="8.59998" width="5.09112" height="0.56568" transform="rotate(-45 112 8.59998)" fill="#CACCCE"/>
<rect opacity="0.5" x="112.4" y="5.00012" width="5.09112" height="0.56568" transform="rotate(45 112.4 5.00012)" fill="#CACCCE"/>
<path opacity="0.5" d="M59 14H83V16H59V14Z" fill="#CACCCE"/>
<rect opacity="0.5" x="59" y="25" width="51" height="1" rx="0.5" fill="#CACCCE"/>
<rect opacity="0.5" x="59" y="30" width="51" height="1" rx="0.5" fill="#CACCCE"/>
<rect opacity="0.5" x="59" y="35" width="51" height="1" rx="0.5" fill="#CACCCE"/>
<rect opacity="0.5" x="59" y="40" width="51" height="1" rx="0.5" fill="#CACCCE"/>
<rect opacity="0.5" x="59" y="45" width="51" height="1" rx="0.5" fill="#CACCCE"/>
<rect opacity="0.5" x="59" y="50" width="51" height="1" rx="0.5" fill="#CACCCE"/>
</g>
<defs>
<filter id="filter0_d_695_2156" x="0" y="0" width="122" height="64" filterUnits="userSpaceOnUse" color-interpolation-filters="sRGB">
<feFlood flood-opacity="0" result="BackgroundImageFix"/>
<feColorMatrix in="SourceAlpha" type="matrix" values="0 0 0 0 0 0 0 0 0 0 0 0 0 0 0 0 0 0 127 0" result="hardAlpha"/>
<feOffset dy="1"/>
<feGaussianBlur stdDeviation="1"/>
<feColorMatrix type="matrix" values="0 0 0 0 0 0 0 0 0 0 0 0 0 0 0 0 0 0 0.12 0"/>
<feBlend mode="normal" in2="BackgroundImageFix" result="effect1_dropShadow_695_2156"/>
<feBlend mode="normal" in="SourceGraphic" in2="effect1_dropShadow_695_2156" result="shape"/>
</filter>
</defs>
</svg>