<svg width="122" height="64" viewBox="0 0 122 64" fill="none" xmlns="http://www.w3.org/2000/svg">
<g filter="url(#filter0_d_1206_3261)">
<rect x="2" y="1" width="118" height="60" rx="3" fill="white"/>
</g>
<mask id="mask0_1206_3261" style="mask-type:alpha" maskUnits="userSpaceOnUse" x="2" y="1" width="118" height="60">
<rect x="2" y="1" width="118" height="60" rx="3" fill="white"/>
</mask>
<g mask="url(#mask0_1206_3261)">
<rect opacity="0.5" x="13" y="19" width="96" height="1" rx="0.5" fill="#CACCCE"/>
<path opacity="0.5" d="M38 13H83.1765V15H38V13Z" fill="#CACCCE"/>
<rect opacity="0.5" x="13" y="24" width="96" height="1" rx="0.5" fill="#CACCCE"/>
<rect opacity="0.5" x="13" y="29" width="96" height="1" rx="0.5" fill="#CACCCE"/>
<rect opacity="0.5" x="13" y="34" width="96" height="1" rx="0.5" fill="#CACCCE"/>
<rect opacity="0.5" x="13" y="39" width="96" height="1" rx="0.5" fill="#CACCCE"/>
<rect opacity="0.5" x="13" y="44" width="96" height="1" rx="0.5" fill="#CACCCE"/>
<rect opacity="0.5" x="13" y="49" width="69" height="1" rx="0.5" fill="#CACCCE"/>
<rect opacity="0.5" x="112" y="8.59998" width="5.09112" height="0.56568" transform="rotate(-45 112 8.59998)" fill="#CACCCE"/>
<rect opacity="0.5" x="112.4" y="5.00012" width="5.09112" height="0.56568" transform="rotate(45 112.4 5.00012)" fill="#CACCCE"/>
</g>
<defs>
<filter id="filter0_d_1206_3261" x="0" y="0" width="122" height="64" filterUnits="userSpaceOnUse" color-interpolation-filters="sRGB">
<feFlood flood-opacity="0" result="BackgroundImageFix"/>
<feColorMatrix in="SourceAlpha" type="matrix" values="0 0 0 0 0 0 0 0 0 0 0 0 0 0 0 0 0 0 127 0" result="hardAlpha"/>
<feOffset dy="1"/>
<feGaussianBlur stdDeviation="1"/>
<feColorMatrix type="matrix" values="0 0 0 0 0 0 0 0 0 0 0 0 0 0 0 0 0 0 0.12 0"/>
<feBlend mode="normal" in2="BackgroundImageFix" result="effect1_dropShadow_1206_3261"/>
<feBlend mode="normal" in="SourceGraphic" in2="effect1_dropShadow_1206_3261" result="shape"/>
</filter>
</defs>
</svg>