<svg width="15" height="15" viewBox="0 0 15 15" fill="none" xmlns="http://www.w3.org/2000/svg">
<circle cx="7.5" cy="7.5" r="7" fill="transparent" stroke="#3858E9"/>
<path d="M5.625 10C5.45313 10 5.30594 9.944 5.18344 9.832C5.06094 9.72 4.99979 9.58552 5 9.42857V6.57143C5 6.41429 5.06125 6.27971 5.18375 6.16771C5.30625 6.05571 5.45333 5.99981 5.625 6H5.9375V5.42857C5.9375 5.03333 6.0899 4.69638 6.39469 4.41771C6.69948 4.13905 7.06792 3.99981 7.5 4C7.93229 4 8.30083 4.13933 8.60562 4.418C8.91042 4.69667 9.06271 5.03352 9.0625 5.42857V6H9.375C9.54687 6 9.69406 6.056 9.81656 6.168C9.93906 6.28 10.0002 6.41448 10 6.57143V9.42857C10 9.58571 9.93875 9.72029 9.81625 9.83229C9.69375 9.94429 9.54667 10.0002 9.375 10H5.625ZM7.5 8.57143C7.67188 8.57143 7.81906 8.51543 7.94156 8.40343C8.06406 8.29143 8.12521 8.15695 8.125 8C8.125 7.84286 8.06375 7.70829 7.94125 7.59629C7.81875 7.48429 7.67167 7.42838 7.5 7.42857C7.32813 7.42857 7.18094 7.48457 7.05844 7.59657C6.93594 7.70857 6.87479 7.84305 6.875 8C6.875 8.15714 6.93625 8.29171 7.05875 8.40371C7.18125 8.51571 7.32833 8.57162 7.5 8.57143ZM6.5625 6H8.4375V5.42857C8.4375 5.19048 8.34635 4.9881 8.16406 4.82143C7.98177 4.65476 7.76042 4.57143 7.5 4.57143C7.23958 4.57143 7.01823 4.65476 6.83594 4.82143C6.65365 4.9881 6.5625 5.19048 6.5625 5.42857V6Z" fill="#3858E9"/>
</svg>
