<svg width="90" height="47" viewBox="0 0 90 47" fill="none" xmlns="http://www.w3.org/2000/svg">
<g filter="url(#filter0_d_1601_1842)">
<rect x="2" y="1" width="86" height="43" rx="3" fill="white"/>
</g>
<rect x="6" y="6" width="78" height="33" fill="#F5F5F5"/>
<rect x="6.5" y="6.5" width="77" height="32" stroke="#212121" stroke-opacity="0.3"/>
<path d="M83 22.5L66 22.5" stroke="#212121" stroke-opacity="0.3"/>
<line x1="65.5" y1="7" x2="65.5" y2="38" stroke="#212121" stroke-opacity="0.3"/>
<path d="M33.8633 23.25C33.6367 23.5195 33.3652 23.7363 33.0488 23.9004C32.7363 24.0645 32.3926 24.1465 32.0176 24.1465C31.5254 24.1465 31.0957 24.0254 30.7285 23.7832C30.3652 23.541 30.084 23.2012 29.8848 22.7637C29.6855 22.3223 29.5859 21.8359 29.5859 21.3047C29.5859 20.7344 29.6934 20.2207 29.9082 19.7637C30.127 19.3066 30.4355 18.957 30.834 18.7148C31.2324 18.4727 31.6973 18.3516 32.2285 18.3516C33.0723 18.3516 33.7363 18.668 34.2207 19.3008C34.709 19.9297 34.9531 20.7891 34.9531 21.8789V22.1953C34.9531 23.8555 34.625 25.0684 33.9688 25.834C33.3125 26.5957 32.3223 26.9863 30.998 27.0059H30.7871V26.0918H31.0156C31.9102 26.0762 32.5977 25.8438 33.0781 25.3945C33.5586 24.9414 33.8203 24.2266 33.8633 23.25ZM32.1934 23.25C32.5566 23.25 32.8906 23.1387 33.1953 22.916C33.5039 22.6934 33.7285 22.418 33.8691 22.0898V21.6562C33.8691 20.9453 33.7148 20.3672 33.4062 19.9219C33.0977 19.4766 32.707 19.2539 32.2344 19.2539C31.7578 19.2539 31.375 19.4375 31.0859 19.8047C30.7969 20.168 30.6523 20.6484 30.6523 21.2461C30.6523 21.8281 30.791 22.3086 31.0684 22.6875C31.3496 23.0625 31.7246 23.25 32.1934 23.25ZM40.6016 23.25C40.375 23.5195 40.1035 23.7363 39.7871 23.9004C39.4746 24.0645 39.1309 24.1465 38.7559 24.1465C38.2637 24.1465 37.834 24.0254 37.4668 23.7832C37.1035 23.541 36.8223 23.2012 36.623 22.7637C36.4238 22.3223 36.3242 21.8359 36.3242 21.3047C36.3242 20.7344 36.4316 20.2207 36.6465 19.7637C36.8652 19.3066 37.1738 18.957 37.5723 18.7148C37.9707 18.4727 38.4355 18.3516 38.9668 18.3516C39.8105 18.3516 40.4746 18.668 40.959 19.3008C41.4473 19.9297 41.6914 20.7891 41.6914 21.8789V22.1953C41.6914 23.8555 41.3633 25.0684 40.707 25.834C40.0508 26.5957 39.0605 26.9863 37.7363 27.0059H37.5254V26.0918H37.7539C38.6484 26.0762 39.3359 25.8438 39.8164 25.3945C40.2969 24.9414 40.5586 24.2266 40.6016 23.25ZM38.9316 23.25C39.2949 23.25 39.6289 23.1387 39.9336 22.916C40.2422 22.6934 40.4668 22.418 40.6074 22.0898V21.6562C40.6074 20.9453 40.4531 20.3672 40.1445 19.9219C39.8359 19.4766 39.4453 19.2539 38.9727 19.2539C38.4961 19.2539 38.1133 19.4375 37.8242 19.8047C37.5352 20.168 37.3906 20.6484 37.3906 21.2461C37.3906 21.8281 37.5293 22.3086 37.8066 22.6875C38.0879 23.0625 38.4629 23.25 38.9316 23.25Z" fill="#212121"/>
<path d="M74.9258 14.4238H77.3047V15.4492H74.9258V18.1445H73.8359V15.4492H71.457V14.4238H73.8359V11.9336H74.9258V14.4238Z" fill="#212121"/>
<path d="M76.1016 30.7578H72.2891V29.5781H76.1016V30.7578Z" fill="#212121"/>
<defs>
<filter id="filter0_d_1601_1842" x="0" y="0" width="90" height="47" filterUnits="userSpaceOnUse" color-interpolation-filters="sRGB">
<feFlood flood-opacity="0" result="BackgroundImageFix"/>
<feColorMatrix in="SourceAlpha" type="matrix" values="0 0 0 0 0 0 0 0 0 0 0 0 0 0 0 0 0 0 127 0" result="hardAlpha"/>
<feOffset dy="1"/>
<feGaussianBlur stdDeviation="1"/>
<feColorMatrix type="matrix" values="0 0 0 0 0 0 0 0 0 0 0 0 0 0 0 0 0 0 0.12 0"/>
<feBlend mode="normal" in2="BackgroundImageFix" result="effect1_dropShadow_1601_1842"/>
<feBlend mode="normal" in="SourceGraphic" in2="effect1_dropShadow_1601_1842" result="shape"/>
</filter>
</defs>
</svg>