<svg width="90" height="47" viewBox="0 0 90 47" fill="none" xmlns="http://www.w3.org/2000/svg">
<g filter="url(#filter0_d_1601_1851)">
<rect x="2" y="1" width="86" height="43" rx="3" fill="white"/>
</g>
<rect x="7" y="7" width="76" height="31" stroke="#212121" stroke-width="2"/>
<line x1="71.8887" y1="14.3536" x2="68.3532" y2="17.8891" stroke="black"/>
<line x1="71.1817" y1="14.3535" x2="74.7172" y2="17.889" stroke="black"/>
<line x1="71.4746" y1="29.8891" x2="75.0101" y2="26.3536" stroke="black"/>
<line x1="72.1816" y1="29.8892" x2="68.6461" y2="26.3537" stroke="black"/>
<path d="M35.8633 23.25C35.6367 23.5195 35.3652 23.7363 35.0488 23.9004C34.7363 24.0645 34.3926 24.1465 34.0176 24.1465C33.5254 24.1465 33.0957 24.0254 32.7285 23.7832C32.3652 23.541 32.084 23.2012 31.8848 22.7637C31.6855 22.3223 31.5859 21.8359 31.5859 21.3047C31.5859 20.7344 31.6934 20.2207 31.9082 19.7637C32.127 19.3066 32.4355 18.957 32.834 18.7148C33.2324 18.4727 33.6973 18.3516 34.2285 18.3516C35.0723 18.3516 35.7363 18.668 36.2207 19.3008C36.709 19.9297 36.9531 20.7891 36.9531 21.8789V22.1953C36.9531 23.8555 36.625 25.0684 35.9688 25.834C35.3125 26.5957 34.3223 26.9863 32.998 27.0059H32.7871V26.0918H33.0156C33.9102 26.0762 34.5977 25.8438 35.0781 25.3945C35.5586 24.9414 35.8203 24.2266 35.8633 23.25ZM34.1934 23.25C34.5566 23.25 34.8906 23.1387 35.1953 22.916C35.5039 22.6934 35.7285 22.418 35.8691 22.0898V21.6562C35.8691 20.9453 35.7148 20.3672 35.4062 19.9219C35.0977 19.4766 34.707 19.2539 34.2344 19.2539C33.7578 19.2539 33.375 19.4375 33.0859 19.8047C32.7969 20.168 32.6523 20.6484 32.6523 21.2461C32.6523 21.8281 32.791 22.3086 33.0684 22.6875C33.3496 23.0625 33.7246 23.25 34.1934 23.25ZM42.6016 23.25C42.375 23.5195 42.1035 23.7363 41.7871 23.9004C41.4746 24.0645 41.1309 24.1465 40.7559 24.1465C40.2637 24.1465 39.834 24.0254 39.4668 23.7832C39.1035 23.541 38.8223 23.2012 38.623 22.7637C38.4238 22.3223 38.3242 21.8359 38.3242 21.3047C38.3242 20.7344 38.4316 20.2207 38.6465 19.7637C38.8652 19.3066 39.1738 18.957 39.5723 18.7148C39.9707 18.4727 40.4355 18.3516 40.9668 18.3516C41.8105 18.3516 42.4746 18.668 42.959 19.3008C43.4473 19.9297 43.6914 20.7891 43.6914 21.8789V22.1953C43.6914 23.8555 43.3633 25.0684 42.707 25.834C42.0508 26.5957 41.0605 26.9863 39.7363 27.0059H39.5254V26.0918H39.7539C40.6484 26.0762 41.3359 25.8438 41.8164 25.3945C42.2969 24.9414 42.5586 24.2266 42.6016 23.25ZM40.9316 23.25C41.2949 23.25 41.6289 23.1387 41.9336 22.916C42.2422 22.6934 42.4668 22.418 42.6074 22.0898V21.6562C42.6074 20.9453 42.4531 20.3672 42.1445 19.9219C41.8359 19.4766 41.4453 19.2539 40.9727 19.2539C40.4961 19.2539 40.1133 19.4375 39.8242 19.8047C39.5352 20.168 39.3906 20.6484 39.3906 21.2461C39.3906 21.8281 39.5293 22.3086 39.8066 22.6875C40.0879 23.0625 40.4629 23.25 40.9316 23.25Z" fill="#212121"/>
<defs>
<filter id="filter0_d_1601_1851" x="0" y="0" width="90" height="47" filterUnits="userSpaceOnUse" color-interpolation-filters="sRGB">
<feFlood flood-opacity="0" result="BackgroundImageFix"/>
<feColorMatrix in="SourceAlpha" type="matrix" values="0 0 0 0 0 0 0 0 0 0 0 0 0 0 0 0 0 0 127 0" result="hardAlpha"/>
<feOffset dy="1"/>
<feGaussianBlur stdDeviation="1"/>
<feColorMatrix type="matrix" values="0 0 0 0 0 0 0 0 0 0 0 0 0 0 0 0 0 0 0.12 0"/>
<feBlend mode="normal" in2="BackgroundImageFix" result="effect1_dropShadow_1601_1851"/>
<feBlend mode="normal" in="SourceGraphic" in2="effect1_dropShadow_1601_1851" result="shape"/>
</filter>
</defs>
</svg>