<svg width="90" height="47" viewBox="0 0 90 47" fill="none" xmlns="http://www.w3.org/2000/svg">
<g filter="url(#filter0_d_1601_1861)">
<rect x="2" y="1" width="86" height="43" rx="3" fill="white"/>
</g>
<rect x="6" y="6" width="78" height="33" fill="#F5F5F5"/>
<rect x="6.5" y="6.5" width="77" height="32" stroke="#212121" stroke-opacity="0.3"/>
<rect x="6" y="6" width="24" height="33" fill="#212121"/>
<rect x="60" y="6" width="24" height="33" fill="#212121"/>
<path d="M42.8633 23.25C42.6367 23.5195 42.3652 23.7363 42.0488 23.9004C41.7363 24.0645 41.3926 24.1465 41.0176 24.1465C40.5254 24.1465 40.0957 24.0254 39.7285 23.7832C39.3652 23.541 39.084 23.2012 38.8848 22.7637C38.6855 22.3223 38.5859 21.8359 38.5859 21.3047C38.5859 20.7344 38.6934 20.2207 38.9082 19.7637C39.127 19.3066 39.4355 18.957 39.834 18.7148C40.2324 18.4727 40.6973 18.3516 41.2285 18.3516C42.0723 18.3516 42.7363 18.668 43.2207 19.3008C43.709 19.9297 43.9531 20.7891 43.9531 21.8789V22.1953C43.9531 23.8555 43.625 25.0684 42.9688 25.834C42.3125 26.5957 41.3223 26.9863 39.998 27.0059H39.7871V26.0918H40.0156C40.9102 26.0762 41.5977 25.8438 42.0781 25.3945C42.5586 24.9414 42.8203 24.2266 42.8633 23.25ZM41.1934 23.25C41.5566 23.25 41.8906 23.1387 42.1953 22.916C42.5039 22.6934 42.7285 22.418 42.8691 22.0898V21.6562C42.8691 20.9453 42.7148 20.3672 42.4062 19.9219C42.0977 19.4766 41.707 19.2539 41.2344 19.2539C40.7578 19.2539 40.375 19.4375 40.0859 19.8047C39.7969 20.168 39.6523 20.6484 39.6523 21.2461C39.6523 21.8281 39.791 22.3086 40.0684 22.6875C40.3496 23.0625 40.7246 23.25 41.1934 23.25ZM49.6016 23.25C49.375 23.5195 49.1035 23.7363 48.7871 23.9004C48.4746 24.0645 48.1309 24.1465 47.7559 24.1465C47.2637 24.1465 46.834 24.0254 46.4668 23.7832C46.1035 23.541 45.8223 23.2012 45.623 22.7637C45.4238 22.3223 45.3242 21.8359 45.3242 21.3047C45.3242 20.7344 45.4316 20.2207 45.6465 19.7637C45.8652 19.3066 46.1738 18.957 46.5723 18.7148C46.9707 18.4727 47.4355 18.3516 47.9668 18.3516C48.8105 18.3516 49.4746 18.668 49.959 19.3008C50.4473 19.9297 50.6914 20.7891 50.6914 21.8789V22.1953C50.6914 23.8555 50.3633 25.0684 49.707 25.834C49.0508 26.5957 48.0605 26.9863 46.7363 27.0059H46.5254V26.0918H46.7539C47.6484 26.0762 48.3359 25.8438 48.8164 25.3945C49.2969 24.9414 49.5586 24.2266 49.6016 23.25ZM47.9316 23.25C48.2949 23.25 48.6289 23.1387 48.9336 22.916C49.2422 22.6934 49.4668 22.418 49.6074 22.0898V21.6562C49.6074 20.9453 49.4531 20.3672 49.1445 19.9219C48.8359 19.4766 48.4453 19.2539 47.9727 19.2539C47.4961 19.2539 47.1133 19.4375 46.8242 19.8047C46.5352 20.168 46.3906 20.6484 46.3906 21.2461C46.3906 21.8281 46.5293 22.3086 46.8066 22.6875C47.0879 23.0625 47.4629 23.25 47.9316 23.25Z" fill="#212121"/>
<path d="M71.9258 22.4238H74.3047V23.4492H71.9258V26.1445H70.8359V23.4492H68.457V22.4238H70.8359V19.9336H71.9258V22.4238Z" fill="white"/>
<path d="M20.1016 23.7578H16.2891V22.5781H20.1016V23.7578Z" fill="white"/>
<defs>
<filter id="filter0_d_1601_1861" x="0" y="0" width="90" height="47" filterUnits="userSpaceOnUse" color-interpolation-filters="sRGB">
<feFlood flood-opacity="0" result="BackgroundImageFix"/>
<feColorMatrix in="SourceAlpha" type="matrix" values="0 0 0 0 0 0 0 0 0 0 0 0 0 0 0 0 0 0 127 0" result="hardAlpha"/>
<feOffset dy="1"/>
<feGaussianBlur stdDeviation="1"/>
<feColorMatrix type="matrix" values="0 0 0 0 0 0 0 0 0 0 0 0 0 0 0 0 0 0 0.12 0"/>
<feBlend mode="normal" in2="BackgroundImageFix" result="effect1_dropShadow_1601_1861"/>
<feBlend mode="normal" in="SourceGraphic" in2="effect1_dropShadow_1601_1861" result="shape"/>
</filter>
</defs>
</svg>