<svg width="90" height="47" viewBox="0 0 90 47" fill="none" xmlns="http://www.w3.org/2000/svg">
<g filter="url(#filter0_d_1601_1877)">
<rect x="2" y="1" width="86" height="43" rx="3" fill="white"/>
</g>
<rect x="6" y="10" width="23" height="25" fill="#F5F5F5"/>
<rect x="6.5" y="10.5" width="22" height="24" stroke="#212121" stroke-opacity="0.3"/>
<rect x="62" y="10" width="23" height="25" fill="#F5F5F5"/>
<rect x="62.5" y="10.5" width="22" height="24" stroke="#212121" stroke-opacity="0.3"/>
<rect x="31" y="10" width="29" height="25" fill="#F5F5F5"/>
<rect x="31.5" y="10.5" width="28" height="24" stroke="#212121" stroke-opacity="0.3"/>
<path d="M43.8633 23.25C43.6367 23.5195 43.3652 23.7363 43.0488 23.9004C42.7363 24.0645 42.3926 24.1465 42.0176 24.1465C41.5254 24.1465 41.0957 24.0254 40.7285 23.7832C40.3652 23.541 40.084 23.2012 39.8848 22.7637C39.6855 22.3223 39.5859 21.8359 39.5859 21.3047C39.5859 20.7344 39.6934 20.2207 39.9082 19.7637C40.127 19.3066 40.4355 18.957 40.834 18.7148C41.2324 18.4727 41.6973 18.3516 42.2285 18.3516C43.0723 18.3516 43.7363 18.668 44.2207 19.3008C44.709 19.9297 44.9531 20.7891 44.9531 21.8789V22.1953C44.9531 23.8555 44.625 25.0684 43.9688 25.834C43.3125 26.5957 42.3223 26.9863 40.998 27.0059H40.7871V26.0918H41.0156C41.9102 26.0762 42.5977 25.8438 43.0781 25.3945C43.5586 24.9414 43.8203 24.2266 43.8633 23.25ZM42.1934 23.25C42.5566 23.25 42.8906 23.1387 43.1953 22.916C43.5039 22.6934 43.7285 22.418 43.8691 22.0898V21.6562C43.8691 20.9453 43.7148 20.3672 43.4062 19.9219C43.0977 19.4766 42.707 19.2539 42.2344 19.2539C41.7578 19.2539 41.375 19.4375 41.0859 19.8047C40.7969 20.168 40.6523 20.6484 40.6523 21.2461C40.6523 21.8281 40.791 22.3086 41.0684 22.6875C41.3496 23.0625 41.7246 23.25 42.1934 23.25ZM50.6016 23.25C50.375 23.5195 50.1035 23.7363 49.7871 23.9004C49.4746 24.0645 49.1309 24.1465 48.7559 24.1465C48.2637 24.1465 47.834 24.0254 47.4668 23.7832C47.1035 23.541 46.8223 23.2012 46.623 22.7637C46.4238 22.3223 46.3242 21.8359 46.3242 21.3047C46.3242 20.7344 46.4316 20.2207 46.6465 19.7637C46.8652 19.3066 47.1738 18.957 47.5723 18.7148C47.9707 18.4727 48.4355 18.3516 48.9668 18.3516C49.8105 18.3516 50.4746 18.668 50.959 19.3008C51.4473 19.9297 51.6914 20.7891 51.6914 21.8789V22.1953C51.6914 23.8555 51.3633 25.0684 50.707 25.834C50.0508 26.5957 49.0605 26.9863 47.7363 27.0059H47.5254V26.0918H47.7539C48.6484 26.0762 49.3359 25.8438 49.8164 25.3945C50.2969 24.9414 50.5586 24.2266 50.6016 23.25ZM48.9316 23.25C49.2949 23.25 49.6289 23.1387 49.9336 22.916C50.2422 22.6934 50.4668 22.418 50.6074 22.0898V21.6562C50.6074 20.9453 50.4531 20.3672 50.1445 19.9219C49.8359 19.4766 49.4453 19.2539 48.9727 19.2539C48.4961 19.2539 48.1133 19.4375 47.8242 19.8047C47.5352 20.168 47.3906 20.6484 47.3906 21.2461C47.3906 21.8281 47.5293 22.3086 47.8066 22.6875C48.0879 23.0625 48.4629 23.25 48.9316 23.25Z" fill="#212121"/>
<path d="M73.9258 21.4238H76.3047V22.4492H73.9258V25.1445H72.8359V22.4492H70.457V21.4238H72.8359V18.9336H73.9258V21.4238Z" fill="#212121"/>
<path d="M19.1016 22.7578H15.2891V21.5781H19.1016V22.7578Z" fill="#212121"/>
<defs>
<filter id="filter0_d_1601_1877" x="0" y="0" width="90" height="47" filterUnits="userSpaceOnUse" color-interpolation-filters="sRGB">
<feFlood flood-opacity="0" result="BackgroundImageFix"/>
<feColorMatrix in="SourceAlpha" type="matrix" values="0 0 0 0 0 0 0 0 0 0 0 0 0 0 0 0 0 0 127 0" result="hardAlpha"/>
<feOffset dy="1"/>
<feGaussianBlur stdDeviation="1"/>
<feColorMatrix type="matrix" values="0 0 0 0 0 0 0 0 0 0 0 0 0 0 0 0 0 0 0.12 0"/>
<feBlend mode="normal" in2="BackgroundImageFix" result="effect1_dropShadow_1601_1877"/>
<feBlend mode="normal" in="SourceGraphic" in2="effect1_dropShadow_1601_1877" result="shape"/>
</filter>
</defs>
</svg>