<svg width="90" height="47" viewBox="0 0 90 47" fill="none" xmlns="http://www.w3.org/2000/svg">
<g filter="url(#filter0_d_1601_1885)">
<rect x="2" y="1" width="86" height="43" rx="3" fill="white"/>
</g>
<rect x="6.5" y="6.5" width="77" height="32" stroke="#212121" stroke-opacity="0.3"/>
<rect x="63" y="10" width="13" height="25" rx="6.5" fill="#212121" fill-opacity="0.1"/>
<line x1="69.8887" y1="15.3536" x2="66.3532" y2="18.8891" stroke="black"/>
<line x1="69.1817" y1="15.3535" x2="72.7172" y2="18.889" stroke="black"/>
<line x1="69.4746" y1="29.8891" x2="73.0101" y2="26.3536" stroke="black"/>
<line x1="70.1816" y1="29.8892" x2="66.6461" y2="26.3537" stroke="black"/>
<path d="M32.8633 23.25C32.6367 23.5195 32.3652 23.7363 32.0488 23.9004C31.7363 24.0645 31.3926 24.1465 31.0176 24.1465C30.5254 24.1465 30.0957 24.0254 29.7285 23.7832C29.3652 23.541 29.084 23.2012 28.8848 22.7637C28.6855 22.3223 28.5859 21.8359 28.5859 21.3047C28.5859 20.7344 28.6934 20.2207 28.9082 19.7637C29.127 19.3066 29.4355 18.957 29.834 18.7148C30.2324 18.4727 30.6973 18.3516 31.2285 18.3516C32.0723 18.3516 32.7363 18.668 33.2207 19.3008C33.709 19.9297 33.9531 20.7891 33.9531 21.8789V22.1953C33.9531 23.8555 33.625 25.0684 32.9688 25.834C32.3125 26.5957 31.3223 26.9863 29.998 27.0059H29.7871V26.0918H30.0156C30.9102 26.0762 31.5977 25.8438 32.0781 25.3945C32.5586 24.9414 32.8203 24.2266 32.8633 23.25ZM31.1934 23.25C31.5566 23.25 31.8906 23.1387 32.1953 22.916C32.5039 22.6934 32.7285 22.418 32.8691 22.0898V21.6562C32.8691 20.9453 32.7148 20.3672 32.4062 19.9219C32.0977 19.4766 31.707 19.2539 31.2344 19.2539C30.7578 19.2539 30.375 19.4375 30.0859 19.8047C29.7969 20.168 29.6523 20.6484 29.6523 21.2461C29.6523 21.8281 29.791 22.3086 30.0684 22.6875C30.3496 23.0625 30.7246 23.25 31.1934 23.25ZM39.6016 23.25C39.375 23.5195 39.1035 23.7363 38.7871 23.9004C38.4746 24.0645 38.1309 24.1465 37.7559 24.1465C37.2637 24.1465 36.834 24.0254 36.4668 23.7832C36.1035 23.541 35.8223 23.2012 35.623 22.7637C35.4238 22.3223 35.3242 21.8359 35.3242 21.3047C35.3242 20.7344 35.4316 20.2207 35.6465 19.7637C35.8652 19.3066 36.1738 18.957 36.5723 18.7148C36.9707 18.4727 37.4355 18.3516 37.9668 18.3516C38.8105 18.3516 39.4746 18.668 39.959 19.3008C40.4473 19.9297 40.6914 20.7891 40.6914 21.8789V22.1953C40.6914 23.8555 40.3633 25.0684 39.707 25.834C39.0508 26.5957 38.0605 26.9863 36.7363 27.0059H36.5254V26.0918H36.7539C37.6484 26.0762 38.3359 25.8438 38.8164 25.3945C39.2969 24.9414 39.5586 24.2266 39.6016 23.25ZM37.9316 23.25C38.2949 23.25 38.6289 23.1387 38.9336 22.916C39.2422 22.6934 39.4668 22.418 39.6074 22.0898V21.6562C39.6074 20.9453 39.4531 20.3672 39.1445 19.9219C38.8359 19.4766 38.4453 19.2539 37.9727 19.2539C37.4961 19.2539 37.1133 19.4375 36.8242 19.8047C36.5352 20.168 36.3906 20.6484 36.3906 21.2461C36.3906 21.8281 36.5293 22.3086 36.8066 22.6875C37.0879 23.0625 37.4629 23.25 37.9316 23.25Z" fill="#212121"/>
<defs>
<filter id="filter0_d_1601_1885" x="0" y="0" width="90" height="47" filterUnits="userSpaceOnUse" color-interpolation-filters="sRGB">
<feFlood flood-opacity="0" result="BackgroundImageFix"/>
<feColorMatrix in="SourceAlpha" type="matrix" values="0 0 0 0 0 0 0 0 0 0 0 0 0 0 0 0 0 0 127 0" result="hardAlpha"/>
<feOffset dy="1"/>
<feGaussianBlur stdDeviation="1"/>
<feColorMatrix type="matrix" values="0 0 0 0 0 0 0 0 0 0 0 0 0 0 0 0 0 0 0.12 0"/>
<feBlend mode="normal" in2="BackgroundImageFix" result="effect1_dropShadow_1601_1885"/>
<feBlend mode="normal" in="SourceGraphic" in2="effect1_dropShadow_1601_1885" result="shape"/>
</filter>
</defs>
</svg>