<svg width="50" height="50" viewBox="0 0 50 50" fill="none" xmlns="http://www.w3.org/2000/svg">
<path d="M47 0H3C1.34315 0 0 1.34315 0 3V47C0 48.6569 1.34315 50 3 50H47C48.6569 50 50 48.6569 50 47V3C50 1.34315 48.6569 0 47 0Z" fill="#AAAEB1"/>
<path fill-rule="evenodd" clip-rule="evenodd" d="M23.875 16.75C19.94 16.75 16.75 19.94 16.75 23.875C16.75 27.81 19.94 31 23.875 31C27.81 31 31 27.81 31 23.875C31 19.94 27.81 16.75 23.875 16.75ZM15.25 23.875C15.25 19.1115 19.1115 15.25 23.875 15.25C28.6385 15.25 32.5 19.1115 32.5 23.875C32.5 28.6385 28.6385 32.5 23.875 32.5C19.1115 32.5 15.25 28.6385 15.25 23.875Z" fill="white"/>
<path fill-rule="evenodd" clip-rule="evenodd" d="M28.9128 28.9135C29.2057 28.6206 29.6806 28.6206 29.9734 28.9135L34.5298 33.4698C34.8226 33.7627 34.8226 34.2376 34.5298 34.5305C34.2369 34.8234 33.762 34.8234 33.4691 34.5305L28.9128 29.9742C28.6199 29.6813 28.6199 29.2064 28.9128 28.9135Z" fill="white"/>
</svg>