<svg width="150" height="87" viewBox="0 0 150 87" fill="none" xmlns="http://www.w3.org/2000/svg">
<path d="M146.218 0.642853H3.78151C1.69304 0.642853 0 2.33589 0 4.42437V82.5756C0 84.6641 1.69304 86.3571 3.78151 86.3571H146.218C148.307 86.3571 150 84.6641 150 82.5756V4.42437C150 2.33589 148.307 0.642853 146.218 0.642853Z" fill="white"/>
<path d="M34.2503 5.90121L37.8155 9.46646" stroke="white" stroke-width="0.630252"/>
<path d="M37.8213 5.90771L34.2561 9.47295" stroke="white" stroke-width="0.630252"/>
<path d="M57.0118 27.3203C56.8588 26.0498 55.8973 25.3194 54.6242 25.3194C53.1712 25.3194 52.0621 26.3453 52.0621 28.1448C52.0621 29.9389 53.1524 30.9702 54.6242 30.9702C56.0342 30.9702 56.8856 30.0329 57.0118 29.0203L55.8355 29.0149C55.7253 29.6031 55.2634 29.9415 54.643 29.9415C53.8077 29.9415 53.241 29.3211 53.241 28.1448C53.241 27.0006 53.7997 26.3481 54.651 26.3481C55.2876 26.3481 55.7469 26.716 55.8355 27.3203H57.0118ZM60.3184 30.9755C61.5699 30.9755 62.3488 30.1187 62.3488 28.8484C62.3488 27.57 61.5699 26.716 60.3184 26.716C59.0668 26.716 58.288 27.57 58.288 28.8484C58.288 30.1187 59.0668 30.9755 60.3184 30.9755ZM60.3238 30.0892C59.7464 30.0892 59.4509 29.5602 59.4509 28.8403C59.4509 28.1206 59.7464 27.5888 60.3238 27.5888C60.8905 27.5888 61.1859 28.1206 61.1859 28.8403C61.1859 29.5602 60.8905 30.0892 60.3238 30.0892ZM67.1553 27.946C67.0534 27.1859 66.441 26.716 65.399 26.716C64.3434 26.716 63.6479 27.2047 63.6505 27.9997C63.6479 28.6175 64.0372 29.0177 64.843 29.1788L65.5574 29.3211C65.9173 29.3936 66.0811 29.5253 66.0864 29.732C66.0811 29.9764 65.8152 30.151 65.4151 30.151C65.0068 30.151 64.7356 29.9764 64.6657 29.6408L63.5403 29.6998C63.6479 30.4895 64.3192 30.9755 65.4123 30.9755C66.4812 30.9755 67.2467 30.4303 67.2494 29.6166C67.2467 29.0203 66.8572 28.6631 66.0569 28.4992L65.3104 28.3489C64.9263 28.2657 64.7838 28.1341 64.7866 27.9353C64.7838 27.6882 65.0632 27.527 65.4177 27.527C65.8152 27.527 66.0515 27.7446 66.108 28.0104L67.1553 27.946ZM68.6001 30.895H69.7442V28.4187C69.7442 27.9621 70.0342 27.6586 70.4156 27.6586C70.7916 27.6586 71.0441 27.9165 71.0441 28.322V30.895H72.1534V28.3757C72.1534 27.9487 72.3977 27.6586 72.814 27.6586C73.1793 27.6586 73.4532 27.8869 73.4532 28.3462V30.895H74.5946V28.1206C74.5946 27.2263 74.0629 26.716 73.2948 26.716C72.6905 26.716 72.2204 27.0248 72.0513 27.4975H72.0083C71.8767 27.0194 71.4551 26.716 70.8883 26.716C70.3324 26.716 69.9107 27.0114 69.7389 27.4975H69.6905V26.7697H68.6001V30.895ZM78.0087 30.9755C79.0293 30.9755 79.7168 30.4786 79.878 29.7132L78.8198 29.6434C78.7042 29.9577 78.4089 30.1215 78.0274 30.1215C77.4554 30.1215 77.0928 29.7427 77.0928 29.1277V29.1251H79.9021V28.8108C79.9021 27.4089 79.0534 26.716 77.963 26.716C76.749 26.716 75.9621 27.5781 75.9621 28.8512C75.9621 30.1591 76.7383 30.9755 78.0087 30.9755ZM77.0928 28.4161C77.117 27.946 77.4742 27.57 77.9818 27.57C78.4787 27.57 78.8224 27.9246 78.8251 28.4161H77.0928ZM83.4732 26.7697H82.6971V25.7813H81.553V26.7697H80.9889V27.6291H81.553V29.7777C81.5475 30.5861 82.0981 30.9862 82.928 30.9513C83.2235 30.9406 83.433 30.8815 83.5485 30.8439L83.3685 29.9926C83.3121 30.0033 83.1912 30.0301 83.0838 30.0301C82.8556 30.0301 82.6971 29.9442 82.6971 29.6273V27.6291H83.4732V26.7697ZM84.8488 30.895H85.993V26.7697H84.8488V30.895ZM85.4236 26.2379C85.7647 26.2379 86.0439 25.9774 86.0439 25.6578C86.0439 25.3409 85.7647 25.0804 85.4236 25.0804C85.0851 25.0804 84.8058 25.3409 84.8058 25.6578C84.8058 25.9774 85.0851 26.2379 85.4236 26.2379ZM89.4035 30.9755C90.502 30.9755 91.1923 30.331 91.246 29.3829H90.1664C90.0992 29.8234 89.8091 30.0705 89.417 30.0705C88.8825 30.0705 88.536 29.622 88.536 28.8323C88.536 28.0534 88.8852 27.6076 89.417 27.6076C89.836 27.6076 90.1046 27.8842 90.1664 28.2952H91.246C91.1976 27.3417 90.4752 26.716 89.3982 26.716C88.1467 26.716 87.3732 27.5835 87.3732 28.8484C87.3732 30.1026 88.1332 30.9755 89.4035 30.9755ZM96.0411 27.946C95.9391 27.1859 95.3267 26.716 94.2847 26.716C93.2291 26.716 92.5336 27.2047 92.5362 27.9997C92.5336 28.6175 92.923 29.0177 93.7287 29.1788L94.4431 29.3211C94.803 29.3936 94.9669 29.5253 94.9722 29.732C94.9669 29.9764 94.7009 30.151 94.3008 30.151C93.8925 30.151 93.6213 29.9764 93.5514 29.6408L92.4262 29.6998C92.5336 30.4895 93.2049 30.9755 94.298 30.9755C95.3669 30.9755 96.1324 30.4303 96.1351 29.6166C96.1324 29.0203 95.743 28.6631 94.9427 28.4992L94.1961 28.3489C93.812 28.2657 93.6697 28.1341 93.6723 27.9353C93.6697 27.6882 93.9489 27.527 94.3035 27.527C94.7009 27.527 94.9372 27.7446 94.9937 28.0104L96.0411 27.946Z" fill="black"/>
<path d="M49.4927 37.1975H51.1041V36.902H49.8257V34.4473H49.4927V37.1975ZM52.4148 37.2404C52.9734 37.2404 53.3494 36.816 53.3494 36.1768C53.3494 35.5323 52.9734 35.1079 52.4148 35.1079C51.8561 35.1079 51.4801 35.5323 51.4801 36.1768C51.4801 36.816 51.8561 37.2404 52.4148 37.2404ZM52.4148 36.9557C51.9904 36.9557 51.797 36.5905 51.797 36.1768C51.797 35.7633 51.9904 35.3927 52.4148 35.3927C52.8391 35.3927 53.0324 35.7633 53.0324 36.1768C53.0324 36.5905 52.8391 36.9557 52.4148 36.9557ZM53.8332 37.1975H54.1501V35.8922C54.1501 35.6129 54.3703 35.4088 54.6711 35.4088C54.7557 35.4088 54.843 35.4249 54.8644 35.4302V35.1079C54.8283 35.1053 54.7449 35.1026 54.6979 35.1026C54.4509 35.1026 54.2361 35.2423 54.1608 35.4464H54.1394V35.1348H53.8332V37.1975ZM56.0421 37.2404C56.4611 37.2404 56.7673 37.031 56.864 36.7194L56.5578 36.6335C56.4773 36.8483 56.2906 36.9557 56.0421 36.9557C55.6702 36.9557 55.4138 36.7153 55.3989 36.2735H56.8962V36.1393C56.8962 35.3711 56.4397 35.1079 56.01 35.1079C55.4513 35.1079 55.0807 35.5485 55.0807 36.1823C55.0807 36.816 55.4459 37.2404 56.0421 37.2404ZM55.3989 35.9996C55.4204 35.6787 55.6473 35.3927 56.01 35.3927C56.3537 35.3927 56.5739 35.6504 56.5739 35.9996H55.3989ZM57.3784 37.1975H57.6953V35.9083C57.6953 35.6062 57.9155 35.3927 58.1626 35.3927C58.4029 35.3927 58.5708 35.5497 58.5708 35.7848V37.1975H58.8931V35.8546C58.8931 35.5887 59.0597 35.3927 59.3497 35.3927C59.5753 35.3927 59.7687 35.5122 59.7687 35.817V37.1975H60.0856V35.817C60.0856 35.3322 59.825 35.1079 59.4571 35.1079C59.1616 35.1079 58.9455 35.2436 58.8393 35.4571H58.8179C58.7158 35.2369 58.5359 35.1079 58.2647 35.1079C57.996 35.1079 57.7973 35.2369 57.7114 35.4571H57.6846V35.1348H57.3784V37.1975ZM61.7285 37.1975H62.0454V35.1348H61.7285V37.1975ZM61.8897 34.791C62.0133 34.791 62.1152 34.6944 62.1152 34.5762C62.1152 34.458 62.0133 34.3613 61.8897 34.3613C61.7662 34.3613 61.6641 34.458 61.6641 34.5762C61.6641 34.6944 61.7662 34.791 61.8897 34.791ZM62.6259 37.9709H62.9429V36.8806H62.9697C63.0396 36.9934 63.1738 37.2404 63.5713 37.2404C64.0869 37.2404 64.4468 36.8269 64.4468 36.1715C64.4468 35.5216 64.0869 35.1079 63.566 35.1079C63.1631 35.1079 63.0396 35.3551 62.9697 35.4625H62.9321V35.1348H62.6259V37.9709ZM62.9375 36.1661C62.9375 35.7041 63.1415 35.3927 63.5283 35.3927C63.9313 35.3927 64.1299 35.731 64.1299 36.1661C64.1299 36.6065 63.9258 36.9557 63.5283 36.9557C63.147 36.9557 62.9375 36.6335 62.9375 36.1661ZM66.3914 35.5967C66.2919 35.3041 66.0691 35.1079 65.6608 35.1079C65.2257 35.1079 64.9035 35.3551 64.9035 35.7041C64.9035 35.9889 65.0726 36.1796 65.4513 36.2682L65.795 36.3488C66.0033 36.3972 66.1012 36.4965 66.1012 36.6388C66.1012 36.816 65.9133 36.9611 65.6178 36.9611C65.3586 36.9611 65.1962 36.8497 65.1398 36.6281L64.8389 36.7033C64.9128 37.0538 65.2016 37.2404 65.6232 37.2404C66.1026 37.2404 66.4289 36.9785 66.4289 36.6227C66.4289 36.3354 66.2489 36.154 65.881 36.0641L65.5748 35.9889C65.3304 35.9285 65.2204 35.8466 65.2204 35.6881C65.2204 35.5108 65.4083 35.382 65.6608 35.382C65.9375 35.382 66.0515 35.535 66.1066 35.6773L66.3914 35.5967ZM68.2059 36.3542C68.2059 36.7409 67.9104 36.9181 67.6741 36.9181C67.4109 36.9181 67.2229 36.7248 67.2229 36.424V35.1348H66.9059V36.4454C66.9059 36.9718 67.1852 37.2243 67.5721 37.2243C67.8836 37.2243 68.0876 37.0578 68.1844 36.8483H68.2059V37.1975H68.5228V35.1348H68.2059V36.3542ZM69.1032 37.1975H69.4201V35.9083C69.4201 35.6062 69.6403 35.3927 69.8875 35.3927C70.1279 35.3927 70.2957 35.5497 70.2957 35.7848V37.1975H70.618V35.8546C70.618 35.5887 70.7845 35.3927 71.0745 35.3927C71.3002 35.3927 71.4935 35.5122 71.4935 35.817V37.1975H71.8104V35.817C71.8104 35.3322 71.55 35.1079 71.182 35.1079C70.8866 35.1079 70.6704 35.2436 70.5643 35.4571H70.5428C70.4407 35.2369 70.2607 35.1079 69.9895 35.1079C69.721 35.1079 69.5222 35.2369 69.4363 35.4571H69.4094V35.1348H69.1032V37.1975ZM74.2323 37.2404C74.6298 37.2404 74.7642 36.9934 74.834 36.8806H74.8715V37.1975H75.1777V34.4473H74.8608V35.4625H74.834C74.7642 35.3551 74.6405 35.1079 74.2376 35.1079C73.7167 35.1079 73.3568 35.5216 73.3568 36.1715C73.3568 36.8269 73.7167 37.2404 74.2323 37.2404ZM74.2753 36.9557C73.8778 36.9557 73.6737 36.6065 73.6737 36.1661C73.6737 35.731 73.8725 35.3927 74.2753 35.3927C74.662 35.3927 74.8661 35.7041 74.8661 36.1661C74.8661 36.6335 74.6566 36.9557 74.2753 36.9557ZM76.64 37.2404C77.1987 37.2404 77.5747 36.816 77.5747 36.1768C77.5747 35.5323 77.1987 35.1079 76.64 35.1079C76.0815 35.1079 75.7055 35.5323 75.7055 36.1768C75.7055 36.816 76.0815 37.2404 76.64 37.2404ZM76.64 36.9557C76.2157 36.9557 76.0224 36.5905 76.0224 36.1768C76.0224 35.7633 76.2157 35.3927 76.64 35.3927C77.0644 35.3927 77.2578 35.7633 77.2578 36.1768C77.2578 36.5905 77.0644 36.9557 76.64 36.9557ZM78.3754 34.4473H78.0585V37.1975H78.3754V34.4473ZM79.7938 37.2404C80.3525 37.2404 80.7285 36.816 80.7285 36.1768C80.7285 35.5323 80.3525 35.1079 79.7938 35.1079C79.2352 35.1079 78.8591 35.5323 78.8591 36.1768C78.8591 36.816 79.2352 37.2404 79.7938 37.2404ZM79.7938 36.9557C79.3694 36.9557 79.176 36.5905 79.176 36.1768C79.176 35.7633 79.3694 35.3927 79.7938 35.3927C80.2181 35.3927 80.4115 35.7633 80.4115 36.1768C80.4115 36.5905 80.2181 36.9557 79.7938 36.9557ZM81.2123 37.1975H81.5292V35.8922C81.5292 35.6129 81.7494 35.4088 82.0501 35.4088C82.1347 35.4088 82.222 35.4249 82.2435 35.4302V35.1079C82.2073 35.1053 82.124 35.1026 82.077 35.1026C81.8299 35.1026 81.6151 35.2423 81.5399 35.4464H81.5184V35.1348H81.2123V37.1975ZM85.1438 35.5967C85.0444 35.3041 84.8215 35.1079 84.4133 35.1079C83.9782 35.1079 83.6559 35.3551 83.6559 35.7041C83.6559 35.9889 83.825 36.1796 84.2038 36.2682L84.5476 36.3488C84.7557 36.3972 84.8537 36.4965 84.8537 36.6388C84.8537 36.816 84.6657 36.9611 84.3703 36.9611C84.1112 36.9611 83.9487 36.8497 83.8922 36.6281L83.5915 36.7033C83.6653 37.0538 83.954 37.2404 84.3756 37.2404C84.8551 37.2404 85.1813 36.9785 85.1813 36.6227C85.1813 36.3354 85.0015 36.154 84.6335 36.0641L84.3273 35.9889C84.0829 35.9285 83.9728 35.8466 83.9728 35.6881C83.9728 35.5108 84.1608 35.382 84.4133 35.382C84.6899 35.382 84.8041 35.535 84.8592 35.6773L85.1438 35.5967ZM85.6584 37.1975H85.9753V35.1348H85.6584V37.1975ZM85.8195 34.791C85.9432 34.791 86.0452 34.6944 86.0452 34.5762C86.0452 34.458 85.9432 34.3613 85.8195 34.3613C85.696 34.3613 85.594 34.458 85.594 34.5762C85.594 34.6944 85.696 34.791 85.8195 34.791ZM87.4529 35.1348H87.0123V34.6407H86.6954V35.1348H86.3839V35.4034H86.6954V36.6925C86.6954 37.0524 86.9855 37.2243 87.2541 37.2243C87.3722 37.2243 87.4475 37.2029 87.4905 37.1867L87.426 36.902C87.3991 36.9074 87.3562 36.9181 87.2864 36.9181C87.1467 36.9181 87.0123 36.8752 87.0123 36.6065V35.4034H87.4529V35.1348ZM89.6 37.2459C89.96 37.2459 90.148 37.0524 90.2124 36.9181H90.2285V37.1975H90.5454V35.8385C90.5454 35.1832 90.0459 35.1079 89.7827 35.1079C89.4712 35.1079 89.1166 35.2154 88.9555 35.5915L89.2563 35.6988C89.3261 35.5485 89.4912 35.3873 89.7935 35.3873C90.0848 35.3873 90.2285 35.5417 90.2285 35.8062V35.817C90.2285 35.9701 90.0727 35.9566 89.6967 36.005C89.314 36.0547 88.8964 36.1393 88.8964 36.612C88.8964 37.0148 89.208 37.2459 89.6 37.2459ZM89.6484 36.9611C89.396 36.9611 89.2133 36.8483 89.2133 36.6281C89.2133 36.3863 89.4335 36.3112 89.6807 36.2789C89.8149 36.2628 90.1748 36.2252 90.2285 36.1608V36.4509C90.2285 36.7086 90.0244 36.9611 89.6484 36.9611ZM92.1875 37.1975H92.5044V35.9083C92.5044 35.6062 92.7246 35.3927 92.9716 35.3927C93.212 35.3927 93.3799 35.5497 93.3799 35.7848V37.1975H93.7022V35.8546C93.7022 35.5887 93.8687 35.3927 94.1588 35.3927C94.3844 35.3927 94.5778 35.5122 94.5778 35.817V37.1975H94.8946V35.817C94.8946 35.3322 94.6341 35.1079 94.2662 35.1079C93.9708 35.1079 93.7545 35.2436 93.6485 35.4571H93.627C93.525 35.2369 93.345 35.1079 93.0737 35.1079C92.8051 35.1079 92.6065 35.2369 92.5205 35.4571H92.4937V35.1348H92.1875V37.1975ZM96.3389 37.2404C96.7579 37.2404 97.0641 37.031 97.1608 36.7194L96.8546 36.6335C96.7741 36.8483 96.5874 36.9557 96.3389 36.9557C95.967 36.9557 95.7105 36.7153 95.6957 36.2735H97.1929V36.1393C97.1929 35.3711 96.7364 35.1079 96.3067 35.1079C95.748 35.1079 95.3774 35.5485 95.3774 36.1823C95.3774 36.816 95.7427 37.2404 96.3389 37.2404ZM95.6957 35.9996C95.7171 35.6787 95.9441 35.3927 96.3067 35.3927C96.6504 35.3927 96.8707 35.6504 96.8707 35.9996H95.6957ZM98.5722 35.1348H98.1316V34.6407H97.8147V35.1348H97.5031V35.4034H97.8147V36.6925C97.8147 37.0524 98.1048 37.2243 98.3734 37.2243C98.4915 37.2243 98.5668 37.2029 98.6097 37.1867L98.5452 36.902C98.5184 36.9074 98.4754 36.9181 98.4055 36.9181C98.266 36.9181 98.1316 36.8752 98.1316 36.6065V35.4034H98.5722V35.1348Z" fill="black"/>
<path d="M45.3782 42.2395C45.3782 41.5433 45.9425 40.979 46.6387 40.979H51.6807C52.3769 40.979 52.9412 41.5433 52.9412 42.2395C52.9412 42.9357 52.3769 43.5 51.6807 43.5H46.6387C45.9425 43.5 45.3782 42.9357 45.3782 42.2395Z" fill="#CACCCE"/>
<path d="M55.4622 42.2395C55.4622 41.5433 56.0265 40.979 56.7227 40.979H61.7647C62.4609 40.979 63.0252 41.5433 63.0252 42.2395C63.0252 42.9357 62.4609 43.5 61.7647 43.5H56.7227C56.0265 43.5 55.4622 42.9357 55.4622 42.2395Z" fill="#CACCCE"/>
<path d="M65.5462 42.2395C65.5462 41.5433 66.1105 40.979 66.8067 40.979H71.8487C72.5449 40.979 73.1092 41.5433 73.1092 42.2395C73.1092 42.9357 72.5449 43.5 71.8487 43.5H66.8067C66.1105 43.5 65.5462 42.9357 65.5462 42.2395Z" fill="#CACCCE"/>
<path d="M75.6302 42.2395C75.6302 41.5433 76.1946 40.979 76.8908 40.979H81.9328C82.6289 40.979 83.1933 41.5433 83.1933 42.2395C83.1933 42.9357 82.6289 43.5 81.9328 43.5H76.8908C76.1946 43.5 75.6302 42.9357 75.6302 42.2395Z" fill="#CACCCE"/>
<path d="M85.7143 42.2395C85.7143 41.5433 86.2786 40.979 86.9748 40.979H92.0168C92.713 40.979 93.2773 41.5433 93.2773 42.2395C93.2773 42.9357 92.713 43.5 92.0168 43.5H86.9748C86.2786 43.5 85.7143 42.9357 85.7143 42.2395Z" fill="#CACCCE"/>
<path d="M95.7983 42.2395C95.7983 41.5433 96.3627 40.979 97.0588 40.979H102.101C102.797 40.979 103.361 41.5433 103.361 42.2395C103.361 42.9357 102.797 43.5 102.101 43.5H97.0588C96.3627 43.5 95.7983 42.9357 95.7983 42.2395Z" fill="#CACCCE"/>
<g opacity="0.8">
<path d="M39.5948 53.6542H15.8793C14.8052 53.6542 13.9345 54.525 13.9345 55.5991V71.1353C13.9345 72.2094 14.8052 73.0801 15.8793 73.0801H39.5948C40.6689 73.0801 41.5397 72.2094 41.5397 71.1353V55.5991C41.5397 54.525 40.6689 53.6542 39.5948 53.6542Z" fill="#CACCCE"/>
<path d="M29.5088 77.1696H14.7945C14.3202 77.1696 13.9358 77.554 13.9358 78.0283C13.9358 78.5026 14.3202 78.887 14.7945 78.887H29.5088C29.983 78.887 30.3675 78.5026 30.3675 78.0283C30.3675 77.554 29.983 77.1696 29.5088 77.1696Z" fill="#CACCCE"/>
</g>
<path fill-rule="evenodd" clip-rule="evenodd" d="M126.729 13.9264C128.121 13.9264 129.25 12.7978 129.25 11.4055C129.25 10.0132 128.121 8.88446 126.729 8.88446C125.336 8.88446 124.208 10.0132 124.208 11.4055C124.208 12.7978 125.336 13.9264 126.729 13.9264Z" stroke="#E4E5E6" stroke-width="1.0084"/>
<path d="M128.887 13.5633L130.777 15.454" stroke="#E4E5E6" stroke-width="1.0084" stroke-linecap="round"/>
<path d="M14.264 14.5084H17.1981V13.7094H15.2331V9.92476H14.264V14.5084ZM23.134 12.2166C23.134 10.7171 22.2029 9.86209 20.9876 9.86209C19.7657 9.86209 18.8412 10.7171 18.8412 12.2166C18.8412 13.7094 19.7657 14.5711 20.9876 14.5711C22.2029 14.5711 23.134 13.7161 23.134 12.2166ZM22.1515 12.2166C22.1515 13.1879 21.6904 13.7139 20.9876 13.7139C20.2826 13.7139 19.8238 13.1879 19.8238 12.2166C19.8238 11.2452 20.2826 10.7193 20.9876 10.7193C21.6904 10.7193 22.1515 11.2452 22.1515 12.2166ZM28.1517 11.4064H29.1365C29.0111 10.5 28.2122 9.86209 27.176 9.86209C25.9651 9.86209 25.0318 10.735 25.0318 12.2211C25.0318 13.6713 25.9046 14.5711 27.1961 14.5711C28.3531 14.5711 29.179 13.8392 29.179 12.6329V12.0554H27.2609V12.7851H28.2457C28.2323 13.3535 27.8452 13.7139 27.2005 13.7139C26.4731 13.7139 26.0144 13.17 26.0144 12.2121C26.0144 11.2587 26.491 10.7193 27.1916 10.7193C27.6907 10.7193 28.0287 10.9767 28.1517 11.4064ZM35.3796 12.2166C35.3796 10.7171 34.4486 9.86209 33.2333 9.86209C32.0112 9.86209 31.0869 10.7171 31.0869 12.2166C31.0869 13.7094 32.0112 14.5711 33.2333 14.5711C34.4486 14.5711 35.3796 13.7161 35.3796 12.2166ZM34.3971 12.2166C34.3971 13.1879 33.936 13.7139 33.2333 13.7139C32.5283 13.7139 32.0695 13.1879 32.0695 12.2166C32.0695 11.2452 32.5283 10.7193 33.2333 10.7193C33.936 10.7193 34.3971 11.2452 34.3971 12.2166Z" fill="#E4E5E6"/>
<g opacity="0.8">
<path d="M70.7787 53.6542H47.0632C45.9891 53.6542 45.1183 54.525 45.1183 55.5991V71.1353C45.1183 72.2094 45.9891 73.0801 47.0632 73.0801H70.7787C71.8528 73.0801 72.7235 72.2094 72.7235 71.1353V55.5991C72.7235 54.525 71.8528 53.6542 70.7787 53.6542Z" fill="#CACCCE"/>
<path d="M60.6926 77.1696H45.9783C45.5041 77.1696 45.1196 77.554 45.1196 78.0283C45.1196 78.5026 45.5041 78.887 45.9783 78.887H60.6926C61.1669 78.887 61.5513 78.5026 61.5513 78.0283C61.5513 77.554 61.1669 77.1696 60.6926 77.1696Z" fill="#CACCCE"/>
</g>
<g opacity="0.8">
<path d="M101.961 53.6542H78.2459C77.1718 53.6542 76.3011 54.525 76.3011 55.5991V71.1353C76.3011 72.2094 77.1718 73.0801 78.2459 73.0801H101.961C103.036 73.0801 103.906 72.2094 103.906 71.1353V55.5991C103.906 54.525 103.036 53.6542 101.961 53.6542Z" fill="#CACCCE"/>
<path d="M91.8753 77.1696H77.1611C76.6868 77.1696 76.3024 77.554 76.3024 78.0283C76.3024 78.5026 76.6868 78.887 77.1611 78.887H91.8753C92.3496 78.887 92.7341 78.5026 92.7341 78.0283C92.7341 77.554 92.3496 77.1696 91.8753 77.1696Z" fill="#CACCCE"/>
<path d="M132.803 53.6542H109.088C108.014 53.6542 107.143 54.525 107.143 55.5991V71.1353C107.143 72.2094 108.014 73.0801 109.088 73.0801H132.803C133.877 73.0801 134.748 72.2094 134.748 71.1353V55.5991C134.748 54.525 133.877 53.6542 132.803 53.6542Z" fill="#CACCCE"/>
<path d="M122.717 77.1696H108.003C107.529 77.1696 107.144 77.554 107.144 78.0283C107.144 78.5026 107.529 78.887 108.003 78.887H122.717C123.191 78.887 123.576 78.5026 123.576 78.0283C123.576 77.554 123.191 77.1696 122.717 77.1696Z" fill="#CACCCE"/>
</g>
</svg>
