<svg width="150" height="87" viewBox="0 0 150 87" fill="none" xmlns="http://www.w3.org/2000/svg">
<path d="M146.218 0.642853H3.78151C1.69304 0.642853 0 2.33589 0 4.42437V82.5756C0 84.6641 1.69304 86.3571 3.78151 86.3571H146.218C148.307 86.3571 150 84.6641 150 82.5756V4.42437C150 2.33589 148.307 0.642853 146.218 0.642853Z" fill="white"/>
<path d="M34.2503 5.90121L37.8155 9.46646" stroke="white" stroke-width="0.630252"/>
<path d="M37.8213 5.90771L34.2561 9.47295" stroke="white" stroke-width="0.630252"/>
<path d="M19.1967 28.5808C19.0437 27.3103 18.0822 26.5799 16.809 26.5799C15.3561 26.5799 14.2469 27.6058 14.2469 29.4053C14.2469 31.1994 15.3373 32.2307 16.809 32.2307C18.219 32.2307 19.0705 31.2934 19.1967 30.2808L18.0204 30.2754C17.9102 30.8636 17.4483 31.202 16.8278 31.202C15.9926 31.202 15.4259 30.5816 15.4259 29.4053C15.4259 28.2611 15.9846 27.6086 16.8359 27.6086C17.4725 27.6086 17.9318 27.9765 18.0204 28.5808H19.1967ZM22.5033 32.236C23.7548 32.236 24.5337 31.3792 24.5337 30.1089C24.5337 28.8305 23.7548 27.9765 22.5033 27.9765C21.2517 27.9765 20.4728 28.8305 20.4728 30.1089C20.4728 31.3792 21.2517 32.236 22.5033 32.236ZM22.5087 31.3497C21.9312 31.3497 21.6358 30.8207 21.6358 30.1008C21.6358 29.3811 21.9312 28.8493 22.5087 28.8493C23.0754 28.8493 23.3707 29.3811 23.3707 30.1008C23.3707 30.8207 23.0754 31.3497 22.5087 31.3497ZM29.3402 29.2065C29.2383 28.4464 28.6259 27.9765 27.5838 27.9765C26.5283 27.9765 25.8327 28.4652 25.8354 29.2602C25.8327 29.878 26.2221 30.2782 27.0278 30.4393L27.7423 30.5816C28.1022 30.6541 28.266 30.7858 28.2713 30.9925C28.266 31.2369 28.0001 31.4115 27.6 31.4115C27.1917 31.4115 26.9204 31.2369 26.8506 30.9013L25.7252 30.9603C25.8327 31.75 26.5041 32.236 27.5972 32.236C28.6661 32.236 29.4316 31.6908 29.4343 30.8771C29.4316 30.2808 29.0421 29.9236 28.2418 29.7597L27.4952 29.6094C27.1112 29.5262 26.9687 29.3946 26.9715 29.1958C26.9687 28.9487 27.248 28.7875 27.6026 28.7875C28.0001 28.7875 28.2364 29.0051 28.2929 29.2709L29.3402 29.2065ZM30.785 32.1555H31.9291V29.6792C31.9291 29.2226 32.2191 28.9191 32.6005 28.9191C32.9765 28.9191 33.229 29.177 33.229 29.5825V32.1555H34.3383V29.6362C34.3383 29.2092 34.5825 28.9191 34.9989 28.9191C35.3642 28.9191 35.6381 29.1474 35.6381 29.6067V32.1555H36.7795V29.3811C36.7795 28.4868 36.2478 27.9765 35.4796 27.9765C34.8754 27.9765 34.4053 28.2853 34.2362 28.758H34.1932C34.0616 28.2799 33.6399 27.9765 33.0732 27.9765C32.5173 27.9765 32.0956 28.2718 31.9238 28.758H31.8754V28.0302H30.785V32.1555ZM40.1935 32.236C41.2142 32.236 41.9017 31.7391 42.0629 30.9737L41.0047 30.9039C40.8891 31.2181 40.5938 31.382 40.2123 31.382C39.6403 31.382 39.2777 31.0032 39.2777 30.3882V30.3856H42.0869V30.0713C42.0869 28.6694 41.2383 27.9765 40.1479 27.9765C38.9339 27.9765 38.147 28.8386 38.147 30.1117C38.147 31.4196 38.9232 32.236 40.1935 32.236ZM39.2777 29.6766C39.3019 29.2065 39.6591 28.8305 40.1667 28.8305C40.6636 28.8305 41.0073 29.1851 41.01 29.6766H39.2777ZM45.6581 28.0302H44.882V27.0418H43.7378V28.0302H43.1738V28.8896H43.7378V31.0381C43.7324 31.8466 44.283 32.2467 45.1129 32.2118C45.4084 32.2011 45.6179 32.142 45.7333 32.1044L45.5533 31.2531C45.497 31.2638 45.3761 31.2906 45.2687 31.2906C45.0404 31.2906 44.882 31.2047 44.882 30.8878V28.8896H45.6581V28.0302ZM47.0337 32.1555H48.1778V28.0302H47.0337V32.1555ZM47.6085 27.4984C47.9496 27.4984 48.2288 27.2379 48.2288 26.9183C48.2288 26.6014 47.9496 26.3409 47.6085 26.3409C47.27 26.3409 46.9907 26.6014 46.9907 26.9183C46.9907 27.2379 47.27 27.4984 47.6085 27.4984ZM51.5884 32.236C52.6869 32.236 53.3772 31.5915 53.4309 30.6434H52.3512C52.2841 31.0839 51.994 31.331 51.6019 31.331C51.0674 31.331 50.7209 30.8825 50.7209 30.0928C50.7209 29.3139 51.0701 28.8681 51.6019 28.8681C52.0209 28.8681 52.2895 29.1447 52.3512 29.5557H53.4309C53.3825 28.6022 52.6601 27.9765 51.5831 27.9765C50.3315 27.9765 49.5581 28.844 49.5581 30.1089C49.5581 31.3631 50.318 32.236 51.5884 32.236ZM58.2259 29.2065C58.124 28.4464 57.5116 27.9765 56.4696 27.9765C55.414 27.9765 54.7185 28.4652 54.7211 29.2602C54.7185 29.878 55.1078 30.2782 55.9135 30.4393L56.628 30.5816C56.9879 30.6541 57.1517 30.7858 57.157 30.9925C57.1517 31.2369 56.8858 31.4115 56.4857 31.4115C56.0774 31.4115 55.8061 31.2369 55.7363 30.9013L54.6111 30.9603C54.7185 31.75 55.3898 32.236 56.4829 32.236C57.5518 32.236 58.3173 31.6908 58.32 30.8771C58.3173 30.2808 57.9278 29.9236 57.1275 29.7597L56.3809 29.6094C55.9969 29.5262 55.8546 29.3946 55.8572 29.1958C55.8546 28.9487 56.1338 28.7875 56.4883 28.7875C56.8858 28.7875 57.1221 29.0051 57.1786 29.2709L58.2259 29.2065Z" fill="black"/>
<path d="M62.0977 30.895H63.7091V30.5995H62.4307V28.1448H62.0977V30.895ZM65.0198 30.938C65.5785 30.938 65.9545 30.5135 65.9545 29.8743C65.9545 29.2298 65.5785 28.8054 65.0198 28.8054C64.4612 28.8054 64.0852 29.2298 64.0852 29.8743C64.0852 30.5135 64.4612 30.938 65.0198 30.938ZM65.0198 30.6532C64.5954 30.6532 64.402 30.288 64.402 29.8743C64.402 29.4608 64.5954 29.0902 65.0198 29.0902C65.4441 29.0902 65.6375 29.4608 65.6375 29.8743C65.6375 30.288 65.4441 30.6532 65.0198 30.6532ZM66.4383 30.895H66.7552V29.5897C66.7552 29.3104 66.9754 29.1063 67.2761 29.1063C67.3607 29.1063 67.4481 29.1225 67.4695 29.1277V28.8054C67.4333 28.8028 67.35 28.8001 67.303 28.8001C67.0559 28.8001 66.8411 28.9398 66.7659 29.1439H66.7444V28.8323H66.4383V30.895ZM68.6472 30.938C69.0662 30.938 69.3723 30.7285 69.469 30.4169L69.1628 30.331C69.0823 30.5458 68.8956 30.6532 68.6472 30.6532C68.2752 30.6532 68.0188 30.4128 68.0039 29.971H69.5013V29.8368C69.5013 29.0686 69.0447 28.8054 68.615 28.8054C68.0564 28.8054 67.6858 29.246 67.6858 29.8798C67.6858 30.5135 68.051 30.938 68.6472 30.938ZM68.0039 29.6971C68.0255 29.3762 68.2524 29.0902 68.615 29.0902C68.9588 29.0902 69.179 29.348 69.179 29.6971H68.0039ZM69.9834 30.895H70.3003V29.6059C70.3003 29.3037 70.5205 29.0902 70.7676 29.0902C71.008 29.0902 71.1759 29.2472 71.1759 29.4823V30.895H71.4982V29.5522C71.4982 29.2862 71.6647 29.0902 71.9547 29.0902C72.1804 29.0902 72.3737 29.2097 72.3737 29.5145V30.895H72.6906V29.5145C72.6906 29.0297 72.4301 28.8054 72.0621 28.8054C71.7667 28.8054 71.5505 28.9411 71.4444 29.1546H71.4229C71.3208 28.9344 71.141 28.8054 70.8697 28.8054C70.6011 28.8054 70.4023 28.9344 70.3165 29.1546H70.2896V28.8323H69.9834V30.895ZM74.3336 30.895H74.6504V28.8323H74.3336V30.895ZM74.4948 28.4885C74.6183 28.4885 74.7203 28.3919 74.7203 28.2738C74.7203 28.1555 74.6183 28.0588 74.4948 28.0588C74.3713 28.0588 74.2691 28.1555 74.2691 28.2738C74.2691 28.3919 74.3713 28.4885 74.4948 28.4885ZM75.2309 31.6684H75.5479V30.5781H75.5748C75.6446 30.6909 75.7789 30.938 76.1763 30.938C76.692 30.938 77.0518 30.5244 77.0518 29.869C77.0518 29.2191 76.692 28.8054 76.171 28.8054C75.7681 28.8054 75.6446 29.0526 75.5748 29.16H75.5371V28.8323H75.2309V31.6684ZM75.5425 29.8636C75.5425 29.4017 75.7466 29.0902 76.1333 29.0902C76.5363 29.0902 76.7349 29.4285 76.7349 29.8636C76.7349 30.304 76.5309 30.6532 76.1333 30.6532C75.752 30.6532 75.5425 30.331 75.5425 29.8636ZM78.9964 29.2943C78.897 29.0016 78.6741 28.8054 78.2658 28.8054C77.8307 28.8054 77.5085 29.0526 77.5085 29.4017C77.5085 29.6864 77.6777 29.8771 78.0563 29.9657L78.4001 30.0463C78.6083 30.0947 78.7062 30.194 78.7062 30.3363C78.7062 30.5135 78.5183 30.6586 78.2228 30.6586C77.9637 30.6586 77.8012 30.5472 77.7449 30.3256L77.444 30.4009C77.5178 30.7513 77.8066 30.938 78.2283 30.938C78.7076 30.938 79.034 30.676 79.034 30.3202C79.034 30.0329 78.854 29.8515 78.486 29.7617L78.1799 29.6864C77.9355 29.626 77.8254 29.5441 77.8254 29.3856C77.8254 29.2083 78.0134 29.0795 78.2658 29.0795C78.5425 29.0795 78.6566 29.2325 78.7117 29.3748L78.9964 29.2943ZM80.8109 30.0517C80.8109 30.4384 80.5154 30.6156 80.2791 30.6156C80.0159 30.6156 79.828 30.4223 79.828 30.1215V28.8323H79.511V30.143C79.511 30.6693 79.7903 30.9218 80.1771 30.9218C80.4886 30.9218 80.6927 30.7553 80.7895 30.5458H80.8109V30.895H81.1278V28.8323H80.8109V30.0517ZM81.7083 30.895H82.0252V29.6059C82.0252 29.3037 82.2454 29.0902 82.4926 29.0902C82.7329 29.0902 82.9007 29.2472 82.9007 29.4823V30.895H83.223V29.5522C83.223 29.2862 83.3895 29.0902 83.6796 29.0902C83.9052 29.0902 84.0986 29.2097 84.0986 29.5145V30.895H84.4154V29.5145C84.4154 29.0297 84.155 28.8054 83.7871 28.8054C83.4916 28.8054 83.2755 28.9411 83.1693 29.1546H83.1479C83.0458 28.9344 82.8658 28.8054 82.5945 28.8054C82.326 28.8054 82.1273 28.9344 82.0413 29.1546H82.0144V28.8323H81.7083V30.895ZM86.8374 30.938C87.2348 30.938 87.3692 30.6909 87.439 30.5781H87.4766V30.895H87.7828V28.1448H87.4659V29.16H87.439C87.3692 29.0526 87.2455 28.8054 86.8427 28.8054C86.3217 28.8054 85.9618 29.2191 85.9618 29.869C85.9618 30.5244 86.3217 30.938 86.8374 30.938ZM86.8804 30.6532C86.4828 30.6532 86.2787 30.304 86.2787 29.8636C86.2787 29.4285 86.4775 29.0902 86.8804 29.0902C87.2671 29.0902 87.4712 29.4017 87.4712 29.8636C87.4712 30.331 87.2617 30.6532 86.8804 30.6532ZM89.2451 30.938C89.8037 30.938 90.1797 30.5135 90.1797 29.8743C90.1797 29.2298 89.8037 28.8054 89.2451 28.8054C88.6865 28.8054 88.3105 29.2298 88.3105 29.8743C88.3105 30.5135 88.6865 30.938 89.2451 30.938ZM89.2451 30.6532C88.8208 30.6532 88.6274 30.288 88.6274 29.8743C88.6274 29.4608 88.8208 29.0902 89.2451 29.0902C89.6695 29.0902 89.8628 29.4608 89.8628 29.8743C89.8628 30.288 89.6695 30.6532 89.2451 30.6532ZM90.9804 28.1448H90.6635V30.895H90.9804V28.1448ZM92.3989 30.938C92.9575 30.938 93.3335 30.5135 93.3335 29.8743C93.3335 29.2298 92.9575 28.8054 92.3989 28.8054C91.8402 28.8054 91.4642 29.2298 91.4642 29.8743C91.4642 30.5135 91.8402 30.938 92.3989 30.938ZM92.3989 30.6532C91.9744 30.6532 91.7811 30.288 91.7811 29.8743C91.7811 29.4608 91.9744 29.0902 92.3989 29.0902C92.8231 29.0902 93.0165 29.4608 93.0165 29.8743C93.0165 30.288 92.8231 30.6532 92.3989 30.6532ZM93.8173 30.895H94.1342V29.5897C94.1342 29.3104 94.3544 29.1063 94.6552 29.1063C94.7397 29.1063 94.8271 29.1225 94.8485 29.1277V28.8054C94.8123 28.8028 94.729 28.8001 94.682 28.8001C94.435 28.8001 94.2202 28.9398 94.1449 29.1439H94.1235V28.8323H93.8173V30.895ZM97.7488 29.2943C97.6495 29.0016 97.4265 28.8054 97.0184 28.8054C96.5832 28.8054 96.2609 29.0526 96.2609 29.4017C96.2609 29.6864 96.4301 29.8771 96.8089 29.9657L97.1526 30.0463C97.3607 30.0947 97.4588 30.194 97.4588 30.3363C97.4588 30.5135 97.2707 30.6586 96.9754 30.6586C96.7162 30.6586 96.5537 30.5472 96.4973 30.3256L96.1965 30.4009C96.2704 30.7513 96.559 30.938 96.9807 30.938C97.4602 30.938 97.7864 30.676 97.7864 30.3202C97.7864 30.0329 97.6065 29.8515 97.2386 29.7617L96.9324 29.6864C96.688 29.626 96.5778 29.5441 96.5778 29.3856C96.5778 29.2083 96.7659 29.0795 97.0184 29.0795C97.2949 29.0795 97.4091 29.2325 97.4642 29.3748L97.7488 29.2943ZM98.2635 30.895H98.5804V28.8323H98.2635V30.895ZM98.4246 28.4885C98.5482 28.4885 98.6502 28.3919 98.6502 28.2738C98.6502 28.1555 98.5482 28.0588 98.4246 28.0588C98.301 28.0588 98.1991 28.1555 98.1991 28.2738C98.1991 28.3919 98.301 28.4885 98.4246 28.4885ZM100.058 28.8323H99.6174V28.3382H99.3005V28.8323H98.9889V29.1009H99.3005V30.39C99.3005 30.7499 99.5905 30.9218 99.8592 30.9218C99.9773 30.9218 100.053 30.9004 100.095 30.8843L100.031 30.5995C100.004 30.6049 99.9613 30.6156 99.8914 30.6156C99.7518 30.6156 99.6174 30.5727 99.6174 30.304V29.1009H100.058V28.8323ZM102.205 30.9434C102.565 30.9434 102.753 30.7499 102.817 30.6156H102.834V30.895H103.15V29.536C103.15 28.8807 102.651 28.8054 102.388 28.8054C102.076 28.8054 101.722 28.913 101.561 29.289L101.861 29.3964C101.931 29.246 102.096 29.0848 102.399 29.0848C102.69 29.0848 102.834 29.2392 102.834 29.5038V29.5145C102.834 29.6676 102.678 29.6541 102.302 29.7025C101.919 29.7522 101.501 29.8368 101.501 30.3095C101.501 30.7123 101.813 30.9434 102.205 30.9434ZM102.253 30.6586C102.001 30.6586 101.818 30.5458 101.818 30.3256C101.818 30.0838 102.039 30.0087 102.286 29.9764C102.42 29.9603 102.78 29.9227 102.834 29.8583V30.1484C102.834 30.4061 102.629 30.6586 102.253 30.6586ZM104.793 30.895H105.109V29.6059C105.109 29.3037 105.33 29.0902 105.577 29.0902C105.817 29.0902 105.985 29.2472 105.985 29.4823V30.895H106.307V29.5522C106.307 29.2862 106.474 29.0902 106.764 29.0902C106.989 29.0902 107.183 29.2097 107.183 29.5145V30.895H107.5V29.5145C107.5 29.0297 107.239 28.8054 106.871 28.8054C106.576 28.8054 106.36 28.9411 106.254 29.1546H106.232C106.13 28.9344 105.95 28.8054 105.679 28.8054C105.41 28.8054 105.211 28.9344 105.126 29.1546H105.099V28.8323H104.793V30.895ZM108.944 30.938C109.363 30.938 109.669 30.7285 109.766 30.4169L109.46 30.331C109.379 30.5458 109.192 30.6532 108.944 30.6532C108.572 30.6532 108.315 30.4128 108.301 29.971H109.798V29.8368C109.798 29.0686 109.341 28.8054 108.912 28.8054C108.353 28.8054 107.982 29.246 107.982 29.8798C107.982 30.5135 108.348 30.938 108.944 30.938ZM108.301 29.6971C108.322 29.3762 108.549 29.0902 108.912 29.0902C109.255 29.0902 109.476 29.348 109.476 29.6971H108.301ZM111.177 28.8323H110.737V28.3382H110.42V28.8323H110.108V29.1009H110.42V30.39C110.42 30.7499 110.71 30.9218 110.978 30.9218C111.097 30.9218 111.172 30.9004 111.215 30.8843L111.15 30.5995C111.123 30.6049 111.08 30.6156 111.011 30.6156C110.871 30.6156 110.737 30.5727 110.737 30.304V29.1009H111.177V28.8323Z" fill="black"/>
<path d="M13.8655 38.458C13.8655 37.7618 14.4299 37.1975 15.126 37.1975H20.1681C20.8642 37.1975 21.4286 37.7618 21.4286 38.458C21.4286 39.1542 20.8642 39.7185 20.1681 39.7185H15.126C14.4299 39.7185 13.8655 39.1542 13.8655 38.458Z" fill="#CACCCE"/>
<path d="M23.9496 38.458C23.9496 37.7618 24.5139 37.1975 25.2101 37.1975H30.2521C30.9483 37.1975 31.5126 37.7618 31.5126 38.458C31.5126 39.1542 30.9483 39.7185 30.2521 39.7185H25.2101C24.5139 39.7185 23.9496 39.1542 23.9496 38.458Z" fill="#CACCCE"/>
<path d="M34.0336 38.458C34.0336 37.7618 34.598 37.1975 35.2941 37.1975H40.3362C41.0323 37.1975 41.5967 37.7618 41.5967 38.458C41.5967 39.1542 41.0323 39.7185 40.3362 39.7185H35.2941C34.598 39.7185 34.0336 39.1542 34.0336 38.458Z" fill="#CACCCE"/>
<path d="M44.1177 38.458C44.1177 37.7618 44.682 37.1975 45.3782 37.1975H50.4202C51.1164 37.1975 51.6807 37.7618 51.6807 38.458C51.6807 39.1542 51.1164 39.7185 50.4202 39.7185H45.3782C44.682 39.7185 44.1177 39.1542 44.1177 38.458Z" fill="#CACCCE"/>
<path d="M54.2017 38.458C54.2017 37.7618 54.766 37.1975 55.4622 37.1975H60.5042C61.2004 37.1975 61.7647 37.7618 61.7647 38.458C61.7647 39.1542 61.2004 39.7185 60.5042 39.7185H55.4622C54.766 39.7185 54.2017 39.1542 54.2017 38.458Z" fill="#CACCCE"/>
<path d="M64.2857 38.458C64.2857 37.7618 64.85 37.1975 65.5462 37.1975H70.5882C71.2844 37.1975 71.8487 37.7618 71.8487 38.458C71.8487 39.1542 71.2844 39.7185 70.5882 39.7185H65.5462C64.85 39.7185 64.2857 39.1542 64.2857 38.458Z" fill="#CACCCE"/>
<g opacity="0.8">
<path d="M39.5948 53.6542H15.8793C14.8052 53.6542 13.9345 54.525 13.9345 55.5991V71.1353C13.9345 72.2094 14.8052 73.0801 15.8793 73.0801H39.5948C40.6689 73.0801 41.5397 72.2094 41.5397 71.1353V55.5991C41.5397 54.525 40.6689 53.6542 39.5948 53.6542Z" fill="#CACCCE"/>
<path d="M29.5088 77.1696H14.7945C14.3202 77.1696 13.9358 77.554 13.9358 78.0283C13.9358 78.5025 14.3202 78.887 14.7945 78.887H29.5088C29.983 78.887 30.3675 78.5025 30.3675 78.0283C30.3675 77.554 29.983 77.1696 29.5088 77.1696Z" fill="#CACCCE"/>
</g>
<path fill-rule="evenodd" clip-rule="evenodd" d="M126.729 13.9264C128.121 13.9264 129.25 12.7978 129.25 11.4055C129.25 10.0132 128.121 8.88446 126.729 8.88446C125.336 8.88446 124.208 10.0132 124.208 11.4055C124.208 12.7978 125.336 13.9264 126.729 13.9264Z" stroke="#E4E5E6" stroke-width="1.0084"/>
<path d="M128.887 13.5633L130.777 15.454" stroke="#E4E5E6" stroke-width="1.0084" stroke-linecap="round"/>
<path d="M14.264 14.5084H17.1981V13.7094H15.2331V9.92476H14.264V14.5084ZM23.134 12.2166C23.134 10.7171 22.2029 9.86209 20.9876 9.86209C19.7657 9.86209 18.8412 10.7171 18.8412 12.2166C18.8412 13.7094 19.7657 14.5711 20.9876 14.5711C22.2029 14.5711 23.134 13.7161 23.134 12.2166ZM22.1515 12.2166C22.1515 13.1879 21.6904 13.7139 20.9876 13.7139C20.2826 13.7139 19.8238 13.1879 19.8238 12.2166C19.8238 11.2452 20.2826 10.7193 20.9876 10.7193C21.6904 10.7193 22.1515 11.2452 22.1515 12.2166ZM28.1517 11.4064H29.1365C29.0111 10.5 28.2122 9.86209 27.176 9.86209C25.9651 9.86209 25.0318 10.735 25.0318 12.2211C25.0318 13.6713 25.9046 14.5711 27.1961 14.5711C28.3531 14.5711 29.179 13.8392 29.179 12.6329V12.0554H27.2609V12.7851H28.2457C28.2323 13.3535 27.8452 13.7139 27.2005 13.7139C26.4731 13.7139 26.0144 13.17 26.0144 12.2121C26.0144 11.2587 26.491 10.7193 27.1916 10.7193C27.6907 10.7193 28.0287 10.9767 28.1517 11.4064ZM35.3796 12.2166C35.3796 10.7171 34.4486 9.86209 33.2333 9.86209C32.0112 9.86209 31.0869 10.7171 31.0869 12.2166C31.0869 13.7094 32.0112 14.5711 33.2333 14.5711C34.4486 14.5711 35.3796 13.7161 35.3796 12.2166ZM34.3971 12.2166C34.3971 13.1879 33.936 13.7139 33.2333 13.7139C32.5283 13.7139 32.0695 13.1879 32.0695 12.2166C32.0695 11.2452 32.5283 10.7193 33.2333 10.7193C33.936 10.7193 34.3971 11.2452 34.3971 12.2166Z" fill="#E4E5E6"/>
<g opacity="0.8">
<path d="M70.7787 53.6542H47.0632C45.9891 53.6542 45.1183 54.525 45.1183 55.5991V71.1353C45.1183 72.2094 45.9891 73.0801 47.0632 73.0801H70.7787C71.8528 73.0801 72.7235 72.2094 72.7235 71.1353V55.5991C72.7235 54.525 71.8528 53.6542 70.7787 53.6542Z" fill="#CACCCE"/>
<path d="M60.6926 77.1696H45.9783C45.5041 77.1696 45.1196 77.554 45.1196 78.0283C45.1196 78.5025 45.5041 78.887 45.9783 78.887H60.6926C61.1669 78.887 61.5513 78.5025 61.5513 78.0283C61.5513 77.554 61.1669 77.1696 60.6926 77.1696Z" fill="#CACCCE"/>
</g>
<g opacity="0.8">
<path d="M101.961 53.6542H78.2459C77.1718 53.6542 76.3011 54.525 76.3011 55.5991V71.1353C76.3011 72.2094 77.1718 73.0801 78.2459 73.0801H101.961C103.036 73.0801 103.906 72.2094 103.906 71.1353V55.5991C103.906 54.525 103.036 53.6542 101.961 53.6542Z" fill="#CACCCE"/>
<path d="M91.8753 77.1696H77.1611C76.6868 77.1696 76.3024 77.554 76.3024 78.0283C76.3024 78.5025 76.6868 78.887 77.1611 78.887H91.8753C92.3496 78.887 92.7341 78.5025 92.7341 78.0283C92.7341 77.554 92.3496 77.1696 91.8753 77.1696Z" fill="#CACCCE"/>
<path d="M132.803 53.6542H109.088C108.014 53.6542 107.143 54.525 107.143 55.5991V71.1353C107.143 72.2094 108.014 73.0801 109.088 73.0801H132.803C133.877 73.0801 134.748 72.2094 134.748 71.1353V55.5991C134.748 54.525 133.877 53.6542 132.803 53.6542Z" fill="#CACCCE"/>
<path d="M122.717 77.1696H108.003C107.529 77.1696 107.144 77.554 107.144 78.0283C107.144 78.5025 107.529 78.887 108.003 78.887H122.717C123.191 78.887 123.576 78.5025 123.576 78.0283C123.576 77.554 123.191 77.1696 122.717 77.1696Z" fill="#CACCCE"/>
</g>
</svg>
