<svg width="119" height="68" viewBox="0 0 119 68" fill="none" xmlns="http://www.w3.org/2000/svg">
<rect width="119" height="68" rx="3" fill="white"/>
<path d="M27.1719 4.17163L30.0003 7.00006" stroke="white" stroke-width="0.5"/>
<path d="M30.0049 4.17678L27.1765 7.0052" stroke="white" stroke-width="0.5"/>
<path d="M15.2294 22.1641C15.108 21.1562 14.3452 20.5767 13.3352 20.5767C12.1825 20.5767 11.3026 21.3906 11.3026 22.8182C11.3026 24.2415 12.1676 25.0597 13.3352 25.0597C14.4538 25.0597 15.1293 24.3161 15.2294 23.5128L14.2962 23.5085C14.2088 23.9751 13.8423 24.2436 13.3501 24.2436C12.6875 24.2436 12.2379 23.7514 12.2379 22.8182C12.2379 21.9105 12.6811 21.3928 13.3565 21.3928C13.8615 21.3928 14.2259 21.6847 14.2962 22.1641H15.2294ZM17.8526 25.0639C18.8455 25.0639 19.4634 24.3842 19.4634 23.3764C19.4634 22.3622 18.8455 21.6847 17.8526 21.6847C16.8597 21.6847 16.2418 22.3622 16.2418 23.3764C16.2418 24.3842 16.8597 25.0639 17.8526 25.0639ZM17.8569 24.3608C17.3988 24.3608 17.1644 23.9411 17.1644 23.37C17.1644 22.799 17.3988 22.3771 17.8569 22.3771C18.3065 22.3771 18.5408 22.799 18.5408 23.37C18.5408 23.9411 18.3065 24.3608 17.8569 24.3608ZM23.2766 22.6605C23.1957 22.0575 22.7099 21.6847 21.8832 21.6847C21.0458 21.6847 20.494 22.0724 20.4961 22.7031C20.494 23.1932 20.8029 23.5107 21.4421 23.6385L22.0089 23.7514C22.2944 23.8089 22.4244 23.9134 22.4286 24.0774C22.4244 24.2713 22.2134 24.4098 21.896 24.4098C21.5721 24.4098 21.3569 24.2713 21.3015 24.005L20.4087 24.0518C20.494 24.6783 21.0266 25.0639 21.8938 25.0639C22.7418 25.0639 23.3491 24.6314 23.3512 23.9858C23.3491 23.5128 23.0401 23.2294 22.4052 23.0994L21.8129 22.9801C21.5082 22.9141 21.3952 22.8097 21.3974 22.652C21.3952 22.456 21.6168 22.3281 21.8981 22.3281C22.2134 22.3281 22.4009 22.5007 22.4457 22.7116L23.2766 22.6605ZM24.4228 25H25.3304V23.0355C25.3304 22.6733 25.5605 22.4325 25.8631 22.4325C26.1614 22.4325 26.3617 22.6371 26.3617 22.9588V25H27.2417V23.0014C27.2417 22.6626 27.4355 22.4325 27.7658 22.4325C28.0556 22.4325 28.2729 22.6136 28.2729 22.978V25H29.1784V22.799C29.1784 22.0895 28.7566 21.6847 28.1472 21.6847C27.6678 21.6847 27.2949 21.9297 27.1607 22.3047H27.1266C27.0222 21.9254 26.6877 21.6847 26.2381 21.6847C25.7971 21.6847 25.4625 21.919 25.3262 22.3047H25.2878V21.7273H24.4228V25ZM31.8869 25.0639C32.6966 25.0639 33.242 24.6697 33.3699 24.0625L32.5304 24.0071C32.4387 24.2564 32.2044 24.3864 31.9018 24.3864C31.448 24.3864 31.1603 24.0859 31.1603 23.598V23.5959H33.389V23.3466C33.389 22.2344 32.7157 21.6847 31.8507 21.6847C30.8876 21.6847 30.2633 22.3686 30.2633 23.3786C30.2633 24.4162 30.8791 25.0639 31.8869 25.0639ZM31.1603 23.0334C31.1795 22.6605 31.4629 22.3622 31.8656 22.3622C32.2598 22.3622 32.5325 22.6435 32.5346 23.0334H31.1603ZM36.2221 21.7273H35.6064V20.9432H34.6987V21.7273H34.2512V22.4091H34.6987V24.1136C34.6944 24.755 35.1312 25.0724 35.7896 25.0447C36.024 25.0362 36.1902 24.9893 36.2818 24.9595L36.139 24.2841C36.0943 24.2926 35.9984 24.3139 35.9132 24.3139C35.7321 24.3139 35.6064 24.2457 35.6064 23.9943V22.4091H36.2221V21.7273ZM37.3134 25H38.2211V21.7273H37.3134V25ZM37.7694 21.3054C38.04 21.3054 38.2615 21.0987 38.2615 20.8452C38.2615 20.5938 38.04 20.3871 37.7694 20.3871C37.5009 20.3871 37.2793 20.5938 37.2793 20.8452C37.2793 21.0987 37.5009 21.3054 37.7694 21.3054ZM40.9268 25.0639C41.7983 25.0639 42.3459 24.5526 42.3885 23.8004H41.532C41.4787 24.1499 41.2486 24.3459 40.9375 24.3459C40.5135 24.3459 40.2386 23.9901 40.2386 23.3636C40.2386 22.7457 40.5156 22.392 40.9375 22.392C41.2699 22.392 41.483 22.6115 41.532 22.9375H42.3885C42.3501 22.1811 41.777 21.6847 40.9226 21.6847C39.9297 21.6847 39.3161 22.3729 39.3161 23.3764C39.3161 24.3714 39.919 25.0639 40.9268 25.0639ZM46.1926 22.6605C46.1117 22.0575 45.6259 21.6847 44.7992 21.6847C43.9618 21.6847 43.41 22.0724 43.4121 22.7031C43.41 23.1932 43.7189 23.5107 44.3581 23.6385L44.9249 23.7514C45.2104 23.8089 45.3404 23.9134 45.3446 24.0774C45.3404 24.2713 45.1294 24.4098 44.812 24.4098C44.4881 24.4098 44.2729 24.2713 44.2175 24.005L43.3248 24.0518C43.41 24.6783 43.9426 25.0639 44.8098 25.0639C45.6578 25.0639 46.2651 24.6314 46.2672 23.9858C46.2651 23.5128 45.9561 23.2294 45.3212 23.0994L44.7289 22.9801C44.4242 22.9141 44.3113 22.8097 44.3134 22.652C44.3113 22.456 44.5328 22.3281 44.8141 22.3281C45.1294 22.3281 45.3169 22.5007 45.3617 22.7116L46.1926 22.6605Z" fill="black"/>
<path d="M49.2642 24H50.5426V23.7656H49.5284V21.8182H49.2642V24ZM51.5824 24.0341C52.0256 24.0341 52.3239 23.6974 52.3239 23.1903C52.3239 22.679 52.0256 22.3423 51.5824 22.3423C51.1392 22.3423 50.8409 22.679 50.8409 23.1903C50.8409 23.6974 51.1392 24.0341 51.5824 24.0341ZM51.5824 23.8082C51.2457 23.8082 51.0923 23.5185 51.0923 23.1903C51.0923 22.8622 51.2457 22.5682 51.5824 22.5682C51.919 22.5682 52.0724 22.8622 52.0724 23.1903C52.0724 23.5185 51.919 23.8082 51.5824 23.8082ZM52.7077 24H52.9591V22.9645C52.9591 22.7429 53.1338 22.581 53.3724 22.581C53.4395 22.581 53.5088 22.5938 53.5258 22.598V22.3423C53.4971 22.3402 53.431 22.3381 53.3937 22.3381C53.1977 22.3381 53.0273 22.4489 52.9676 22.6108H52.9506V22.3636H52.7077V24ZM54.4601 24.0341C54.7925 24.0341 55.0354 23.8679 55.1121 23.6207L54.8692 23.5526C54.8053 23.723 54.6572 23.8082 54.4601 23.8082C54.165 23.8082 53.9616 23.6175 53.9498 23.267H55.1377V23.1605C55.1377 22.5511 54.7755 22.3423 54.4346 22.3423C53.9914 22.3423 53.6974 22.6918 53.6974 23.1946C53.6974 23.6974 53.9871 24.0341 54.4601 24.0341ZM53.9498 23.0497C53.9669 22.7951 54.1469 22.5682 54.4346 22.5682C54.7073 22.5682 54.882 22.7727 54.882 23.0497H53.9498ZM55.5202 24H55.7716V22.9773C55.7716 22.7376 55.9463 22.5682 56.1423 22.5682C56.333 22.5682 56.4662 22.6928 56.4662 22.8793V24H56.7219V22.9347C56.7219 22.7237 56.854 22.5682 57.0841 22.5682C57.2631 22.5682 57.4165 22.663 57.4165 22.9048V24H57.6679V22.9048C57.6679 22.5202 57.4612 22.3423 57.1693 22.3423C56.9349 22.3423 56.7634 22.4499 56.6792 22.6193H56.6622C56.5812 22.4446 56.4385 22.3423 56.2233 22.3423C56.0102 22.3423 55.8525 22.4446 55.7844 22.6193H55.7631V22.3636H55.5202V24ZM58.9713 24H59.2227V22.3636H58.9713V24ZM59.0992 22.0909C59.1972 22.0909 59.2781 22.0142 59.2781 21.9205C59.2781 21.8267 59.1972 21.75 59.0992 21.75C59.0012 21.75 58.9202 21.8267 58.9202 21.9205C58.9202 22.0142 59.0012 22.0909 59.0992 22.0909ZM59.6832 24.6136H59.9347V23.7486H59.956C60.0114 23.8381 60.1179 24.0341 60.4332 24.0341C60.8423 24.0341 61.1278 23.706 61.1278 23.1861C61.1278 22.6705 60.8423 22.3423 60.429 22.3423C60.1094 22.3423 60.0114 22.5384 59.956 22.6236H59.9261V22.3636H59.6832V24.6136ZM59.9304 23.1818C59.9304 22.8153 60.0923 22.5682 60.3991 22.5682C60.7188 22.5682 60.8764 22.8366 60.8764 23.1818C60.8764 23.5312 60.7145 23.8082 60.3991 23.8082C60.0966 23.8082 59.9304 23.5526 59.9304 23.1818ZM62.6705 22.7301C62.5916 22.4979 62.4148 22.3423 62.0909 22.3423C61.7457 22.3423 61.4901 22.5384 61.4901 22.8153C61.4901 23.0412 61.6243 23.1925 61.9247 23.2628L62.1974 23.3267C62.3626 23.3651 62.4403 23.4439 62.4403 23.5568C62.4403 23.6974 62.2912 23.8125 62.0568 23.8125C61.8512 23.8125 61.7223 23.7241 61.6776 23.5483L61.4389 23.608C61.4975 23.886 61.7266 24.0341 62.0611 24.0341C62.4414 24.0341 62.7003 23.8263 62.7003 23.544C62.7003 23.3161 62.5575 23.1722 62.2656 23.1009L62.0227 23.0412C61.8288 22.9933 61.7415 22.9283 61.7415 22.8026C61.7415 22.6619 61.8906 22.5597 62.0909 22.5597C62.3104 22.5597 62.4009 22.6811 62.4446 22.794L62.6705 22.7301ZM64.11 23.331C64.11 23.6378 63.8756 23.7784 63.6881 23.7784C63.4793 23.7784 63.3302 23.625 63.3302 23.3864V22.3636H63.0787V23.4034C63.0787 23.821 63.3003 24.0213 63.6072 24.0213C63.8543 24.0213 64.0162 23.8892 64.093 23.723H64.11V24H64.3614V22.3636H64.11V23.331ZM64.8219 24H65.0733V22.9773C65.0733 22.7376 65.248 22.5682 65.4441 22.5682C65.6348 22.5682 65.7679 22.6928 65.7679 22.8793V24H66.0236V22.9347C66.0236 22.7237 66.1557 22.5682 66.3858 22.5682C66.5648 22.5682 66.7182 22.663 66.7182 22.9048V24H66.9696V22.9048C66.9696 22.5202 66.763 22.3423 66.4711 22.3423C66.2367 22.3423 66.0652 22.4499 65.981 22.6193H65.964C65.883 22.4446 65.7402 22.3423 65.525 22.3423C65.312 22.3423 65.1543 22.4446 65.0861 22.6193H65.0648V22.3636H64.8219V24ZM68.891 24.0341C69.2063 24.0341 69.3129 23.8381 69.3683 23.7486H69.3981V24H69.641V21.8182H69.3896V22.6236H69.3683C69.3129 22.5384 69.2148 22.3423 68.8952 22.3423C68.4819 22.3423 68.1964 22.6705 68.1964 23.1861C68.1964 23.706 68.4819 24.0341 68.891 24.0341ZM68.9251 23.8082C68.6097 23.8082 68.4478 23.5312 68.4478 23.1818C68.4478 22.8366 68.6055 22.5682 68.9251 22.5682C69.2319 22.5682 69.3938 22.8153 69.3938 23.1818C69.3938 23.5526 69.2276 23.8082 68.9251 23.8082ZM70.8011 24.0341C71.2443 24.0341 71.5426 23.6974 71.5426 23.1903C71.5426 22.679 71.2443 22.3423 70.8011 22.3423C70.358 22.3423 70.0597 22.679 70.0597 23.1903C70.0597 23.6974 70.358 24.0341 70.8011 24.0341ZM70.8011 23.8082C70.4645 23.8082 70.3111 23.5185 70.3111 23.1903C70.3111 22.8622 70.4645 22.5682 70.8011 22.5682C71.1378 22.5682 71.2912 22.8622 71.2912 23.1903C71.2912 23.5185 71.1378 23.8082 70.8011 23.8082ZM72.1778 21.8182H71.9264V24H72.1778V21.8182ZM73.3031 24.0341C73.7463 24.0341 74.0446 23.6974 74.0446 23.1903C74.0446 22.679 73.7463 22.3423 73.3031 22.3423C72.8599 22.3423 72.5616 22.679 72.5616 23.1903C72.5616 23.6974 72.8599 24.0341 73.3031 24.0341ZM73.3031 23.8082C72.9664 23.8082 72.813 23.5185 72.813 23.1903C72.813 22.8622 72.9664 22.5682 73.3031 22.5682C73.6397 22.5682 73.7931 22.8622 73.7931 23.1903C73.7931 23.5185 73.6397 23.8082 73.3031 23.8082ZM74.4284 24H74.6798V22.9645C74.6798 22.7429 74.8545 22.581 75.0931 22.581C75.1602 22.581 75.2295 22.5938 75.2465 22.598V22.3423C75.2178 22.3402 75.1517 22.3381 75.1144 22.3381C74.9184 22.3381 74.748 22.4489 74.6883 22.6108H74.6713V22.3636H74.4284V24ZM77.5474 22.7301C77.4686 22.4979 77.2917 22.3423 76.9679 22.3423C76.6227 22.3423 76.367 22.5384 76.367 22.8153C76.367 23.0412 76.5012 23.1925 76.8017 23.2628L77.0744 23.3267C77.2395 23.3651 77.3173 23.4439 77.3173 23.5568C77.3173 23.6974 77.1681 23.8125 76.9338 23.8125C76.7282 23.8125 76.5993 23.7241 76.5545 23.5483L76.3159 23.608C76.3745 23.886 76.6035 24.0341 76.938 24.0341C77.3184 24.0341 77.5772 23.8263 77.5772 23.544C77.5772 23.3161 77.4345 23.1722 77.1426 23.1009L76.8997 23.0412C76.7058 22.9933 76.6184 22.9283 76.6184 22.8026C76.6184 22.6619 76.7676 22.5597 76.9679 22.5597C77.1873 22.5597 77.2779 22.6811 77.3216 22.794L77.5474 22.7301ZM77.9557 24H78.2071V22.3636H77.9557V24ZM78.0835 22.0909C78.1816 22.0909 78.2625 22.0142 78.2625 21.9205C78.2625 21.8267 78.1816 21.75 78.0835 21.75C77.9855 21.75 77.9046 21.8267 77.9046 21.9205C77.9046 22.0142 77.9855 22.0909 78.0835 22.0909ZM79.3793 22.3636H79.0298V21.9716H78.7784V22.3636H78.5312V22.5767H78.7784V23.5994C78.7784 23.8849 79.0085 24.0213 79.2216 24.0213C79.3153 24.0213 79.375 24.0043 79.4091 23.9915L79.358 23.7656C79.3366 23.7699 79.3026 23.7784 79.2472 23.7784C79.1364 23.7784 79.0298 23.7443 79.0298 23.5312V22.5767H79.3793V22.3636ZM81.0827 24.0384C81.3683 24.0384 81.5174 23.8849 81.5685 23.7784H81.5813V24H81.8327V22.9219C81.8327 22.402 81.4364 22.3423 81.2276 22.3423C80.9805 22.3423 80.6992 22.4276 80.5714 22.7259L80.81 22.8111C80.8654 22.6918 80.9964 22.5639 81.2362 22.5639C81.4673 22.5639 81.5813 22.6864 81.5813 22.8963V22.9048C81.5813 23.0263 81.4577 23.0156 81.1594 23.054C80.8558 23.0934 80.5245 23.1605 80.5245 23.5355C80.5245 23.8551 80.7717 24.0384 81.0827 24.0384ZM81.1211 23.8125C80.9208 23.8125 80.7759 23.723 80.7759 23.5483C80.7759 23.3565 80.9506 23.2969 81.1467 23.2713C81.2532 23.2585 81.5387 23.2287 81.5813 23.1776V23.4077C81.5813 23.6122 81.4194 23.8125 81.1211 23.8125ZM83.1354 24H83.3868V22.9773C83.3868 22.7376 83.5615 22.5682 83.7575 22.5682C83.9482 22.5682 84.0814 22.6928 84.0814 22.8793V24H84.3371V22.9347C84.3371 22.7237 84.4692 22.5682 84.6993 22.5682C84.8783 22.5682 85.0317 22.663 85.0317 22.9048V24H85.2831V22.9048C85.2831 22.5202 85.0764 22.3423 84.7845 22.3423C84.5502 22.3423 84.3786 22.4499 84.2945 22.6193H84.2774C84.1965 22.4446 84.0537 22.3423 83.8385 22.3423C83.6254 22.3423 83.4678 22.4446 83.3996 22.6193H83.3783V22.3636H83.1354V24ZM86.4289 24.0341C86.7613 24.0341 87.0042 23.8679 87.0809 23.6207L86.838 23.5526C86.7741 23.723 86.626 23.8082 86.4289 23.8082C86.1338 23.8082 85.9303 23.6175 85.9186 23.267H87.1064V23.1605C87.1064 22.5511 86.7442 22.3423 86.4033 22.3423C85.9601 22.3423 85.6661 22.6918 85.6661 23.1946C85.6661 23.6974 85.9559 24.0341 86.4289 24.0341ZM85.9186 23.0497C85.9356 22.7951 86.1157 22.5682 86.4033 22.5682C86.676 22.5682 86.8508 22.7727 86.8508 23.0497H85.9186ZM88.2006 22.3636H87.8511V21.9716H87.5997V22.3636H87.3525V22.5767H87.5997V23.5994C87.5997 23.8849 87.8298 24.0213 88.0429 24.0213C88.1366 24.0213 88.1963 24.0043 88.2304 23.9915L88.1792 23.7656C88.1579 23.7699 88.1238 23.7784 88.0684 23.7784C87.9577 23.7784 87.8511 23.7443 87.8511 23.5312V22.5767H88.2006V22.3636Z" fill="black"/>
<path d="M11 30C11 29.4477 11.4477 29 12 29H16C16.5523 29 17 29.4477 17 30C17 30.5523 16.5523 31 16 31H12C11.4477 31 11 30.5523 11 30Z" fill="#AAAEB1"/>
<path d="M19 30C19 29.4477 19.4477 29 20 29H24C24.5523 29 25 29.4477 25 30C25 30.5523 24.5523 31 24 31H20C19.4477 31 19 30.5523 19 30Z" fill="#AAAEB1"/>
<path d="M27 30C27 29.4477 27.4477 29 28 29H32C32.5523 29 33 29.4477 33 30C33 30.5523 32.5523 31 32 31H28C27.4477 31 27 30.5523 27 30Z" fill="#AAAEB1"/>
<path d="M35 30C35 29.4477 35.4477 29 36 29H40C40.5523 29 41 29.4477 41 30C41 30.5523 40.5523 31 40 31H36C35.4477 31 35 30.5523 35 30Z" fill="#AAAEB1"/>
<path d="M43 30C43 29.4477 43.4477 29 44 29H48C48.5523 29 49 29.4477 49 30V30C49 30.5523 48.5523 31 48 31H44C43.4477 31 43 30.5523 43 30V30Z" fill="#AAAEB1"/>
<path d="M51 30C51 29.4477 51.4477 29 52 29H56C56.5523 29 57 29.4477 57 30V30C57 30.5523 56.5523 31 56 31H52C51.4477 31 51 30.5523 51 30V30Z" fill="#AAAEB1"/>
<g opacity="0.8">
<rect x="11.0547" y="42.0557" width="21.9001" height="15.4112" rx="1.5429" fill="#AAAEB1"/>
<rect x="11.0557" y="60.7112" width="13.0358" height="1.36249" rx="0.681244" fill="#AAAEB1"/>
</g>
<path fill-rule="evenodd" clip-rule="evenodd" d="M100.538 10.5383C101.643 10.5383 102.538 9.6429 102.538 8.53833C102.538 7.43376 101.643 6.53833 100.538 6.53833C99.4335 6.53833 98.5381 7.43376 98.5381 8.53833C98.5381 9.6429 99.4335 10.5383 100.538 10.5383Z" stroke="#AAAEB1" stroke-width="0.8"/>
<path d="M102.25 10.2502L103.75 11.7502" stroke="#AAAEB1" stroke-width="0.8" stroke-linecap="round"/>
<path d="M11.3161 11H13.6438V10.3661H12.0849V7.36364H11.3161V11ZM18.353 9.18182C18.353 7.99219 17.6143 7.31392 16.6502 7.31392C15.6808 7.31392 14.9474 7.99219 14.9474 9.18182C14.9474 10.3661 15.6808 11.0497 16.6502 11.0497C17.6143 11.0497 18.353 10.3714 18.353 9.18182ZM17.5735 9.18182C17.5735 9.95241 17.2077 10.3697 16.6502 10.3697C16.0909 10.3697 15.7269 9.95241 15.7269 9.18182C15.7269 8.41122 16.0909 7.99396 16.6502 7.99396C17.2077 7.99396 17.5735 8.41122 17.5735 9.18182ZM22.3337 8.53906H23.115C23.0155 7.81996 22.3817 7.31392 21.5596 7.31392C20.599 7.31392 19.8586 8.00639 19.8586 9.18537C19.8586 10.3359 20.551 11.0497 21.5756 11.0497C22.4935 11.0497 23.1487 10.4691 23.1487 9.51207V9.05398H21.627V9.63281H22.4083C22.3976 10.0838 22.0905 10.3697 21.5791 10.3697C21.002 10.3697 20.6381 9.93821 20.6381 9.17827C20.6381 8.42188 21.0162 7.99396 21.572 7.99396C21.968 7.99396 22.2361 8.19815 22.3337 8.53906ZM28.0678 9.18182C28.0678 7.99219 27.3292 7.31392 26.3651 7.31392C25.3956 7.31392 24.6623 7.99219 24.6623 9.18182C24.6623 10.3661 25.3956 11.0497 26.3651 11.0497C27.3292 11.0497 28.0678 10.3714 28.0678 9.18182ZM27.2884 9.18182C27.2884 9.95241 26.9226 10.3697 26.3651 10.3697C25.8058 10.3697 25.4418 9.95241 25.4418 9.18182C25.4418 8.41122 25.8058 7.99396 26.3651 7.99396C26.9226 7.99396 27.2884 8.41122 27.2884 9.18182Z" fill="#AAAEB1"/>
<g opacity="0.8">
<rect x="35.7939" y="42.0557" width="21.9001" height="15.4112" rx="1.5429" fill="#AAAEB1"/>
<rect x="35.7949" y="60.7112" width="13.0358" height="1.36249" rx="0.681244" fill="#AAAEB1"/>
</g>
<g opacity="0.8">
<rect x="60.5322" y="42.0557" width="21.9001" height="15.4112" rx="1.5429" fill="#AAAEB1"/>
<rect x="60.5332" y="60.7112" width="13.0358" height="1.36249" rx="0.681244" fill="#AAAEB1"/>
<rect x="85" y="42.0557" width="21.9001" height="15.4112" rx="1.5429" fill="#AAAEB1"/>
<rect x="85.001" y="60.7112" width="13.0358" height="1.36249" rx="0.681244" fill="#AAAEB1"/>
</g>
</svg>
