<svg width="119" height="68" viewBox="0 0 119 68" fill="none" xmlns="http://www.w3.org/2000/svg">
<rect width="119" height="68" rx="3" fill="white"/>
<path d="M27.1719 4.17163L30.0003 7.00006" stroke="white" stroke-width="0.5"/>
<path d="M30.0049 4.17678L27.1765 7.0052" stroke="white" stroke-width="0.5"/>
<path d="M45.2294 21.1641C45.108 20.1562 44.3452 19.5767 43.3352 19.5767C42.1825 19.5767 41.3026 20.3906 41.3026 21.8182C41.3026 23.2415 42.1676 24.0597 43.3352 24.0597C44.4538 24.0597 45.1293 23.3161 45.2294 22.5128L44.2962 22.5085C44.2088 22.9751 43.8423 23.2436 43.3501 23.2436C42.6875 23.2436 42.2379 22.7514 42.2379 21.8182C42.2379 20.9105 42.6811 20.3928 43.3565 20.3928C43.8615 20.3928 44.2259 20.6847 44.2962 21.1641H45.2294ZM47.8526 24.0639C48.8455 24.0639 49.4634 23.3842 49.4634 22.3764C49.4634 21.3622 48.8455 20.6847 47.8526 20.6847C46.8597 20.6847 46.2418 21.3622 46.2418 22.3764C46.2418 23.3842 46.8597 24.0639 47.8526 24.0639ZM47.8569 23.3608C47.3988 23.3608 47.1644 22.9411 47.1644 22.37C47.1644 21.799 47.3988 21.3771 47.8569 21.3771C48.3065 21.3771 48.5408 21.799 48.5408 22.37C48.5408 22.9411 48.3065 23.3608 47.8569 23.3608ZM53.2766 21.6605C53.1957 21.0575 52.7099 20.6847 51.8832 20.6847C51.0458 20.6847 50.494 21.0724 50.4961 21.7031C50.494 22.1932 50.8029 22.5107 51.4421 22.6385L52.0089 22.7514C52.2944 22.8089 52.4244 22.9134 52.4286 23.0774C52.4244 23.2713 52.2134 23.4098 51.896 23.4098C51.5721 23.4098 51.3569 23.2713 51.3015 23.005L50.4087 23.0518C50.494 23.6783 51.0266 24.0639 51.8938 24.0639C52.7418 24.0639 53.3491 23.6314 53.3512 22.9858C53.3491 22.5128 53.0401 22.2294 52.4052 22.0994L51.8129 21.9801C51.5082 21.9141 51.3952 21.8097 51.3974 21.652C51.3952 21.456 51.6168 21.3281 51.8981 21.3281C52.2134 21.3281 52.4009 21.5007 52.4457 21.7116L53.2766 21.6605ZM54.4228 24H55.3304V22.0355C55.3304 21.6733 55.5605 21.4325 55.8631 21.4325C56.1614 21.4325 56.3617 21.6371 56.3617 21.9588V24H57.2417V22.0014C57.2417 21.6626 57.4355 21.4325 57.7658 21.4325C58.0556 21.4325 58.2729 21.6136 58.2729 21.978V24H59.1784V21.799C59.1784 21.0895 58.7566 20.6847 58.1472 20.6847C57.6678 20.6847 57.2949 20.9297 57.1607 21.3047H57.1266C57.0222 20.9254 56.6877 20.6847 56.2381 20.6847C55.7971 20.6847 55.4625 20.919 55.3262 21.3047H55.2878V20.7273H54.4228V24ZM61.8869 24.0639C62.6966 24.0639 63.242 23.6697 63.3699 23.0625L62.5304 23.0071C62.4387 23.2564 62.2044 23.3864 61.9018 23.3864C61.448 23.3864 61.1603 23.0859 61.1603 22.598V22.5959H63.389V22.3466C63.389 21.2344 62.7157 20.6847 61.8507 20.6847C60.8876 20.6847 60.2633 21.3686 60.2633 22.3786C60.2633 23.4162 60.8791 24.0639 61.8869 24.0639ZM61.1603 22.0334C61.1795 21.6605 61.4629 21.3622 61.8656 21.3622C62.2598 21.3622 62.5325 21.6435 62.5346 22.0334H61.1603ZM66.2221 20.7273H65.6064V19.9432H64.6987V20.7273H64.2512V21.4091H64.6987V23.1136C64.6944 23.755 65.1312 24.0724 65.7896 24.0447C66.024 24.0362 66.1902 23.9893 66.2818 23.9595L66.139 23.2841C66.0943 23.2926 65.9984 23.3139 65.9132 23.3139C65.7321 23.3139 65.6064 23.2457 65.6064 22.9943V21.4091H66.2221V20.7273ZM67.3134 24H68.2211V20.7273H67.3134V24ZM67.7694 20.3054C68.04 20.3054 68.2615 20.0987 68.2615 19.8452C68.2615 19.5938 68.04 19.3871 67.7694 19.3871C67.5009 19.3871 67.2793 19.5938 67.2793 19.8452C67.2793 20.0987 67.5009 20.3054 67.7694 20.3054ZM70.9268 24.0639C71.7983 24.0639 72.3459 23.5526 72.3885 22.8004H71.532C71.4787 23.1499 71.2486 23.3459 70.9375 23.3459C70.5135 23.3459 70.2386 22.9901 70.2386 22.3636C70.2386 21.7457 70.5156 21.392 70.9375 21.392C71.2699 21.392 71.483 21.6115 71.532 21.9375H72.3885C72.3501 21.1811 71.777 20.6847 70.9226 20.6847C69.9297 20.6847 69.3161 21.3729 69.3161 22.3764C69.3161 23.3714 69.919 24.0639 70.9268 24.0639ZM76.1926 21.6605C76.1117 21.0575 75.6259 20.6847 74.7992 20.6847C73.9618 20.6847 73.41 21.0724 73.4121 21.7031C73.41 22.1932 73.7189 22.5107 74.3581 22.6385L74.9249 22.7514C75.2104 22.8089 75.3404 22.9134 75.3446 23.0774C75.3404 23.2713 75.1294 23.4098 74.812 23.4098C74.4881 23.4098 74.2729 23.2713 74.2175 23.005L73.3248 23.0518C73.41 23.6783 73.9426 24.0639 74.8098 24.0639C75.6578 24.0639 76.2651 23.6314 76.2672 22.9858C76.2651 22.5128 75.9561 22.2294 75.3212 22.0994L74.7289 21.9801C74.4242 21.9141 74.3113 21.8097 74.3134 21.652C74.3113 21.456 74.5328 21.3281 74.8141 21.3281C75.1294 21.3281 75.3169 21.5007 75.3617 21.7116L76.1926 21.6605Z" fill="black"/>
<path d="M39.2642 29H40.5426V28.7656H39.5284V26.8182H39.2642V29ZM41.5824 29.0341C42.0256 29.0341 42.3239 28.6974 42.3239 28.1903C42.3239 27.679 42.0256 27.3423 41.5824 27.3423C41.1392 27.3423 40.8409 27.679 40.8409 28.1903C40.8409 28.6974 41.1392 29.0341 41.5824 29.0341ZM41.5824 28.8082C41.2457 28.8082 41.0923 28.5185 41.0923 28.1903C41.0923 27.8622 41.2457 27.5682 41.5824 27.5682C41.919 27.5682 42.0724 27.8622 42.0724 28.1903C42.0724 28.5185 41.919 28.8082 41.5824 28.8082ZM42.7077 29H42.9591V27.9645C42.9591 27.7429 43.1338 27.581 43.3724 27.581C43.4395 27.581 43.5088 27.5938 43.5258 27.598V27.3423C43.4971 27.3402 43.431 27.3381 43.3937 27.3381C43.1977 27.3381 43.0273 27.4489 42.9676 27.6108H42.9506V27.3636H42.7077V29ZM44.4601 29.0341C44.7925 29.0341 45.0354 28.8679 45.1121 28.6207L44.8692 28.5526C44.8053 28.723 44.6572 28.8082 44.4601 28.8082C44.165 28.8082 43.9616 28.6175 43.9498 28.267H45.1377V28.1605C45.1377 27.5511 44.7755 27.3423 44.4346 27.3423C43.9914 27.3423 43.6974 27.6918 43.6974 28.1946C43.6974 28.6974 43.9871 29.0341 44.4601 29.0341ZM43.9498 28.0497C43.9669 27.7951 44.1469 27.5682 44.4346 27.5682C44.7073 27.5682 44.882 27.7727 44.882 28.0497H43.9498ZM45.5202 29H45.7716V27.9773C45.7716 27.7376 45.9463 27.5682 46.1423 27.5682C46.333 27.5682 46.4662 27.6928 46.4662 27.8793V29H46.7219V27.9347C46.7219 27.7237 46.854 27.5682 47.0841 27.5682C47.2631 27.5682 47.4165 27.663 47.4165 27.9048V29H47.6679V27.9048C47.6679 27.5202 47.4612 27.3423 47.1693 27.3423C46.9349 27.3423 46.7634 27.4499 46.6792 27.6193H46.6622C46.5812 27.4446 46.4385 27.3423 46.2233 27.3423C46.0102 27.3423 45.8525 27.4446 45.7844 27.6193H45.7631V27.3636H45.5202V29ZM48.9713 29H49.2227V27.3636H48.9713V29ZM49.0992 27.0909C49.1972 27.0909 49.2781 27.0142 49.2781 26.9205C49.2781 26.8267 49.1972 26.75 49.0992 26.75C49.0012 26.75 48.9202 26.8267 48.9202 26.9205C48.9202 27.0142 49.0012 27.0909 49.0992 27.0909ZM49.6832 29.6136H49.9347V28.7486H49.956C50.0114 28.8381 50.1179 29.0341 50.4332 29.0341C50.8423 29.0341 51.1278 28.706 51.1278 28.1861C51.1278 27.6705 50.8423 27.3423 50.429 27.3423C50.1094 27.3423 50.0114 27.5384 49.956 27.6236H49.9261V27.3636H49.6832V29.6136ZM49.9304 28.1818C49.9304 27.8153 50.0923 27.5682 50.3991 27.5682C50.7188 27.5682 50.8764 27.8366 50.8764 28.1818C50.8764 28.5312 50.7145 28.8082 50.3991 28.8082C50.0966 28.8082 49.9304 28.5526 49.9304 28.1818ZM52.6705 27.7301C52.5916 27.4979 52.4148 27.3423 52.0909 27.3423C51.7457 27.3423 51.4901 27.5384 51.4901 27.8153C51.4901 28.0412 51.6243 28.1925 51.9247 28.2628L52.1974 28.3267C52.3626 28.3651 52.4403 28.4439 52.4403 28.5568C52.4403 28.6974 52.2912 28.8125 52.0568 28.8125C51.8512 28.8125 51.7223 28.7241 51.6776 28.5483L51.4389 28.608C51.4975 28.886 51.7266 29.0341 52.0611 29.0341C52.4414 29.0341 52.7003 28.8263 52.7003 28.544C52.7003 28.3161 52.5575 28.1722 52.2656 28.1009L52.0227 28.0412C51.8288 27.9933 51.7415 27.9283 51.7415 27.8026C51.7415 27.6619 51.8906 27.5597 52.0909 27.5597C52.3104 27.5597 52.4009 27.6811 52.4446 27.794L52.6705 27.7301ZM54.11 28.331C54.11 28.6378 53.8756 28.7784 53.6881 28.7784C53.4793 28.7784 53.3302 28.625 53.3302 28.3864V27.3636H53.0787V28.4034C53.0787 28.821 53.3003 29.0213 53.6072 29.0213C53.8543 29.0213 54.0162 28.8892 54.093 28.723H54.11V29H54.3614V27.3636H54.11V28.331ZM54.8219 29H55.0733V27.9773C55.0733 27.7376 55.248 27.5682 55.4441 27.5682C55.6348 27.5682 55.7679 27.6928 55.7679 27.8793V29H56.0236V27.9347C56.0236 27.7237 56.1557 27.5682 56.3858 27.5682C56.5648 27.5682 56.7182 27.663 56.7182 27.9048V29H56.9696V27.9048C56.9696 27.5202 56.763 27.3423 56.4711 27.3423C56.2367 27.3423 56.0652 27.4499 55.981 27.6193H55.964C55.883 27.4446 55.7402 27.3423 55.525 27.3423C55.312 27.3423 55.1543 27.4446 55.0861 27.6193H55.0648V27.3636H54.8219V29ZM58.891 29.0341C59.2063 29.0341 59.3129 28.8381 59.3683 28.7486H59.3981V29H59.641V26.8182H59.3896V27.6236H59.3683C59.3129 27.5384 59.2148 27.3423 58.8952 27.3423C58.4819 27.3423 58.1964 27.6705 58.1964 28.1861C58.1964 28.706 58.4819 29.0341 58.891 29.0341ZM58.9251 28.8082C58.6097 28.8082 58.4478 28.5312 58.4478 28.1818C58.4478 27.8366 58.6055 27.5682 58.9251 27.5682C59.2319 27.5682 59.3938 27.8153 59.3938 28.1818C59.3938 28.5526 59.2276 28.8082 58.9251 28.8082ZM60.8011 29.0341C61.2443 29.0341 61.5426 28.6974 61.5426 28.1903C61.5426 27.679 61.2443 27.3423 60.8011 27.3423C60.358 27.3423 60.0597 27.679 60.0597 28.1903C60.0597 28.6974 60.358 29.0341 60.8011 29.0341ZM60.8011 28.8082C60.4645 28.8082 60.3111 28.5185 60.3111 28.1903C60.3111 27.8622 60.4645 27.5682 60.8011 27.5682C61.1378 27.5682 61.2912 27.8622 61.2912 28.1903C61.2912 28.5185 61.1378 28.8082 60.8011 28.8082ZM62.1778 26.8182H61.9264V29H62.1778V26.8182ZM63.3031 29.0341C63.7463 29.0341 64.0446 28.6974 64.0446 28.1903C64.0446 27.679 63.7463 27.3423 63.3031 27.3423C62.8599 27.3423 62.5616 27.679 62.5616 28.1903C62.5616 28.6974 62.8599 29.0341 63.3031 29.0341ZM63.3031 28.8082C62.9664 28.8082 62.813 28.5185 62.813 28.1903C62.813 27.8622 62.9664 27.5682 63.3031 27.5682C63.6397 27.5682 63.7931 27.8622 63.7931 28.1903C63.7931 28.5185 63.6397 28.8082 63.3031 28.8082ZM64.4284 29H64.6798V27.9645C64.6798 27.7429 64.8545 27.581 65.0931 27.581C65.1602 27.581 65.2295 27.5938 65.2465 27.598V27.3423C65.2178 27.3402 65.1517 27.3381 65.1144 27.3381C64.9184 27.3381 64.748 27.4489 64.6883 27.6108H64.6713V27.3636H64.4284V29ZM67.5474 27.7301C67.4686 27.4979 67.2917 27.3423 66.9679 27.3423C66.6227 27.3423 66.367 27.5384 66.367 27.8153C66.367 28.0412 66.5012 28.1925 66.8017 28.2628L67.0744 28.3267C67.2395 28.3651 67.3173 28.4439 67.3173 28.5568C67.3173 28.6974 67.1681 28.8125 66.9338 28.8125C66.7282 28.8125 66.5993 28.7241 66.5545 28.5483L66.3159 28.608C66.3745 28.886 66.6035 29.0341 66.938 29.0341C67.3184 29.0341 67.5772 28.8263 67.5772 28.544C67.5772 28.3161 67.4345 28.1722 67.1426 28.1009L66.8997 28.0412C66.7058 27.9933 66.6184 27.9283 66.6184 27.8026C66.6184 27.6619 66.7676 27.5597 66.9679 27.5597C67.1873 27.5597 67.2779 27.6811 67.3216 27.794L67.5474 27.7301ZM67.9557 29H68.2071V27.3636H67.9557V29ZM68.0835 27.0909C68.1816 27.0909 68.2625 27.0142 68.2625 26.9205C68.2625 26.8267 68.1816 26.75 68.0835 26.75C67.9855 26.75 67.9046 26.8267 67.9046 26.9205C67.9046 27.0142 67.9855 27.0909 68.0835 27.0909ZM69.3793 27.3636H69.0298V26.9716H68.7784V27.3636H68.5312V27.5767H68.7784V28.5994C68.7784 28.8849 69.0085 29.0213 69.2216 29.0213C69.3153 29.0213 69.375 29.0043 69.4091 28.9915L69.358 28.7656C69.3366 28.7699 69.3026 28.7784 69.2472 28.7784C69.1364 28.7784 69.0298 28.7443 69.0298 28.5312V27.5767H69.3793V27.3636ZM71.0827 29.0384C71.3683 29.0384 71.5174 28.8849 71.5685 28.7784H71.5813V29H71.8327V27.9219C71.8327 27.402 71.4364 27.3423 71.2276 27.3423C70.9805 27.3423 70.6992 27.4276 70.5714 27.7259L70.81 27.8111C70.8654 27.6918 70.9964 27.5639 71.2362 27.5639C71.4673 27.5639 71.5813 27.6864 71.5813 27.8963V27.9048C71.5813 28.0263 71.4577 28.0156 71.1594 28.054C70.8558 28.0934 70.5245 28.1605 70.5245 28.5355C70.5245 28.8551 70.7717 29.0384 71.0827 29.0384ZM71.1211 28.8125C70.9208 28.8125 70.7759 28.723 70.7759 28.5483C70.7759 28.3565 70.9506 28.2969 71.1467 28.2713C71.2532 28.2585 71.5387 28.2287 71.5813 28.1776V28.4077C71.5813 28.6122 71.4194 28.8125 71.1211 28.8125ZM73.1354 29H73.3868V27.9773C73.3868 27.7376 73.5615 27.5682 73.7575 27.5682C73.9482 27.5682 74.0814 27.6928 74.0814 27.8793V29H74.3371V27.9347C74.3371 27.7237 74.4692 27.5682 74.6993 27.5682C74.8783 27.5682 75.0317 27.663 75.0317 27.9048V29H75.2831V27.9048C75.2831 27.5202 75.0764 27.3423 74.7845 27.3423C74.5502 27.3423 74.3786 27.4499 74.2945 27.6193H74.2774C74.1965 27.4446 74.0537 27.3423 73.8385 27.3423C73.6254 27.3423 73.4678 27.4446 73.3996 27.6193H73.3783V27.3636H73.1354V29ZM76.4289 29.0341C76.7613 29.0341 77.0042 28.8679 77.0809 28.6207L76.838 28.5526C76.7741 28.723 76.626 28.8082 76.4289 28.8082C76.1338 28.8082 75.9303 28.6175 75.9186 28.267H77.1064V28.1605C77.1064 27.5511 76.7442 27.3423 76.4033 27.3423C75.9601 27.3423 75.6661 27.6918 75.6661 28.1946C75.6661 28.6974 75.9559 29.0341 76.4289 29.0341ZM75.9186 28.0497C75.9356 27.7951 76.1157 27.5682 76.4033 27.5682C76.676 27.5682 76.8508 27.7727 76.8508 28.0497H75.9186ZM78.2006 27.3636H77.8511V26.9716H77.5997V27.3636H77.3525V27.5767H77.5997V28.5994C77.5997 28.8849 77.8298 29.0213 78.0429 29.0213C78.1366 29.0213 78.1963 29.0043 78.2304 28.9915L78.1792 28.7656C78.1579 28.7699 78.1238 28.7784 78.0684 28.7784C77.9577 28.7784 77.8511 28.7443 77.8511 28.5312V27.5767H78.2006V27.3636Z" fill="black"/>
<path d="M36 33C36 32.4477 36.4477 32 37 32H41C41.5523 32 42 32.4477 42 33V33C42 33.5523 41.5523 34 41 34H37C36.4477 34 36 33.5523 36 33V33Z" fill="#AAAEB1"/>
<path d="M44 33C44 32.4477 44.4477 32 45 32H49C49.5523 32 50 32.4477 50 33V33C50 33.5523 49.5523 34 49 34H45C44.4477 34 44 33.5523 44 33V33Z" fill="#AAAEB1"/>
<path d="M52 33C52 32.4477 52.4477 32 53 32H57C57.5523 32 58 32.4477 58 33V33C58 33.5523 57.5523 34 57 34H53C52.4477 34 52 33.5523 52 33V33Z" fill="#AAAEB1"/>
<path d="M60 33C60 32.4477 60.4477 32 61 32H65C65.5523 32 66 32.4477 66 33V33C66 33.5523 65.5523 34 65 34H61C60.4477 34 60 33.5523 60 33V33Z" fill="#AAAEB1"/>
<path d="M68 33C68 32.4477 68.4477 32 69 32H73C73.5523 32 74 32.4477 74 33V33C74 33.5523 73.5523 34 73 34H69C68.4477 34 68 33.5523 68 33V33Z" fill="#AAAEB1"/>
<path d="M76 33C76 32.4477 76.4477 32 77 32H81C81.5523 32 82 32.4477 82 33V33C82 33.5523 81.5523 34 81 34H77C76.4477 34 76 33.5523 76 33V33Z" fill="#AAAEB1"/>
<g opacity="0.8">
<rect x="11.0547" y="42.0557" width="21.9001" height="15.4112" rx="1.5429" fill="#AAAEB1"/>
<rect x="11.0557" y="60.7112" width="13.0358" height="1.36249" rx="0.681244" fill="#AAAEB1"/>
</g>
<path fill-rule="evenodd" clip-rule="evenodd" d="M100.538 10.5383C101.643 10.5383 102.538 9.6429 102.538 8.53833C102.538 7.43376 101.643 6.53833 100.538 6.53833C99.4335 6.53833 98.5381 7.43376 98.5381 8.53833C98.5381 9.6429 99.4335 10.5383 100.538 10.5383Z" stroke="#AAAEB1" stroke-width="0.8"/>
<path d="M102.25 10.2502L103.75 11.7502" stroke="#AAAEB1" stroke-width="0.8" stroke-linecap="round"/>
<path d="M11.3161 11H13.6438V10.3661H12.0849V7.36364H11.3161V11ZM18.353 9.18182C18.353 7.99219 17.6143 7.31392 16.6502 7.31392C15.6808 7.31392 14.9474 7.99219 14.9474 9.18182C14.9474 10.3661 15.6808 11.0497 16.6502 11.0497C17.6143 11.0497 18.353 10.3714 18.353 9.18182ZM17.5735 9.18182C17.5735 9.95241 17.2077 10.3697 16.6502 10.3697C16.0909 10.3697 15.7269 9.95241 15.7269 9.18182C15.7269 8.41122 16.0909 7.99396 16.6502 7.99396C17.2077 7.99396 17.5735 8.41122 17.5735 9.18182ZM22.3337 8.53906H23.115C23.0155 7.81996 22.3817 7.31392 21.5596 7.31392C20.599 7.31392 19.8586 8.00639 19.8586 9.18537C19.8586 10.3359 20.551 11.0497 21.5756 11.0497C22.4935 11.0497 23.1487 10.4691 23.1487 9.51207V9.05398H21.627V9.63281H22.4083C22.3976 10.0838 22.0905 10.3697 21.5791 10.3697C21.002 10.3697 20.6381 9.93821 20.6381 9.17827C20.6381 8.42188 21.0162 7.99396 21.572 7.99396C21.968 7.99396 22.2361 8.19815 22.3337 8.53906ZM28.0678 9.18182C28.0678 7.99219 27.3292 7.31392 26.3651 7.31392C25.3956 7.31392 24.6623 7.99219 24.6623 9.18182C24.6623 10.3661 25.3956 11.0497 26.3651 11.0497C27.3292 11.0497 28.0678 10.3714 28.0678 9.18182ZM27.2884 9.18182C27.2884 9.95241 26.9226 10.3697 26.3651 10.3697C25.8058 10.3697 25.4418 9.95241 25.4418 9.18182C25.4418 8.41122 25.8058 7.99396 26.3651 7.99396C26.9226 7.99396 27.2884 8.41122 27.2884 9.18182Z" fill="#AAAEB1"/>
<g opacity="0.8">
<rect x="35.7939" y="42.0557" width="21.9001" height="15.4112" rx="1.5429" fill="#AAAEB1"/>
<rect x="35.7949" y="60.7112" width="13.0358" height="1.36249" rx="0.681244" fill="#AAAEB1"/>
</g>
<g opacity="0.8">
<rect x="60.5322" y="42.0557" width="21.9001" height="15.4112" rx="1.5429" fill="#AAAEB1"/>
<rect x="60.5332" y="60.7112" width="13.0358" height="1.36249" rx="0.681244" fill="#AAAEB1"/>
<rect x="85" y="42.0557" width="21.9001" height="15.4112" rx="1.5429" fill="#AAAEB1"/>
<rect x="85.001" y="60.7112" width="13.0358" height="1.36249" rx="0.681244" fill="#AAAEB1"/>
</g>
</svg>
