<svg width="119" height="68" viewBox="0 0 119 68" fill="none" xmlns="http://www.w3.org/2000/svg">
<path d="M116 0H3C1.34315 0 0 1.34315 0 3V65C0 66.6569 1.34315 68 3 68H116C117.657 68 119 66.6569 119 65V3C119 1.34315 117.657 0 116 0Z" fill="white"/>
<path d="M27.1719 4.17139L30.0003 6.99982" stroke="white" stroke-width="0.5"/>
<path d="M30.0047 4.17676L27.1763 7.00518" stroke="white" stroke-width="0.5"/>
<path d="M15.2295 22.1642C15.1081 21.1563 14.3453 20.5768 13.3353 20.5768C12.1826 20.5768 11.3027 21.3907 11.3027 22.8183C11.3027 24.2416 12.1677 25.0598 13.3353 25.0598C14.4539 25.0598 15.1294 24.3162 15.2295 23.5129L14.2963 23.5086C14.2089 23.9752 13.8424 24.2437 13.3502 24.2437C12.6876 24.2437 12.238 23.7515 12.238 22.8183C12.238 21.9106 12.6812 21.3929 13.3566 21.3929C13.8616 21.3929 14.226 21.6848 14.2963 22.1642H15.2295ZM17.8527 25.064C18.8456 25.064 19.4635 24.3843 19.4635 23.3765C19.4635 22.3623 18.8456 21.6848 17.8527 21.6848C16.8598 21.6848 16.2419 22.3623 16.2419 23.3765C16.2419 24.3843 16.8598 25.064 17.8527 25.064ZM17.857 24.3609C17.3989 24.3609 17.1645 23.9412 17.1645 23.3701C17.1645 22.7991 17.3989 22.3772 17.857 22.3772C18.3066 22.3772 18.5409 22.7991 18.5409 23.3701C18.5409 23.9412 18.3066 24.3609 17.857 24.3609ZM23.2767 22.6606C23.1958 22.0576 22.71 21.6848 21.8833 21.6848C21.0459 21.6848 20.4941 22.0725 20.4962 22.7032C20.4941 23.1933 20.803 23.5108 21.4422 23.6386L22.009 23.7515C22.2945 23.809 22.4245 23.9135 22.4287 24.0775C22.4245 24.2714 22.2135 24.4099 21.8961 24.4099C21.5722 24.4099 21.357 24.2714 21.3016 24.0051L20.4088 24.0519C20.4941 24.6784 21.0267 25.064 21.8939 25.064C22.7419 25.064 23.3492 24.6315 23.3513 23.9859C23.3492 23.5129 23.0402 23.2295 22.4053 23.0995L21.813 22.9802C21.5083 22.9142 21.3953 22.8098 21.3975 22.6521C21.3953 22.4561 21.6169 22.3282 21.8982 22.3282C22.2135 22.3282 22.401 22.5008 22.4458 22.7117L23.2767 22.6606ZM24.4229 25.0001H25.3305V23.0356C25.3305 22.6734 25.5606 22.4326 25.8632 22.4326C26.1615 22.4326 26.3618 22.6372 26.3618 22.9589V25.0001H27.2418V23.0015C27.2418 22.6627 27.4356 22.4326 27.7659 22.4326C28.0557 22.4326 28.273 22.6137 28.273 22.9781V25.0001H29.1785V22.7991C29.1785 22.0896 28.7567 21.6848 28.1473 21.6848C27.6679 21.6848 27.295 21.9298 27.1608 22.3048H27.1267C27.0223 21.9255 26.6878 21.6848 26.2382 21.6848C25.7972 21.6848 25.4626 21.9191 25.3263 22.3048H25.2879V21.7274H24.4229V25.0001ZM31.887 25.064C32.6967 25.064 33.2421 24.6698 33.37 24.0626L32.5305 24.0072C32.4388 24.2565 32.2045 24.3865 31.9019 24.3865C31.4481 24.3865 31.1604 24.086 31.1604 23.5981V23.596H33.3891V23.3467C33.3891 22.2345 32.7158 21.6848 31.8508 21.6848C30.8877 21.6848 30.2634 22.3687 30.2634 23.3787C30.2634 24.4163 30.8792 25.064 31.887 25.064ZM31.1604 23.0335C31.1796 22.6606 31.463 22.3623 31.8657 22.3623C32.2599 22.3623 32.5326 22.6436 32.5347 23.0335H31.1604ZM36.2222 21.7274H35.6065V20.9433H34.6988V21.7274H34.2513V22.4092H34.6988V24.1137C34.6945 24.7551 35.1313 25.0725 35.7897 25.0448C36.0241 25.0363 36.1903 24.9894 36.2819 24.9596L36.1391 24.2842C36.0944 24.2927 35.9985 24.314 35.9133 24.314C35.7322 24.314 35.6065 24.2458 35.6065 23.9944V22.4092H36.2222V21.7274ZM37.3135 25.0001H38.2212V21.7274H37.3135V25.0001ZM37.7695 21.3055C38.0401 21.3055 38.2616 21.0988 38.2616 20.8453C38.2616 20.5939 38.0401 20.3872 37.7695 20.3872C37.501 20.3872 37.2794 20.5939 37.2794 20.8453C37.2794 21.0988 37.501 21.3055 37.7695 21.3055ZM40.9269 25.064C41.7984 25.064 42.346 24.5527 42.3886 23.8005H41.5321C41.4788 24.15 41.2487 24.346 40.9376 24.346C40.5136 24.346 40.2387 23.9902 40.2387 23.3637C40.2387 22.7458 40.5157 22.3921 40.9376 22.3921C41.27 22.3921 41.4831 22.6116 41.5321 22.9376H42.3886C42.3502 22.1812 41.7771 21.6848 40.9227 21.6848C39.9298 21.6848 39.3162 22.373 39.3162 23.3765C39.3162 24.3715 39.9191 25.064 40.9269 25.064ZM46.1927 22.6606C46.1118 22.0576 45.626 21.6848 44.7993 21.6848C43.9619 21.6848 43.4101 22.0725 43.4122 22.7032C43.4101 23.1933 43.719 23.5108 44.3582 23.6386L44.925 23.7515C45.2105 23.809 45.3405 23.9135 45.3447 24.0775C45.3405 24.2714 45.1295 24.4099 44.8121 24.4099C44.4882 24.4099 44.273 24.2714 44.2176 24.0051L43.3249 24.0519C43.4101 24.6784 43.9427 25.064 44.8099 25.064C45.6579 25.064 46.2652 24.6315 46.2673 23.9859C46.2652 23.5129 45.9562 23.2295 45.3213 23.0995L44.729 22.9802C44.4243 22.9142 44.3114 22.8098 44.3135 22.6521C44.3114 22.4561 44.5329 22.3282 44.8142 22.3282C45.1295 22.3282 45.317 22.5008 45.3618 22.7117L46.1927 22.6606Z" fill="black"/>
<path d="M11 31.25H12.2784V31.0156H11.2642V29.0682H11V31.25ZM13.3182 31.2841C13.7614 31.2841 14.0597 30.9474 14.0597 30.4403C14.0597 29.929 13.7614 29.5923 13.3182 29.5923C12.875 29.5923 12.5767 29.929 12.5767 30.4403C12.5767 30.9474 12.875 31.2841 13.3182 31.2841ZM13.3182 31.0582C12.9815 31.0582 12.8281 30.7685 12.8281 30.4403C12.8281 30.1122 12.9815 29.8182 13.3182 29.8182C13.6548 29.8182 13.8082 30.1122 13.8082 30.4403C13.8082 30.7685 13.6548 31.0582 13.3182 31.0582ZM14.4435 31.25H14.6949V30.2145C14.6949 29.9929 14.8696 29.831 15.1082 29.831C15.1753 29.831 15.2446 29.8438 15.2616 29.848V29.5923C15.2329 29.5902 15.1668 29.5881 15.1295 29.5881C14.9335 29.5881 14.7631 29.6989 14.7034 29.8608H14.6864V29.6136H14.4435V31.25ZM16.1959 31.2841C16.5283 31.2841 16.7712 31.1179 16.8479 30.8707L16.605 30.8026C16.5411 30.973 16.393 31.0582 16.1959 31.0582C15.9008 31.0582 15.6974 30.8675 15.6856 30.517H16.8735V30.4105C16.8735 29.8011 16.5113 29.5923 16.1704 29.5923C15.7272 29.5923 15.4332 29.9418 15.4332 30.4446C15.4332 30.9474 15.7229 31.2841 16.1959 31.2841ZM15.6856 30.2997C15.7027 30.0451 15.8827 29.8182 16.1704 29.8182C16.4431 29.8182 16.6178 30.0227 16.6178 30.2997H15.6856ZM17.256 31.25H17.5074V30.2273C17.5074 29.9876 17.6821 29.8182 17.8781 29.8182C18.0688 29.8182 18.202 29.9428 18.202 30.1293V31.25H18.4577V30.1847C18.4577 29.9737 18.5898 29.8182 18.8199 29.8182C18.9989 29.8182 19.1523 29.913 19.1523 30.1548V31.25H19.4037V30.1548C19.4037 29.7702 19.197 29.5923 18.9051 29.5923C18.6707 29.5923 18.4992 29.6999 18.415 29.8693H18.398C18.317 29.6946 18.1743 29.5923 17.9591 29.5923C17.746 29.5923 17.5883 29.6946 17.5202 29.8693H17.4989V29.6136H17.256V31.25ZM20.7071 31.25H20.9585V29.6136H20.7071V31.25ZM20.835 29.3409C20.933 29.3409 21.0139 29.2642 21.0139 29.1705C21.0139 29.0767 20.933 29 20.835 29C20.737 29 20.656 29.0767 20.656 29.1705C20.656 29.2642 20.737 29.3409 20.835 29.3409ZM21.419 31.8636H21.6705V30.9986H21.6918C21.7472 31.0881 21.8537 31.2841 22.169 31.2841C22.5781 31.2841 22.8636 30.956 22.8636 30.4361C22.8636 29.9205 22.5781 29.5923 22.1648 29.5923C21.8452 29.5923 21.7472 29.7884 21.6918 29.8736H21.6619V29.6136H21.419V31.8636ZM21.6662 30.4318C21.6662 30.0653 21.8281 29.8182 22.1349 29.8182C22.4546 29.8182 22.6122 30.0866 22.6122 30.4318C22.6122 30.7812 22.4503 31.0582 22.1349 31.0582C21.8324 31.0582 21.6662 30.8026 21.6662 30.4318ZM24.4063 29.9801C24.3274 29.7479 24.1506 29.5923 23.8267 29.5923C23.4815 29.5923 23.2259 29.7884 23.2259 30.0653C23.2259 30.2912 23.3601 30.4425 23.6605 30.5128L23.9332 30.5767C24.0984 30.6151 24.1761 30.6939 24.1761 30.8068C24.1761 30.9474 24.027 31.0625 23.7926 31.0625C23.587 31.0625 23.4581 30.9741 23.4134 30.7983L23.1747 30.858C23.2333 31.136 23.4624 31.2841 23.7969 31.2841C24.1772 31.2841 24.4361 31.0763 24.4361 30.794C24.4361 30.5661 24.2933 30.4222 24.0014 30.3509L23.7585 30.2912C23.5646 30.2433 23.4773 30.1783 23.4773 30.0526C23.4773 29.9119 23.6264 29.8097 23.8267 29.8097C24.0462 29.8097 24.1367 29.9311 24.1804 30.044L24.4063 29.9801ZM25.8458 30.581C25.8458 30.8878 25.6114 31.0284 25.4239 31.0284C25.2151 31.0284 25.066 30.875 25.066 30.6364V29.6136H24.8145V30.6534C24.8145 31.071 25.0361 31.2713 25.343 31.2713C25.5901 31.2713 25.752 31.1392 25.8288 30.973H25.8458V31.25H26.0972V29.6136H25.8458V30.581ZM26.5577 31.25H26.8091V30.2273C26.8091 29.9876 26.9838 29.8182 27.1799 29.8182C27.3706 29.8182 27.5037 29.9428 27.5037 30.1293V31.25H27.7594V30.1847C27.7594 29.9737 27.8915 29.8182 28.1216 29.8182C28.3006 29.8182 28.454 29.913 28.454 30.1548V31.25H28.7054V30.1548C28.7054 29.7702 28.4988 29.5923 28.2069 29.5923C27.9725 29.5923 27.801 29.6999 27.7168 29.8693H27.6998C27.6188 29.6946 27.476 29.5923 27.2608 29.5923C27.0478 29.5923 26.8901 29.6946 26.8219 29.8693H26.8006V29.6136H26.5577V31.25ZM30.6268 31.2841C30.9421 31.2841 31.0487 31.0881 31.1041 30.9986H31.1339V31.25H31.3768V29.0682H31.1254V29.8736H31.1041C31.0487 29.7884 30.9506 29.5923 30.631 29.5923C30.2177 29.5923 29.9322 29.9205 29.9322 30.4361C29.9322 30.956 30.2177 31.2841 30.6268 31.2841ZM30.6609 31.0582C30.3455 31.0582 30.1836 30.7812 30.1836 30.4318C30.1836 30.0866 30.3413 29.8182 30.6609 29.8182C30.9677 29.8182 31.1296 30.0653 31.1296 30.4318C31.1296 30.8026 30.9634 31.0582 30.6609 31.0582ZM32.5369 31.2841C32.9801 31.2841 33.2784 30.9474 33.2784 30.4403C33.2784 29.929 32.9801 29.5923 32.5369 29.5923C32.0938 29.5923 31.7955 29.929 31.7955 30.4403C31.7955 30.9474 32.0938 31.2841 32.5369 31.2841ZM32.5369 31.0582C32.2003 31.0582 32.0469 30.7685 32.0469 30.4403C32.0469 30.1122 32.2003 29.8182 32.5369 29.8182C32.8736 29.8182 33.027 30.1122 33.027 30.4403C33.027 30.7685 32.8736 31.0582 32.5369 31.0582ZM33.9136 29.0682H33.6622V31.25H33.9136V29.0682ZM35.0389 31.2841C35.4821 31.2841 35.7804 30.9474 35.7804 30.4403C35.7804 29.929 35.4821 29.5923 35.0389 29.5923C34.5957 29.5923 34.2974 29.929 34.2974 30.4403C34.2974 30.9474 34.5957 31.2841 35.0389 31.2841ZM35.0389 31.0582C34.7022 31.0582 34.5488 30.7685 34.5488 30.4403C34.5488 30.1122 34.7022 29.8182 35.0389 29.8182C35.3755 29.8182 35.5289 30.1122 35.5289 30.4403C35.5289 30.7685 35.3755 31.0582 35.0389 31.0582ZM36.1642 31.25H36.4156V30.2145C36.4156 29.9929 36.5903 29.831 36.8289 29.831C36.896 29.831 36.9653 29.8438 36.9823 29.848V29.5923C36.9536 29.5902 36.8875 29.5881 36.8502 29.5881C36.6542 29.5881 36.4838 29.6989 36.4241 29.8608H36.4071V29.6136H36.1642V31.25ZM39.2832 29.9801C39.2044 29.7479 39.0275 29.5923 38.7037 29.5923C38.3585 29.5923 38.1028 29.7884 38.1028 30.0653C38.1028 30.2912 38.237 30.4425 38.5375 30.5128L38.8102 30.5767C38.9753 30.6151 39.0531 30.6939 39.0531 30.8068C39.0531 30.9474 38.9039 31.0625 38.6696 31.0625C38.464 31.0625 38.3351 30.9741 38.2903 30.7983L38.0517 30.858C38.1103 31.136 38.3393 31.2841 38.6738 31.2841C39.0542 31.2841 39.313 31.0763 39.313 30.794C39.313 30.5661 39.1703 30.4222 38.8784 30.3509L38.6355 30.2912C38.4416 30.2433 38.3542 30.1783 38.3542 30.0526C38.3542 29.9119 38.5034 29.8097 38.7037 29.8097C38.9231 29.8097 39.0137 29.9311 39.0574 30.044L39.2832 29.9801ZM39.6915 31.25H39.9429V29.6136H39.6915V31.25ZM39.8193 29.3409C39.9174 29.3409 39.9983 29.2642 39.9983 29.1705C39.9983 29.0767 39.9174 29 39.8193 29C39.7213 29 39.6404 29.0767 39.6404 29.1705C39.6404 29.2642 39.7213 29.3409 39.8193 29.3409ZM41.1151 29.6136H40.7656V29.2216H40.5142V29.6136H40.267V29.8267H40.5142V30.8494C40.5142 31.1349 40.7443 31.2713 40.9574 31.2713C41.0511 31.2713 41.1108 31.2543 41.1449 31.2415L41.0938 31.0156C41.0724 31.0199 41.0384 31.0284 40.983 31.0284C40.8722 31.0284 40.7656 30.9943 40.7656 30.7812V29.8267H41.1151V29.6136ZM42.8185 31.2884C43.1041 31.2884 43.2532 31.1349 43.3043 31.0284H43.3171V31.25H43.5685V30.1719C43.5685 29.652 43.1722 29.5923 42.9634 29.5923C42.7163 29.5923 42.435 29.6776 42.3072 29.9759L42.5458 30.0611C42.6012 29.9418 42.7322 29.8139 42.972 29.8139C43.2031 29.8139 43.3171 29.9364 43.3171 30.1463V30.1548C43.3171 30.2763 43.1935 30.2656 42.8952 30.304C42.5916 30.3434 42.2603 30.4105 42.2603 30.7855C42.2603 31.1051 42.5075 31.2884 42.8185 31.2884ZM42.8569 31.0625C42.6566 31.0625 42.5117 30.973 42.5117 30.7983C42.5117 30.6065 42.6864 30.5469 42.8825 30.5213C42.989 30.5085 43.2745 30.4787 43.3171 30.4276V30.6577C43.3171 30.8622 43.1552 31.0625 42.8569 31.0625ZM44.8712 31.25H45.1226V30.2273C45.1226 29.9876 45.2973 29.8182 45.4933 29.8182C45.684 29.8182 45.8172 29.9428 45.8172 30.1293V31.25H46.0729V30.1847C46.0729 29.9737 46.205 29.8182 46.4351 29.8182C46.6141 29.8182 46.7675 29.913 46.7675 30.1548V31.25H47.0189V30.1548C47.0189 29.7702 46.8122 29.5923 46.5203 29.5923C46.286 29.5923 46.1144 29.6999 46.0303 29.8693H46.0132C45.9323 29.6946 45.7895 29.5923 45.5743 29.5923C45.3612 29.5923 45.2036 29.6946 45.1354 29.8693H45.1141V29.6136H44.8712V31.25ZM48.1647 31.2841C48.4971 31.2841 48.74 31.1179 48.8167 30.8707L48.5738 30.8026C48.5099 30.973 48.3618 31.0582 48.1647 31.0582C47.8696 31.0582 47.6661 30.8675 47.6544 30.517H48.8422V30.4105C48.8422 29.8011 48.48 29.5923 48.1391 29.5923C47.6959 29.5923 47.4019 29.9418 47.4019 30.4446C47.4019 30.9474 47.6917 31.2841 48.1647 31.2841ZM47.6544 30.2997C47.6714 30.0451 47.8515 29.8182 48.1391 29.8182C48.4118 29.8182 48.5866 30.0227 48.5866 30.2997H47.6544ZM49.9364 29.6136H49.5869V29.2216H49.3355V29.6136H49.0883V29.8267H49.3355V30.8494C49.3355 31.1349 49.5656 31.2713 49.7787 31.2713C49.8724 31.2713 49.9321 31.2543 49.9662 31.2415L49.915 31.0156C49.8937 31.0199 49.8596 31.0284 49.8042 31.0284C49.6935 31.0284 49.5869 30.9943 49.5869 30.7812V29.8267H49.9364V29.6136Z" fill="black"/>
<path d="M11 36.5C11 36.2239 11.4477 36 12 36H16C16.5523 36 17 36.2239 17 36.5C17 36.7761 16.5523 37 16 37H12C11.4477 37 11 36.7761 11 36.5Z" fill="#AAAEB1"/>
<path d="M19 36.5C19 36.2239 19.4477 36 20 36H24C24.5523 36 25 36.2239 25 36.5C25 36.7761 24.5523 37 24 37H20C19.4477 37 19 36.7761 19 36.5Z" fill="#AAAEB1"/>
<path d="M27 36.5C27 36.2239 27.4477 36 28 36H32C32.5523 36 33 36.2239 33 36.5C33 36.7761 32.5523 37 32 37H28C27.4477 37 27 36.7761 27 36.5Z" fill="#AAAEB1"/>
<path d="M35 36.5C35 36.2239 35.4477 36 36 36H40C40.5523 36 41 36.2239 41 36.5C41 36.7761 40.5523 37 40 37H36C35.4477 37 35 36.7761 35 36.5Z" fill="#AAAEB1"/>
<path d="M43 36.5C43 36.2239 43.4477 36 44 36H48C48.5523 36 49 36.2239 49 36.5C49 36.7761 48.5523 37 48 37H44C43.4477 37 43 36.7761 43 36.5Z" fill="#AAAEB1"/>
<path d="M51 36.5C51 36.2239 51.4477 36 52 36H56C56.5523 36 57 36.2239 57 36.5C57 36.7761 56.5523 37 56 37H52C51.4477 37 51 36.7761 51 36.5Z" fill="#AAAEB1"/>
<g opacity="0.8">
<path opacity="0.8" d="M31.4119 42.0557H12.5976C11.7455 42.0557 11.0547 42.7464 11.0547 43.5986V55.924C11.0547 56.7761 11.7455 57.4669 12.5976 57.4669H31.4119C32.264 57.4669 32.9548 56.7761 32.9548 55.924V43.5986C32.9548 42.7464 32.264 42.0557 31.4119 42.0557Z" fill="#AAAEB1"/>
<path opacity="0.8" d="M23.4102 60.7109H11.7369C11.3607 60.7109 11.0557 61.0159 11.0557 61.3922C11.0557 61.7684 11.3607 62.0734 11.7369 62.0734H23.4102C23.7865 62.0734 24.0915 61.7684 24.0915 61.3922C24.0915 61.0159 23.7865 60.7109 23.4102 60.7109Z" fill="#AAAEB1"/>
</g>
<path fill-rule="evenodd" clip-rule="evenodd" d="M100.538 10.5381C101.643 10.5381 102.538 9.64266 102.538 8.53809C102.538 7.43352 101.643 6.53809 100.538 6.53809C99.4335 6.53809 98.5381 7.43352 98.5381 8.53809C98.5381 9.64266 99.4335 10.5381 100.538 10.5381Z" stroke="#AAAEB1" stroke-width="0.8"/>
<path d="M102.25 10.25L103.75 11.75" stroke="#AAAEB1" stroke-width="0.8" stroke-linecap="round"/>
<path d="M11.3159 11H13.6436V10.3661H12.0847V7.36368H11.3159V11ZM18.3528 9.18186C18.3528 7.99223 17.6141 7.31396 16.65 7.31396C15.6806 7.31396 14.9472 7.99223 14.9472 9.18186C14.9472 10.3661 15.6806 11.0497 16.65 11.0497C17.6141 11.0497 18.3528 10.3714 18.3528 9.18186ZM17.5733 9.18186C17.5733 9.95245 17.2075 10.3697 16.65 10.3697C16.0907 10.3697 15.7267 9.95245 15.7267 9.18186C15.7267 8.41126 16.0907 7.994 16.65 7.994C17.2075 7.994 17.5733 8.41126 17.5733 9.18186ZM22.3335 8.5391H23.1148C23.0153 7.82 22.3815 7.31396 21.5594 7.31396C20.5988 7.31396 19.8584 8.00644 19.8584 9.18542C19.8584 10.3359 20.5508 11.0497 21.5754 11.0497C22.4933 11.0497 23.1485 10.4691 23.1485 9.51211V9.05402H21.6268V9.63285H22.4081C22.3974 10.0838 22.0903 10.3697 21.5789 10.3697C21.0018 10.3697 20.6379 9.93826 20.6379 9.17832C20.6379 8.42193 21.016 7.994 21.5718 7.994C21.9678 7.994 22.2359 8.19819 22.3335 8.5391ZM28.0676 9.18186C28.0676 7.99223 27.329 7.31396 26.3649 7.31396C25.3954 7.31396 24.6621 7.99223 24.6621 9.18186C24.6621 10.3661 25.3954 11.0497 26.3649 11.0497C27.329 11.0497 28.0676 10.3714 28.0676 9.18186ZM27.2882 9.18186C27.2882 9.95245 26.9224 10.3697 26.3649 10.3697C25.8056 10.3697 25.4416 9.95245 25.4416 9.18186C25.4416 8.41126 25.8056 7.994 26.3649 7.994C26.9224 7.994 27.2882 8.41126 27.2882 9.18186Z" fill="#AAAEB1"/>
<g opacity="0.8">
<path opacity="0.8" d="M56.1511 42.0557H37.3368C36.4847 42.0557 35.7939 42.7464 35.7939 43.5986V55.924C35.7939 56.7761 36.4847 57.4669 37.3368 57.4669H56.1511C57.0033 57.4669 57.694 56.7761 57.694 55.924V43.5986C57.694 42.7464 57.0033 42.0557 56.1511 42.0557Z" fill="#AAAEB1"/>
<path opacity="0.8" d="M48.1495 60.7109H36.4762C36.0999 60.7109 35.7949 61.0159 35.7949 61.3922C35.7949 61.7684 36.0999 62.0734 36.4762 62.0734H48.1495C48.5257 62.0734 48.8307 61.7684 48.8307 61.3922C48.8307 61.0159 48.5257 60.7109 48.1495 60.7109Z" fill="#AAAEB1"/>
</g>
<g opacity="0.8">
<path opacity="0.8" d="M80.8894 42.0557H62.0751C61.223 42.0557 60.5322 42.7464 60.5322 43.5986V55.924C60.5322 56.7761 61.223 57.4669 62.0751 57.4669H80.8894C81.7415 57.4669 82.4323 56.7761 82.4323 55.924V43.5986C82.4323 42.7464 81.7415 42.0557 80.8894 42.0557Z" fill="#AAAEB1"/>
<path opacity="0.8" d="M72.8878 60.7109H61.2144C60.8382 60.7109 60.5332 61.0159 60.5332 61.3922C60.5332 61.7684 60.8382 62.0734 61.2144 62.0734H72.8878C73.264 62.0734 73.569 61.7684 73.569 61.3922C73.569 61.0159 73.264 60.7109 72.8878 60.7109Z" fill="#AAAEB1"/>
<path opacity="0.8" d="M105.357 42.0557H86.5429C85.6908 42.0557 85 42.7464 85 43.5986V55.924C85 56.7761 85.6908 57.4669 86.5429 57.4669H105.357C106.209 57.4669 106.9 56.7761 106.9 55.924V43.5986C106.9 42.7464 106.209 42.0557 105.357 42.0557Z" fill="#AAAEB1"/>
<path opacity="0.8" d="M97.3555 60.7109H85.6822C85.306 60.7109 85.001 61.0159 85.001 61.3922C85.001 61.7684 85.306 62.0734 85.6822 62.0734H97.3555C97.7318 62.0734 98.0368 61.7684 98.0368 61.3922C98.0368 61.0159 97.7318 60.7109 97.3555 60.7109Z" fill="#AAAEB1"/>
</g>
<line x1="11" y1="38.75" x2="106" y2="38.75" stroke="#AAAEB1" stroke-width="0.5"/>
</svg>
