<svg width="150" height="87" viewBox="0 0 150 87" fill="none" xmlns="http://www.w3.org/2000/svg">
<path d="M146.218 0.642853H3.78151C1.69305 0.642853 0 2.3359 0 4.42437V82.5756C0 84.6642 1.69305 86.3571 3.78151 86.3571H146.218C148.307 86.3571 150 84.6642 150 82.5756V4.42437C150 2.3359 148.307 0.642853 146.218 0.642853Z" fill="white"/>
<path d="M34.2503 5.90091L37.8155 9.46616" stroke="white" stroke-width="0.630252"/>
<path d="M37.8211 5.90768L34.2559 9.47292" stroke="white" stroke-width="0.630252"/>
<path d="M19.1968 28.5809C19.0438 27.3105 18.0823 26.58 16.8092 26.58C15.3562 26.58 14.2471 27.6059 14.2471 29.4054C14.2471 31.1995 15.3374 32.2308 16.8092 32.2308C18.2192 32.2308 19.0706 31.2935 19.1968 30.281L18.0205 30.2755C17.9103 30.8637 17.4484 31.2021 16.828 31.2021C15.9927 31.2021 15.426 30.5817 15.426 29.4054C15.426 28.2613 15.9847 27.6087 16.836 27.6087C17.4726 27.6087 17.9319 27.9766 18.0205 28.5809H19.1968ZM22.5034 32.2361C23.7549 32.2361 24.5338 31.3794 24.5338 30.109C24.5338 28.8306 23.7549 27.9766 22.5034 27.9766C21.2518 27.9766 20.473 28.8306 20.473 30.109C20.473 31.3794 21.2518 32.2361 22.5034 32.2361ZM22.5088 31.3499C21.9314 31.3499 21.6359 30.8208 21.6359 30.101C21.6359 29.3812 21.9314 28.8494 22.5088 28.8494C23.0755 28.8494 23.3709 29.3812 23.3709 30.101C23.3709 30.8208 23.0755 31.3499 22.5088 31.3499ZM29.3403 29.2066C29.2384 28.4466 28.626 27.9766 27.584 27.9766C26.5284 27.9766 25.8329 28.4653 25.8355 29.2603C25.8329 29.8781 26.2222 30.2783 27.028 30.4394L27.7424 30.5817C28.1023 30.6542 28.2661 30.7859 28.2714 30.9926C28.2661 31.2371 28.0002 31.4116 27.6001 31.4116C27.1918 31.4116 26.9206 31.2371 26.8507 30.9014L25.7253 30.9604C25.8329 31.7501 26.5042 32.2361 27.5973 32.2361C28.6662 32.2361 29.4317 31.691 29.4344 30.8772C29.4317 30.281 29.0422 29.9237 28.2419 29.7599L27.4953 29.6095C27.1113 29.5263 26.9688 29.3947 26.9716 29.1959C26.9688 28.9489 27.2482 28.7876 27.6027 28.7876C28.0002 28.7876 28.2365 29.0052 28.293 29.271L29.3403 29.2066ZM30.7851 32.1556H31.9292V29.6793C31.9292 29.2228 32.2192 28.9192 32.6006 28.9192C32.9766 28.9192 33.2291 29.1771 33.2291 29.5826V32.1556H34.3384V29.6363C34.3384 29.2093 34.5827 28.9192 34.999 28.9192C35.3643 28.9192 35.6382 29.1475 35.6382 29.6068V32.1556H36.7796V29.3812C36.7796 28.4869 36.2479 27.9766 35.4798 27.9766C34.8755 27.9766 34.4054 28.2855 34.2363 28.7581H34.1933C34.0617 28.28 33.6401 27.9766 33.0733 27.9766C32.5174 27.9766 32.0957 28.272 31.9239 28.7581H31.8755V28.0303H30.7851V32.1556ZM40.1937 32.2361C41.2143 32.2361 41.9018 31.7392 42.063 30.9739L41.0048 30.904C40.8892 31.2183 40.5939 31.3821 40.2124 31.3821C39.6404 31.3821 39.2778 31.0034 39.2778 30.3884V30.3857H42.0871V30.0715C42.0871 28.6695 41.2384 27.9766 40.148 27.9766C38.934 27.9766 38.1471 28.8387 38.1471 30.1118C38.1471 31.4197 38.9233 32.2361 40.1937 32.2361ZM39.2778 29.6767C39.302 29.2066 39.6592 28.8306 40.1668 28.8306C40.6637 28.8306 41.0074 29.1852 41.0101 29.6767H39.2778ZM45.6582 28.0303H44.8821V27.042H43.738V28.0303H43.1739V28.8897H43.738V31.0383C43.7325 31.8468 44.2831 32.2468 45.113 32.2119C45.4085 32.2012 45.618 32.1421 45.7335 32.1045L45.5535 31.2532C45.4971 31.2639 45.3762 31.2908 45.2688 31.2908C45.0406 31.2908 44.8821 31.2048 44.8821 30.8879V28.8897H45.6582V28.0303ZM47.0338 32.1556H48.178V28.0303H47.0338V32.1556ZM47.6086 27.4985C47.9497 27.4985 48.2289 27.238 48.2289 26.9184C48.2289 26.6016 47.9497 26.341 47.6086 26.341C47.2701 26.341 46.9908 26.6016 46.9908 26.9184C46.9908 27.238 47.2701 27.4985 47.6086 27.4985ZM51.5885 32.2361C52.687 32.2361 53.3773 31.5916 53.431 30.6435H52.3514C52.2842 31.084 51.9941 31.3311 51.602 31.3311C51.0675 31.3311 50.721 30.8826 50.721 30.0929C50.721 29.314 51.0702 28.8682 51.602 28.8682C52.021 28.8682 52.2896 29.1449 52.3514 29.5558H53.431C53.3826 28.6023 52.6602 27.9766 51.5832 27.9766C50.3317 27.9766 49.5582 28.8441 49.5582 30.109C49.5582 31.3632 50.3182 32.2361 51.5885 32.2361ZM58.2261 29.2066C58.1241 28.4466 57.5117 27.9766 56.4697 27.9766C55.4141 27.9766 54.7186 28.4653 54.7212 29.2603C54.7186 29.8781 55.108 30.2783 55.9137 30.4394L56.6281 30.5817C56.988 30.6542 57.1519 30.7859 57.1572 30.9926C57.1519 31.2371 56.8859 31.4116 56.4858 31.4116C56.0775 31.4116 55.8063 31.2371 55.7364 30.9014L54.6112 30.9604C54.7186 31.7501 55.3899 32.2361 56.483 32.2361C57.5519 32.2361 58.3174 31.691 58.3201 30.8772C58.3174 30.281 57.928 29.9237 57.1277 29.7599L56.3811 29.6095C55.997 29.5263 55.8547 29.3947 55.8573 29.1959C55.8547 28.9489 56.1339 28.7876 56.4885 28.7876C56.8859 28.7876 57.1222 29.0052 57.1787 29.271L58.2261 29.2066Z" fill="black"/>
<path d="M13.8655 40.0336H15.477V39.7382H14.1986V37.2834H13.8655V40.0336ZM16.7876 40.0766C17.3463 40.0766 17.7223 39.6522 17.7223 39.013C17.7223 38.3685 17.3463 37.9441 16.7876 37.9441C16.229 37.9441 15.853 38.3685 15.853 39.013C15.853 39.6522 16.229 40.0766 16.7876 40.0766ZM16.7876 39.7919C16.3632 39.7919 16.1699 39.4267 16.1699 39.013C16.1699 38.5994 16.3632 38.2288 16.7876 38.2288C17.2119 38.2288 17.4053 38.5994 17.4053 39.013C17.4053 39.4267 17.2119 39.7919 16.7876 39.7919ZM18.2061 40.0336H18.523V38.7284C18.523 38.449 18.7432 38.245 19.0439 38.245C19.1285 38.245 19.2159 38.2611 19.2373 38.2664V37.9441C19.2011 37.9414 19.1178 37.9388 19.0708 37.9388C18.8237 37.9388 18.6089 38.0784 18.5337 38.2825H18.5123V37.9709H18.2061V40.0336ZM20.415 40.0766C20.834 40.0766 21.1402 39.8671 21.2368 39.5555L20.9307 39.4697C20.8501 39.6845 20.6634 39.7919 20.415 39.7919C20.043 39.7919 19.7866 39.5515 19.7718 39.1097H21.2691V38.9754C21.2691 38.2073 20.8126 37.9441 20.3829 37.9441C19.8242 37.9441 19.4536 38.3846 19.4536 39.0184C19.4536 39.6522 19.8188 40.0766 20.415 40.0766ZM19.7718 38.8358C19.7933 38.5148 20.0202 38.2288 20.3829 38.2288C20.7266 38.2288 20.9468 38.4866 20.9468 38.8358H19.7718ZM21.7513 40.0336H22.0681V38.7445C22.0681 38.4424 22.2884 38.2288 22.5354 38.2288C22.7758 38.2288 22.9437 38.3859 22.9437 38.621V40.0336H23.266V38.6908C23.266 38.4248 23.4325 38.2288 23.7226 38.2288C23.9482 38.2288 24.1415 38.3483 24.1415 38.6531V40.0336H24.4584V38.6531C24.4584 38.1683 24.1979 37.9441 23.83 37.9441C23.5345 37.9441 23.3183 38.0797 23.2122 38.2932H23.1908C23.0887 38.073 22.9088 37.9441 22.6375 37.9441C22.3689 37.9441 22.1701 38.073 22.0843 38.2932H22.0574V37.9709H21.7513V40.0336ZM26.1014 40.0336H26.4183V37.9709H26.1014V40.0336ZM26.2626 37.6272C26.3861 37.6272 26.4881 37.5305 26.4881 37.4124C26.4881 37.2942 26.3861 37.1975 26.2626 37.1975C26.1391 37.1975 26.037 37.2942 26.037 37.4124C26.037 37.5305 26.1391 37.6272 26.2626 37.6272ZM26.9987 40.8071H27.3157V39.7167H27.3426C27.4124 39.8295 27.5467 40.0766 27.9441 40.0766C28.4598 40.0766 28.8197 39.663 28.8197 39.0077C28.8197 38.3578 28.4598 37.9441 27.9388 37.9441C27.536 37.9441 27.4124 38.1913 27.3426 38.2987H27.3049V37.9709H26.9987V40.8071ZM27.3103 39.0023C27.3103 38.5403 27.5144 38.2288 27.9011 38.2288C28.3041 38.2288 28.5028 38.5671 28.5028 39.0023C28.5028 39.4427 28.2987 39.7919 27.9011 39.7919C27.5198 39.7919 27.3103 39.4697 27.3103 39.0023ZM30.7642 38.4329C30.6648 38.1402 30.4419 37.9441 30.0336 37.9441C29.5985 37.9441 29.2763 38.1913 29.2763 38.5403C29.2763 38.825 29.4455 39.0158 29.8242 39.1044L30.1679 39.1849C30.3761 39.2333 30.4741 39.3326 30.4741 39.475C30.4741 39.6522 30.2861 39.7973 29.9907 39.7973C29.7315 39.7973 29.569 39.6858 29.5127 39.4642L29.2118 39.5395C29.2857 39.8899 29.5744 40.0766 29.9961 40.0766C30.4755 40.0766 30.8018 39.8147 30.8018 39.4588C30.8018 39.1716 30.6218 38.9902 30.2539 38.9003L29.9477 38.825C29.7033 38.7647 29.5932 38.6827 29.5932 38.5243C29.5932 38.3469 29.7812 38.2181 30.0336 38.2181C30.3103 38.2181 30.4244 38.3711 30.4795 38.5134L30.7642 38.4329ZM32.5787 39.1903C32.5787 39.5771 32.2833 39.7543 32.0469 39.7543C31.7837 39.7543 31.5958 39.5609 31.5958 39.2602V37.9709H31.2788V39.2816C31.2788 39.808 31.5581 40.0605 31.945 40.0605C32.2564 40.0605 32.4605 39.8939 32.5573 39.6845H32.5787V40.0336H32.8956V37.9709H32.5787V39.1903ZM33.4761 40.0336H33.793V38.7445C33.793 38.4424 34.0132 38.2288 34.2604 38.2288C34.5007 38.2288 34.6685 38.3859 34.6685 38.621V40.0336H34.9908V38.6908C34.9908 38.4248 35.1573 38.2288 35.4474 38.2288C35.673 38.2288 35.8664 38.3483 35.8664 38.6531V40.0336H36.1833V38.6531C36.1833 38.1683 35.9229 37.9441 35.5549 37.9441C35.2594 37.9441 35.0433 38.0797 34.9371 38.2932H34.9157C34.8136 38.073 34.6336 37.9441 34.3623 37.9441C34.0939 37.9441 33.8951 38.073 33.8091 38.2932H33.7823V37.9709H33.4761V40.0336ZM38.6052 40.0766C39.0026 40.0766 39.137 39.8295 39.2068 39.7167H39.2444V40.0336H39.5506V37.2834H39.2337V38.2987H39.2068C39.137 38.1913 39.0134 37.9441 38.6105 37.9441C38.0895 37.9441 37.7297 38.3578 37.7297 39.0077C37.7297 39.663 38.0895 40.0766 38.6052 40.0766ZM38.6482 39.7919C38.2506 39.7919 38.0465 39.4427 38.0465 39.0023C38.0465 38.5671 38.2453 38.2288 38.6482 38.2288C39.0349 38.2288 39.239 38.5403 39.239 39.0023C39.239 39.4697 39.0295 39.7919 38.6482 39.7919ZM41.0129 40.0766C41.5715 40.0766 41.9476 39.6522 41.9476 39.013C41.9476 38.3685 41.5715 37.9441 41.0129 37.9441C40.4544 37.9441 40.0784 38.3685 40.0784 39.013C40.0784 39.6522 40.4544 40.0766 41.0129 40.0766ZM41.0129 39.7919C40.5886 39.7919 40.3952 39.4267 40.3952 39.013C40.3952 38.5994 40.5886 38.2288 41.0129 38.2288C41.4373 38.2288 41.6307 38.5994 41.6307 39.013C41.6307 39.4267 41.4373 39.7919 41.0129 39.7919ZM42.7482 37.2834H42.4313V40.0336H42.7482V37.2834ZM44.1667 40.0766C44.7253 40.0766 45.1013 39.6522 45.1013 39.013C45.1013 38.3685 44.7253 37.9441 44.1667 37.9441C43.608 37.9441 43.232 38.3685 43.232 39.013C43.232 39.6522 43.608 40.0766 44.1667 40.0766ZM44.1667 39.7919C43.7423 39.7919 43.5489 39.4267 43.5489 39.013C43.5489 38.5994 43.7423 38.2288 44.1667 38.2288C44.591 38.2288 44.7843 38.5994 44.7843 39.013C44.7843 39.4267 44.591 39.7919 44.1667 39.7919ZM45.5851 40.0336H45.902V38.7284C45.902 38.449 46.1222 38.245 46.423 38.245C46.5076 38.245 46.5949 38.2611 46.6163 38.2664V37.9441C46.5802 37.9414 46.4968 37.9388 46.4498 37.9388C46.2028 37.9388 45.988 38.0784 45.9127 38.2825H45.8913V37.9709H45.5851V40.0336ZM49.5166 38.4329C49.4173 38.1402 49.1943 37.9441 48.7862 37.9441C48.351 37.9441 48.0287 38.1913 48.0287 38.5403C48.0287 38.825 48.1979 39.0158 48.5767 39.1044L48.9204 39.1849C49.1285 39.2333 49.2266 39.3326 49.2266 39.475C49.2266 39.6522 49.0385 39.7973 48.7432 39.7973C48.484 39.7973 48.3215 39.6858 48.2651 39.4642L47.9643 39.5395C48.0382 39.8899 48.3268 40.0766 48.7485 40.0766C49.228 40.0766 49.5542 39.8147 49.5542 39.4588C49.5542 39.1716 49.3743 38.9902 49.0064 38.9003L48.7002 38.825C48.4558 38.7647 48.3456 38.6827 48.3456 38.5243C48.3456 38.3469 48.5337 38.2181 48.7862 38.2181C49.0627 38.2181 49.1769 38.3711 49.232 38.5134L49.5166 38.4329ZM50.0313 40.0336H50.3482V37.9709H50.0313V40.0336ZM50.1924 37.6272C50.316 37.6272 50.418 37.5305 50.418 37.4124C50.418 37.2942 50.316 37.1975 50.1924 37.1975C50.0689 37.1975 49.9669 37.2942 49.9669 37.4124C49.9669 37.5305 50.0689 37.6272 50.1924 37.6272ZM51.8258 37.9709H51.3852V37.4768H51.0683V37.9709H50.7567V38.2395H51.0683V39.5287C51.0683 39.8885 51.3584 40.0605 51.627 40.0605C51.7451 40.0605 51.8203 40.039 51.8633 40.0229L51.7989 39.7382C51.7719 39.7436 51.7291 39.7543 51.6592 39.7543C51.5196 39.7543 51.3852 39.7113 51.3852 39.4427V38.2395H51.8258V37.9709ZM53.9729 40.082C54.3329 40.082 54.5208 39.8885 54.5852 39.7543H54.6014V40.0336H54.9183V38.6747C54.9183 38.0193 54.4187 37.9441 54.1555 37.9441C53.8441 37.9441 53.4895 38.0516 53.3284 38.4276L53.6292 38.535C53.699 38.3846 53.8641 38.2234 54.1664 38.2234C54.4577 38.2234 54.6014 38.3778 54.6014 38.6424V38.6531C54.6014 38.8063 54.4456 38.7928 54.0696 38.8412C53.6869 38.8908 53.2693 38.9754 53.2693 39.4481C53.2693 39.851 53.5809 40.082 53.9729 40.082ZM54.0213 39.7973C53.7688 39.7973 53.5862 39.6845 53.5862 39.4642C53.5862 39.2225 53.8064 39.1474 54.0536 39.1151C54.1878 39.0989 54.5477 39.0614 54.6014 38.997V39.287C54.6014 39.5448 54.3973 39.7973 54.0213 39.7973ZM56.5603 40.0336H56.8772V38.7445C56.8772 38.4424 57.0974 38.2288 57.3445 38.2288C57.5849 38.2288 57.7528 38.3859 57.7528 38.621V40.0336H58.0751V38.6908C58.0751 38.4248 58.2416 38.2288 58.5316 38.2288C58.7573 38.2288 58.9506 38.3483 58.9506 38.6531V40.0336H59.2675V38.6531C59.2675 38.1683 59.007 37.9441 58.639 37.9441C58.3437 37.9441 58.1274 38.0797 58.0214 38.2932H57.9998C57.8979 38.073 57.7179 37.9441 57.4466 37.9441C57.178 37.9441 56.9793 38.073 56.8934 38.2932H56.8665V37.9709H56.5603V40.0336ZM60.7118 40.0766C61.1308 40.0766 61.437 39.8671 61.5337 39.5555L61.2275 39.4697C61.1469 39.6845 60.9602 39.7919 60.7118 39.7919C60.3398 39.7919 60.0833 39.5515 60.0686 39.1097H61.5658V38.9754C61.5658 38.2073 61.1092 37.9441 60.6795 37.9441C60.1209 37.9441 59.7503 38.3846 59.7503 39.0184C59.7503 39.6522 60.1156 40.0766 60.7118 40.0766ZM60.0686 38.8358C60.09 38.5148 60.317 38.2288 60.6795 38.2288C61.0233 38.2288 61.2436 38.4866 61.2436 38.8358H60.0686ZM62.945 37.9709H62.5045V37.4768H62.1876V37.9709H61.876V38.2395H62.1876V39.5287C62.1876 39.8885 62.4776 40.0605 62.7463 40.0605C62.8644 40.0605 62.9396 40.039 62.9826 40.0229L62.9181 39.7382C62.8912 39.7436 62.8482 39.7543 62.7784 39.7543C62.6389 39.7543 62.5045 39.7113 62.5045 39.4427V38.2395H62.945V37.9709Z" fill="black"/>
<path d="M14 46.5C14 46.2239 14.3731 46 14.8333 46H18.1667C18.6269 46 19 46.2239 19 46.5C19 46.7761 18.6269 47 18.1667 47H14.8333C14.3731 47 14 46.7761 14 46.5Z" fill="#CACCCE"/>
<path d="M21 46.5C21 46.2239 21.4477 46 22 46H26C26.5523 46 27 46.2239 27 46.5C27 46.7761 26.5523 47 26 47H22C21.4477 47 21 46.7761 21 46.5Z" fill="#CACCCE"/>
<path d="M29 46.5C29 46.2239 29.3731 46 29.8333 46H33.1667C33.6269 46 34 46.2239 34 46.5C34 46.7761 33.6269 47 33.1667 47H29.8333C29.3731 47 29 46.7761 29 46.5Z" fill="#CACCCE"/>
<path d="M36 46.5C36 46.2239 36.3731 46 36.8333 46H40.1667C40.6269 46 41 46.2239 41 46.5C41 46.7761 40.6269 47 40.1667 47H36.8333C36.3731 47 36 46.7761 36 46.5Z" fill="#CACCCE"/>
<path d="M43 46.5C43 46.2239 43.4477 46 44 46H48C48.5523 46 49 46.2239 49 46.5C49 46.7761 48.5523 47 48 47H44C43.4477 47 43 46.7761 43 46.5Z" fill="#CACCCE"/>
<path d="M51 46.5C51 46.2239 51.3731 46 51.8333 46H55.1667C55.6269 46 56 46.2239 56 46.5C56 46.7761 55.6269 47 55.1667 47H51.8333C51.3731 47 51 46.7761 51 46.5Z" fill="#CACCCE"/>
<g opacity="0.8">
<path opacity="0.8" d="M39.5948 53.6542H15.8793C14.8053 53.6542 13.9345 54.5249 13.9345 55.5991V71.1353C13.9345 72.2094 14.8053 73.0801 15.8793 73.0801H39.5948C40.6689 73.0801 41.5397 72.2094 41.5397 71.1353V55.5991C41.5397 54.5249 40.6689 53.6542 39.5948 53.6542Z" fill="#CACCCE"/>
<path opacity="0.8" d="M29.5087 77.1692H14.7944C14.3202 77.1692 13.9358 77.5536 13.9358 78.028C13.9358 78.5022 14.3202 78.8866 14.7944 78.8866H29.5087C29.983 78.8866 30.3675 78.5022 30.3675 78.028C30.3675 77.5536 29.983 77.1692 29.5087 77.1692Z" fill="#CACCCE"/>
</g>
<path fill-rule="evenodd" clip-rule="evenodd" d="M126.729 13.9262C128.121 13.9262 129.25 12.7975 129.25 11.4052C129.25 10.0128 128.121 8.88416 126.729 8.88416C125.336 8.88416 124.208 10.0128 124.208 11.4052C124.208 12.7975 125.336 13.9262 126.729 13.9262Z" stroke="#E4E5E6" stroke-width="1.0084"/>
<path d="M128.887 13.563L130.777 15.4538" stroke="#E4E5E6" stroke-width="1.0084" stroke-linecap="round"/>
<path d="M14.2637 14.5084H17.1978V13.7094H15.2328V9.92479H14.2637V14.5084ZM23.1338 12.2166C23.1338 10.7171 22.2026 9.86212 20.9874 9.86212C19.7655 9.86212 18.841 10.7171 18.841 12.2166C18.841 13.7094 19.7655 14.571 20.9874 14.571C22.2026 14.571 23.1338 13.716 23.1338 12.2166ZM22.1512 12.2166C22.1512 13.1879 21.6901 13.7139 20.9874 13.7139C20.2824 13.7139 19.8236 13.1879 19.8236 12.2166C19.8236 11.2453 20.2824 10.7193 20.9874 10.7193C21.6901 10.7193 22.1512 11.2453 22.1512 12.2166ZM28.1515 11.4064H29.1363C29.0109 10.5 28.212 9.86212 27.1757 9.86212C25.9649 9.86212 25.0316 10.735 25.0316 12.2211C25.0316 13.6713 25.9044 14.571 27.1959 14.571C28.3529 14.571 29.1788 13.8392 29.1788 12.6329V12.0555H27.2607V12.7851H28.2455C28.232 13.3535 27.8449 13.7139 27.2003 13.7139C26.4729 13.7139 26.0142 13.1701 26.0142 12.2122C26.0142 11.2587 26.4908 10.7193 27.1913 10.7193C27.6905 10.7193 28.0284 10.9767 28.1515 11.4064ZM35.3793 12.2166C35.3793 10.7171 34.4483 9.86212 33.2331 9.86212C32.011 9.86212 31.0867 10.7171 31.0867 12.2166C31.0867 13.7094 32.011 14.571 33.2331 14.571C34.4483 14.571 35.3793 13.716 35.3793 12.2166ZM34.3969 12.2166C34.3969 13.1879 33.9358 13.7139 33.2331 13.7139C32.5281 13.7139 32.0692 13.1879 32.0692 12.2166C32.0692 11.2453 32.5281 10.7193 33.2331 10.7193C33.9358 10.7193 34.3969 11.2453 34.3969 12.2166Z" fill="#E4E5E6"/>
<g opacity="0.8">
<path opacity="0.8" d="M70.7787 53.6542H47.0632C45.9891 53.6542 45.1183 54.5249 45.1183 55.5991V71.1353C45.1183 72.2094 45.9891 73.0801 47.0632 73.0801H70.7787C71.8529 73.0801 72.7235 72.2094 72.7235 71.1353V55.5991C72.7235 54.5249 71.8529 53.6542 70.7787 53.6542Z" fill="#CACCCE"/>
<path opacity="0.8" d="M60.6927 77.1692H45.9784C45.5041 77.1692 45.1196 77.5536 45.1196 78.028C45.1196 78.5022 45.5041 78.8866 45.9784 78.8866H60.6927C61.1669 78.8866 61.5513 78.5022 61.5513 78.028C61.5513 77.5536 61.1669 77.1692 60.6927 77.1692Z" fill="#CACCCE"/>
</g>
<g opacity="0.8">
<path opacity="0.8" d="M101.961 53.6542H78.2459C77.1718 53.6542 76.3011 54.5249 76.3011 55.5991V71.1353C76.3011 72.2094 77.1718 73.0801 78.2459 73.0801H101.961C103.035 73.0801 103.906 72.2094 103.906 71.1353V55.5991C103.906 54.5249 103.035 53.6542 101.961 53.6542Z" fill="#CACCCE"/>
<path opacity="0.8" d="M91.8754 77.1692H77.161C76.6868 77.1692 76.3024 77.5536 76.3024 78.028C76.3024 78.5022 76.6868 78.8866 77.161 78.8866H91.8754C92.3496 78.8866 92.7341 78.5022 92.7341 78.028C92.7341 77.5536 92.3496 77.1692 91.8754 77.1692Z" fill="#CACCCE"/>
<path opacity="0.8" d="M132.803 53.6542H109.088C108.014 53.6542 107.143 54.5249 107.143 55.5991V71.1353C107.143 72.2094 108.014 73.0801 109.088 73.0801H132.803C133.877 73.0801 134.748 72.2094 134.748 71.1353V55.5991C134.748 54.5249 133.877 53.6542 132.803 53.6542Z" fill="#CACCCE"/>
<path opacity="0.8" d="M122.717 77.1692H108.003C107.529 77.1692 107.144 77.5536 107.144 78.028C107.144 78.5022 107.529 78.8866 108.003 78.8866H122.717C123.191 78.8866 123.576 78.5022 123.576 78.028C123.576 77.5536 123.191 77.1692 122.717 77.1692Z" fill="#CACCCE"/>
</g>
<path d="M13.8655 49.4874H133.613" stroke="#CACCCE" stroke-width="0.630252"/>
</svg>
