<svg width="150" height="130" viewBox="0 0 115 100" fill="none" xmlns="http://www.w3.org/2000/svg">
<g clip-path="url(#clip0_2_2)">
<path d="M115 0H0V100H115V0Z" fill="white"/>
<path d="M18 14C18 12.8954 18.8954 12 20 12H96C97.1046 12 98 12.8954 98 14V35C98 36.1046 97.1046 37 96 37H20C18.8954 37 18 36.1046 18 35V14Z" fill="#CACCCE"/>
<path opacity="0.5" d="M97.5833 66H18.4167C18.1865 66 18 66.4477 18 67C18 67.5523 18.1865 68 18.4167 68H97.5833C97.8135 68 98 67.5523 98 67C98 66.4477 97.8135 66 97.5833 66Z" fill="#E4E5E6"/>
<path opacity="0.5" d="M97.5833 73H18.4167C18.1865 73 18 73.4477 18 74C18 74.5523 18.1865 75 18.4167 75H97.5833C97.8135 75 98 74.5523 98 74C98 73.4477 97.8135 73 97.5833 73Z" fill="#E4E5E6"/>
<path opacity="0.5" d="M97.5833 45H18.4167C18.1865 45 18 45.4477 18 46C18 46.5523 18.1865 47 18.4167 47H97.5833C97.8135 47 98 46.5523 98 46C98 45.4477 97.8135 45 97.5833 45Z" fill="#E4E5E6"/>
<path opacity="0.5" d="M97.5833 52H18.4167C18.1865 52 18 52.4477 18 53C18 53.5523 18.1865 54 18.4167 54H97.5833C97.8135 54 98 53.5523 98 53C98 52.4477 97.8135 52 97.5833 52Z" fill="#E4E5E6"/>
<path opacity="0.5" d="M97.5833 59H18.4167C18.1865 59 18 59.4477 18 60C18 60.5523 18.1865 61 18.4167 61H97.5833C97.8135 61 98 60.5523 98 60C98 59.4477 97.8135 59 97.5833 59Z" fill="#E4E5E6"/>
<path opacity="0.5" d="M75.0833 80H18.4167C18.1865 80 18 80.4477 18 81C18 81.5523 18.1865 82 18.4167 82H75.0833C75.3134 82 75.5 81.5523 75.5 81C75.5 80.4477 75.3134 80 75.0833 80Z" fill="#E4E5E6"/>
<path opacity="0.5" d="M56.6369 87H18.282C18.1263 87 18 87.4477 18 88C18 88.5523 18.1263 89 18.282 89H56.6369C56.7927 89 56.9189 88.5523 56.9189 88C56.9189 87.4477 56.7927 87 56.6369 87Z" fill="#E4E5E6"/>
</g>
<defs>
<clipPath id="clip0_2_2">
<rect width="115" height="100" fill="white"/>
</clipPath>
</defs>
</svg>
