<svg width="150" height="130" viewBox="0 0 115 100" fill="none" xmlns="http://www.w3.org/2000/svg">
<g clip-path="url(#clip0_2_34)">
<path d="M115 0H0V100H115V0Z" fill="white"/>
<path d="M10 14C10 12.8954 10.8954 12 12 12H103C104.105 12 105 12.8954 105 14V35C105 36.1046 104.105 37 103 37H12C10.8954 37 10 36.1046 10 35V14Z" fill="#CACCCE"/>
<path opacity="0.5" d="M104.505 66H10.4948C10.2215 66 10 66.4477 10 67C10 67.5523 10.2215 68 10.4948 68H104.505C104.778 68 105 67.5523 105 67C105 66.4477 104.778 66 104.505 66Z" fill="#E4E5E6"/>
<path opacity="0.5" d="M104.505 73H10.4948C10.2215 73 10 73.4477 10 74C10 74.5523 10.2215 75 10.4948 75H104.505C104.778 75 105 74.5523 105 74C105 73.4477 104.778 73 104.505 73Z" fill="#E4E5E6"/>
<path opacity="0.5" d="M104.505 45H10.4948C10.2215 45 10 45.4477 10 46C10 46.5523 10.2215 47 10.4948 47H104.505C104.778 47 105 46.5523 105 46C105 45.4477 104.778 45 104.505 45Z" fill="#E4E5E6"/>
<path opacity="0.5" d="M104.505 52H10.4948C10.2215 52 10 52.4477 10 53C10 53.5523 10.2215 54 10.4948 54H104.505C104.778 54 105 53.5523 105 53C105 52.4477 104.778 52 104.505 52Z" fill="#E4E5E6"/>
<path opacity="0.5" d="M104.505 59H10.4948C10.2215 59 10 59.4477 10 60C10 60.5523 10.2215 61 10.4948 61H104.505C104.778 61 105 60.5523 105 60C105 59.4477 104.778 59 104.505 59Z" fill="#E4E5E6"/>
<path opacity="0.5" d="M77.7865 80H10.4948C10.2215 80 10 80.4477 10 81C10 81.5523 10.2215 82 10.4948 82H77.7865C78.0597 82 78.2812 81.5523 78.2812 81C78.2812 80.4477 78.0597 80 77.7865 80Z" fill="#E4E5E6"/>
<path opacity="0.5" d="M55.8813 87H10.3349C10.1499 87 10 87.4477 10 88C10 88.5523 10.1499 89 10.3349 89H55.8813C56.0663 89 56.2162 88.5523 56.2162 88C56.2162 87.4477 56.0663 87 55.8813 87Z" fill="#E4E5E6"/>
<path d="M115 0H110V100H115V0Z" fill="#CACCCE"/>
<path d="M9.53674e-06 100H5L5 0H9.53674e-06L9.53674e-06 100Z" fill="#CACCCE"/>
</g>
<defs>
<clipPath id="clip0_2_34">
<rect width="115" height="100" fill="white"/>
</clipPath>
</defs>
</svg>
