<svg width="150" height="130" viewBox="0 0 115 100" fill="none" xmlns="http://www.w3.org/2000/svg">
<g clip-path="url(#clip0_1_16)">
<path d="M115 0H0V100H115V0Z" fill="white"/>
<path d="M23 14C23 12.8954 23.8954 12 25 12H91C92.1046 12 93 12.8954 93 14V35C93 36.1046 92.1046 37 91 37H25C23.8954 37 23 36.1046 23 35V14Z" fill="#CACCCE"/>
<path opacity="0.5" d="M92.6354 66H23.3646C23.1632 66 23 66.4477 23 67C23 67.5523 23.1632 68 23.3646 68H92.6354C92.8368 68 93 67.5523 93 67C93 66.4477 92.8368 66 92.6354 66Z" fill="#E4E5E6"/>
<path opacity="0.5" d="M92.6354 73H23.3646C23.1632 73 23 73.4477 23 74C23 74.5523 23.1632 75 23.3646 75H92.6354C92.8368 75 93 74.5523 93 74C93 73.4477 92.8368 73 92.6354 73Z" fill="#E4E5E6"/>
<path opacity="0.5" d="M92.6354 45H23.3646C23.1632 45 23 45.4477 23 46C23 46.5523 23.1632 47 23.3646 47H92.6354C92.8368 47 93 46.5523 93 46C93 45.4477 92.8368 45 92.6354 45Z" fill="#E4E5E6"/>
<path opacity="0.5" d="M92.6354 52H23.3646C23.1632 52 23 52.4477 23 53C23 53.5523 23.1632 54 23.3646 54H92.6354C92.8368 54 93 53.5523 93 53C93 52.4477 92.8368 52 92.6354 52Z" fill="#E4E5E6"/>
<path opacity="0.5" d="M92.6354 59H23.3646C23.1632 59 23 59.4477 23 60C23 60.5523 23.1632 61 23.3646 61H92.6354C92.8368 61 93 60.5523 93 60C93 59.4477 92.8368 59 92.6354 59Z" fill="#E4E5E6"/>
<path opacity="0.5" d="M72.9479 80H23.3646C23.1632 80 23 80.4477 23 81C23 81.5523 23.1632 82 23.3646 82H72.9479C73.1493 82 73.3125 81.5523 73.3125 81C73.3125 80.4477 73.1493 80 72.9479 80Z" fill="#E4E5E6"/>
<path opacity="0.5" d="M56.8073 87H23.2468C23.1105 87 23 87.4477 23 88C23 88.5523 23.1105 89 23.2468 89H56.8073C56.9436 89 57.0541 88.5523 57.0541 88C57.0541 87.4477 56.9436 87 56.8073 87Z" fill="#E4E5E6"/>
<path d="M115 0H97V100H115V0Z" fill="#CACCCE"/>
<path d="M0 100H18L18 0H0L0 100Z" fill="#CACCCE"/>
</g>
<defs>
<clipPath id="clip0_1_16">
<rect width="115" height="100" fill="white"/>
</clipPath>
</defs>
</svg>
