<svg width="78" height="76" viewBox="0 0 78 76" fill="none" xmlns="http://www.w3.org/2000/svg">
<g filter="url(#filter0_d)">
<path d="M73 1H5C3.34315 1 2 2.34315 2 4V70C2 71.6569 3.34315 73 5 73H73C74.6569 73 76 71.6569 76 70V4C76 2.34315 74.6569 1 73 1Z" fill="white"/>
</g>
<rect x="12" y="41" width="54" height="21" rx="1" fill="#CCCED0"/>
<path d="M12 12C12 11.4477 12.4477 11 13 11H65C65.5523 11 66 11.4477 66 12V38C66 38.5523 65.5523 39 65 39H13C12.4477 39 12 38.5523 12 38V12Z" fill="#AAAEB1"/>
<path d="M12 65C12 64.4477 12.4477 64 13 64H65C65.5523 64 66 64.4477 66 65V73H12V65Z" fill="#CCCED0"/>
<defs>
<filter id="filter0_d" x="0" y="0" width="78" height="76" filterUnits="userSpaceOnUse" color-interpolation-filters="sRGB">
<feFlood flood-opacity="0" result="BackgroundImageFix"/>
<feColorMatrix in="SourceAlpha" type="matrix" values="0 0 0 0 0 0 0 0 0 0 0 0 0 0 0 0 0 0 127 0" result="hardAlpha"/>
<feOffset dy="1"/>
<feGaussianBlur stdDeviation="1"/>
<feColorMatrix type="matrix" values="0 0 0 0 0 0 0 0 0 0 0 0 0 0 0 0 0 0 0.12 0"/>
<feBlend mode="normal" in2="BackgroundImageFix" result="effect1_dropShadow"/>
<feBlend mode="normal" in="SourceGraphic" in2="effect1_dropShadow" result="shape"/>
</filter>
</defs>
</svg>