<svg width="119" height="53" viewBox="0 0 119 53" fill="none" xmlns="http://www.w3.org/2000/svg">
<rect width="119" height="53" rx="3" fill="white"/>
<rect x="38" y="10" width="28" height="11" fill="#AAAEB1" fill-opacity="0.24"/>
<rect x="67" y="10" width="28" height="11" fill="#AAAEB1" fill-opacity="0.24"/>
<rect x="9" y="9" width="29" height="13" fill="#AAAEB1" fill-opacity="0.24"/>
<rect x="9" y="21" width="101" height="1" fill="#DADDDE"/>
<rect x="38" y="9" width="58" height="1" fill="#DADDDE"/>
<rect x="10" y="10" width="11" height="1" transform="rotate(90 10 10)" fill="#AAAEB1"/>
<rect x="38" y="10" width="11" height="1" transform="rotate(90 38 10)" fill="#AAAEB1"/>
<rect x="67" y="10" width="11" height="1" transform="rotate(90 67 10)" fill="#DADDDE"/>
<rect x="96" y="10" width="11" height="1" transform="rotate(90 96 10)" fill="#DADDDE"/>
<rect x="9" y="26" width="92" height="3" fill="#DADDDE"/>
<rect x="9" y="32" width="98" height="3" fill="#DADDDE"/>
<rect x="9" y="38" width="86" height="3" fill="#DADDDE"/>
<rect x="9" y="9" width="29" height="1" fill="#AAAEB1"/>
<rect x="9" y="21" width="29" height="1" fill="#AAAEB1"/>
<rect x="14" y="14" width="19" height="3" fill="#AAAEB1"/>
<rect x="43" y="14" width="19" height="3" fill="#AAAEB1" fill-opacity="0.74"/>
<rect x="72" y="14" width="19" height="3" fill="#AAAEB1" fill-opacity="0.74"/>
</svg>