<svg width="119" height="74" viewBox="0 0 119 74" fill="none" xmlns="http://www.w3.org/2000/svg">
<rect width="119" height="74" rx="3" fill="white"/>
<rect x="15" width="39" height="28" fill="#DADDDE"/>
<rect x="15" width="39" height="28" stroke="white"/>
<rect x="15" y="29" width="9" height="8" fill="#DADDDE"/>
<rect x="15" y="29" width="9" height="8" stroke="white"/>
<rect x="25" y="29" width="9" height="8" fill="#DADDDE"/>
<rect x="25" y="29" width="9" height="8" stroke="white"/>
<rect x="35" y="29" width="9" height="8" fill="#DADDDE"/>
<rect x="35" y="29" width="9" height="8" stroke="white"/>
<rect x="45" y="29" width="9" height="8" fill="#DADDDE"/>
<rect x="45" y="29" width="9" height="8" stroke="white"/>
<rect x="63" y="5" width="30" height="3" fill="#DADDDE"/>
<rect x="63" width="40" height="2" fill="#DADDDE"/>
<path d="M63 17H93V20H63V17Z" fill="#DADDDE"/>
<rect x="63" y="11" width="40" height="3" fill="#DADDDE"/>
<rect x="15" y="43" width="88" height="24" fill="#AAAEB1"/>
</svg>