<svg width="150" height="68" viewBox="0 0 150 68" fill="none" xmlns="http://www.w3.org/2000/svg">
<path d="M146.218 0.596638H3.78151C1.69304 0.596638 0 2.28968 0 4.37815V63.6218C0 65.7103 1.69304 67.4034 3.78151 67.4034H146.218C148.307 67.4034 150 65.7103 150 63.6218V4.37815C150 2.28968 148.307 0.596638 146.218 0.596638Z" fill="white"/>
<path d="M138.655 27.0672H11.3445V28.3277H138.655V27.0672Z" fill="#E4E5E6"/>
<path d="M121.008 11.9412H47.8992V13.2017H121.008V11.9412Z" fill="#E4E5E6"/>
<path d="M12.605 27.0672V13.2017H11.3445V27.0672H12.605Z" fill="#E4E5E6"/>
<path d="M47.8992 27.0672V13.2017H46.6387V27.0672H47.8992Z" fill="#E4E5E6"/>
<path d="M84.4538 27.0672V13.2017H83.1933V27.0672H84.4538Z" fill="#E4E5E6"/>
<path d="M121.008 27.0672V13.2017H119.748V27.0672H121.008Z" fill="#E4E5E6"/>
<path d="M127.311 33.3697H11.3445V37.1513H127.311V33.3697Z" fill="#E4E5E6"/>
<path d="M134.874 40.9328H11.3445V44.7143H134.874V40.9328Z" fill="#E4E5E6"/>
<path d="M119.748 48.4958H11.3445V52.2773H119.748V48.4958Z" fill="#E4E5E6"/>
<path d="M47.8992 11.9412H11.3445V13.2017H47.8992V11.9412Z" fill="#CACCCE"/>
<path d="M41.5966 18.2437H17.6471V22.0252H41.5966V18.2437Z" fill="#CACCCE"/>
<path d="M78.1513 18.2437H54.2017V22.0252H78.1513V18.2437Z" fill="#E4E5E6"/>
<path d="M114.706 18.2437H90.7563V22.0252H114.706V18.2437Z" fill="#E4E5E6"/>
</svg>
