<svg width="119" height="53" viewBox="0 0 119 53" fill="none" xmlns="http://www.w3.org/2000/svg">
<rect width="119" height="53" rx="3" fill="white"/>
<rect x="9" y="9" width="101" height="1" fill="#DADDDE"/>
<rect x="9" y="34" width="101" height="1" fill="#DADDDE"/>
<rect x="9" y="44" width="101" height="1" fill="#DADDDE"/>
<path d="M108.035 16.0178L105.914 13.8965L106.328 13.1035L108.742 15.3107L108.035 16.0178Z" fill="#AAAEB1"/>
<path d="M108.035 16.0178L105.914 13.8965L106.328 13.1035L108.742 15.3107L108.035 16.0178Z" fill="#AAAEB1"/>
<path d="M108.035 16.0178L105.914 13.8965L106.328 13.1035L108.742 15.3107L108.035 16.0178Z" fill="#AAAEB1"/>
<path d="M104 15.3965L106.328 13.1035L106.828 13.9823L104.707 16.1036L104 15.3965Z" fill="#AAAEB1"/>
<path d="M104 15.3965L106.328 13.1035L106.828 13.9823L104.707 16.1036L104 15.3965Z" fill="#AAAEB1"/>
<path d="M104 15.3965L106.328 13.1035L106.828 13.9823L104.707 16.1036L104 15.3965Z" fill="#AAAEB1"/>
<path d="M104.707 38.0857L106.828 40.207L106.414 41L104 38.7928L104.707 38.0857Z" fill="#AAAEB1"/>
<path d="M104.707 38.0857L106.828 40.207L106.414 41L104 38.7928L104.707 38.0857Z" fill="#AAAEB1"/>
<path d="M104.707 38.0857L106.828 40.207L106.414 41L104 38.7928L104.707 38.0857Z" fill="#DADDDE"/>
<path d="M108.742 38.707L106.414 41L105.914 40.1212L108.035 37.9999L108.742 38.707Z" fill="#AAAEB1"/>
<path d="M108.742 38.707L106.414 41L105.914 40.1212L108.035 37.9999L108.742 38.707Z" fill="#AAAEB1"/>
<path d="M108.742 38.707L106.414 41L105.914 40.1212L108.035 37.9999L108.742 38.707Z" fill="#DADDDE"/>
<path d="M104.707 48.0857L106.828 50.207L106.414 51L104 48.7928L104.707 48.0857Z" fill="#AAAEB1"/>
<path d="M104.707 48.0857L106.828 50.207L106.414 51L104 48.7928L104.707 48.0857Z" fill="#AAAEB1"/>
<path d="M104.707 48.0857L106.828 50.207L106.414 51L104 48.7928L104.707 48.0857Z" fill="#DADDDE"/>
<path d="M108.742 48.707L106.414 51L105.914 50.1212L108.035 47.9999L108.742 48.707Z" fill="#AAAEB1"/>
<path d="M108.742 48.707L106.414 51L105.914 50.1212L108.035 47.9999L108.742 48.707Z" fill="#AAAEB1"/>
<path d="M108.742 48.707L106.414 51L105.914 50.1212L108.035 47.9999L108.742 48.707Z" fill="#DADDDE"/>
<rect x="9" y="20" width="95" height="2" fill="#DADDDE"/>
<rect x="9" y="24" width="101" height="2" fill="#DADDDE"/>
<rect x="9" y="28" width="89" height="2" fill="#DADDDE"/>
<rect x="9" y="13" width="19" height="3" fill="#AAAEB1"/>
<rect x="9" y="38" width="19" height="3" fill="#AAAEB1"/>
<rect x="9" y="48" width="19" height="3" fill="#AAAEB1"/>
</svg>