<svg width="119" height="53" viewBox="0 0 119 53" fill="none" xmlns="http://www.w3.org/2000/svg">
<rect width="119" height="53" rx="3" fill="white"/>
<rect x="10.0342" y="22" width="28.9655" height="11" fill="#AAAEB1" fill-opacity="0.1"/>
<rect x="9" y="9" width="30" height="13" fill="#AAAEB1" fill-opacity="0.24"/>
<rect x="39" y="10" width="70" height="43" fill="#AAAEB1" fill-opacity="0.24"/>
<rect x="9" y="21" width="29" height="1" fill="#DADDDE"/>
<rect x="39" y="21" width="32" height="0.999999" transform="rotate(90 39 21)" fill="#DADDDE"/>
<rect x="110" y="10" width="43" height="0.999998" transform="rotate(90 110 10)" fill="#DADDDE"/>
<rect x="9" y="33" width="29" height="1" fill="#DADDDE"/>
<rect x="10" y="10" width="11" height="1" transform="rotate(90 10 10)" fill="#DADDDE"/>
<rect x="10" y="22" width="11" height="1" transform="rotate(90 10 22)" fill="#DADDDE"/>
<rect x="44" y="15" width="56" height="3" fill="#DADDDE"/>
<rect x="44" y="21" width="60" height="3" fill="#DADDDE"/>
<rect x="44" y="27" width="53" height="3" fill="#DADDDE"/>
<rect x="44" y="33" width="56" height="3" fill="#DADDDE"/>
<rect x="44" y="39" width="60" height="3" fill="#DADDDE"/>
<rect x="44" y="51" width="60" height="2" fill="#DADDDE"/>
<rect x="44" y="45" width="53" height="3" fill="#DADDDE"/>
<rect x="10" y="34" width="28" height="11" fill="#AAAEB1" fill-opacity="0.1"/>
<rect x="9" y="45" width="29" height="1" fill="#DADDDE"/>
<rect x="10" y="34" width="11" height="1" transform="rotate(90 10 34)" fill="#DADDDE"/>
<rect x="9" y="9" width="101" height="1" fill="#DADDDE"/>
<rect x="14" y="14" width="19" height="3" fill="#AAAEB1"/>
<rect x="14" y="26" width="19" height="3" fill="#DADDDE"/>
<rect x="14" y="38" width="19" height="3" fill="#DADDDE"/>
</svg>