<svg width="150" height="68" viewBox="0 0 150 68" fill="none" xmlns="http://www.w3.org/2000/svg">
<path d="M146.218 0.596634H3.78151C1.69304 0.596634 0 2.28967 0 4.37815V63.6218C0 65.7103 1.69304 67.4034 3.78151 67.4034H146.218C148.307 67.4034 150 65.7103 150 63.6218V4.37815C150 2.28967 148.307 0.596634 146.218 0.596634Z" fill="white"/>
<path d="M138.655 11.9412H11.3445V13.2017H138.655V11.9412Z" fill="#E4E5E6"/>
<path d="M138.655 43.4538H11.3445V44.7143H138.655V43.4538Z" fill="#E4E5E6"/>
<path d="M138.655 56.0588H11.3445V57.3193H138.655V56.0588Z" fill="#E4E5E6"/>
<path d="M136.179 20.7871L133.505 18.1132L134.027 17.1136L137.07 19.8958L136.179 20.7871Z" fill="#CACCCE"/>
<path d="M136.179 20.7871L133.505 18.1132L134.027 17.1136L137.07 19.8958L136.179 20.7871Z" fill="#CACCCE"/>
<path d="M136.179 20.7871L133.505 18.1132L134.027 17.1136L137.07 19.8958L136.179 20.7871Z" fill="#CACCCE"/>
<path d="M131.092 20.004L134.027 17.1136L134.657 18.2214L131.984 20.8953L131.092 20.004Z" fill="#CACCCE"/>
<path d="M131.092 20.004L134.027 17.1136L134.657 18.2214L131.984 20.8953L131.092 20.004Z" fill="#CACCCE"/>
<path d="M131.092 20.004L134.027 17.1136L134.657 18.2214L131.984 20.8953L131.092 20.004Z" fill="#CACCCE"/>
<path d="M131.984 48.6038L134.657 51.2777L134.135 52.2773L131.092 49.4951L131.984 48.6038Z" fill="#CACCCE"/>
<path d="M131.984 48.6038L134.657 51.2777L134.135 52.2773L131.092 49.4951L131.984 48.6038Z" fill="#CACCCE"/>
<path d="M131.984 48.6038L134.657 51.2777L134.135 52.2773L131.092 49.4951L131.984 48.6038Z" fill="#E4E5E6"/>
<path d="M137.07 49.387L134.135 52.2773L133.505 51.1696L136.179 48.4957L137.07 49.387Z" fill="#CACCCE"/>
<path d="M137.07 49.387L134.135 52.2773L133.505 51.1696L136.179 48.4957L137.07 49.387Z" fill="#CACCCE"/>
<path d="M137.07 49.387L134.135 52.2773L133.505 51.1696L136.179 48.4957L137.07 49.387Z" fill="#E4E5E6"/>
<path d="M131.984 61.2089L134.657 63.8828L134.135 64.8823L131.092 62.1002L131.984 61.2089Z" fill="#CACCCE"/>
<path d="M131.984 61.2089L134.657 63.8828L134.135 64.8823L131.092 62.1002L131.984 61.2089Z" fill="#CACCCE"/>
<path d="M131.984 61.2089L134.657 63.8828L134.135 64.8823L131.092 62.1002L131.984 61.2089Z" fill="#E4E5E6"/>
<path d="M137.07 61.992L134.135 64.8823L133.505 63.7746L136.179 61.1007L137.07 61.992Z" fill="#CACCCE"/>
<path d="M137.07 61.992L134.135 64.8823L133.505 63.7746L136.179 61.1007L137.07 61.992Z" fill="#CACCCE"/>
<path d="M137.07 61.992L134.135 64.8823L133.505 63.7746L136.179 61.1007L137.07 61.992Z" fill="#E4E5E6"/>
<path d="M131.092 25.8067H11.3445V28.3277H131.092V25.8067Z" fill="#E4E5E6"/>
<path d="M138.655 30.8487H11.3445V33.3697H138.655V30.8487Z" fill="#E4E5E6"/>
<path d="M123.529 35.8907H11.3445V38.4118H123.529V35.8907Z" fill="#E4E5E6"/>
<path d="M35.2941 16.9832H11.3445V20.7647H35.2941V16.9832Z" fill="#CACCCE"/>
<path d="M35.2941 48.4958H11.3445V52.2773H35.2941V48.4958Z" fill="#CACCCE"/>
<path d="M35.2941 61.1008H11.3445V64.8823H35.2941V61.1008Z" fill="#CACCCE"/>
</svg>
