<svg width="50" height="50" viewBox="0 0 50 50" fill="none" xmlns="http://www.w3.org/2000/svg">
<path d="M47 0H3C1.34315 0 0 1.34315 0 3V47C0 48.6569 1.34315 50 3 50H47C48.6569 50 50 48.6569 50 47V3C50 1.34315 48.6569 0 47 0Z" fill="#AAAEB1"/>
<path d="M25 34.5401C24.7033 34.5408 24.4095 34.4829 24.1353 34.3696C23.8611 34.2563 23.6121 34.09 23.4025 33.8801L15.6775 26.1551C15.0672 25.5382 14.5858 24.8061 14.2613 24.0013C13.9369 23.1965 13.7758 22.3352 13.7875 21.4676C13.7933 20.6725 13.956 19.8863 14.2662 19.1542C14.5764 18.422 15.028 17.7583 15.5951 17.2009C16.1622 16.6436 16.8337 16.2036 17.5711 15.9061C18.3085 15.6087 19.0974 15.4597 19.8925 15.4676C20.7018 15.4594 21.5045 15.6139 22.253 15.9218C23.0016 16.2297 23.6806 16.6848 24.25 17.2601L25 18.0101L25.615 17.3951C26.6769 16.305 28.0979 15.6367 29.6148 15.514C31.1316 15.3913 32.6416 15.8224 33.865 16.7276C34.5613 17.2639 35.1355 17.9424 35.5491 18.7179C35.9628 19.4934 36.2065 20.3482 36.264 21.2253C36.3214 22.1024 36.1914 22.9816 35.8825 23.8045C35.5736 24.6274 35.0929 25.375 34.4725 25.9976L26.5975 33.8801C26.3878 34.09 26.1388 34.2563 25.8646 34.3696C25.5905 34.4829 25.2966 34.5408 25 34.5401ZM19.8625 16.9601C18.6703 16.9589 17.5245 17.4215 16.6675 18.2501C16.2305 18.6705 15.883 19.1749 15.6459 19.7329C15.4087 20.291 15.2868 20.8912 15.2875 21.4976C15.2809 22.1646 15.4068 22.8262 15.6578 23.4442C15.9089 24.0622 16.2801 24.6242 16.75 25.0976L24.475 32.8226C24.5447 32.8929 24.6276 32.9487 24.719 32.9868C24.8104 33.0248 24.9084 33.0444 25.0075 33.0444C25.1065 33.0444 25.2045 33.0248 25.2959 32.9868C25.3873 32.9487 25.4702 32.8929 25.54 32.8226L33.4225 24.9326C33.8851 24.4601 34.2426 23.8951 34.4714 23.2746C34.7002 22.6542 34.7951 21.9923 34.75 21.3326C34.7099 20.6661 34.5263 20.0161 34.2118 19.4271C33.8972 18.8381 33.4591 18.3241 32.9275 17.9201C31.9946 17.2323 30.8434 16.907 29.6885 17.005C28.5336 17.103 27.4537 17.6175 26.65 18.4526L25.5325 19.6001C25.4627 19.6704 25.3798 19.7262 25.2884 19.7643C25.197 19.8023 25.099 19.8219 25 19.8219C24.901 19.8219 24.8029 19.8023 24.7115 19.7643C24.6201 19.7262 24.5372 19.6704 24.4675 19.6001L23.1925 18.3251C22.3143 17.4545 21.129 16.9643 19.8925 16.9601H19.8625Z" fill="white"/>
</svg>