<svg width="150" height="150" viewBox="0 0 50 50" fill="none" xmlns="http://www.w3.org/2000/svg">
<g clip-path="url(#clip0_202_483)">
<path d="M47 0H3C1.34315 0 0 1.34315 0 3V47C0 48.6569 1.34315 50 3 50H47C48.6569 50 50 48.6569 50 47V3C50 1.34315 48.6569 0 47 0Z" fill="#CACCCE"/>
<path d="M30.4999 15.8889C28.5328 15.8889 26.2322 17.9703 24.9999 19.3111C23.7676 17.9703 21.4671 15.8889 19.5 15.8889C16.0179 15.8889 14 18.4238 14 21.6501C14 27.0111 24.9999 32.9999 24.9999 32.9999C24.9999 32.9999 35.9999 27.0111 35.9999 21.8778C35.9999 18.6515 33.982 15.8889 30.4999 15.8889Z" stroke="white" stroke-width="1.5"/>
<path d="M29.8888 23.8333L26.8333 26.8888" stroke="white" stroke-width="1.5" stroke-linecap="round"/>
</g>
<defs>
<clipPath id="clip0_202_483">
<rect width="50" height="50" fill="white"/>
</clipPath>
</defs>
</svg>
