<svg width="78" height="62" viewBox="0 0 78 62" fill="none" xmlns="http://www.w3.org/2000/svg">
<g filter="url(#filter0_d)">
<rect x="2" y="1" width="74" height="58" rx="3" fill="white"/>
</g>
<rect x="12" y="11" width="54" height="38" rx="1.5429" fill="#AAAEB1"/>
<rect x="50" y="33" width="14" height="14" rx="1.27273" fill="#317CB5"/>
<path d="M56.9998 43.1167L56.5165 42.6767C54.7998 41.12 53.6665 40.0933 53.6665 38.8333C53.6665 37.8067 54.4732 37 55.4998 37C56.0798 37 56.6365 37.27 56.9998 37.6967C57.3632 37.27 57.9198 37 58.4998 37C59.5265 37 60.3332 37.8067 60.3332 38.8333C60.3332 40.0933 59.1998 41.12 57.4832 42.68L56.9998 43.1167Z" fill="white"/>
<defs>
<filter id="filter0_d" x="0" y="0" width="78" height="62" filterUnits="userSpaceOnUse" color-interpolation-filters="sRGB">
<feFlood flood-opacity="0" result="BackgroundImageFix"/>
<feColorMatrix in="SourceAlpha" type="matrix" values="0 0 0 0 0 0 0 0 0 0 0 0 0 0 0 0 0 0 127 0" result="hardAlpha"/>
<feOffset dy="1"/>
<feGaussianBlur stdDeviation="1"/>
<feColorMatrix type="matrix" values="0 0 0 0 0 0 0 0 0 0 0 0 0 0 0 0 0 0 0.12 0"/>
<feBlend mode="normal" in2="BackgroundImageFix" result="effect1_dropShadow"/>
<feBlend mode="normal" in="SourceGraphic" in2="effect1_dropShadow" result="shape"/>
</filter>
</defs>
</svg>