<svg width="252" height="106" viewBox="0 0 252 106" fill="none" xmlns="http://www.w3.org/2000/svg">
<mask id="mask0_781_24196" style="mask-type:alpha" maskUnits="userSpaceOnUse" x="0" y="0" width="252" height="106">
<rect x="0.5" y="0.5" width="251" height="105" rx="3.5" fill="white" stroke="#E4E4E4"/>
</mask>
<g mask="url(#mask0_781_24196)">
<path d="M63.3197 63.0687C63.8392 55.429 66.0194 23.3883 90.163 7.97744C117.793 -9.65893 159.655 3.76116 180.602 30.4818C193.365 46.7627 203.069 73.9837 192.492 97.0954C174.507 136.395 106.693 144.556 78.4525 115.999C60.9239 98.2739 62.806 70.6138 63.3197 63.0687Z" fill="#ECF3FE"/>
<path d="M140.32 106.069C140.839 98.429 143.019 66.3883 167.163 50.9774C194.793 33.3411 236.655 46.7612 257.602 73.4818C270.365 89.7627 280.069 116.984 269.492 140.095C251.507 179.395 183.693 187.556 155.453 158.999C137.924 141.274 139.806 113.614 140.32 106.069Z" fill="#ECF3FE"/>
<g clip-path="url(#clip0_781_24196)">
<path d="M114.615 8H193.385C198.185 8 202.077 11.9056 202.077 16.7233V165.277C202.077 170.094 198.185 174 193.385 174H114.615C109.815 174 105.924 170.094 105.924 165.277V16.7233C105.924 11.9056 109.815 8 114.615 8Z" fill="white"/>
<path d="M135.796 101.017C135.796 101.447 143.942 101.795 154 101.795C164.058 101.795 172.205 101.447 172.205 101.017C172.205 100.588 164.052 100.24 154 100.24C143.949 100.24 135.796 100.588 135.796 101.017Z" fill="#F3F1FC"/>
<path d="M154.494 92.0583C154.659 92.0583 154.792 91.9249 154.792 91.7592C154.792 91.5947 154.659 91.4601 154.495 91.4601C153.512 91.4589 152.519 91.4152 151.544 91.3315C151.377 91.3147 151.235 91.4398 151.221 91.6043C151.207 91.7688 151.329 91.9142 151.493 91.9273C152.485 92.0129 153.495 92.0571 154.494 92.0577V92.0583ZM158.492 91.8364C159.484 91.7245 160.483 91.5666 161.46 91.3698C161.621 91.3375 161.726 91.1801 161.693 91.018C161.662 90.8553 161.506 90.75 161.343 90.7835C160.382 90.9773 159.401 91.1311 158.426 91.2424C158.263 91.2609 158.145 91.4087 158.163 91.5732C158.184 91.752 158.356 91.8603 158.493 91.8364H158.492ZM147.879 91.1197C147.912 90.9582 147.808 90.8003 147.646 90.7674C146.686 90.5718 145.722 90.3301 144.783 90.0507C144.623 90.0058 144.459 90.0944 144.412 90.2535C144.366 90.4114 144.455 90.5777 144.613 90.6256C145.57 90.9097 146.55 91.1544 147.528 91.3542C147.693 91.3865 147.847 91.2801 147.879 91.1203L147.879 91.1197ZM165.336 90.3504C166.286 90.0405 167.233 89.6852 168.153 89.2945C168.304 89.2305 168.375 89.054 168.311 88.9021C168.246 88.7501 168.071 88.6808 167.92 88.7436C167.017 89.1282 166.086 89.477 165.152 89.7815C164.995 89.8323 164.91 90.0016 164.961 90.1584C165.01 90.3127 165.176 90.4013 165.336 90.3504ZM141.236 89.1061C141.3 88.9541 141.23 88.7777 141.079 88.7125C140.181 88.3278 139.284 87.8971 138.416 87.4329C138.271 87.3521 138.09 87.4107 138.013 87.5555C137.935 87.7015 137.991 87.8827 138.136 87.9605C139.02 88.4337 139.931 88.8722 140.845 89.2634C141.006 89.3286 141.174 89.2503 141.236 89.1055V89.1061ZM171.744 87.5118C172.613 87.0171 173.47 86.4775 174.292 85.911C174.428 85.8176 174.462 85.6316 174.369 85.4952C174.276 85.3576 174.089 85.3229 173.954 85.418C173.147 85.975 172.304 86.505 171.45 86.992C171.307 87.0739 171.257 87.2558 171.338 87.4C171.419 87.5429 171.602 87.5932 171.744 87.5118ZM135.13 85.7919C135.223 85.6555 135.189 85.4695 135.054 85.375C134.247 84.8162 133.454 84.2144 132.699 83.5869C132.572 83.4816 132.385 83.5001 132.279 83.6269C132.174 83.7544 132.192 83.9434 132.32 84.0487C133.089 84.6864 133.895 85.2984 134.716 85.8679C134.846 85.9594 135.035 85.9301 135.13 85.7919H135.13ZM177.457 83.4469C178.207 82.7906 178.94 82.0913 179.636 81.3698C179.751 81.2508 179.747 81.0611 179.629 80.9463C179.512 80.8326 179.323 80.835 179.208 80.9529C178.523 81.663 177.803 82.3503 177.066 82.9952C176.942 83.1041 176.928 83.2931 177.037 83.4176C177.143 83.5408 177.331 83.5552 177.458 83.4469H177.457ZM129.803 81.3232C129.922 81.2095 129.925 81.0193 129.812 80.9008C129.13 80.1901 128.472 79.4418 127.856 78.6784C127.752 78.5498 127.565 78.5295 127.436 78.6335C127.309 78.7376 127.289 78.9255 127.393 79.0541C128.019 79.8312 128.689 80.5915 129.382 81.3154C129.496 81.4344 129.686 81.4374 129.803 81.3232ZM182.25 78.3255C182.856 77.5328 183.435 76.7019 183.974 75.856C184.062 75.7166 184.022 75.5317 183.883 75.4432C183.744 75.3529 183.56 75.3947 183.472 75.5347C182.943 76.3657 182.373 77.1822 181.776 77.9617C181.676 78.0933 181.701 78.2812 181.832 78.3817C181.961 78.481 182.15 78.4577 182.25 78.3261L182.25 78.3255ZM185.931 72.3498C186.368 71.4506 186.771 70.521 187.129 69.586C187.188 69.4322 187.112 69.2587 186.958 69.1995C186.804 69.1391 186.631 69.2181 186.573 69.3718C186.22 70.2901 185.824 71.2048 185.396 72.089C185.323 72.2367 185.385 72.4162 185.533 72.488C185.683 72.5609 185.86 72.4969 185.931 72.3498H185.931ZM188.346 65.7549C188.593 64.7888 188.802 63.7963 188.966 62.8051C188.993 62.6424 188.883 62.4886 188.721 62.4611C188.558 62.4366 188.404 62.5437 188.378 62.7076C188.217 63.6803 188.011 64.656 187.77 65.6066C187.729 65.7663 187.825 65.929 187.984 65.9709C188.155 66.0104 188.308 65.9075 188.347 65.7549H188.346ZM189.096 59.0919C189.254 59.0919 189.386 58.9681 189.394 58.8077C189.447 57.7333 189.45 56.7373 189.417 55.7927C189.412 55.627 189.289 55.5193 189.109 55.5043C188.944 55.5103 188.816 55.6485 188.821 55.8142C188.854 56.7582 188.85 57.7387 188.798 58.7784C188.79 58.9429 188.917 59.0835 189.081 59.0919H189.096ZM188.8 52.1291C188.963 52.1046 189.075 51.9521 189.051 51.7881C188.902 50.7927 188.709 49.7978 188.476 48.8275C188.439 48.6666 188.278 48.5733 188.117 48.6062C187.957 48.6451 187.858 48.8066 187.897 48.9675C188.125 49.9199 188.315 50.8986 188.461 51.8773C188.484 52.0322 188.625 52.1513 188.8 52.1285V52.1291Z" fill="#BECCF9"/>
<path d="M120.76 50.9583C120.933 49.9856 121.149 49.0129 121.402 48.0671C121.445 47.9074 121.351 47.7429 121.193 47.6998C121.028 47.6561 120.87 47.7524 120.827 47.911C120.569 48.8729 120.349 49.8636 120.173 50.853C120.145 51.0158 120.253 51.1713 120.415 51.2C120.56 51.2317 120.73 51.1312 120.76 50.9583H120.76ZM122.641 44.3156C123.003 43.4033 123.409 42.4934 123.85 41.6122C123.924 41.4645 123.864 41.2838 123.717 41.2102C123.571 41.1355 123.391 41.1959 123.317 41.3436C122.869 42.2404 122.455 43.1664 122.087 44.0955C122.026 44.2486 122.102 44.4227 122.254 44.4831C122.407 44.5442 122.58 44.47 122.641 44.3156ZM125.814 38.1886C126.35 37.3678 126.929 36.5572 127.537 35.7801C127.639 35.6497 127.617 35.4619 127.487 35.3596C127.358 35.2573 127.171 35.2806 127.069 35.4104C126.45 36.2013 125.861 37.0262 125.315 37.8614C125.225 37.9996 125.264 38.1844 125.402 38.2753C125.536 38.3639 125.722 38.3292 125.814 38.1886ZM130.142 32.8171C130.831 32.1172 131.56 31.4382 132.307 30.8005C132.433 30.6934 132.448 30.5044 132.341 30.3788C132.235 30.2519 132.046 30.2388 131.921 30.3447C131.161 30.9943 130.42 31.6847 129.718 32.3966C129.602 32.5144 129.604 32.7035 129.72 32.8189C129.837 32.9362 130.028 32.9338 130.142 32.8171ZM176.871 30.7993C176.956 30.7993 177.039 30.7634 177.099 30.6934C177.205 30.5678 177.19 30.3788 177.064 30.2729C176.3 29.6232 175.501 29.0022 174.688 28.4244C174.553 28.328 174.367 28.3609 174.272 28.4961C174.177 28.6307 174.209 28.8174 174.344 28.9131C175.143 29.4796 175.928 30.0916 176.678 30.7281C176.734 30.776 176.802 30.7993 176.871 30.7993H176.871ZM135.281 28.4632C135.337 28.4632 135.395 28.4465 135.446 28.4124C136.262 27.8632 137.111 27.3434 137.968 26.8678C138.112 26.7882 138.165 26.6057 138.085 26.461C138.006 26.3168 137.825 26.2636 137.68 26.3443C136.807 26.8283 135.944 27.3571 135.114 27.9159C134.977 28.0086 134.941 28.1934 135.033 28.3304C135.09 28.4172 135.185 28.4626 135.281 28.4626V28.4632ZM171.149 26.8534C171.254 26.8534 171.356 26.7978 171.411 26.6985C171.49 26.5531 171.437 26.3712 171.293 26.2923C170.413 25.8083 169.507 25.3596 168.598 24.957C168.445 24.89 168.271 24.9588 168.205 25.1102C168.138 25.2609 168.207 25.4386 168.358 25.5044C169.251 25.8998 170.142 26.3407 171.007 26.8163C171.052 26.8414 171.102 26.8534 171.15 26.8534H171.149ZM141.406 25.1826C141.443 25.1826 141.482 25.176 141.519 25.1604C141.791 25.0474 142.066 24.9385 142.341 24.8332C142.989 24.5861 143.647 24.3582 144.297 24.1542C144.454 24.1058 144.542 23.9383 144.493 23.7803C144.444 23.6218 144.28 23.5309 144.119 23.5835C143.458 23.7899 142.789 24.0226 142.13 24.2739C141.848 24.3809 141.569 24.4922 141.292 24.6071C141.139 24.6705 141.067 24.8446 141.13 24.9977C141.177 25.1138 141.288 25.1826 141.405 25.1826H141.406ZM164.758 24.1357C164.885 24.1357 165.003 24.0531 165.043 23.9251C165.091 23.7666 165.003 23.5991 164.846 23.55C163.89 23.2551 162.911 22.9978 161.939 22.7873C161.779 22.7514 161.619 22.8543 161.585 23.0164C161.55 23.1779 161.652 23.3376 161.813 23.3717C162.769 23.5793 163.73 23.8312 164.67 24.1225C164.699 24.1315 164.729 24.1351 164.758 24.1351V24.1357ZM148.062 23.2018C148.08 23.2018 148.099 23.2 148.118 23.1971C149.077 23.0152 150.061 22.8716 151.042 22.7723C151.206 22.7556 151.325 22.609 151.308 22.4439C151.292 22.2794 151.147 22.1645 150.982 22.1759C149.984 22.2782 148.983 22.4229 148.008 22.6084C147.846 22.6395 147.739 22.7956 147.77 22.9578C147.797 23.1019 147.922 23.2012 148.063 23.2012L148.062 23.2018ZM157.954 22.7627C158.106 22.7627 158.235 22.6479 158.25 22.4929C158.266 22.3284 158.147 22.1825 157.983 22.1657C156.992 22.0682 155.982 22.0126 154.984 22H154.979C154.817 22 154.684 22.1316 154.681 22.2949C154.679 22.4606 154.811 22.5958 154.975 22.5976C155.957 22.6102 156.949 22.6646 157.924 22.7609C157.933 22.7621 157.943 22.7621 157.954 22.7621L157.954 22.7627Z" fill="#BECCF9"/>
<path d="M122.425 52.4021L120.086 53.5961C119.993 53.644 119.879 53.6231 119.807 53.5459L118.027 51.6064C117.603 51.1446 116.849 51.5747 117.026 52.1771L118.665 57.7179C118.803 58.1845 119.411 58.2946 119.703 57.9058L123.165 53.2875C123.542 52.7855 122.983 52.1173 122.425 52.4021Z" fill="#BECCF9"/>
<path d="M186.226 50.6486L188.115 48.8198C188.19 48.7468 188.305 48.7324 188.396 48.7857L190.664 50.1167C191.204 50.4338 191.8 49.8003 191.455 49.2768L188.271 44.4605C188.003 44.0549 187.389 44.1285 187.223 44.5861L185.261 50.0192C185.047 50.6103 185.776 51.0847 186.227 50.648L186.226 50.6486Z" fill="#BECCF9"/>
<path fill-rule="evenodd" clip-rule="evenodd" d="M170.667 43.7413L145.629 65.3977L132.666 49.5749L170.667 43.7413Z" fill="#335EEA"/>
<path fill-rule="evenodd" clip-rule="evenodd" d="M170.376 43.4917L145.271 65.0666L158.234 80.8894L170.376 43.4917Z" fill="#BECCF9"/>
</g>
<path d="M78.0195 52.3194C78.0506 51.9173 78.1807 50.231 79.6221 49.4199C81.2717 48.4916 83.7709 49.198 85.0215 50.6043C85.7834 51.4612 86.3628 52.8939 85.7313 54.1103C84.6576 56.1787 80.609 56.6082 78.923 55.1052C77.8765 54.1723 77.9889 52.7165 78.0195 52.3194Z" fill="white"/>
<path d="M207.029 32.2162C207.076 31.5844 207.271 28.9344 209.433 27.6598C211.907 26.2011 215.656 27.3111 217.532 29.5211C218.675 30.8676 219.544 33.1189 218.597 35.0304C216.986 38.2808 210.913 38.9558 208.384 36.5939C206.815 35.1279 206.983 32.8402 207.029 32.2162Z" fill="#ECF3FE"/>
</g>
<defs>
<clipPath id="clip0_781_24196">
<rect width="96.153" height="166" fill="white" transform="matrix(-1 0 0 1 202.077 8)"/>
</clipPath>
</defs>
</svg>
