<svg width="15" height="15" viewBox="0 0 15 15" fill="none" xmlns="http://www.w3.org/2000/svg">
<path d="M7.5 5.64062C7.58333 5.64062 7.66417 5.65625 7.7425 5.6875C7.82083 5.71875 7.88583 5.76042 7.9375 5.8125L10.8125 8.6875C10.9271 8.80208 10.9844 8.94792 10.9844 9.125C10.9844 9.30208 10.9271 9.44792 10.8125 9.5625C10.6979 9.67708 10.5521 9.73437 10.375 9.73437C10.1979 9.73437 10.0521 9.67708 9.9375 9.5625L7.5 7.125L5.0625 9.5625C4.94792 9.67708 4.80208 9.73437 4.625 9.73437C4.44792 9.73437 4.30208 9.67708 4.1875 9.5625C4.07292 9.44792 4.01562 9.30208 4.01562 9.125C4.01562 8.94792 4.07292 8.80208 4.1875 8.6875L7.0625 5.8125C7.125 5.75 7.19271 5.70562 7.26563 5.67937C7.33854 5.65312 7.41667 5.64021 7.5 5.64062Z" fill="#6D7175"/>
</svg>