<svg width="252" height="106" viewBox="0 0 252 106" fill="none" xmlns="http://www.w3.org/2000/svg">
<mask id="mask0_781_24126" style="mask-type:alpha" maskUnits="userSpaceOnUse" x="0" y="0" width="252" height="106">
<rect x="0.5" y="0.5" width="251" height="105" rx="3.5" fill="white" stroke="#E4E4E4"/>
</mask>
<g mask="url(#mask0_781_24126)">
<path d="M48.2864 70.4299C48.7516 63.5944 50.704 34.9264 72.3251 21.1377C97.0684 5.3578 134.557 17.3652 153.315 41.2732C164.745 55.8403 173.435 80.1959 163.963 100.875C147.857 136.038 87.1283 143.34 61.8381 117.789C46.1408 101.929 47.8263 77.1808 48.2864 70.4299Z" fill="#ECF3FE"/>
<path d="M59.0195 67.3194C59.0506 66.9173 59.1807 65.231 60.6221 64.4199C62.2717 63.4916 64.7709 64.198 66.0215 65.6043C66.7834 66.4612 67.3628 67.8939 66.7313 69.1103C65.6576 71.1787 61.609 71.6082 59.923 70.1052C58.8765 69.1723 58.9889 67.7165 59.0195 67.3194Z" fill="white"/>
<path d="M205.029 39.2162C205.076 38.5844 205.271 35.9344 207.433 34.6598C209.907 33.2011 213.656 34.3111 215.532 36.5211C216.675 37.8676 217.544 40.1189 216.597 42.0304C214.986 45.2808 208.913 45.9558 206.384 43.5939C204.815 42.1279 204.983 39.8402 205.029 39.2162Z" fill="#ECF3FE"/>
<path d="M152.335 158.447L78.873 133.327C77.4425 132.838 76.7542 131.11 77.3424 129.487L117.138 19.7546C117.726 18.1314 119.378 17.204 120.808 17.6927L194.27 42.8136C195.701 43.3023 196.389 45.0309 195.801 46.6533L156.005 156.385C155.417 158.008 153.765 158.936 152.335 158.447Z" fill="#3858E9"/>
<path d="M167.145 58.6282L129.64 45.8249C128.528 45.4454 127.992 44.1032 128.45 42.843C128.907 41.5828 130.193 40.862 131.305 41.2421L168.81 54.0455C169.923 54.4249 170.459 55.7671 170 57.0273C169.543 58.2875 168.258 59.0084 167.145 58.6282Z" fill="#B3CEF6"/>
<path opacity="0.4" d="M173.899 74.6716L114.723 54.4048C113.609 54.0235 113.072 52.6747 113.531 51.4083C113.989 50.1418 115.276 49.4175 116.391 49.7995L175.566 70.0663C176.68 70.4476 177.217 71.7964 176.758 73.0629C176.3 74.3293 175.013 75.0537 173.899 74.6716Z" fill="#DFE5FB"/>
<path opacity="0.4" d="M170.665 84.4138L111.49 64.147C110.375 63.7657 109.838 62.4169 110.297 61.1505C110.756 59.884 112.043 59.1596 113.157 59.5417L172.333 79.8085C173.447 80.1898 173.984 81.5386 173.525 82.805C173.067 84.0715 171.779 84.7959 170.665 84.4138Z" fill="#DFE5FB"/>
<path opacity="0.4" d="M167.433 94.156L108.258 73.8892C107.143 73.5079 106.606 72.1591 107.065 70.8926C107.524 69.6262 108.811 68.9018 109.925 69.2839L169.101 89.5507C170.215 89.932 170.752 91.2808 170.293 92.5472C169.835 93.8137 168.547 94.538 167.433 94.156Z" fill="#DFE5FB"/>
<path opacity="0.4" d="M164.201 103.896L105.026 83.6294C103.911 83.2481 103.375 81.8993 103.833 80.6329C104.292 79.3664 105.579 78.6421 106.693 79.0241L165.869 99.2909C166.983 99.6722 167.52 101.021 167.061 102.287C166.603 103.554 165.316 104.278 164.201 103.896Z" fill="#DFE5FB"/>
<path d="M160.969 113.638L101.794 93.3716C100.679 92.9903 100.143 91.6415 100.602 90.3751C101.06 89.1086 102.347 88.3842 103.461 88.7663L162.637 109.033C163.751 109.414 164.288 110.763 163.829 112.03C163.371 113.296 162.084 114.02 160.969 113.638Z" fill="#B3CEF6"/>
<path d="M157.737 123.379L98.5619 103.112C97.4476 102.731 96.9107 101.382 97.3696 100.115C97.8279 98.8489 99.1152 98.1245 100.229 98.5065L159.405 118.773C160.519 119.155 161.056 120.503 160.597 121.77C160.139 123.036 158.852 123.761 157.737 123.379Z" fill="#B3CEF6"/>
<g style="mix-blend-mode:multiply" opacity="0.25">
<path d="M159.942 22.1096L97.2535 13.524C94.7982 13.1879 92.3631 15.1395 91.8151 17.8844L69.8737 127.738C69.3258 130.482 70.8714 132.98 73.3272 133.316L149.557 143.756C152.012 144.092 154.447 142.14 154.995 139.395L173.914 44.6768L159.943 22.1096L159.942 22.1096Z" fill="#3A7EC1"/>
</g>
<path d="M157.352 19.9175L94.6631 11.3326C92.2079 10.9965 89.7728 12.9481 89.2248 15.6929L67.2834 125.546C66.7355 128.29 68.2811 130.788 70.737 131.124L146.967 141.564C149.422 141.9 151.857 139.948 152.405 137.203L171.324 42.4847L157.352 19.9175Z" fill="white"/>
<path d="M157.792 60.8642L89.97 51.0099C88.8637 50.8489 88.161 49.6442 88.4081 48.333C88.6553 47.021 89.7623 46.0797 90.868 46.2406L158.69 56.095C159.796 56.256 160.499 57.4607 160.252 58.7719C160.005 60.0838 158.898 61.0252 157.792 60.8642Z" fill="#E4ECF9"/>
<path d="M156.22 71.2939L88.3983 61.4396C87.2919 61.2786 86.5892 60.0738 86.8363 58.7627C87.0835 57.4507 88.1906 56.5094 89.2962 56.6703L157.118 66.5247C158.225 66.6856 158.927 67.8904 158.68 69.2016C158.433 70.5135 157.326 71.4549 156.22 71.2939Z" fill="#E4ECF9"/>
<path d="M154.647 81.7236L86.825 71.8693C85.7187 71.7083 85.016 70.5035 85.2631 69.1924C85.5102 67.8804 86.6173 66.9391 87.723 67.1L155.545 76.9544C156.651 77.1153 157.354 78.3201 157.107 79.6313C156.86 80.9432 155.753 81.8846 154.647 81.7236Z" fill="#E4ECF9"/>
<path d="M153.074 92.1533L85.2518 82.2989C84.1454 82.138 83.4427 80.9332 83.6898 79.6221C83.937 78.3101 85.0441 77.3687 86.1498 77.5297L153.972 87.384C155.078 87.545 155.781 88.7498 155.534 90.0609C155.287 91.3729 154.179 92.3143 153.074 92.1533Z" fill="#E4ECF9"/>
<path d="M151.502 102.581L83.6795 92.7267C82.5732 92.5657 81.8705 91.361 82.1176 90.0498C82.3647 88.7378 83.4718 87.7965 84.5775 87.9574L152.4 97.8118C153.506 97.9728 154.209 99.1775 153.961 100.489C153.714 101.801 152.607 102.742 151.502 102.581Z" fill="#E4ECF9"/>
<path d="M149.93 113.011L82.1077 103.156C81.0014 102.995 80.2987 101.791 80.5458 100.479C80.7929 99.1675 81.9 98.2262 83.0057 98.3871L150.828 108.241C151.934 108.402 152.637 109.607 152.39 110.918C152.143 112.23 151.035 113.172 149.93 113.011Z" fill="#E4ECF9"/>
<path d="M153.956 37.075C153.446 39.8136 155.08 42.3151 157.606 42.6613L171.539 44.5719L156.769 21.9708L153.955 37.075L153.956 37.075Z" fill="#EDEDED"/>
</g>
</svg>
