<svg width="252" height="106" viewBox="0 0 252 106" fill="none" xmlns="http://www.w3.org/2000/svg">
<mask id="mask0_781_17909" style="mask-type:alpha" maskUnits="userSpaceOnUse" x="0" y="0" width="252" height="106">
<rect x="0.5" y="0.5" width="251" height="105" rx="3.5" fill="white" stroke="#E4E4E4"/>
</mask>
<g mask="url(#mask0_781_17909)">
<path d="M48.2859 70.4299C48.7511 63.5944 50.7035 34.9264 72.3247 21.1377C97.068 5.3578 134.557 17.3652 153.315 41.2732C164.744 55.8403 173.434 80.1959 163.963 100.875C147.857 136.038 87.1278 143.34 61.8376 117.789C46.1403 101.929 47.8258 77.1808 48.2859 70.4299Z" fill="#ECF3FE"/>
<g clip-path="url(#clip0_781_17909)">
<path d="M86.8172 27.5H185.183C186.877 27.5 188.445 28.3961 189.606 29.913C190.767 31.4304 191.5 33.5483 191.5 35.9082V120.092C191.5 122.452 190.767 124.57 189.606 126.087C188.445 127.604 186.877 128.5 185.183 128.5H86.8172C85.123 128.5 83.5547 127.604 82.3938 126.087C81.2326 124.57 80.5 122.452 80.5 120.092V35.9082C80.5 33.5483 81.2326 31.4304 82.3938 29.913C83.5547 28.3961 85.123 27.5 86.8172 27.5Z" fill="white" stroke="#ECF3FE"/>
<path d="M176.039 53.4424H96.6279" stroke="#E2E2E2" stroke-miterlimit="10"/>
<path d="M176.039 62.8086H96.6279" stroke="#E2E2E2" stroke-miterlimit="10"/>
<path d="M176.039 72.1797H96.6279" stroke="#E2E2E2" stroke-miterlimit="10"/>
<path d="M176.039 81.5459H96.6279" stroke="#E2E2E2" stroke-miterlimit="10"/>
<path d="M176.039 90.9111H96.6279" stroke="#E2E2E2" stroke-miterlimit="10"/>
<path d="M185.623 27H87.0478C83.2721 27 80.2109 30.0704 80.2109 33.8527V43.5385H192.455V33.8527C192.455 30.0655 189.394 27 185.623 27Z" fill="#6E74F8"/>
<path d="M181.051 37.9154C182.507 37.9154 183.688 36.7315 183.688 35.2712C183.688 33.8108 182.507 32.627 181.051 32.627C179.595 32.627 178.415 33.8108 178.415 35.2712C178.415 36.7315 179.595 37.9154 181.051 37.9154Z" stroke="white" stroke-miterlimit="10"/>
<path d="M168.947 37.9154C170.403 37.9154 171.583 36.7315 171.583 35.2712C171.583 33.8108 170.403 32.627 168.947 32.627C167.491 32.627 166.311 33.8108 166.311 35.2712C166.311 36.7315 167.491 37.9154 168.947 37.9154Z" stroke="white" stroke-miterlimit="10"/>
<path d="M188.747 106.816L186.608 104.113L156.296 65.8062L155.929 65.3413C155.634 64.9732 155.282 64.6536 154.881 64.4066L146.538 59.2683C146.364 59.1618 146.152 59.3313 146.214 59.525L149.309 68.8427C149.459 69.2931 149.686 69.7096 149.976 70.0825L150.343 70.5474L180.655 108.855L182.794 111.557C184.097 113.208 186.492 113.484 188.134 112.172C189.78 110.864 190.056 108.462 188.747 106.816Z" fill="#E0E0E0"/>
<path d="M146.248 59.568L150.381 68.4692C150.579 68.8954 150.854 69.2876 151.187 69.6218L156.305 74.7553L161.679 69.3651L156.561 64.2317C156.228 63.8975 155.837 63.6263 155.412 63.4229L146.538 59.2774C146.354 59.1902 146.161 59.3839 146.248 59.568Z" fill="#6E74F8"/>
<path d="M152.96 66.009C151.478 67.4958 150.869 69.3022 151.603 70.0383L186.078 104.617L191.451 99.2264L156.977 64.6482C156.243 63.912 154.442 64.5222 152.96 66.009Z" fill="#6E74F8"/>
<path d="M152.819 67.9609L185.507 100.747" stroke="white" stroke-miterlimit="10"/>
<path d="M154.905 65.8643L187.593 98.6506" stroke="white" stroke-miterlimit="10"/>
<path d="M187.439 100.588C185.956 102.075 185.348 103.881 186.082 104.617L188.51 107.053C189.993 108.54 192.402 108.54 193.884 107.053C195.367 105.567 195.367 103.15 193.884 101.663L191.456 99.2273C190.722 98.4911 188.921 99.1013 187.439 100.588Z" fill="white"/>
</g>
<path d="M59.0191 67.3194C59.0501 66.9173 59.1802 65.231 60.6216 64.4199C62.2712 63.4916 64.7704 64.198 66.021 65.6043C66.7829 66.4612 67.3623 67.8939 66.7309 69.1103C65.6571 71.1787 61.6085 71.6082 59.9225 70.1052C58.876 69.1723 58.9884 67.7165 59.0191 67.3194Z" fill="white"/>
<path d="M205.029 39.2162C205.075 38.5844 205.27 35.9344 207.432 34.6598C209.907 33.2011 213.656 34.3111 215.531 36.5211C216.674 37.8676 217.543 40.1189 216.596 42.0304C214.986 45.2808 208.913 45.9558 206.384 43.5939C204.814 42.1279 204.983 39.8402 205.029 39.2162Z" fill="#ECF3FE"/>
</g>
<defs>
<clipPath id="clip0_781_17909">
<rect width="117" height="86" fill="white" transform="translate(78 27)"/>
</clipPath>
</defs>
</svg>
