<svg width="243" height="66" viewBox="0 0 243 66" fill="none" xmlns="http://www.w3.org/2000/svg">
<g clip-path="url(#clip0_781_17846)">
<path d="M218.51 6.28711H13.96C6.2501 6.28711 0 12.5344 0 20.2408V52.0563C0 59.7627 6.2501 66.01 13.96 66.01H218.51C226.22 66.01 232.47 59.7627 232.47 52.0563V20.2408C232.47 12.5344 226.22 6.28711 218.51 6.28711Z" fill="#F5F5F5"/>
<path d="M223.09 0H18.5401C10.8302 0 4.58008 6.24727 4.58008 13.9537V45.7692C4.58008 53.4756 10.8302 59.7229 18.5401 59.7229H223.09C230.8 59.7229 237.05 53.4756 237.05 45.7692V13.9537C237.05 6.24727 230.8 0 223.09 0Z" fill="white"/>
<path d="M40.6896 12.8438L45.9596 23.5089L57.7397 25.2281L49.2197 33.5343L51.2296 45.259L40.6896 39.7215L30.1496 45.259L32.1596 33.5343L23.6396 25.2281L35.4196 23.5089L40.6896 12.8438Z" fill="#FFB840"/>
<path d="M80.7502 12.8438L86.0202 23.5089L97.8102 25.2281L89.2802 33.5343L91.2902 45.259L80.7502 39.7215L70.2202 45.259L72.2302 33.5343L63.7002 25.2281L75.4902 23.5089L80.7502 12.8438Z" fill="#FFB840"/>
<path d="M120.82 12.8438L126.09 23.5089L137.87 25.2281L129.34 33.5343L131.36 45.259L120.82 39.7215L110.28 45.259L112.29 33.5343L103.77 25.2281L115.55 23.5089L120.82 12.8438Z" fill="#FFB840"/>
<path d="M160.88 12.8438L166.15 23.5089L177.93 25.2281L169.41 33.5343L171.42 45.259L160.88 39.7215L150.34 45.259L152.36 33.5343L143.83 25.2281L155.61 23.5089L160.88 12.8438Z" fill="#FFB840"/>
<path d="M200.95 12.8438L206.22 23.5089L218 25.2281L209.47 33.5343L211.49 45.259L200.95 39.7215L190.41 45.259L192.42 33.5343L183.89 25.2281L195.68 23.5089L200.95 12.8438Z" fill="#FFB840"/>
</g>
<path d="M242.559 10.0425C236.839 11.2351 235.231 12.8355 234.044 18.5511C233.921 19.1381 233.079 19.1381 232.956 18.5511C231.762 12.8355 230.161 11.2289 224.441 10.0425C223.853 9.91895 223.853 9.0786 224.441 8.95502C230.161 7.76245 231.762 6.16208 232.956 0.440259C233.079 -0.146753 233.921 -0.146753 234.044 0.440259C235.238 6.1559 236.839 7.76245 242.559 8.94884C243.147 9.07242 243.147 9.91277 242.559 10.0364V10.0425Z" fill="#F5F5F5"/>
<defs>
<clipPath id="clip0_781_17846">
<rect width="237.05" height="66" fill="white"/>
</clipPath>
</defs>
</svg>
