<svg width="252" height="106" viewBox="0 0 252 106" fill="none" xmlns="http://www.w3.org/2000/svg">
<mask id="mask0_781_18284" style="mask-type:alpha" maskUnits="userSpaceOnUse" x="0" y="0" width="252" height="106">
<rect x="0.5" y="0.5" width="251" height="105" rx="3.5" fill="white" stroke="#E4E4E4"/>
</mask>
<g mask="url(#mask0_781_18284)">
<path d="M113.286 69.4299C113.751 62.5944 115.704 33.9264 137.325 20.1377C162.068 4.3578 199.557 16.3652 218.315 40.2732C229.744 54.8403 238.434 79.1959 228.963 99.8748C212.857 135.038 152.128 142.34 126.838 116.789C111.14 100.929 112.826 76.1808 113.286 69.4299Z" fill="#ECF3FE"/>
<path fill-rule="evenodd" clip-rule="evenodd" d="M198.204 41.5437L155.984 78.0618L134.124 51.3807L198.204 41.5437Z" fill="#335EEA"/>
<path fill-rule="evenodd" clip-rule="evenodd" d="M197.71 41.1226L155.377 77.5033L177.237 104.184L197.71 41.1226Z" fill="#BECCF9"/>
<path d="M124.019 66.3194C124.05 65.9173 124.18 64.231 125.622 63.4199C127.271 62.4916 129.77 63.198 131.021 64.6043C131.783 65.4612 132.362 66.8939 131.731 68.1103C130.657 70.1787 126.609 70.6082 124.923 69.1052C123.876 68.1723 123.988 66.7165 124.019 66.3194Z" fill="white"/>
<g clip-path="url(#clip0_781_18284)">
<path d="M189.042 112.916L204.008 106.877C204.499 106.68 204.746 106.126 204.568 105.627L204.358 105.044C204.325 104.953 204.344 104.851 204.403 104.774C207.409 100.836 205.355 95.5919 205.355 95.5919L202.34 87.8819C202.335 87.8664 202.334 87.8595 202.328 87.8458C202.272 87.5809 201.428 83.9108 198.692 83.9108C197.111 83.9108 196.238 84.6005 195.776 85.2127C195.623 85.4157 195.31 85.3641 195.251 85.1181C195.062 84.327 194.438 83.3261 192.524 83.1094C190.398 82.8686 189.551 84.0622 189.217 84.9272C189.128 85.1594 188.8 85.1766 188.692 84.953C188.004 83.5273 186.54 81.8728 184.689 82.4902C183.419 82.9133 182.836 83.732 182.57 84.3528C182.465 84.597 182.125 84.5988 182.029 84.3528L178.952 76.4416C178.952 76.4416 177.473 71.688 174.388 72.861C171.303 74.0339 172.968 78.1081 172.968 78.1081L180.071 96.8869C180.169 97.1466 179.884 97.3839 179.647 97.2395L176.258 95.1894C176.244 95.1791 176.237 95.174 176.223 95.1654C175.977 94.9504 172.393 91.8994 170.129 94.2831C167.874 96.6582 170.356 99.262 170.55 99.4563C170.562 99.4666 170.569 99.4718 170.581 99.4821L187.403 111.708C187.434 111.746 187.464 111.782 187.495 111.82L187.777 112.422C187.999 112.897 188.554 113.115 189.04 112.919L189.042 112.916Z" fill="white"/>
<path d="M169.368 66.0437C169.671 66.8297 170.418 67.3095 171.211 67.3095C171.446 67.3095 171.687 67.2665 171.919 67.1771C172.936 66.785 173.443 65.6413 173.051 64.6232L170.989 59.2659C170.597 58.2478 169.454 57.7404 168.437 58.1325C167.419 58.5247 166.912 59.6684 167.304 60.6865L169.367 66.0437H169.368Z" fill="white"/>
<path d="M160.431 69.3404L165.675 71.6707C165.934 71.7859 166.208 71.841 166.476 71.841C167.232 71.841 167.954 71.4024 168.28 70.6663C168.722 69.6688 168.273 68.5011 167.277 68.0591L162.033 65.7287C161.038 65.285 159.871 65.7339 159.428 66.7331C158.986 67.7306 159.435 68.8984 160.431 69.3404Z" fill="white"/>
<path d="M188.184 77.2964L182.938 74.966C181.943 74.5223 180.775 74.9712 180.333 75.9704C179.891 76.9679 180.34 78.1357 181.337 78.5777L186.582 80.908C186.841 81.0232 187.115 81.0783 187.381 81.0783C188.137 81.0783 188.859 80.6397 189.185 79.9036C189.627 78.9061 189.179 77.7384 188.182 77.2964H188.184Z" fill="white"/>
<path d="M168.172 75.7073C167.78 74.6892 166.637 74.1818 165.62 74.574L160.265 76.6377C159.248 77.0299 158.741 78.1718 159.132 79.1917C159.435 79.9759 160.183 80.4575 160.975 80.4575C161.21 80.4575 161.451 80.4145 161.683 80.325L167.038 78.2613C168.055 77.8691 168.562 76.7272 168.17 75.7073H168.172Z" fill="white"/>
<path d="M180.443 70.9283C180.745 71.7125 181.493 72.1941 182.285 72.1941C182.521 72.1941 182.761 72.1511 182.993 72.0617L188.348 69.9979C189.366 69.6057 189.873 68.4638 189.481 67.4439C189.089 66.4258 187.948 65.9202 186.929 66.3106L181.574 68.3743C180.556 68.7665 180.049 69.9084 180.441 70.9283H180.443Z" fill="white"/>
<path d="M170.333 87.2045L172.661 81.9573C173.103 80.9598 172.655 79.792 171.658 79.3501C170.663 78.9081 169.496 79.3552 169.052 80.3544L166.724 85.6016C166.282 86.5991 166.731 87.7669 167.727 88.2089C167.987 88.3241 168.26 88.3791 168.526 88.3791C169.283 88.3791 170.004 87.9406 170.331 87.2045H170.333Z" fill="white"/>
<path d="M176.958 67.2872C177.217 67.4025 177.49 67.4575 177.757 67.4575C178.513 67.4575 179.235 67.0189 179.561 66.2829L181.89 61.034C182.332 60.0365 181.883 58.8687 180.886 58.4267C179.889 57.983 178.723 58.4336 178.281 59.4311L175.952 64.68C175.511 65.6775 175.959 66.8452 176.956 67.2872H176.958Z" fill="white"/>
</g>
</g>
<defs>
<clipPath id="clip0_781_18284">
<rect width="51.0847" height="66" fill="white" transform="translate(159 58)"/>
</clipPath>
</defs>
</svg>
