<svg width="426" height="169" viewBox="0 0 426 169" fill="none" xmlns="http://www.w3.org/2000/svg">
<mask id="mask0_798_21285" style="mask-type:alpha" maskUnits="userSpaceOnUse" x="0" y="0" width="390" height="169">
<rect x="0.5" y="0.5" width="389" height="167.917" rx="3.5" fill="white" stroke="#E4E4E4"/>
</mask>
<g mask="url(#mask0_798_21285)">
<path d="M109.578 111.261C110.519 97.4205 114.466 39.3724 158.179 11.4527C208.204 -20.499 283.997 3.81407 321.921 52.2237C345.029 81.7197 362.598 131.036 343.449 172.907C310.887 244.106 188.107 258.892 136.976 207.155C105.24 175.042 108.648 124.931 109.578 111.261Z" fill="#ECF3FE"/>
<path d="M15.578 158.261C16.5185 144.421 20.4659 86.3724 64.1787 58.4527C114.204 26.501 189.997 50.8141 227.921 99.2237C251.029 128.72 268.598 178.036 249.449 219.907C216.887 291.106 94.1071 305.892 42.9764 254.155C11.2402 222.042 14.6479 171.931 15.578 158.261Z" fill="#ECF3FE"/>
<path d="M383.655 114.964L342.708 285.448C341.392 290.956 336.471 294.833 330.809 294.833H234.714C226.776 294.833 220.937 287.394 222.828 279.68L264.694 109.196C266.037 103.729 270.945 99.8789 276.579 99.8789H371.756C379.68 99.8789 385.506 107.278 383.655 114.964Z" fill="#ECF3FE"/>
<path d="M373.072 114.964L332.126 285.448C330.81 290.956 325.888 294.833 320.227 294.833H224.131C216.194 294.833 210.354 287.394 212.246 279.68L254.111 109.196C255.455 103.729 260.362 99.8789 265.996 99.8789H361.174C369.097 99.8789 374.923 107.278 373.072 114.964Z" fill="#ECF3FE"/>
<path d="M181.251 141.256C181.251 141.256 171.203 191.649 172.217 203.309C173.231 214.968 194.054 226.587 194.054 226.587L208.544 223.491C208.544 223.491 201.827 203.446 196.303 197.677L205.515 153.409L181.251 141.242V141.256Z" fill="white"/>
<path d="M206.419 156.464C204.815 156.916 203.211 157.122 201.621 157.135C201.251 157.135 200.88 157.135 200.51 157.108C194.369 156.779 188.461 153.587 183.855 150.216C183.567 150.011 183.279 149.805 183.005 149.586C178.029 145.804 174.78 142.009 174.78 142.009C175.301 140.886 175.835 139.68 176.356 138.406C176.493 138.077 176.617 137.762 176.754 137.419C179.221 131.213 181.593 123.595 183.553 116.648C183.677 116.224 183.786 115.799 183.91 115.374C186.761 105.153 188.68 96.6582 188.68 96.6582L206.419 156.464Z" fill="#BECCF9"/>
<path d="M190.298 127.213C190.01 124.089 188.2 121.39 186.514 118.828L186.487 118.787C186.487 118.787 186.473 118.746 186.46 118.732C185.664 117.636 184.828 116.485 183.91 115.375C183.786 115.8 183.677 116.224 183.553 116.649C184.28 117.567 184.952 118.499 185.568 119.348C188.296 123.5 190.832 128.145 187.926 132.967C185.706 136.667 180.894 138.188 176.754 137.42C176.617 137.763 176.494 138.078 176.356 138.407C180.236 139.188 184.444 138.215 187.351 135.406C189.489 133.324 190.572 130.172 190.298 127.213Z" fill="#9F9FFB"/>
<path d="M194.095 146.106C189.764 144.352 185.733 146.353 183.005 149.586C183.28 149.805 183.567 150.011 183.855 150.217C185.843 147.709 188.626 146.051 192.121 146.654C197.344 147.558 199.497 152.285 200.511 157.108C200.881 157.136 201.251 157.136 201.621 157.136C200.703 152.477 198.77 147.997 194.095 146.106Z" fill="white"/>
<path d="M298.292 217.874C298.292 217.874 298.265 217.942 298.251 217.969C298.101 218.298 297.84 218.655 297.456 218.983C294.358 221.806 283.816 224.752 271.054 226.916C270.56 226.999 270.067 227.081 269.56 227.163C264.844 227.93 259.854 228.574 254.851 229.081C254.439 229.122 254.028 229.163 253.631 229.204C231.642 231.273 209.695 230.259 209.12 222.326C209.051 221.408 208.982 220.504 208.928 219.586C208.9 219.12 208.859 218.641 208.818 218.161C208.612 215.216 208.379 212.119 208.146 208.557C208.119 208.077 208.091 207.611 208.05 207.118C207.749 202.446 207.406 196.952 207.008 189.978C206.981 189.471 206.954 188.95 206.926 188.43C206.844 187.032 206.775 185.58 206.693 184.059C206.638 183.073 206.584 182.1 206.529 181.113C206.501 180.689 206.488 180.264 206.446 179.839C206.419 179.305 206.392 178.77 206.35 178.236C206.159 175.112 205.939 172.016 205.665 168.988C205.624 168.453 205.583 167.933 205.528 167.412C204.801 159.561 203.76 152.354 202.073 146.901C202.005 146.668 201.923 146.436 201.854 146.203C201.786 145.97 201.703 145.723 201.621 145.49C200.36 141.667 199.085 138.078 197.838 134.694C197.605 134.05 197.371 133.419 197.138 132.803C193.561 123.157 190.367 115.279 188.763 108.812C188.653 108.346 188.543 107.88 188.434 107.428C187.789 104.524 187.515 101.92 187.707 99.5774C187.707 99.5637 187.707 99.5363 187.707 99.5226C187.748 99.0842 187.858 98.632 188.022 98.1525C188.886 95.7274 191.312 93.0145 194.273 90.4113C194.575 90.1373 194.89 89.8769 195.219 89.6029C202.032 83.8621 210.998 78.8338 210.998 78.8338L234.549 67.9824C234.549 67.9824 243.98 68.462 253.494 70.0787C253.905 70.1472 254.316 70.2157 254.727 70.2979C258.812 71.0378 262.829 71.9832 266.05 73.2026C266.448 73.3396 266.832 73.504 267.202 73.6684C267.819 73.9287 268.395 74.2028 268.929 74.4905C276.565 78.5598 280.43 95.4122 283.268 112.731C283.405 113.539 283.529 114.334 283.666 115.142C284.817 122.39 285.804 129.624 286.846 135.954C286.928 136.502 287.024 137.023 287.106 137.557C287.71 141.106 288.34 144.339 289.026 147.052C289.807 150.149 290.725 153.629 291.685 157.355C291.822 157.89 291.959 158.424 292.096 158.972C295.208 171.057 298.704 185.47 299.8 197.856C299.855 198.569 299.91 199.267 299.965 199.966C300.431 206.981 300.061 213.229 298.306 217.901L298.292 217.874Z" fill="#BECCF9"/>
<path d="M194.26 90.356C198.276 94.1101 203.294 96.6448 208.667 97.8643C219.209 100.235 230.299 97.6587 238.908 91.2192C246.05 85.8757 251.355 78.4496 254.714 70.2563C254.302 70.1878 253.891 70.1056 253.48 70.0371C252.054 73.4761 250.272 76.7781 248.147 79.8472C242.129 88.4926 233.178 95.1925 222.663 97.0011C212.972 98.6726 202.498 96.2886 195.206 89.5613C194.89 89.8216 194.575 90.0957 194.26 90.3697V90.356Z" fill="white"/>
<path d="M259.018 121.937C258.73 118.813 256.921 116.114 255.235 113.552L255.207 113.497C255.207 113.497 255.18 113.469 255.166 113.456C251.547 108.4 246.64 102.234 239.607 103.235C232.986 104.18 230.765 111.469 231.78 117.224C232.808 123.074 236.194 129.048 241.567 131.898C246.173 134.336 252.246 133.829 256.057 130.13C258.196 128.061 259.279 124.896 259.004 121.937H259.018ZM256.647 127.691C254.124 131.884 248.271 133.281 243.829 131.719C238.689 129.911 235.207 124.992 233.589 119.991C231.889 114.757 232.026 107.002 238.181 104.714C245.2 102.097 250.779 109.181 254.289 114.086C257.017 118.237 259.553 122.882 256.647 127.705V127.691Z" fill="white"/>
<path d="M201.594 145.462C201.676 145.695 201.758 145.942 201.827 146.174C201.895 146.407 201.978 146.627 202.046 146.873C205.336 142.598 208.777 138.447 212.355 134.405C214.754 131.692 217.167 128.87 219.826 126.404C221.197 125.129 224.158 123.554 225.268 126.075C225.94 127.596 225.268 129.829 225.021 131.405C223.952 137.735 221.896 143.886 218.921 149.572C215.453 156.231 210.82 162.15 205.487 167.384C205.542 167.905 205.583 168.439 205.624 168.96C207.941 166.754 210.134 164.411 212.163 161.931C216.371 156.793 219.881 151.107 222.403 144.955C223.76 141.653 224.829 138.255 225.597 134.775C226.05 132.747 226.433 130.665 226.639 128.596C226.762 127.418 226.804 126.143 226.173 125.088C224.665 122.567 221.334 123.499 219.483 125.02C216.317 127.664 213.575 131.089 210.861 134.186C207.639 137.844 204.541 141.598 201.566 145.435L201.594 145.462Z" fill="white"/>
<path d="M206.419 179.824C206.446 180.249 206.474 180.674 206.501 181.098C209.915 179.482 213.177 177.564 216.289 175.44C225.021 169.494 232.492 161.958 239.977 154.559C243.815 150.764 247.681 146.982 251.739 143.406C255.632 139.995 259.786 136.611 264.625 134.638C272.247 131.541 280.389 133.281 287.079 137.487C286.983 136.967 286.901 136.433 286.819 135.884C279.992 131.897 271.863 130.39 264.268 133.446C259.745 135.268 255.824 138.255 252.15 141.406C247.9 145.037 243.884 148.942 239.908 152.874C229.97 162.684 219.154 173.549 206.405 179.797L206.419 179.824Z" fill="white"/>
<path d="M270.067 180.825C274.604 183.442 279.69 184.908 284.365 187.265C288.532 189.375 292.357 192.102 295.729 195.335C297.237 196.787 298.663 198.322 299.965 199.939C299.91 199.24 299.855 198.541 299.8 197.829C298.992 196.897 298.142 195.979 297.264 195.102C294.386 192.239 291.15 189.731 287.655 187.662C283.583 185.251 279.128 183.73 274.81 181.812C270.478 179.894 266.256 177.414 263.624 173.345C261.019 169.316 260.828 164.452 263.706 160.52C269.82 152.176 282.062 153.998 290.191 157.944C290.835 158.26 291.466 158.588 292.083 158.945C291.946 158.397 291.808 157.862 291.671 157.328C290.52 156.725 289.355 156.191 288.135 155.711C279.868 152.464 268.641 151.806 262.76 159.726C256.907 167.617 262.733 176.592 270.067 180.825Z" fill="white"/>
<path d="M223.294 89.1653C216.193 89.3023 210.409 84.8083 210.148 84.6028C209.805 84.3287 209.737 83.8218 210.011 83.4793C210.285 83.1367 210.792 83.0682 211.135 83.3423C211.231 83.4108 217.811 88.4939 225.104 87.4115C229.271 86.795 232.918 84.2739 235.933 79.9444C236.18 79.5881 236.687 79.4922 237.044 79.7388C237.4 79.9855 237.496 80.4924 237.249 80.8486C233.959 85.5619 229.957 88.3021 225.323 88.9872C224.638 89.0831 223.966 89.1379 223.294 89.1516V89.1653Z" fill="white"/>
<path d="M196.604 24.4277C196.604 24.4277 189.092 30.2918 190.449 35.9641C191.806 41.6364 198.03 47.6924 198.03 47.6924C198.03 47.6924 199.771 33.8953 196.604 24.4277Z" fill="#2B2B39"/>
<path d="M197.371 44.2109C197.371 44.2109 194.863 44.8275 194.877 48.1432C194.877 51.4589 197.344 56.6105 200.524 55.4459C203.705 54.2813 197.371 44.2109 197.371 44.2109Z" fill="white"/>
<path d="M211.286 80.3961C212.985 81.8073 214.946 82.9171 216.988 83.6433C219.154 84.4243 221.279 84.6298 223.363 84.342L224.405 84.1913L225.488 83.9036C226.625 83.5748 227.763 83.1226 228.887 82.5609C232.259 80.8482 234.713 78.3272 236.591 75.08C237.633 73.2715 238.648 71.1615 239.168 68.9967C238.702 68.1335 238.25 67.2429 237.811 66.325C235.837 62.2557 234.069 57.8165 232.301 53.3499L232.369 52.9663L231.958 52.1168L231.601 51.377L230.834 52.0209L229.696 52.9526L209.997 69.2433L210.395 72.6275L210.6 74.4087L210.957 77.464L211.299 80.3687L211.286 80.3961Z" fill="white"/>
<path d="M232.616 52.0887L232.493 52.1161C232.465 52.4038 232.41 52.6915 232.369 52.993C232.342 53.1163 232.328 53.2533 232.301 53.3766C232.191 53.9109 232.068 54.4316 231.903 54.9796C229.395 63.3374 220.306 72.5994 211.834 72.7227C211.341 72.7227 210.861 72.7227 210.395 72.6679C202.129 71.8732 198.839 63.0222 198.811 56.0072C198.811 55.7469 198.811 55.4866 198.811 55.2262C198.811 55.2262 198.729 54.7604 198.578 53.9383C198.455 53.2807 198.277 52.4038 198.071 51.3488C197.44 48.2112 196.426 43.6076 195.151 39.0862C192.917 31.1806 196.686 18.5618 212.753 13.5472C228.819 8.53255 236.564 19.8086 237.195 28.3445C237.359 30.4819 237.14 33.0029 236.729 35.565C238.305 35.4691 240.073 36.0994 241.335 38.73C243.651 43.5802 238.374 50.746 232.602 52.1024L232.616 52.0887Z" fill="white"/>
<path d="M200.977 46.6639C201.265 47.8011 201.977 48.5958 202.567 48.4451C203.156 48.2944 203.403 47.2531 203.115 46.1296C202.827 44.9924 202.115 44.1977 201.525 44.3484C200.936 44.4991 200.689 45.5404 200.977 46.6639Z" fill="#2B2B39"/>
<path d="M204.431 44.6357C204.431 44.6357 204.527 44.5535 204.569 44.4987C204.637 44.348 204.569 44.1562 204.418 44.0876C204.294 44.0328 201.224 42.6353 199.072 44.759C198.948 44.8823 198.948 45.0741 199.072 45.1974C199.195 45.3208 199.387 45.3208 199.51 45.1974C201.347 43.3752 204.13 44.6357 204.157 44.6357C204.253 44.6768 204.349 44.6768 204.431 44.6357Z" fill="#2B2B39"/>
<path d="M210.888 44.4588C211.176 45.596 211.889 46.3907 212.478 46.24C213.068 46.0893 213.314 45.048 213.026 43.9245C212.739 42.7873 212.026 41.9926 211.436 42.1433C210.847 42.2941 210.6 43.3353 210.888 44.4588Z" fill="#2B2B39"/>
<path d="M214.343 42.4306C214.343 42.4306 214.439 42.3484 214.48 42.2936C214.548 42.1429 214.48 41.9511 214.329 41.8826C214.206 41.8278 211.135 40.4302 208.983 42.5539C208.859 42.6772 208.859 42.8691 208.983 42.9924C209.106 43.1157 209.298 43.1157 209.421 42.9924C211.258 41.1701 214.041 42.4169 214.068 42.4306C214.164 42.4717 214.26 42.4717 214.343 42.4306Z" fill="#2B2B39"/>
<path d="M203.787 51.7615C203.609 51.7204 203.472 51.6245 203.39 51.5012C203.335 51.4875 203.294 51.4601 203.239 51.4464C202.622 52.2548 201.799 52.9261 200.799 53.3509C197.769 54.6114 194.287 53.1864 193.012 50.1722C191.751 47.1442 193.177 43.6641 196.193 42.3899C199.222 41.1294 202.704 42.5543 203.979 45.5686C204.404 46.5825 204.514 47.6512 204.377 48.6787C204.5 48.6102 204.637 48.5554 204.76 48.5006C204.993 48.391 205.268 48.2814 205.542 48.2129C205.597 47.199 205.432 46.144 205.007 45.1438C203.499 41.5541 199.346 39.8552 195.754 41.3623C192.162 42.8694 190.463 47.0209 191.971 50.6106C193.478 54.2003 197.632 55.8993 201.224 54.3922C202.526 53.8441 203.568 52.9535 204.308 51.8711C204.13 51.8437 203.952 51.8026 203.773 51.7752L203.787 51.7615Z" fill="#2B2B39"/>
<path d="M216.344 50.6109C212.753 52.118 208.599 50.4191 207.091 46.8294C205.583 43.2397 207.283 39.0882 210.875 37.5811C214.466 36.0739 218.62 37.7729 220.128 41.3626C221.636 44.9523 219.936 49.1038 216.344 50.6109ZM211.313 38.6086C208.284 39.8692 206.858 43.363 208.133 46.3909C209.394 49.4189 212.89 50.8438 215.919 49.5696C218.949 48.3091 220.375 44.8153 219.1 41.7873C217.838 38.7594 214.343 37.3344 211.313 38.6086Z" fill="#2B2B39"/>
<path d="M193.438 50.6778C193.273 50.7463 193.081 50.7326 192.917 50.6367C192.656 50.4723 192.574 50.1297 192.752 49.8694C192.793 49.8009 193.808 48.2527 196.275 47.3347C196.563 47.2251 196.892 47.3758 197.002 47.6635C197.112 47.9512 196.961 48.2801 196.673 48.3897C194.589 49.1569 193.712 50.4586 193.712 50.4723C193.643 50.5682 193.561 50.6367 193.465 50.6778H193.438Z" fill="#2B2B39"/>
<path d="M218.441 39.101C222.65 36.0868 226.077 35.5798 228.174 35.6483L228.27 36.7855C226.406 36.6896 223.13 37.1144 219.099 40.0053C218.853 40.1834 218.496 40.1286 218.318 39.882C218.14 39.6354 218.195 39.2792 218.441 39.101Z" fill="white"/>
<path d="M211.286 80.396C219.579 77.4092 223.527 70.3667 225.049 66.0098C221.238 69.8735 216.44 72.6411 211.834 72.7097C211.34 72.7097 210.861 72.7097 210.395 72.6548L211.286 80.396Z" fill="#D8E7FD"/>
<path d="M204.281 25.4544C209.997 20.9467 216.413 20.7549 219.552 21.8099C221.361 22.4264 224.597 25.7558 223.637 29.1537C222.677 32.5516 225.954 32.5653 226.982 34.004C228.01 35.4426 225.076 40.8409 225.076 40.8409L229.079 42.8001C229.079 42.8001 229.641 41.1834 230.587 39.0734C231.533 36.9634 236.756 35.5385 236.756 35.5385C236.756 35.5385 238.524 30.9486 238.319 25.2763C238.127 19.604 227.393 8.3005 211.025 11.2326C211.025 11.2326 206.515 3.18995 201.717 4.06683C196.919 4.9437 197.152 9.5199 197.152 9.5199C197.152 9.5199 191.217 5.73837 188.653 10.1091C186.09 14.4934 191.011 19.1381 191.011 19.1381C191.011 19.1381 183.554 18.4257 184.006 23.0019C184.458 27.5781 193.725 29.5374 193.725 29.5374C193.725 29.5374 197.646 30.6609 204.267 25.4407L204.281 25.4544Z" fill="#2B2B39"/>
<path d="M228.753 37.1196C228.753 37.1196 229.372 17.3467 219 11.0306C219 11.0306 227.025 10.1264 231.626 18.1512C236.226 26.1761 235.914 33.0574 235.794 36.9135C235.681 40.7697 228.753 37.113 228.753 37.113V37.1196Z" fill="#335EEA"/>
<path d="M230.751 17.8366C230.751 17.8366 235.824 12.3013 238.935 14.4113C241.814 16.3431 237.14 19.5218 237.14 19.5218C237.14 19.5218 241.663 18.4531 242.39 21.07C243.171 23.8788 236.934 25.5092 236.934 25.5092L230.751 17.8503V17.8366Z" fill="#2B2B39"/>
<path d="M228.202 51.9535C228.655 52.4331 229.162 52.7619 229.683 52.9811C230.629 53.3784 231.588 53.4195 232.301 53.3647C232.328 53.2414 232.342 53.1044 232.369 52.9811C232.424 52.6934 232.465 52.392 232.493 52.1042C232.534 52.1042 232.575 52.0905 232.616 52.0768C232.438 52.1042 232.205 52.1316 231.958 52.1316C231.616 52.1316 231.232 52.1316 230.834 52.0357C230.245 51.8987 229.628 51.6247 229.121 51.0903C228.888 50.8437 228.49 50.83 228.243 51.0629C227.997 51.2959 227.983 51.6932 228.216 51.9398L228.202 51.9535Z" fill="#2B2B39"/>
<path d="M213.232 53.9805C213.232 53.9805 214.11 59.4061 209.654 60.653C205.213 61.8998 203.76 57.5976 203.76 57.5976L213.219 53.9805H213.232Z" fill="white"/>
<path d="M210.998 62.4745C211.834 62.1046 212.177 61.3921 212.191 61.351C212.287 61.1455 212.191 60.8989 211.985 60.803C211.779 60.7071 211.533 60.803 211.437 61.0085C211.409 61.0496 210.971 61.9402 209.764 61.858C209.531 61.8443 209.339 62.0087 209.326 62.2416C209.312 62.4745 209.476 62.6664 209.709 62.6801C210.23 62.7212 210.655 62.6252 210.998 62.4745Z" fill="#2B2B39"/>
<path d="M233.233 47.7048C233.466 47.6089 233.631 47.376 233.617 47.1157C233.493 42.7313 238.127 39.7992 238.168 39.7718C238.456 39.5937 238.552 39.2101 238.374 38.9224C238.195 38.6346 237.812 38.5387 237.524 38.7168C237.304 38.8538 232.246 42.0462 232.383 47.1568C232.383 47.4993 232.671 47.7733 233.014 47.7596C233.082 47.7596 233.164 47.7459 233.219 47.7185L233.233 47.7048Z" fill="#2B2B39"/>
<path d="M237.976 44.1976C238.044 44.1702 238.113 44.1291 238.182 44.0743C238.428 43.8414 238.442 43.4441 238.195 43.1974C238.127 43.1289 236.578 41.5533 234.151 42.1973C233.822 42.2795 233.617 42.622 233.713 42.9508C233.795 43.2797 234.138 43.4852 234.467 43.3893C236.208 42.9371 237.291 44.0332 237.304 44.0469C237.482 44.2387 237.757 44.2798 237.976 44.1976Z" fill="#2B2B39"/>
<path d="M207.077 53.3082C207.214 53.2397 207.324 53.1164 207.379 52.9656C207.502 52.6505 207.324 52.2943 207.009 52.171L203.115 50.7597L205.693 49.0471C205.843 48.9512 205.939 48.7868 205.967 48.6087L206.926 40.7716C206.967 40.429 206.721 40.1276 206.392 40.0865C206.049 40.0454 205.747 40.292 205.706 40.6209L204.788 48.1702L201.416 50.4035C201.224 50.5268 201.114 50.7598 201.141 50.9927C201.169 51.2256 201.32 51.4174 201.539 51.4996L206.584 53.3356C206.748 53.3904 206.926 53.3767 207.077 53.3082Z" fill="#2B2B39"/>
<path d="M217.262 36.1143C217.468 35.9362 217.619 35.7032 217.729 35.4429C218.058 34.566 217.605 33.5796 216.728 33.2507C216.522 33.1685 211.546 31.3874 208.27 35.1963C207.653 35.9088 207.735 36.9775 208.448 37.594C209.161 38.2106 210.23 38.1284 210.847 37.4159C212.602 35.3744 215.522 36.4294 215.549 36.4294C216.166 36.6623 216.824 36.5116 217.276 36.1006L217.262 36.1143Z" fill="#2B2B39"/>
<path d="M197.139 40.0727C197.632 39.9905 198.085 39.7028 198.345 39.2369C199.058 37.9901 201.443 38.0312 202.046 38.1134C202.979 38.2367 203.842 37.5928 203.966 36.6611C204.089 35.7294 203.445 34.8662 202.513 34.7429C200.621 34.4826 196.988 34.784 195.398 37.538C194.932 38.3463 195.206 39.3876 196.028 39.8672C196.385 40.0727 196.769 40.1275 197.139 40.0727Z" fill="#2B2B39"/>
<path d="M231.251 34C239.395 34 242.44 40.2563 242.44 44.9436C242.44 49.1521 241.091 55.8872 231.251 55.8872C226.331 55.8872 223 50.9871 223 44.9436C223 38.9 226.331 34 231.251 34Z" fill="#335EEA"/>
<path d="M235.812 51.5588C238.786 51.5588 241.197 48.597 241.197 44.9435C241.197 41.2899 238.786 38.3281 235.812 38.3281C232.838 38.3281 230.427 41.2899 230.427 44.9435C230.427 48.597 232.838 51.5588 235.812 51.5588Z" fill="#5E80ED"/>
<path d="M257.565 101.839L258.867 103.223L260.251 104.73C261.184 105.731 262.116 106.758 263.034 107.786C264.871 109.841 266.722 111.91 268.504 114.006C272.109 118.185 275.577 122.46 278.881 126.776C282.144 131.105 285.255 135.462 287.929 139.874C289.258 142.08 290.506 144.258 291.575 146.409C292.644 148.561 293.563 150.684 294.193 152.643C294.276 152.89 294.344 153.123 294.426 153.37L294.481 153.548V153.589V153.52L294.454 153.383L294.413 153.137V152.918C294.358 152.383 294.413 152.205 294.454 152.191C294.522 152.191 294.481 152.863 294.276 153.657C294.07 154.466 293.741 155.439 293.33 156.466C292.918 157.494 292.439 158.59 291.89 159.7C290.835 161.933 289.574 164.248 288.23 166.55C287.558 167.701 286.859 168.866 286.133 170.03C285.42 171.195 284.693 172.36 283.939 173.524C282.445 175.853 280.882 178.169 279.292 180.484C277.702 182.8 276.085 185.115 274.426 187.403C272.781 189.719 271.095 192.007 269.409 194.295L266.859 197.707L265.584 199.406L264.337 201.064L264.199 201.242C261.28 205.092 262.034 210.572 265.886 213.491C269.326 216.094 274.069 215.765 277.113 212.929L278.799 211.367L280.444 209.832C281.527 208.791 282.596 207.75 283.665 206.708C285.79 204.612 287.874 202.475 289.957 200.324C292.014 198.145 294.056 195.953 296.071 193.706C298.086 191.459 300.047 189.157 302.007 186.801C302.98 185.622 303.954 184.43 304.9 183.211C305.845 181.991 306.791 180.758 307.723 179.484C309.588 176.949 311.411 174.319 313.166 171.469C314.043 170.044 314.893 168.537 315.715 166.948C316.538 165.344 317.333 163.646 318.06 161.686C318.772 159.727 319.472 157.562 319.842 154.671C320.006 153.205 320.102 151.561 319.869 149.588C319.842 149.355 319.801 149.081 319.773 148.835C319.732 148.588 319.691 148.328 319.636 148.054L319.554 147.656L319.485 147.369L319.403 147.026C319.293 146.56 319.184 146.094 319.06 145.642C318.128 141.998 316.908 138.696 315.592 135.544C314.262 132.407 312.823 129.434 311.26 126.584C308.148 120.884 304.776 115.582 301.185 110.512C297.607 105.443 293.837 100.606 289.93 95.9068C287.956 93.5776 285.982 91.2621 283.926 89.0014C282.898 87.8642 281.87 86.7407 280.814 85.6172L279.21 83.9457L277.497 82.1919C272.082 76.6703 263.212 76.5744 257.688 81.9864C252.232 87.3299 252.068 96.0301 257.277 101.565L257.551 101.853L257.565 101.839Z" fill="white"/>
<path d="M250.177 99.674C251.671 106.716 264.296 115.746 271.041 123.953C271.329 124.309 273.357 126.446 273.645 126.789C276.922 130.735 277.826 132.406 277.826 132.406C288.957 125.473 294.441 121.199 299.225 113.499C299.458 113.115 299.691 112.731 299.91 112.348C301.432 109.662 302.488 106.908 303.022 104.1C295.387 92.9742 286.517 85.3974 279.636 80.6294C279.238 80.3553 278.841 80.0813 278.443 79.821C272.384 75.7654 268.121 74.0254 268.121 74.0254C264.255 75.2448 260.883 77.0397 258.141 79.273C257.785 79.5607 257.456 79.8484 257.127 80.1361C251.355 85.3015 248.655 92.4261 250.19 99.674H250.177Z" fill="#BECCF9"/>
<path d="M283.076 99.0157C287.257 105.031 293.179 109.442 299.211 113.498C299.444 113.114 299.677 112.731 299.896 112.347C294.344 108.62 288.888 104.592 284.858 99.2075C280.938 93.96 278.511 87.1367 279.608 80.6287C279.21 80.3547 278.813 80.0806 278.415 79.8203C277.099 86.4654 279.197 93.453 283.062 99.0157H283.076Z" fill="white"/>
<path d="M270.519 122.953C270.89 123.254 271.232 123.597 271.561 123.953C273.522 117.883 272.26 110.676 270.574 104.538C268.093 95.468 264.57 86.2882 258.127 79.2732C257.839 78.958 257.551 78.6429 257.25 78.3415C256.647 77.7249 255.728 78.6977 256.331 79.3143C256.592 79.5883 256.866 79.8623 257.113 80.1363C263.062 86.5759 266.421 94.961 268.833 103.291C270.561 109.293 272.288 116.746 270.519 122.953Z" fill="white"/>
<path d="M256.263 105.21C263.062 114.609 270.122 123.788 277.456 132.776C277.881 133.283 278.594 132.557 278.183 132.05C270.903 123.145 263.885 114.02 257.154 104.703C256.77 104.168 255.879 104.689 256.263 105.223V105.21Z" fill="white"/>
<path d="M258.196 113.471C260.334 114.389 262.459 115.293 264.597 116.211C265.201 116.471 265.722 115.581 265.118 115.321C262.98 114.403 260.855 113.498 258.717 112.58C258.113 112.32 257.593 113.211 258.196 113.471Z" fill="white"/>
<path d="M204.459 154.889C202.348 141.859 198.002 129.295 191.642 117.731C191.326 117.156 190.435 117.663 190.751 118.252C197.07 129.747 201.361 142.229 203.472 155.177C203.582 155.834 204.569 155.547 204.459 154.903V154.889Z" fill="white"/>
<path d="M281 166.002H129.76C128.239 166.002 127 166.509 127 167.132V169.872C127 170.495 128.239 171.002 129.76 171.002H281V166.002Z" fill="#CFE0FC"/>
<path d="M208.958 169.398V170.555C208.958 170.808 208.758 171.007 208.506 171.007H192.356C191.851 171.007 191.445 170.602 191.445 170.096V166.732C191.445 166.187 191.917 165.768 192.456 165.828L208.552 168.953C208.778 168.979 208.951 169.172 208.951 169.405L208.958 169.398Z" fill="white"/>
<path d="M196.492 60.6133H76.6643C74.9623 60.6133 73.7789 62.302 74.3506 63.9043L100.559 136.68C101.384 138.96 103.545 140.483 105.971 140.483H225.799C227.501 140.483 228.684 138.794 228.113 137.192L201.904 64.4163C201.079 62.1358 198.919 60.6133 196.492 60.6133Z" fill="white"/>
<path d="M169.439 140.476L164.12 120.75L143.961 140.476H169.439Z" fill="#CFE0FC"/>
<path d="M140.265 86.1711C140.79 89.4223 142.897 90.7387 145.417 90.7387C147.937 90.7387 149.832 88.6577 149.393 86.1711C148.954 83.6912 146.76 81.6035 144.24 81.6035C141.721 81.6035 139.859 83.6779 140.265 86.1711Z" fill="#ECF3FE"/>
<path d="M196.578 128.363L195.036 124.088H196.977L198.519 128.363H196.578Z" fill="white"/>
<path d="M192.503 128.363L190.96 124.088H192.895L194.438 128.363H192.503Z" fill="white"/>
<path d="M188.42 128.363L186.884 124.088H188.819L190.361 128.363H188.42Z" fill="white"/>
<path d="M184.345 128.363L182.802 124.088H184.737L186.279 128.363H184.345Z" fill="white"/>
<path d="M126.409 128.363L124.873 124.088H126.808L128.35 128.363H126.409Z" fill="white"/>
<path d="M122.333 128.363L120.791 124.088H122.725L124.268 128.363H122.333Z" fill="#ECF3FE"/>
<path d="M118.251 128.363L116.715 124.088H118.65L120.192 128.363H118.251Z" fill="#ECF3FE"/>
<path d="M114.175 128.363L112.633 124.088H114.574L116.11 128.363H114.175Z" fill="#ECF3FE"/>
<path d="M128.976 163.972C130.159 160.574 144.5 114.307 144.5 114.307H162.903L164.12 120.749C164.12 120.749 151.78 160.574 150.597 163.972C150.504 164.231 150.424 164.49 150.337 164.749C149.254 168.074 152.106 168.06 155.324 168.06H187.782V171.006H133.703C127.2 171.006 127.792 167.376 128.976 163.972Z" fill="#CFE0FC"/>
<path d="M162.903 114.307C162.903 114.307 148.562 160.574 147.379 163.972C146.195 167.369 145.603 171.006 152.106 171.006H130.484C123.982 171.006 124.574 167.376 125.757 163.972C126.941 160.568 141.282 114.307 141.282 114.307H162.903Z" fill="white"/>
<path d="M158.395 114.307C156.972 114.241 155.543 114.207 154.12 114.161C152.697 114.114 151.268 114.101 149.845 114.068C148.422 114.048 146.993 114.001 145.57 114.001L141.295 113.975H141.056L140.983 114.207C140.384 116.069 139.799 117.937 139.241 119.812L137.532 125.43C136.435 129.187 135.338 132.943 134.334 136.726C135.65 133.036 136.874 129.32 138.097 125.603L139.872 120.012C140.471 118.15 141.042 116.282 141.608 114.407L141.295 114.639L145.57 114.613C146.993 114.613 148.422 114.573 149.845 114.546C151.268 114.513 152.697 114.506 154.12 114.453C155.543 114.407 156.972 114.374 158.395 114.307Z" fill="#CFE0FC"/>
</g>
<circle cx="400" cy="36" r="26" fill="#ECF3FE"/>
</svg>
