<svg width="252" height="106" viewBox="0 0 252 106" fill="none" xmlns="http://www.w3.org/2000/svg">
<mask id="mask0_781_24158" style="mask-type:alpha" maskUnits="userSpaceOnUse" x="0" y="0" width="252" height="106">
<rect x="0.5" y="0.5" width="251" height="105" rx="3.5" fill="white" stroke="#E4E4E4"/>
</mask>
<g mask="url(#mask0_781_24158)">
<path d="M65.3192 63.0687C65.8387 55.429 68.0189 23.3883 92.1625 7.97744C119.793 -9.65893 161.655 3.76116 182.601 30.4818C195.364 46.7627 205.068 73.9837 194.492 97.0954C176.507 136.395 108.693 144.556 80.452 115.999C62.9234 98.2739 64.8055 70.6138 65.3192 63.0687Z" fill="#ECF3FE"/>
<path d="M83.0191 67.3194C83.0501 66.9173 83.1802 65.231 84.6216 64.4199C86.2712 63.4916 88.7704 64.198 90.021 65.6043C90.7829 66.4612 91.3623 67.8939 90.7309 69.1103C89.6571 71.1787 85.6085 71.6082 83.9225 70.1052C82.876 69.1723 82.9884 67.7165 83.0191 67.3194Z" fill="white"/>
<path d="M229.029 39.2162C229.075 38.5844 229.27 35.9344 231.432 34.6598C233.907 33.2011 237.656 34.3111 239.531 36.5211C240.674 37.8676 241.543 40.1189 240.596 42.0304C238.986 45.2808 232.913 45.9558 230.384 43.5939C228.814 42.1279 228.983 39.8402 229.029 39.2162Z" fill="#ECF3FE"/>
<path d="M216.907 17.0978V99.8989C216.907 102.989 214.392 105.497 211.301 105.497H95.1057C92.0116 105.497 89.5 102.986 89.5 99.8989V17.0978C89.5 14.0144 92.0151 11.5 95.1057 11.5H211.301C214.395 11.5 216.907 14.0143 216.907 17.0978Z" fill="white" stroke="#EDEDED"/>
<path d="M97 94C97 90.6863 99.6863 88 103 88H203C206.314 88 209 90.6863 209 94V95.125C209 98.4387 206.314 101.125 203 101.125H103C99.6863 101.125 97 98.4387 97 95.125V94Z" fill="#BECCF9"/>
<path d="M204.958 95.2369H102.381C102.017 95.2369 101.714 94.8709 101.705 94.4202C101.696 93.9695 101.984 93.6035 102.348 93.6035H204.867C205.231 93.6035 205.546 93.9695 205.573 94.4202C205.597 94.8709 205.325 95.2369 204.961 95.2369H204.958Z" fill="#335EEA"/>
<path d="M122.097 93.2734V95.5662H102.381C101.839 95.5662 101.387 95.055 101.375 94.4259C101.369 94.0901 101.49 93.7695 101.706 93.5487C101.881 93.3702 102.112 93.2734 102.348 93.2734H122.097Z" fill="white"/>
<path d="M122.097 96.4644C123.228 96.4644 124.145 95.549 124.145 94.4197C124.145 93.2904 123.228 92.375 122.097 92.375C120.965 92.375 120.048 93.2904 120.048 94.4197C120.048 95.549 120.965 96.4644 122.097 96.4644Z" fill="white"/>
<path fill-rule="evenodd" clip-rule="evenodd" d="M160.101 52.899L151.048 60.7299L146.36 55.0085L160.101 52.899Z" fill="#335EEA"/>
<path fill-rule="evenodd" clip-rule="evenodd" d="M159.996 52.8078L150.918 60.6093L155.605 66.3307L159.996 52.8078Z" fill="#BECCF9"/>
<circle cx="153" cy="58" r="16.5" stroke="#435CF7"/>
</g>
</svg>
