<svg width="208" height="242" viewBox="0 0 208 242" fill="none" xmlns="http://www.w3.org/2000/svg">
<rect width="208" height="242" fill="white"/>
<rect x="5" y="6" width="198" height="47" fill="#F5F5F5"/>
<rect x="5" y="189" width="198" height="47" fill="#F5F5F5"/>
<rect x="5" y="61" width="198" height="120" fill="#DDDCDC"/>
<path d="M53.9773 132.545V125.182L68.0227 103.091H74.7045V112.909H70.8864L63.3182 124.909V125.182H84.0455V132.545H53.9773ZM70.9545 138V130.295L71.1591 127.091V103.091H80.0227V138H70.9545ZM103.226 138.955C100.055 138.943 97.3168 138.21 95.0099 136.756C92.7031 135.301 90.9247 133.205 89.6747 130.466C88.4247 127.727 87.8054 124.443 87.8168 120.614C87.8281 116.773 88.4531 113.511 89.6918 110.83C90.9418 108.148 92.7145 106.108 95.0099 104.71C97.3168 103.312 100.055 102.614 103.226 102.614C106.396 102.614 109.135 103.318 111.442 104.727C113.749 106.125 115.527 108.165 116.777 110.847C118.027 113.528 118.646 116.784 118.635 120.614C118.635 124.466 118.01 127.761 116.76 130.5C115.51 133.239 113.732 135.335 111.425 136.79C109.129 138.233 106.396 138.955 103.226 138.955ZM103.226 131.25C104.862 131.25 106.203 130.398 107.249 128.693C108.305 126.977 108.828 124.284 108.817 120.614C108.817 118.216 108.578 116.256 108.101 114.733C107.624 113.21 106.964 112.085 106.124 111.358C105.283 110.619 104.317 110.25 103.226 110.25C101.589 110.25 100.254 111.08 99.2202 112.739C98.1861 114.398 97.6577 117.023 97.6349 120.614C97.6236 123.057 97.8565 125.068 98.3338 126.648C98.8111 128.216 99.4702 129.375 100.311 130.125C101.163 130.875 102.135 131.25 103.226 131.25ZM122.743 132.545V125.182L136.788 103.091H143.47V112.909H139.652L132.084 124.909V125.182H152.811V132.545H122.743ZM139.72 138V130.295L139.925 127.091V103.091H148.788V138H139.72Z" fill="white"/>
</svg>
