<svg width="150" height="174" viewBox="0 0 150 174" fill="none" xmlns="http://www.w3.org/2000/svg">
<rect width="150" height="174" fill="white"/>
<rect x="10" y="43" width="129" height="90" fill="#AAAEB1"/>
<rect x="10" y="12" width="129" height="25" fill="#AAAEB1" fill-opacity="0.2"/>
<rect x="10" y="139" width="129" height="25" fill="#AAAEB1" fill-opacity="0.2"/>
<path fill-rule="evenodd" clip-rule="evenodd" d="M102.341 7H140.279C140.849 7 141.414 7.11234 141.941 7.33061C142.468 7.54888 142.946 7.86879 143.349 8.27208C143.753 8.67537 144.072 9.15413 144.29 9.68101C144.508 10.2079 144.62 10.7726 144.62 11.3428V25.8169C144.62 26.3869 144.508 26.9512 144.29 27.4778C144.072 28.0044 143.752 28.4828 143.349 28.8857C142.946 29.2887 142.467 29.6083 141.94 29.8262C141.414 30.0442 140.849 30.1562 140.279 30.156H126.673L128.535 34.7336L120.316 30.156H102.335C101.185 30.1545 100.083 29.6968 99.2701 28.8833C98.4573 28.0697 98.0005 26.9669 98 25.8169V11.3428C98 10.1913 98.4573 9.087 99.2713 8.27262C100.085 7.45824 101.189 7.00049 102.341 7Z" fill="#7F54B3"/>
<path d="M100.347 10.9318C100.49 10.7523 100.672 10.6066 100.878 10.5048C101.084 10.4031 101.31 10.3478 101.539 10.3428C102.507 10.2756 103.062 10.7318 103.205 11.7115C103.802 15.6855 104.441 19.059 105.123 21.8318L109.298 13.8912C109.676 13.1744 110.154 12.7952 110.731 12.7537C111.568 12.6949 112.091 13.2276 112.3 14.3517C112.693 16.5745 113.297 18.7548 114.104 20.8631C114.605 16.0268 115.442 12.5304 116.615 10.374C116.728 10.1322 116.905 9.92576 117.127 9.77704C117.349 9.62833 117.607 9.54293 117.874 9.53005C118.308 9.49435 118.739 9.62927 119.076 9.90617C119.247 10.0358 119.388 10.2016 119.489 10.3919C119.589 10.5821 119.647 10.7921 119.657 11.007C119.688 11.3242 119.624 11.6434 119.474 11.9244C118.73 13.3041 118.118 15.5981 117.639 18.8064C117.166 21.9034 116.991 24.3258 117.114 26.0737C117.158 26.5021 117.081 26.9342 116.892 27.3213C116.801 27.5167 116.658 27.6838 116.48 27.8049C116.301 27.926 116.093 27.9967 115.878 28.0093C115.375 28.046 114.874 27.8094 114.37 27.303C112.598 25.4866 111.192 22.7841 110.15 19.1954C108.927 21.6416 108.009 23.4715 107.398 24.6848C106.278 26.8376 105.319 27.9415 104.521 27.9965C104.002 28.0332 103.561 27.5978 103.196 26.6902C102.218 24.1986 101.168 19.3782 100.048 12.2289C100.003 12.0038 100.007 11.7719 100.059 11.5484C100.11 11.3249 100.208 11.1147 100.347 10.9318Z" fill="white"/>
<path d="M141.299 13.9265C140.984 13.3583 140.548 12.8665 140.022 12.486C139.496 12.1055 138.892 11.8456 138.254 11.7248C137.913 11.6529 137.567 11.616 137.219 11.6147C135.394 11.6147 133.903 12.5645 132.746 14.4641C131.76 16.0794 131.247 17.9386 131.265 19.8306C131.265 21.2984 131.571 22.5564 132.182 23.6046C132.497 24.1734 132.933 24.6657 133.46 25.0463C133.987 25.4269 134.591 25.6864 135.23 25.8063C135.569 25.8798 135.916 25.9173 136.263 25.9182C138.106 25.9182 139.597 24.9684 140.734 23.0689C141.719 21.442 142.233 19.5731 142.217 17.6712C142.217 16.2034 141.911 14.9552 141.299 13.9265ZM138.896 19.2123C138.635 20.4599 138.152 21.3999 137.446 22.0323C136.887 22.535 136.375 22.7399 135.909 22.6469C135.443 22.554 135.069 22.143 134.788 21.414C134.572 20.861 134.458 20.2736 134.452 19.6802C134.45 19.2106 134.497 18.7421 134.591 18.2821C134.773 17.4682 135.115 16.6986 135.597 16.0181C136.23 15.0873 136.892 14.6965 137.582 14.8457C138.048 14.9399 138.421 15.3496 138.701 16.0749C138.916 16.6274 139.029 17.2142 139.035 17.8069C139.038 18.279 138.991 18.75 138.896 19.2123Z" fill="white"/>
<path d="M129.359 13.9265C129.044 13.3583 128.608 12.8665 128.081 12.486C127.555 12.1055 126.951 11.8456 126.313 11.7248C125.973 11.6529 125.626 11.616 125.278 11.6147C123.452 11.6147 121.962 12.5645 120.807 14.4641C119.82 16.0789 119.307 17.9383 119.325 19.8306C119.325 21.2984 119.63 22.5564 120.242 23.6046C120.556 24.1738 120.992 24.6664 121.519 25.0471C122.046 25.4277 122.651 25.687 123.289 25.8063C123.629 25.8798 123.975 25.9173 124.322 25.9182C126.167 25.9182 127.658 24.9684 128.795 23.0689C129.784 21.4429 130.302 19.5742 130.291 17.6712C130.291 16.2034 129.985 14.9552 129.373 13.9265H129.359ZM126.955 19.2123C126.695 20.4624 126.21 21.4036 125.502 22.036C124.942 22.5387 124.429 22.7435 123.965 22.6506C123.5 22.5576 123.127 22.1454 122.847 21.414C122.632 20.861 122.518 20.2736 122.512 19.6802C122.51 19.2106 122.557 18.7421 122.651 18.2821C122.834 17.4687 123.176 16.6994 123.656 16.0181C124.288 15.0897 124.949 14.7001 125.642 14.8494C126.108 14.9435 126.48 15.3533 126.759 16.0786C126.974 16.631 127.088 17.2178 127.095 17.8106C127.097 18.2802 127.05 18.7487 126.955 19.2086V19.2123Z" fill="white"/>
<path d="M64.5835 107.833C63.4377 107.833 62.4564 107.425 61.6397 106.608C60.8231 105.792 60.4154 104.811 60.4168 103.667C60.4168 102.521 60.8252 101.539 61.6418 100.723C62.4585 99.9061 63.4391 99.4985 64.5835 99.4998C65.7293 99.4998 66.7106 99.9082 67.5272 100.725C68.3439 101.542 68.7516 102.522 68.7502 103.667C68.7502 104.812 68.3418 105.794 67.5252 106.61C66.7085 107.427 65.7279 107.835 64.5835 107.833ZM85.4168 107.833C84.271 107.833 83.2897 107.425 82.4731 106.608C81.6564 105.792 81.2488 104.811 81.2502 103.667C81.2502 102.521 81.6585 101.539 82.4752 100.723C83.2918 99.9061 84.2724 99.4985 85.4168 99.4998C86.5627 99.4998 87.5439 99.9082 88.3606 100.725C89.1772 101.542 89.5849 102.522 89.5835 103.667C89.5835 104.812 89.1752 105.794 88.3585 106.61C87.5418 107.427 86.5613 107.835 85.4168 107.833ZM62.8127 74.4998L67.8127 84.9165H82.396L88.1252 74.4998H62.8127ZM64.5835 97.4165C63.021 97.4165 61.8404 96.7304 61.0418 95.3582C60.2432 93.986 60.2085 92.6235 60.9377 91.2707L63.7502 86.1665L56.2502 70.3332H54.1147C53.5245 70.3332 53.0384 70.1332 52.6564 69.7332C52.2745 69.3332 52.0835 68.8387 52.0835 68.2498C52.0835 67.6596 52.2835 67.1644 52.6835 66.7644C53.0835 66.3644 53.5779 66.1651 54.1668 66.1665H57.5522C57.9342 66.1665 58.2988 66.2707 58.646 66.479C58.9932 66.6873 59.2536 66.9825 59.4272 67.3644L60.8335 70.3332H91.5627C92.5002 70.3332 93.1425 70.6804 93.4897 71.3748C93.837 72.0693 93.8196 72.7985 93.4377 73.5623L86.0418 86.8957C85.6599 87.5901 85.1564 88.1283 84.5314 88.5103C83.9064 88.8922 83.1946 89.0832 82.396 89.0832H66.8752L64.5835 93.2498H87.5522C88.1425 93.2498 88.6286 93.4498 89.0106 93.8498C89.3925 94.2498 89.5835 94.7443 89.5835 95.3332C89.5835 95.9235 89.3835 96.4186 88.9835 96.8186C88.5835 97.2186 88.0891 97.4179 87.5002 97.4165H64.5835Z" fill="white"/>
</svg>