<svg width="150" height="174" viewBox="0 0 150 174" fill="none" xmlns="http://www.w3.org/2000/svg">
<rect width="150" height="174" fill="white"/>
<rect x="10" y="43" width="129" height="90" fill="#AAAEB1"/>
<rect x="10" y="12" width="129" height="25" fill="#AAAEB1" fill-opacity="0.2"/>
<rect x="10" y="139" width="129" height="25" fill="#AAAEB1" fill-opacity="0.2"/>
<path fill-rule="evenodd" clip-rule="evenodd" d="M102.341 7H140.279C140.849 7 141.414 7.11234 141.941 7.33061C142.468 7.54888 142.946 7.86879 143.349 8.27208C143.753 8.67537 144.072 9.15413 144.29 9.68101C144.508 10.2079 144.62 10.7726 144.62 11.3428V25.8169C144.62 26.3869 144.508 26.9512 144.29 27.4778C144.072 28.0044 143.752 28.4828 143.349 28.8857C142.946 29.2887 142.467 29.6083 141.94 29.8262C141.414 30.0442 140.849 30.1562 140.279 30.156H126.673L128.535 34.7336L120.316 30.156H102.335C101.185 30.1545 100.083 29.6968 99.2701 28.8833C98.4573 28.0697 98.0005 26.9669 98 25.8169V11.3428C98 10.1913 98.4573 9.087 99.2713 8.27262C100.085 7.45824 101.189 7.00049 102.341 7Z" fill="#7F54B3"/>
<path d="M100.347 10.9318C100.49 10.7523 100.672 10.6066 100.878 10.5048C101.084 10.4031 101.31 10.3478 101.539 10.3428C102.507 10.2756 103.062 10.7318 103.205 11.7115C103.802 15.6855 104.441 19.059 105.123 21.8318L109.298 13.8912C109.676 13.1744 110.154 12.7952 110.731 12.7537C111.568 12.6949 112.091 13.2276 112.3 14.3517C112.693 16.5745 113.297 18.7548 114.104 20.8631C114.605 16.0268 115.442 12.5304 116.615 10.374C116.728 10.1322 116.905 9.92576 117.127 9.77704C117.349 9.62833 117.607 9.54293 117.874 9.53005C118.308 9.49435 118.739 9.62927 119.076 9.90617C119.247 10.0358 119.388 10.2016 119.489 10.3919C119.589 10.5821 119.647 10.7921 119.657 11.007C119.688 11.3242 119.624 11.6434 119.474 11.9244C118.73 13.3041 118.118 15.5981 117.639 18.8064C117.166 21.9034 116.991 24.3258 117.114 26.0737C117.158 26.5021 117.081 26.9342 116.892 27.3213C116.801 27.5167 116.658 27.6838 116.48 27.8049C116.301 27.926 116.093 27.9967 115.878 28.0093C115.375 28.046 114.874 27.8094 114.37 27.303C112.598 25.4866 111.192 22.7841 110.15 19.1954C108.927 21.6416 108.009 23.4715 107.398 24.6848C106.278 26.8376 105.319 27.9415 104.521 27.9965C104.002 28.0332 103.561 27.5978 103.196 26.6902C102.218 24.1986 101.168 19.3782 100.048 12.2289C100.003 12.0038 100.007 11.7719 100.059 11.5484C100.11 11.3249 100.208 11.1147 100.347 10.9318Z" fill="white"/>
<path d="M141.299 13.9265C140.984 13.3583 140.548 12.8665 140.022 12.486C139.496 12.1055 138.892 11.8456 138.254 11.7248C137.913 11.6529 137.567 11.616 137.219 11.6147C135.394 11.6147 133.903 12.5645 132.746 14.4641C131.76 16.0794 131.247 17.9386 131.265 19.8306C131.265 21.2984 131.571 22.5564 132.182 23.6046C132.497 24.1734 132.933 24.6657 133.46 25.0463C133.987 25.4269 134.591 25.6864 135.23 25.8063C135.569 25.8798 135.916 25.9173 136.263 25.9182C138.106 25.9182 139.597 24.9684 140.734 23.0689C141.719 21.442 142.233 19.5731 142.217 17.6712C142.217 16.2034 141.911 14.9552 141.299 13.9265ZM138.896 19.2123C138.635 20.4599 138.152 21.3999 137.446 22.0323C136.887 22.535 136.375 22.7399 135.909 22.6469C135.443 22.554 135.069 22.143 134.788 21.414C134.572 20.861 134.458 20.2736 134.452 19.6802C134.45 19.2106 134.497 18.7421 134.591 18.2821C134.773 17.4682 135.115 16.6986 135.597 16.0181C136.23 15.0873 136.892 14.6965 137.582 14.8457C138.048 14.9399 138.421 15.3496 138.701 16.0749C138.916 16.6274 139.029 17.2142 139.035 17.8069C139.038 18.279 138.991 18.75 138.896 19.2123Z" fill="white"/>
<path d="M129.359 13.9265C129.044 13.3583 128.608 12.8665 128.081 12.486C127.555 12.1055 126.951 11.8456 126.313 11.7248C125.973 11.6529 125.626 11.616 125.278 11.6147C123.452 11.6147 121.962 12.5645 120.807 14.4641C119.82 16.0789 119.307 17.9383 119.325 19.8306C119.325 21.2984 119.63 22.5564 120.242 23.6046C120.556 24.1738 120.992 24.6664 121.519 25.0471C122.046 25.4277 122.651 25.687 123.289 25.8063C123.629 25.8798 123.975 25.9173 124.322 25.9182C126.167 25.9182 127.658 24.9684 128.795 23.0689C129.784 21.4429 130.302 19.5742 130.291 17.6712C130.291 16.2034 129.985 14.9552 129.373 13.9265H129.359ZM126.955 19.2123C126.695 20.4624 126.21 21.4036 125.502 22.036C124.942 22.5387 124.429 22.7435 123.965 22.6506C123.5 22.5576 123.127 22.1454 122.847 21.414C122.632 20.861 122.518 20.2736 122.512 19.6802C122.51 19.2106 122.557 18.7421 122.651 18.2821C122.834 17.4687 123.176 16.6994 123.656 16.0181C124.288 15.0897 124.949 14.7001 125.642 14.8494C126.108 14.9435 126.48 15.3533 126.759 16.0786C126.974 16.631 127.088 17.2178 127.095 17.8106C127.097 18.2802 127.05 18.7487 126.955 19.2086V19.2123Z" fill="white"/>
<g clip-path="url(#clip0_802_25)">
<path d="M79.1668 78.6668H59.7224C59.354 78.6668 59.0008 78.5205 58.7403 78.26C58.4798 77.9996 58.3335 77.6463 58.3335 77.2779V71.7224C58.3335 71.354 58.4798 71.0008 58.7403 70.7403C59.0008 70.4798 59.354 70.3335 59.7224 70.3335H79.1668C79.5352 70.3335 79.8885 70.4798 80.1489 70.7403C80.4094 71.0008 80.5557 71.354 80.5557 71.7224V77.2779C80.5557 77.6463 80.4094 77.9996 80.1489 78.26C79.8885 78.5205 79.5352 78.6668 79.1668 78.6668ZM61.1113 75.8891H77.7779V73.0279H61.1113V75.8891Z" fill="white"/>
<path d="M79.1668 81.5557H59.7224C59.354 81.5557 59.0008 81.702 58.7403 81.9625C58.4798 82.2229 58.3335 82.5762 58.3335 82.9446V88.389C58.3335 88.7574 58.4798 89.1106 58.7403 89.3711C59.0008 89.6316 59.354 89.7779 59.7224 89.7779H75.5002L80.5557 84.639V82.9446C80.5557 82.5762 80.4094 82.2229 80.1489 81.9625C79.8885 81.702 79.5352 81.5557 79.1668 81.5557ZM77.7779 87.0001H61.1113V84.2223H77.7779V87.0001Z" fill="white"/>
<path d="M65.3612 105.764V105.681L65.8056 103.75H55.5556V67.5556H83.3334V81.7917L86.1112 79.1667V66.1667C86.1112 65.7984 85.9648 65.4451 85.7044 65.1846C85.4439 64.9242 85.0906 64.7778 84.7223 64.7778H54.1667C53.7984 64.7778 53.4451 64.9242 53.1846 65.1846C52.9242 65.4451 52.7778 65.7984 52.7778 66.1667V105.056C52.7778 105.424 52.9242 105.777 53.1846 106.038C53.4451 106.298 53.7984 106.445 54.1667 106.445H65.2778C65.2893 106.216 65.3171 105.989 65.3612 105.764Z" fill="white"/>
<path d="M80.5555 88.625L79.4722 89.7222C79.7409 89.6668 79.9873 89.533 80.1801 89.3378C80.3729 89.1425 80.5035 88.8945 80.5555 88.625Z" fill="white"/>
<path d="M58.3335 99.4168C58.3335 99.7851 58.4798 100.138 58.7403 100.399C59.0008 100.659 59.354 100.806 59.7224 100.806H66.4446L66.8613 99.0001L67.0418 98.2362V98.1668H61.1113V95.3334H69.9168L72.6946 92.5557H59.7224C59.354 92.5557 59.0008 92.702 58.7403 92.9625C58.4798 93.2229 58.3335 93.5762 58.3335 93.9446V99.4168Z" fill="white"/>
<path d="M96.5137 85.1526L91.8331 80.4721C91.6254 80.2638 91.3786 80.0985 91.1069 79.9857C90.8352 79.873 90.5439 79.8149 90.2498 79.8149C89.9556 79.8149 89.6643 79.873 89.3926 79.9857C89.1209 80.0985 88.8742 80.2638 88.6664 80.4721L69.6248 99.6248L68.0553 106.305C67.9966 106.594 67.9952 106.891 68.0514 107.179C68.1076 107.468 68.2202 107.743 68.3828 107.988C68.5454 108.233 68.7547 108.444 68.9988 108.608C69.2429 108.772 69.517 108.886 69.8053 108.944C69.9485 108.959 70.0927 108.959 70.2359 108.944C70.4061 108.972 70.5796 108.972 70.7498 108.944L77.4859 107.458L96.5137 88.3887C96.7215 88.1822 96.8865 87.9366 96.9991 87.666C97.1116 87.3955 97.1696 87.1054 97.1696 86.8123C97.1696 86.5193 97.1116 86.2292 96.9991 85.9586C96.8865 85.6881 96.7215 85.4425 96.5137 85.2359V85.1526ZM76.0692 104.93L70.9859 106.055L72.222 101.014L86.4998 86.5832L90.4164 90.4998L76.0692 104.93ZM91.9859 88.9304L88.0692 85.0137L90.2775 82.8332L94.222 86.7776L91.9859 88.9304Z" fill="white"/>
</g>
<defs>
<clipPath id="clip0_802_25">
<rect width="50" height="50" fill="white" transform="translate(50 62)"/>
</clipPath>
</defs>
</svg>