<svg width="208" height="242" viewBox="0 0 208 242" fill="none" xmlns="http://www.w3.org/2000/svg">
<rect width="208" height="242" fill="white"/>
<rect x="5" y="6" width="198" height="47" fill="#F5F5F5"/>
<rect x="5" y="189" width="198" height="47" fill="#F5F5F5"/>
<rect x="5" y="61" width="60" height="46" fill="#DDDCDC"/>
<rect x="5" y="111" width="35" height="5" fill="#DDDCDC"/>
<rect x="45" y="111" width="20" height="5" fill="#DDDCDC"/>
<rect x="5" y="125" width="60" height="46" fill="#DDDCDC"/>
<rect x="5" y="175" width="35" height="5" fill="#DDDCDC"/>
<rect x="45" y="175" width="20" height="5" fill="#DDDCDC"/>
<rect x="74" y="61" width="60" height="46" fill="#DDDCDC"/>
<rect x="74" y="111" width="35" height="5" fill="#DDDCDC"/>
<rect x="114" y="111" width="20" height="5" fill="#DDDCDC"/>
<rect x="74" y="125" width="60" height="46" fill="#DDDCDC"/>
<rect x="74" y="175" width="35" height="5" fill="#DDDCDC"/>
<rect x="114" y="175" width="20" height="5" fill="#DDDCDC"/>
<rect x="143" y="61" width="60" height="46" fill="#DDDCDC"/>
<rect x="143" y="111" width="35" height="5" fill="#DDDCDC"/>
<rect x="183" y="111" width="20" height="5" fill="#DDDCDC"/>
<rect x="143" y="125" width="60" height="46" fill="#DDDCDC"/>
<rect x="143" y="175" width="35" height="5" fill="#DDDCDC"/>
<rect x="183" y="175" width="20" height="5" fill="#DDDCDC"/>
</svg>
